<svg id="svg" version="1.1" xmlns="http://www.w3.org/2000/svg" xmlns:xlink="http://www.w3.org/1999/xlink" width="400" height="400" viewBox="0, 0, 400,400"><g id="svgg"><path id="path0" d="M207.867 34.667 C 207.720 34.813,207.600 35.713,207.600 36.667 C 207.600 37.941,207.441 38.400,207.000 38.400 C 206.581 38.400,206.400 38.822,206.400 39.800 C 206.400 40.778,206.219 41.200,205.800 41.200 C 205.405 41.200,205.200 41.595,205.200 42.353 C 205.200 43.170,204.967 43.568,204.400 43.716 C 203.817 43.868,203.600 44.262,203.600 45.163 C 203.600 45.996,203.404 46.400,203.000 46.400 C 202.670 46.400,202.400 46.670,202.400 47.000 C 202.400 47.330,202.130 47.600,201.800 47.600 C 201.349 47.600,201.200 48.084,201.200 49.553 C 201.200 51.170,201.062 51.543,200.400 51.716 C 199.817 51.868,199.600 52.262,199.600 53.163 C 199.600 53.996,199.404 54.400,199.000 54.400 C 198.581 54.400,198.400 54.822,198.400 55.800 C 198.400 56.778,198.219 57.200,197.800 57.200 C 197.405 57.200,197.200 57.595,197.200 58.353 C 197.200 59.170,196.967 59.568,196.400 59.716 C 195.817 59.868,195.600 60.262,195.600 61.163 C 195.600 61.996,195.404 62.400,195.000 62.400 C 194.581 62.400,194.400 62.822,194.400 63.800 C 194.400 64.778,194.219 65.200,193.800 65.200 C 193.405 65.200,193.200 65.595,193.200 66.353 C 193.200 67.170,192.967 67.568,192.400 67.716 C 191.817 67.868,191.600 68.262,191.600 69.163 C 191.600 69.996,191.404 70.400,191.000 70.400 C 190.547 70.400,190.400 70.889,190.400 72.400 C 190.400 73.911,190.253 74.400,189.800 74.400 C 189.381 74.400,189.200 74.822,189.200 75.800 C 189.200 76.933,189.048 77.200,188.400 77.200 C 187.778 77.200,187.600 77.467,187.600 78.400 C 187.600 79.200,187.400 79.600,187.000 79.600 C 186.667 79.600,186.400 79.956,186.400 80.400 C 186.400 80.844,186.133 81.200,185.800 81.200 C 185.470 81.200,185.200 81.470,185.200 81.800 C 185.200 82.133,184.844 82.400,184.400 82.400 C 183.956 82.400,183.600 82.667,183.600 83.000 C 183.600 83.400,183.200 83.600,182.400 83.600 C 181.467 83.600,181.200 83.778,181.200 84.400 C 181.200 85.048,180.933 85.200,179.800 85.200 C 178.822 85.200,178.400 85.381,178.400 85.800 C 178.400 86.130,178.130 86.400,177.800 86.400 C 177.470 86.400,177.200 86.670,177.200 87.000 C 177.200 87.419,176.778 87.600,175.800 87.600 C 174.667 87.600,174.400 87.752,174.400 88.400 C 174.400 89.048,174.133 89.200,173.000 89.200 C 172.022 89.200,171.600 89.381,171.600 89.800 C 171.600 90.200,171.200 90.400,170.400 90.400 C 169.600 90.400,169.200 90.600,169.200 91.000 C 169.200 91.330,168.913 91.600,168.563 91.600 C 168.212 91.600,167.831 91.960,167.716 92.400 C 167.601 92.840,167.258 93.200,166.953 93.200 C 166.649 93.200,166.400 93.470,166.400 93.800 C 166.400 94.201,165.999 94.400,165.187 94.400 C 164.479 94.400,163.879 94.649,163.745 95.000 C 163.618 95.330,163.264 95.600,162.957 95.600 C 162.651 95.600,162.400 95.960,162.400 96.400 C 162.400 97.048,162.133 97.200,161.000 97.200 C 160.022 97.200,159.600 97.381,159.600 97.800 C 159.600 98.130,159.330 98.400,159.000 98.400 C 158.670 98.400,158.400 98.670,158.400 99.000 C 158.400 99.330,158.130 99.600,157.800 99.600 C 157.467 99.600,157.200 99.956,157.200 100.400 C 157.200 100.933,156.933 101.200,156.400 101.200 C 155.956 101.200,155.600 101.467,155.600 101.800 C 155.600 102.200,155.200 102.400,154.400 102.400 C 153.645 102.400,153.200 102.605,153.200 102.953 C 153.200 103.258,152.840 103.601,152.400 103.716 C 151.960 103.831,151.600 104.212,151.600 104.563 C 151.600 104.913,151.330 105.200,151.000 105.200 C 150.670 105.200,150.400 105.470,150.400 105.800 C 150.400 106.130,150.130 106.400,149.800 106.400 C 149.470 106.400,149.200 106.649,149.200 106.953 C 149.200 107.258,148.840 107.601,148.400 107.716 C 147.960 107.831,147.600 108.212,147.600 108.563 C 147.600 108.913,147.330 109.200,147.000 109.200 C 146.670 109.200,146.400 109.470,146.400 109.800 C 146.400 110.130,146.130 110.400,145.800 110.400 C 145.470 110.400,145.200 110.649,145.200 110.953 C 145.200 111.258,144.840 111.601,144.400 111.716 C 143.960 111.831,143.600 112.212,143.600 112.563 C 143.600 112.913,143.330 113.200,143.000 113.200 C 142.670 113.200,142.400 113.470,142.400 113.800 C 142.400 114.130,142.130 114.400,141.800 114.400 C 141.470 114.400,141.200 114.649,141.200 114.953 C 141.200 115.258,140.840 115.601,140.400 115.716 C 139.960 115.831,139.600 116.212,139.600 116.563 C 139.600 116.913,139.330 117.200,139.000 117.200 C 138.670 117.200,138.400 117.470,138.400 117.800 C 138.400 118.130,138.130 118.400,137.800 118.400 C 137.470 118.400,137.200 118.649,137.200 118.953 C 137.200 119.258,136.840 119.601,136.400 119.716 C 135.817 119.868,135.600 120.262,135.600 121.163 C 135.600 121.996,135.404 122.400,135.000 122.400 C 134.670 122.400,134.400 122.670,134.400 123.000 C 134.400 123.330,134.130 123.600,133.800 123.600 C 133.467 123.600,133.200 123.956,133.200 124.400 C 133.200 124.933,132.933 125.200,132.400 125.200 C 131.778 125.200,131.600 125.467,131.600 126.400 C 131.600 127.200,131.400 127.600,131.000 127.600 C 130.667 127.600,130.400 127.956,130.400 128.400 C 130.400 128.844,130.133 129.200,129.800 129.200 C 129.470 129.200,129.200 129.449,129.200 129.753 C 129.200 130.058,128.840 130.401,128.400 130.516 C 127.817 130.668,127.600 131.062,127.600 131.963 C 127.600 132.796,127.404 133.200,127.000 133.200 C 126.670 133.200,126.400 133.470,126.400 133.800 C 126.400 134.130,126.130 134.400,125.800 134.400 C 125.381 134.400,125.200 134.822,125.200 135.800 C 125.200 136.933,125.048 137.200,124.400 137.200 C 123.956 137.200,123.600 137.467,123.600 137.800 C 123.600 138.130,123.330 138.400,123.000 138.400 C 122.547 138.400,122.400 138.889,122.400 140.400 C 122.400 141.911,122.253 142.400,121.800 142.400 C 121.470 142.400,121.200 142.649,121.200 142.953 C 121.200 143.258,120.840 143.601,120.400 143.716 C 119.817 143.868,119.600 144.262,119.600 145.163 C 119.600 145.996,119.404 146.400,119.000 146.400 C 118.547 146.400,118.400 146.889,118.400 148.400 C 118.400 149.911,118.253 150.400,117.800 150.400 C 117.381 150.400,117.200 150.822,117.200 151.800 C 117.200 152.933,117.048 153.200,116.400 153.200 C 115.707 153.200,115.600 153.467,115.600 155.200 C 115.600 156.711,115.453 157.200,115.000 157.200 C 114.670 157.200,114.400 157.470,114.400 157.800 C 114.400 158.130,114.130 158.400,113.800 158.400 C 113.347 158.400,113.200 158.889,113.200 160.400 C 113.200 162.133,113.093 162.400,112.400 162.400 C 111.663 162.400,111.600 162.667,111.600 165.800 C 111.600 168.556,111.486 169.200,111.000 169.200 C 110.517 169.200,110.400 169.822,110.400 172.400 C 110.400 174.978,110.283 175.600,109.800 175.600 C 109.300 175.600,109.200 176.400,109.200 180.400 C 109.200 184.933,109.156 185.200,108.400 185.200 C 107.614 185.200,107.600 185.467,107.600 200.637 C 107.600 215.738,107.617 216.079,108.400 216.284 C 109.062 216.457,109.200 216.830,109.200 218.447 C 109.200 219.916,109.349 220.400,109.800 220.400 C 110.283 220.400,110.400 221.022,110.400 223.600 C 110.400 226.178,110.517 226.800,111.000 226.800 C 111.486 226.800,111.600 227.444,111.600 230.200 C 111.600 233.333,111.663 233.600,112.400 233.600 C 113.093 233.600,113.200 233.867,113.200 235.600 C 113.200 237.111,113.347 237.600,113.800 237.600 C 114.219 237.600,114.400 238.022,114.400 239.000 C 114.400 239.978,114.581 240.400,115.000 240.400 C 115.400 240.400,115.600 240.800,115.600 241.600 C 115.600 242.533,115.778 242.800,116.400 242.800 C 117.093 242.800,117.200 243.067,117.200 244.800 C 117.200 246.311,117.347 246.800,117.800 246.800 C 118.219 246.800,118.400 247.222,118.400 248.200 C 118.400 249.178,118.581 249.600,119.000 249.600 C 119.404 249.600,119.600 250.004,119.600 250.837 C 119.600 251.738,119.817 252.132,120.400 252.284 C 120.967 252.432,121.200 252.830,121.200 253.647 C 121.200 254.405,121.405 254.800,121.800 254.800 C 122.219 254.800,122.400 255.222,122.400 256.200 C 122.400 257.178,122.581 257.600,123.000 257.600 C 123.330 257.600,123.600 257.870,123.600 258.200 C 123.600 258.533,123.956 258.800,124.400 258.800 C 125.093 258.800,125.200 259.067,125.200 260.800 C 125.200 262.311,125.347 262.800,125.800 262.800 C 126.130 262.800,126.400 263.076,126.400 263.413 C 126.400 263.749,126.670 264.129,127.000 264.255 C 127.330 264.382,127.600 264.736,127.600 265.043 C 127.600 265.349,127.960 265.600,128.400 265.600 C 129.048 265.600,129.200 265.867,129.200 267.000 C 129.200 267.978,129.381 268.400,129.800 268.400 C 130.200 268.400,130.400 268.800,130.400 269.600 C 130.400 270.355,130.605 270.800,130.953 270.800 C 131.258 270.800,131.601 271.160,131.716 271.600 C 131.831 272.040,132.212 272.400,132.563 272.400 C 132.913 272.400,133.200 272.670,133.200 273.000 C 133.200 273.330,133.470 273.600,133.800 273.600 C 134.186 273.600,134.402 273.992,134.407 274.700 C 134.414 275.791,135.879 277.600,136.756 277.600 C 137.000 277.600,137.200 277.870,137.200 278.200 C 137.200 278.530,137.470 278.800,137.800 278.800 C 138.219 278.800,138.400 279.222,138.400 280.200 C 138.400 281.178,138.581 281.600,139.000 281.600 C 139.330 281.600,139.600 281.870,139.600 282.200 C 139.600 282.533,139.956 282.800,140.400 282.800 C 140.933 282.800,141.200 283.067,141.200 283.600 C 141.200 284.044,141.467 284.400,141.800 284.400 C 142.130 284.400,142.400 284.670,142.400 285.000 C 142.400 285.330,142.670 285.600,143.000 285.600 C 143.330 285.600,143.600 285.870,143.600 286.200 C 143.600 286.533,143.956 286.800,144.400 286.800 C 144.840 286.800,145.200 286.980,145.200 287.200 C 145.200 287.420,144.913 287.600,144.563 287.600 C 144.212 287.600,143.831 287.960,143.716 288.400 C 143.529 289.115,143.170 289.200,140.353 289.200 C 137.817 289.200,137.200 289.317,137.200 289.800 C 137.200 290.219,136.778 290.400,135.800 290.400 C 134.822 290.400,134.400 290.581,134.400 291.000 C 134.400 291.499,133.622 291.600,129.800 291.600 C 125.467 291.600,125.200 291.646,125.200 292.400 C 125.200 293.048,124.933 293.200,123.800 293.200 C 122.822 293.200,122.400 293.381,122.400 293.800 C 122.400 294.299,121.622 294.400,117.800 294.400 C 113.978 294.400,113.200 294.501,113.200 295.000 C 113.200 295.419,112.778 295.600,111.800 295.600 C 110.667 295.600,110.400 295.752,110.400 296.400 C 110.400 297.137,110.133 297.200,107.000 297.200 C 104.244 297.200,103.600 297.314,103.600 297.800 C 103.600 298.272,103.044 298.400,101.000 298.400 C 98.956 298.400,98.400 298.528,98.400 299.000 C 98.400 299.484,97.774 299.600,95.163 299.600 C 92.262 299.600,91.903 299.683,91.716 300.400 C 91.534 301.095,91.170 301.200,88.953 301.200 C 86.950 301.200,86.400 301.329,86.400 301.800 C 86.400 302.286,85.756 302.400,83.000 302.400 C 80.244 302.400,79.600 302.514,79.600 303.000 C 79.600 303.472,79.044 303.600,77.000 303.600 C 74.667 303.600,74.400 303.682,74.400 304.400 C 74.400 305.118,74.133 305.200,71.800 305.200 C 69.756 305.200,69.200 305.328,69.200 305.800 C 69.200 306.133,68.844 306.400,68.400 306.400 C 67.651 306.400,67.600 306.667,67.600 310.600 C 67.600 314.533,67.651 314.800,68.400 314.800 C 68.933 314.800,69.200 315.067,69.200 315.600 C 69.200 316.044,69.467 316.400,69.800 316.400 C 70.283 316.400,70.400 317.022,70.400 319.600 C 70.400 322.178,70.517 322.800,71.000 322.800 C 71.453 322.800,71.600 323.289,71.600 324.800 C 71.600 326.533,71.707 326.800,72.400 326.800 C 73.124 326.800,73.200 327.067,73.200 329.600 C 73.200 331.822,73.324 332.400,73.800 332.400 C 74.272 332.400,74.400 332.956,74.400 335.000 C 74.400 337.044,74.528 337.600,75.000 337.600 C 75.472 337.600,75.600 338.156,75.600 340.200 C 75.600 342.533,75.682 342.800,76.400 342.800 C 77.124 342.800,77.200 343.067,77.200 345.600 C 77.200 347.822,77.324 348.400,77.800 348.400 C 78.272 348.400,78.400 348.956,78.400 351.000 C 78.400 353.044,78.528 353.600,79.000 353.600 C 79.493 353.600,79.600 354.311,79.600 357.600 C 79.600 361.333,79.653 361.600,80.400 361.600 C 81.048 361.600,81.200 361.867,81.200 363.000 C 81.200 363.978,81.381 364.400,81.800 364.400 C 82.130 364.400,82.400 364.670,82.400 365.000 C 82.400 365.532,95.868 365.600,201.213 365.600 C 306.455 365.600,320.051 365.531,320.255 365.000 C 320.382 364.670,320.736 364.400,321.043 364.400 C 321.488 364.400,321.600 363.436,321.600 359.600 C 321.600 355.600,321.700 354.800,322.200 354.800 C 322.672 354.800,322.800 354.244,322.800 352.200 C 322.800 349.867,322.882 349.600,323.600 349.600 C 324.318 349.600,324.400 349.333,324.400 347.000 C 324.400 344.956,324.528 344.400,325.000 344.400 C 325.486 344.400,325.600 343.756,325.600 341.000 C 325.600 338.244,325.714 337.600,326.200 337.600 C 326.619 337.600,326.800 337.178,326.800 336.200 C 326.800 335.067,326.952 334.800,327.600 334.800 C 328.347 334.800,328.400 334.533,328.400 330.800 C 328.400 327.511,328.507 326.800,329.000 326.800 C 329.483 326.800,329.600 326.178,329.600 323.600 C 329.600 321.022,329.717 320.400,330.200 320.400 C 330.619 320.400,330.800 319.978,330.800 319.000 C 330.800 317.858,330.950 317.600,331.616 317.600 C 332.383 317.600,332.424 317.393,332.316 314.100 L 332.200 310.600 330.900 310.475 C 330.095 310.397,329.600 310.131,329.600 309.775 C 329.600 309.352,329.072 309.200,327.600 309.200 C 325.867 309.200,325.600 309.093,325.600 308.400 C 325.600 307.752,325.333 307.600,324.200 307.600 C 323.222 307.600,322.800 307.419,322.800 307.000 C 322.800 306.670,322.530 306.400,322.200 306.400 C 321.870 306.400,321.600 306.130,321.600 305.800 C 321.600 305.320,321.000 305.200,318.600 305.200 C 316.200 305.200,315.600 305.320,315.600 305.800 C 315.600 306.233,315.156 306.400,314.000 306.400 C 312.844 306.400,312.400 306.233,312.400 305.800 C 312.400 305.324,311.822 305.200,309.600 305.200 C 307.067 305.200,306.800 305.124,306.800 304.400 C 306.800 303.682,306.533 303.600,304.200 303.600 C 302.156 303.600,301.600 303.472,301.600 303.000 C 301.600 302.581,301.178 302.400,300.200 302.400 C 299.222 302.400,298.800 302.219,298.800 301.800 C 298.800 301.307,298.089 301.200,294.800 301.200 C 291.067 301.200,290.800 301.147,290.800 300.400 C 290.800 299.682,290.533 299.600,288.200 299.600 C 286.156 299.600,285.600 299.472,285.600 299.000 C 285.600 298.514,284.956 298.400,282.200 298.400 C 279.444 298.400,278.800 298.286,278.800 297.800 C 278.800 297.328,278.244 297.200,276.200 297.200 C 273.867 297.200,273.600 297.118,273.600 296.400 C 273.600 295.682,273.333 295.600,271.000 295.600 C 268.956 295.600,268.400 295.472,268.400 295.000 C 268.400 294.524,267.822 294.400,265.600 294.400 C 263.378 294.400,262.800 294.276,262.800 293.800 C 262.800 293.328,262.244 293.200,260.200 293.200 C 257.867 293.200,257.600 293.118,257.600 292.400 C 257.600 291.663,257.333 291.600,254.200 291.600 C 251.444 291.600,250.800 291.486,250.800 291.000 C 250.800 290.528,250.244 290.400,248.200 290.400 C 245.693 290.400,245.600 290.364,245.600 289.400 C 245.600 288.549,245.784 288.400,246.837 288.400 C 247.738 288.400,248.132 288.183,248.284 287.600 C 248.399 287.160,248.742 286.800,249.047 286.800 C 249.351 286.800,249.600 286.530,249.600 286.200 C 249.600 285.870,249.870 285.600,250.200 285.600 C 250.530 285.600,250.800 285.330,250.800 285.000 C 250.800 284.670,251.087 284.400,251.437 284.400 C 251.788 284.400,252.169 284.040,252.284 283.600 C 252.432 283.033,252.830 282.800,253.647 282.800 C 254.405 282.800,254.800 282.595,254.800 282.200 C 254.800 281.870,255.000 281.600,255.244 281.600 C 255.858 281.600,257.585 279.910,257.593 279.300 C 257.597 279.025,257.870 278.800,258.200 278.800 C 258.530 278.800,258.800 278.551,258.800 278.247 C 258.800 277.942,259.160 277.599,259.600 277.484 C 260.183 277.332,260.400 276.938,260.400 276.037 C 260.400 275.204,260.596 274.800,261.000 274.800 C 261.330 274.800,261.600 274.530,261.600 274.200 C 261.600 273.870,261.870 273.600,262.200 273.600 C 262.530 273.600,262.800 273.330,262.800 273.000 C 262.800 272.670,263.087 272.400,263.437 272.400 C 263.788 272.400,264.169 272.040,264.284 271.600 C 264.432 271.033,264.830 270.800,265.647 270.800 C 266.661 270.800,266.800 270.656,266.800 269.600 C 266.800 268.769,266.996 268.400,267.437 268.400 C 267.788 268.400,268.169 268.040,268.284 267.600 C 268.399 267.160,268.742 266.800,269.047 266.800 C 269.351 266.800,269.600 266.530,269.600 266.200 C 269.600 265.870,269.870 265.600,270.200 265.600 C 270.530 265.600,270.800 265.330,270.800 265.000 C 270.800 264.670,271.087 264.400,271.437 264.400 C 271.788 264.400,272.169 264.040,272.284 263.600 C 272.399 263.160,272.742 262.800,273.047 262.800 C 273.351 262.800,273.600 262.530,273.600 262.200 C 273.600 261.870,273.870 261.600,274.200 261.600 C 274.619 261.600,274.800 261.178,274.800 260.200 C 274.800 259.067,274.952 258.800,275.600 258.800 C 276.044 258.800,276.400 258.533,276.400 258.200 C 276.400 257.870,276.670 257.600,277.000 257.600 C 277.330 257.600,277.600 257.330,277.600 257.000 C 277.600 256.670,277.870 256.400,278.200 256.400 C 278.619 256.400,278.800 255.978,278.800 255.000 C 278.800 253.867,278.952 253.600,279.600 253.600 C 280.040 253.600,280.400 253.349,280.400 253.043 C 280.400 252.736,280.670 252.382,281.000 252.255 C 281.351 252.121,281.600 251.521,281.600 250.813 C 281.600 250.001,281.799 249.600,282.200 249.600 C 282.619 249.600,282.800 249.178,282.800 248.200 C 282.800 247.067,282.952 246.800,283.600 246.800 C 284.044 246.800,284.400 246.533,284.400 246.200 C 284.400 245.870,284.670 245.600,285.000 245.600 C 285.419 245.600,285.600 245.178,285.600 244.200 C 285.600 243.222,285.781 242.800,286.200 242.800 C 286.595 242.800,286.800 242.405,286.800 241.647 C 286.800 240.830,287.033 240.432,287.600 240.284 C 288.254 240.113,288.400 239.738,288.400 238.237 C 288.400 236.871,288.554 236.400,289.000 236.400 C 289.419 236.400,289.600 235.978,289.600 235.000 C 289.600 234.022,289.781 233.600,290.200 233.600 C 290.619 233.600,290.800 233.178,290.800 232.200 C 290.800 231.067,290.952 230.800,291.600 230.800 C 292.333 230.800,292.400 230.533,292.400 227.600 C 292.400 225.022,292.517 224.400,293.000 224.400 C 293.486 224.400,293.600 223.756,293.600 221.000 C 293.600 218.244,293.714 217.600,294.200 217.600 C 294.724 217.600,294.800 215.378,294.800 200.000 C 294.800 184.622,294.724 182.400,294.200 182.400 C 293.714 182.400,293.600 181.756,293.600 179.000 C 293.600 176.244,293.486 175.600,293.000 175.600 C 292.528 175.600,292.400 175.044,292.400 173.000 C 292.400 170.667,292.318 170.400,291.600 170.400 C 290.863 170.400,290.800 170.133,290.800 167.000 C 290.800 164.244,290.686 163.600,290.200 163.600 C 289.800 163.600,289.600 163.200,289.600 162.400 C 289.600 161.600,289.400 161.200,289.000 161.200 C 288.581 161.200,288.400 160.778,288.400 159.800 C 288.400 158.667,288.248 158.400,287.600 158.400 C 286.907 158.400,286.800 158.133,286.800 156.400 C 286.800 154.889,286.653 154.400,286.200 154.400 C 285.747 154.400,285.600 153.911,285.600 152.400 C 285.600 150.889,285.453 150.400,285.000 150.400 C 284.670 150.400,284.400 150.130,284.400 149.800 C 284.400 149.467,284.044 149.200,283.600 149.200 C 282.952 149.200,282.800 148.933,282.800 147.800 C 282.800 146.822,282.619 146.400,282.200 146.400 C 281.728 146.400,281.600 145.844,281.600 143.800 C 281.600 141.853,281.461 141.200,281.047 141.200 C 280.742 141.200,280.399 140.840,280.284 140.400 C 280.169 139.960,279.788 139.600,279.437 139.600 C 279.087 139.600,278.800 139.330,278.800 139.000 C 278.800 138.670,278.530 138.400,278.200 138.400 C 277.799 138.400,277.600 137.999,277.600 137.187 C 277.600 136.479,277.351 135.879,277.000 135.745 C 276.670 135.618,276.400 135.264,276.400 134.957 C 276.400 134.651,276.040 134.400,275.600 134.400 C 274.952 134.400,274.800 134.133,274.800 133.000 C 274.800 132.022,274.619 131.600,274.200 131.600 C 273.800 131.600,273.600 131.200,273.600 130.400 C 273.600 129.600,273.400 129.200,273.000 129.200 C 272.670 129.200,272.400 128.913,272.400 128.563 C 272.400 128.212,272.040 127.831,271.600 127.716 C 271.033 127.568,270.800 127.170,270.800 126.353 C 270.800 125.595,270.595 125.200,270.200 125.200 C 269.867 125.200,269.600 124.844,269.600 124.400 C 269.600 123.956,269.333 123.600,269.000 123.600 C 268.600 123.600,268.400 123.200,268.400 122.400 C 268.400 121.467,268.222 121.200,267.600 121.200 C 267.067 121.200,266.800 120.933,266.800 120.400 C 266.800 119.956,266.533 119.600,266.200 119.600 C 265.870 119.600,265.600 119.330,265.600 119.000 C 265.600 118.670,265.330 118.400,265.000 118.400 C 264.596 118.400,264.400 117.996,264.400 117.163 C 264.400 116.262,264.183 115.868,263.600 115.716 C 263.160 115.601,262.800 115.258,262.800 114.953 C 262.800 114.649,262.530 114.400,262.200 114.400 C 261.870 114.400,261.600 114.130,261.600 113.800 C 261.600 113.470,261.330 113.200,261.000 113.200 C 260.596 113.200,260.400 112.796,260.400 111.963 C 260.400 111.062,260.183 110.668,259.600 110.516 C 259.160 110.401,258.800 110.058,258.800 109.753 C 258.800 109.449,258.530 109.200,258.200 109.200 C 257.870 109.200,257.597 108.975,257.593 108.700 C 257.585 108.090,255.858 106.400,255.244 106.400 C 255.000 106.400,254.800 106.130,254.800 105.800 C 254.800 105.470,254.530 105.200,254.200 105.200 C 253.781 105.200,253.600 104.778,253.600 103.800 C 253.600 102.822,253.419 102.400,253.000 102.400 C 252.670 102.400,252.400 102.130,252.400 101.800 C 252.400 101.467,252.044 101.200,251.600 101.200 C 251.067 101.200,250.800 100.933,250.800 100.400 C 250.800 99.956,250.533 99.600,250.200 99.600 C 249.870 99.600,249.600 99.330,249.600 99.000 C 249.600 98.670,249.330 98.400,249.000 98.400 C 248.670 98.400,248.400 98.130,248.400 97.800 C 248.400 97.467,248.044 97.200,247.600 97.200 C 247.067 97.200,246.800 96.933,246.800 96.400 C 246.800 95.956,246.533 95.600,246.200 95.600 C 245.870 95.600,245.600 95.330,245.600 95.000 C 245.600 94.670,245.330 94.400,245.000 94.400 C 244.596 94.400,244.400 93.996,244.400 93.163 C 244.400 92.262,244.183 91.868,243.600 91.716 C 243.033 91.568,242.800 91.170,242.800 90.353 C 242.800 89.595,242.595 89.200,242.200 89.200 C 241.781 89.200,241.600 88.778,241.600 87.800 C 241.600 86.822,241.419 86.400,241.000 86.400 C 240.596 86.400,240.400 85.996,240.400 85.163 C 240.400 84.262,240.183 83.868,239.600 83.716 C 239.033 83.568,238.800 83.170,238.800 82.353 C 238.800 81.595,238.595 81.200,238.200 81.200 C 237.781 81.200,237.600 80.778,237.600 79.800 C 237.600 78.822,237.419 78.400,237.000 78.400 C 236.554 78.400,236.400 77.929,236.400 76.563 C 236.400 75.062,236.254 74.687,235.600 74.516 C 235.160 74.401,234.800 74.058,234.800 73.753 C 234.800 73.449,234.530 73.200,234.200 73.200 C 233.781 73.200,233.600 72.778,233.600 71.800 C 233.600 70.822,233.419 70.400,233.000 70.400 C 232.596 70.400,232.400 69.996,232.400 69.163 C 232.400 68.262,232.183 67.868,231.600 67.716 C 231.033 67.568,230.800 67.170,230.800 66.353 C 230.800 65.595,230.595 65.200,230.200 65.200 C 229.781 65.200,229.600 64.778,229.600 63.800 C 229.600 62.822,229.419 62.400,229.000 62.400 C 228.596 62.400,228.400 61.996,228.400 61.163 C 228.400 60.262,228.183 59.868,227.600 59.716 C 227.033 59.568,226.800 59.170,226.800 58.353 C 226.800 57.595,226.595 57.200,226.200 57.200 C 225.781 57.200,225.600 56.778,225.600 55.800 C 225.600 54.822,225.419 54.400,225.000 54.400 C 224.596 54.400,224.400 53.996,224.400 53.163 C 224.400 52.262,224.183 51.868,223.600 51.716 C 223.033 51.568,222.800 51.170,222.800 50.353 C 222.800 49.595,222.595 49.200,222.200 49.200 C 221.781 49.200,221.600 48.778,221.600 47.800 C 221.600 46.822,221.419 46.400,221.000 46.400 C 220.596 46.400,220.400 45.996,220.400 45.163 C 220.400 44.262,220.183 43.868,219.600 43.716 C 219.160 43.601,218.800 43.258,218.800 42.953 C 218.800 42.649,218.530 42.400,218.200 42.400 C 217.781 42.400,217.600 41.978,217.600 41.000 C 217.600 40.022,217.419 39.600,217.000 39.600 C 216.600 39.600,216.400 39.200,216.400 38.400 C 216.400 37.467,216.222 37.200,215.600 37.200 C 214.952 37.200,214.800 36.933,214.800 35.800 L 214.800 34.400 211.467 34.400 C 209.633 34.400,208.013 34.520,207.867 34.667 M214.590 85.819 C 214.815 86.266,215.675 87.453,216.500 88.457 C 217.325 89.461,218.000 90.432,218.000 90.615 C 218.000 91.360,219.805 92.800,220.737 92.800 C 221.703 92.800,232.000 102.413,232.000 103.314 C 232.000 103.507,234.205 106.000,236.900 108.853 C 239.595 111.707,241.867 114.257,241.949 114.521 C 242.031 114.784,242.654 115.587,243.333 116.306 L 244.568 117.611 241.884 120.316 C 240.408 121.803,239.200 123.204,239.200 123.429 C 239.200 123.654,238.480 124.541,237.600 125.400 C 236.720 126.259,236.000 127.124,236.000 127.321 C 236.000 127.519,234.830 128.988,233.400 130.585 C 231.970 132.183,230.800 133.664,230.800 133.875 C 230.800 134.087,230.350 134.683,229.800 135.200 C 229.250 135.717,228.800 136.304,228.800 136.506 C 228.800 136.707,227.990 137.821,227.000 138.979 C 226.010 140.138,225.200 141.260,225.200 141.473 C 225.200 141.686,224.750 142.283,224.200 142.800 C 223.650 143.317,223.200 143.915,223.200 144.129 C 223.200 144.343,222.525 145.339,221.700 146.343 C 220.241 148.118,219.529 149.168,218.948 150.400 C 218.793 150.730,217.931 151.889,217.033 152.975 C 215.450 154.889,214.725 155.954,214.158 157.200 C 214.008 157.530,213.191 158.642,212.343 159.672 C 211.494 160.701,210.800 161.708,210.800 161.910 C 210.800 162.111,210.440 162.602,210.000 163.000 C 209.560 163.398,209.200 163.903,209.200 164.121 C 209.200 164.339,208.525 165.339,207.700 166.343 C 206.247 168.112,205.541 169.151,204.945 170.400 C 204.788 170.730,203.881 171.919,202.929 173.043 C 201.978 174.167,201.200 175.260,201.200 175.473 C 201.200 175.686,200.750 176.283,200.200 176.800 C 199.650 177.317,199.200 177.921,199.200 178.144 C 199.200 178.366,198.480 179.402,197.600 180.446 C 196.720 181.490,196.000 182.505,196.000 182.702 C 196.000 182.899,195.550 183.483,195.000 184.000 C 194.450 184.517,194.000 185.109,194.000 185.315 C 194.000 185.522,193.100 186.730,192.000 188.000 C 190.900 189.270,190.000 190.478,190.000 190.685 C 190.000 190.891,189.550 191.483,189.000 192.000 C 188.450 192.517,188.000 193.106,188.000 193.310 C 188.000 193.514,186.830 194.988,185.400 196.585 C 183.970 198.183,182.800 199.660,182.800 199.867 C 182.800 200.074,182.170 200.854,181.400 201.600 C 180.630 202.346,180.000 203.128,180.000 203.337 C 180.000 203.545,178.020 205.832,175.600 208.418 C 173.180 211.003,171.200 213.275,171.200 213.465 C 171.200 213.930,159.550 225.538,158.488 226.131 C 158.026 226.389,156.132 227.995,154.279 229.700 C 152.425 231.405,150.735 232.800,150.524 232.800 C 150.312 232.800,149.717 233.250,149.200 233.800 C 148.683 234.350,148.093 234.800,147.888 234.800 C 147.683 234.800,146.833 235.340,146.000 236.000 C 145.167 236.660,144.314 237.200,144.104 237.200 C 143.895 237.200,143.398 237.560,143.000 238.000 C 142.602 238.440,142.112 238.800,141.911 238.800 C 141.711 238.800,140.974 239.229,140.273 239.754 C 139.573 240.278,138.550 240.842,138.000 241.006 C 137.450 241.170,136.507 241.652,135.904 242.077 C 134.540 243.038,132.000 243.517,132.000 242.814 C 132.000 242.544,131.602 241.765,131.117 241.083 C 130.090 239.641,125.202 229.992,125.199 229.400 C 125.198 229.180,124.749 228.117,124.201 227.038 C 123.109 224.885,122.178 220.830,121.584 215.640 C 121.372 213.792,120.824 211.251,120.366 209.994 C 119.423 207.409,119.446 196.050,120.403 191.600 C 120.663 190.390,120.964 187.967,121.071 186.215 C 121.203 184.058,121.497 182.703,121.981 182.015 C 122.374 181.457,122.832 180.550,123.000 180.000 C 123.168 179.450,123.596 178.549,123.952 177.998 C 125.178 176.103,125.576 175.393,126.869 172.800 C 127.582 171.370,128.543 169.660,129.003 169.000 C 129.464 168.340,130.098 167.260,130.412 166.600 C 130.727 165.940,131.366 164.860,131.833 164.200 C 132.300 163.540,132.805 162.730,132.957 162.400 C 133.363 161.513,134.087 160.341,135.100 158.930 C 135.595 158.241,136.000 157.511,136.000 157.308 C 136.000 157.105,136.450 156.517,137.000 156.000 C 137.550 155.483,138.000 154.858,138.000 154.610 C 138.000 154.362,138.900 153.150,140.000 151.916 C 141.100 150.682,142.000 149.512,142.000 149.317 C 142.000 149.122,142.720 148.259,143.600 147.400 C 144.480 146.541,145.200 145.651,145.200 145.422 C 145.200 144.880,163.265 126.800,163.807 126.800 C 164.034 126.800,165.561 125.450,167.200 123.800 C 168.839 122.150,170.346 120.800,170.548 120.800 C 170.750 120.800,173.032 118.820,175.618 116.400 C 178.203 113.980,180.479 112.000,180.675 112.000 C 180.870 112.000,181.917 111.100,183.000 110.000 C 184.083 108.900,185.137 108.000,185.341 108.000 C 185.870 108.000,188.844 105.422,191.686 102.500 C 193.023 101.125,194.324 100.000,194.577 100.000 C 194.831 100.000,195.741 99.280,196.600 98.400 C 197.459 97.520,198.325 96.800,198.524 96.800 C 198.723 96.800,200.733 95.090,202.990 93.000 C 205.247 90.910,207.243 89.200,207.425 89.200 C 207.607 89.200,208.216 88.762,208.778 88.226 C 212.116 85.043,213.838 84.330,214.590 85.819 M248.515 122.576 C 249.332 123.553,250.000 124.512,250.000 124.706 C 250.000 124.901,250.450 125.483,251.000 126.000 C 251.550 126.517,252.000 127.115,252.000 127.329 C 252.000 127.543,252.630 128.486,253.400 129.426 C 254.170 130.366,254.800 131.298,254.800 131.498 C 254.800 131.697,255.250 132.283,255.800 132.800 C 256.350 133.317,256.800 133.964,256.800 134.239 C 256.800 134.514,257.219 135.247,257.732 135.869 C 258.244 136.491,258.783 137.270,258.929 137.600 C 259.213 138.240,259.721 139.075,260.992 140.990 C 263.992 145.507,265.128 149.200,263.518 149.200 C 263.307 149.200,262.366 149.830,261.426 150.600 C 260.486 151.370,259.543 152.000,259.329 152.000 C 259.115 152.000,258.517 152.450,258.000 153.000 C 257.483 153.550,256.804 154.000,256.489 154.000 C 255.791 154.000,233.200 176.632,233.200 177.332 C 233.200 177.606,232.300 178.717,231.200 179.800 C 230.100 180.883,229.200 181.929,229.200 182.124 C 229.200 182.318,227.580 184.233,225.600 186.379 C 223.620 188.524,222.000 190.452,222.000 190.662 C 222.000 190.871,221.370 191.654,220.600 192.400 C 219.830 193.146,219.200 193.923,219.200 194.126 C 219.200 194.329,217.760 196.072,216.000 198.000 C 214.240 199.928,212.800 201.669,212.800 201.869 C 212.800 202.070,211.990 203.028,211.000 204.000 C 210.010 204.972,209.200 205.936,209.200 206.143 C 209.200 206.350,207.580 208.276,205.600 210.421 C 203.620 212.567,202.000 214.483,202.000 214.678 C 202.000 214.874,201.173 215.836,200.162 216.817 C 199.151 217.798,198.206 218.904,198.062 219.275 C 197.918 219.647,195.145 222.737,191.900 226.142 C 188.655 229.548,186.000 232.482,186.000 232.662 C 186.000 233.096,173.908 245.200,173.475 245.200 C 173.291 245.200,171.350 246.862,169.163 248.894 C 166.975 250.925,164.874 252.704,164.493 252.847 C 164.112 252.989,163.457 253.487,163.038 253.953 C 162.619 254.419,162.105 254.800,161.896 254.800 C 161.686 254.800,160.833 255.340,160.000 256.000 C 159.167 256.660,158.314 257.200,158.104 257.200 C 157.895 257.200,157.398 257.560,157.000 258.000 C 156.602 258.440,156.112 258.800,155.911 258.800 C 155.711 258.800,154.974 259.229,154.273 259.754 C 153.573 260.278,152.550 260.842,152.000 261.006 C 151.450 261.170,150.539 261.629,149.976 262.026 C 149.412 262.422,148.465 262.869,147.872 263.018 C 147.278 263.167,146.688 263.457,146.561 263.664 C 146.275 264.125,145.200 263.301,145.200 262.621 C 145.200 262.356,144.750 261.717,144.200 261.200 C 143.650 260.683,143.200 260.085,143.200 259.871 C 143.200 259.657,142.525 258.661,141.700 257.657 C 140.172 255.797,139.770 255.185,138.592 252.918 C 138.226 252.214,137.673 251.426,137.363 251.169 C 137.053 250.912,136.800 250.511,136.800 250.277 C 136.800 250.043,136.453 249.480,136.030 249.026 C 134.801 247.709,134.520 246.000,135.533 246.000 C 135.984 246.000,136.459 245.829,136.588 245.619 C 136.718 245.409,138.155 244.589,139.782 243.796 C 141.409 243.003,142.956 242.094,143.219 241.777 C 143.483 241.460,143.875 241.200,144.091 241.200 C 144.308 241.200,145.167 240.660,146.000 240.000 C 146.833 239.340,147.686 238.800,147.896 238.800 C 148.105 238.800,148.602 238.440,149.000 238.000 C 149.398 237.560,149.901 237.200,150.118 237.200 C 150.334 237.200,151.639 236.210,153.017 235.000 C 154.395 233.790,155.682 232.800,155.877 232.800 C 156.071 232.800,157.117 231.900,158.200 230.800 C 159.283 229.700,160.355 228.800,160.581 228.800 C 161.121 228.800,174.000 215.932,174.000 215.392 C 174.000 215.163,175.080 213.906,176.400 212.600 C 177.720 211.294,178.800 210.071,178.800 209.882 C 178.800 209.694,180.374 207.834,182.299 205.749 C 184.223 203.665,185.912 201.654,186.051 201.280 C 186.191 200.906,186.687 200.257,187.153 199.838 C 187.619 199.419,188.000 198.909,188.000 198.704 C 188.000 198.499,189.080 197.117,190.400 195.631 C 191.720 194.146,192.800 192.753,192.800 192.535 C 192.800 192.318,193.250 191.717,193.800 191.200 C 194.350 190.683,194.800 190.091,194.800 189.885 C 194.800 189.678,195.700 188.470,196.800 187.200 C 197.900 185.930,198.800 184.722,198.800 184.515 C 198.800 184.309,199.250 183.717,199.800 183.200 C 200.350 182.683,200.800 182.085,200.800 181.871 C 200.800 181.657,201.475 180.661,202.300 179.657 C 203.753 177.888,204.459 176.849,205.055 175.600 C 205.212 175.270,206.119 174.081,207.071 172.957 C 208.022 171.833,208.800 170.740,208.800 170.527 C 208.800 170.314,209.250 169.717,209.800 169.200 C 210.350 168.683,210.800 168.093,210.800 167.888 C 210.800 167.683,211.340 166.833,212.000 166.000 C 212.660 165.167,213.200 164.314,213.200 164.104 C 213.200 163.895,213.560 163.398,214.000 163.000 C 214.440 162.602,214.800 162.111,214.800 161.910 C 214.800 161.708,215.494 160.701,216.343 159.672 C 217.191 158.642,218.008 157.530,218.158 157.200 C 218.735 155.932,219.459 154.879,221.100 152.919 C 222.035 151.803,222.800 150.720,222.800 150.514 C 222.800 150.308,223.250 149.717,223.800 149.200 C 224.350 148.683,224.800 148.085,224.800 147.871 C 224.800 147.657,225.475 146.661,226.300 145.657 C 227.758 143.883,228.469 142.834,229.052 141.600 C 229.208 141.270,230.205 139.986,231.268 138.746 C 232.330 137.506,233.200 136.326,233.200 136.124 C 233.200 135.922,233.830 135.146,234.600 134.400 C 235.370 133.654,236.000 132.874,236.000 132.667 C 236.000 132.461,237.395 130.775,239.100 128.921 C 240.805 127.068,242.405 125.185,242.656 124.738 C 243.309 123.572,246.083 120.800,246.596 120.800 C 246.835 120.800,247.699 121.599,248.515 122.576 M267.300 153.141 C 267.685 153.978,268.000 154.826,268.000 155.025 C 268.000 155.225,268.473 156.381,269.052 157.594 C 270.495 160.622,270.712 161.192,271.028 162.787 C 271.178 163.550,271.487 164.540,271.713 164.987 C 272.629 166.796,272.737 167.160,273.010 169.341 C 273.166 170.589,273.452 171.709,273.647 171.829 C 273.841 171.949,274.000 172.541,274.000 173.144 C 274.000 173.747,274.170 174.411,274.377 174.620 C 274.584 174.829,274.881 177.301,275.036 180.113 C 275.191 182.925,275.472 185.321,275.659 185.437 C 276.104 185.712,276.104 197.088,275.659 197.363 C 275.472 197.479,275.193 199.695,275.038 202.287 C 274.883 204.879,274.587 207.171,274.378 207.380 C 274.170 207.589,274.000 208.343,274.000 209.056 C 274.000 209.769,273.838 210.453,273.639 210.576 C 273.441 210.698,273.153 211.879,273.000 213.200 C 272.847 214.521,272.559 215.702,272.361 215.824 C 272.162 215.947,272.000 216.476,272.000 217.000 C 272.000 217.524,271.845 218.048,271.656 218.165 C 271.467 218.282,271.202 219.178,271.068 220.155 C 270.934 221.132,270.481 222.544,270.060 223.293 C 269.640 224.042,269.163 225.260,269.000 226.000 C 268.837 226.740,268.366 227.949,267.952 228.685 C 267.538 229.422,267.198 230.244,267.196 230.512 C 267.192 231.105,259.435 246.653,258.692 247.558 C 258.403 247.911,257.907 248.740,257.591 249.400 C 257.275 250.060,256.634 251.140,256.167 251.800 C 255.700 252.460,255.203 253.270,255.062 253.600 C 254.785 254.247,254.259 255.112,253.000 256.990 C 252.018 258.455,251.323 259.609,250.945 260.400 C 250.788 260.730,250.088 261.720,249.391 262.600 C 248.694 263.480,248.007 264.470,247.864 264.800 C 247.397 265.881,246.629 266.962,244.700 269.252 C 243.655 270.493,242.800 271.650,242.800 271.823 C 242.800 271.996,242.501 272.467,242.136 272.871 C 241.770 273.275,241.271 274.006,241.028 274.495 C 240.784 274.984,240.153 275.599,239.627 275.862 C 234.709 278.313,222.733 292.639,224.800 293.597 C 225.130 293.750,225.767 294.062,226.216 294.289 C 226.665 294.516,227.970 294.831,229.116 294.988 C 230.261 295.146,231.300 295.438,231.423 295.637 C 231.546 295.837,232.166 296.000,232.800 296.000 C 233.434 296.000,234.051 296.159,234.171 296.353 C 234.291 296.548,235.411 296.834,236.659 296.990 C 237.907 297.146,239.260 297.437,239.664 297.637 C 240.069 297.837,240.731 298.163,241.136 298.363 C 241.540 298.563,242.893 298.854,244.141 299.010 C 245.389 299.166,246.509 299.452,246.629 299.647 C 246.749 299.841,247.366 300.000,248.000 300.000 C 248.634 300.000,249.261 300.175,249.393 300.388 C 249.525 300.602,250.530 300.896,251.625 301.041 C 252.721 301.187,253.715 301.462,253.833 301.653 C 253.951 301.844,254.566 302.000,255.200 302.000 C 255.834 302.000,256.451 302.159,256.571 302.353 C 256.691 302.548,257.779 302.830,258.988 302.981 C 260.198 303.132,261.291 303.423,261.417 303.628 C 261.544 303.833,262.166 304.000,262.800 304.000 C 263.434 304.000,264.051 304.159,264.171 304.353 C 264.291 304.548,265.411 304.834,266.659 304.990 C 267.907 305.146,269.260 305.437,269.664 305.637 C 270.069 305.837,270.731 306.163,271.136 306.363 C 271.540 306.563,272.893 306.854,274.141 307.010 C 275.389 307.166,276.509 307.452,276.629 307.647 C 276.749 307.841,277.366 308.000,278.000 308.000 C 278.634 308.000,279.261 308.175,279.393 308.388 C 279.525 308.602,280.530 308.896,281.625 309.041 C 282.721 309.187,283.715 309.462,283.833 309.653 C 283.951 309.844,284.566 310.000,285.200 310.000 C 285.834 310.000,286.451 310.159,286.571 310.353 C 286.691 310.548,287.779 310.830,288.988 310.981 C 290.198 311.132,291.291 311.423,291.417 311.628 C 291.544 311.833,292.187 312.000,292.847 312.000 C 293.545 312.000,293.944 312.167,293.800 312.400 C 293.642 312.656,287.937 312.800,278.000 312.800 C 268.063 312.800,262.358 312.656,262.200 312.400 C 262.037 312.136,241.137 312.000,200.800 312.000 C 160.463 312.000,139.563 311.864,139.400 311.600 C 139.240 311.341,131.346 311.200,117.025 311.200 C 97.845 311.200,94.832 311.120,94.400 310.600 C 94.126 310.270,93.429 309.994,92.851 309.987 C 91.841 309.975,91.830 309.952,92.576 309.387 C 93.004 309.064,94.028 308.800,94.853 308.800 C 95.678 308.800,96.464 308.620,96.600 308.400 C 96.736 308.180,97.546 308.000,98.400 308.000 C 99.254 308.000,100.055 307.835,100.179 307.634 C 100.304 307.433,101.757 307.141,103.408 306.986 C 105.060 306.832,106.510 306.546,106.629 306.352 C 106.749 306.159,107.546 306.000,108.400 306.000 C 109.254 306.000,110.055 305.835,110.179 305.634 C 110.304 305.433,111.757 305.141,113.408 304.986 C 115.060 304.832,116.510 304.546,116.629 304.352 C 116.749 304.159,117.366 304.000,118.000 304.000 C 118.634 304.000,119.251 303.841,119.371 303.648 C 119.490 303.454,120.940 303.168,122.592 303.014 C 124.243 302.859,125.696 302.567,125.821 302.366 C 125.945 302.165,126.746 302.000,127.600 302.000 C 128.454 302.000,129.251 301.841,129.371 301.648 C 129.490 301.454,130.940 301.168,132.592 301.014 C 134.243 300.859,135.696 300.567,135.821 300.366 C 135.945 300.165,136.746 300.000,137.600 300.000 C 138.454 300.000,139.251 299.841,139.371 299.648 C 139.490 299.454,140.940 299.168,142.592 299.014 C 144.243 298.859,145.696 298.567,145.821 298.366 C 145.945 298.165,146.566 298.000,147.200 298.000 C 147.834 298.000,148.452 297.839,148.574 297.642 C 148.696 297.445,150.238 297.156,152.000 297.000 C 153.762 296.844,155.304 296.555,155.426 296.358 C 155.548 296.161,156.256 296.000,157.000 296.000 C 157.744 296.000,158.452 295.839,158.574 295.642 C 158.696 295.445,160.238 295.156,162.000 295.000 C 163.762 294.844,165.304 294.555,165.426 294.358 C 165.548 294.161,166.179 294.000,166.829 294.000 C 167.479 294.000,168.368 293.777,168.805 293.504 C 169.438 293.108,169.763 293.109,170.400 293.507 C 171.158 293.980,171.200 293.907,171.200 292.116 C 171.200 290.300,168.020 286.000,166.677 286.000 C 166.485 286.000,164.949 284.723,163.264 283.162 C 161.579 281.600,159.790 280.163,159.290 279.968 C 158.789 279.772,158.262 279.294,158.119 278.906 C 157.976 278.518,156.541 276.739,154.930 274.954 C 153.318 273.169,152.000 271.535,152.000 271.324 C 152.000 271.112,151.550 270.517,151.000 270.000 C 150.450 269.483,150.000 268.844,150.000 268.579 C 150.000 268.315,149.730 267.874,149.400 267.600 C 148.301 266.688,148.783 266.214,152.779 264.274 C 154.960 263.215,156.960 262.090,157.222 261.774 C 157.484 261.458,157.940 261.200,158.235 261.200 C 158.530 261.200,159.387 260.660,160.139 260.000 C 160.891 259.340,161.679 258.800,161.891 258.800 C 162.103 258.800,162.602 258.440,163.000 258.000 C 163.398 257.560,163.901 257.200,164.118 257.200 C 164.334 257.200,165.639 256.210,167.017 255.000 C 168.395 253.790,169.680 252.800,169.872 252.800 C 170.064 252.800,171.472 251.540,173.000 250.000 C 174.528 248.460,175.961 247.200,176.185 247.200 C 176.720 247.200,189.200 234.731,189.200 234.196 C 189.200 233.969,190.910 232.099,193.000 230.042 C 195.090 227.984,196.800 226.123,196.800 225.907 C 196.800 225.690,198.690 223.486,201.000 221.009 C 203.310 218.532,205.200 216.340,205.200 216.136 C 205.200 215.933,206.010 214.972,207.000 214.000 C 207.990 213.028,208.800 212.070,208.800 211.869 C 208.800 211.669,210.240 209.928,212.000 208.000 C 213.760 206.072,215.200 204.330,215.200 204.129 C 215.200 203.927,215.938 203.051,216.839 202.181 C 217.740 201.312,218.595 200.297,218.739 199.926 C 218.883 199.555,220.305 197.813,221.900 196.056 C 223.495 194.298,224.800 192.703,224.800 192.511 C 224.800 192.319,225.520 191.459,226.400 190.600 C 227.280 189.741,228.000 188.868,228.000 188.661 C 228.000 188.453,229.980 186.168,232.400 183.582 C 234.820 180.997,236.800 178.722,236.800 178.529 C 236.800 178.335,237.970 177.017,239.400 175.600 C 240.830 174.183,242.000 172.840,242.000 172.617 C 242.000 172.077,253.270 160.800,253.810 160.800 C 254.041 160.800,255.117 159.900,256.200 158.800 C 257.283 157.700,258.328 156.800,258.521 156.800 C 258.714 156.800,259.801 156.019,260.936 155.063 C 262.071 154.108,263.270 153.201,263.600 153.048 C 263.930 152.894,264.650 152.508,265.200 152.190 C 266.534 151.418,266.500 151.403,267.300 153.141 M261.780 315.650 C 261.989 315.843,266.703 316.000,272.256 316.000 C 278.556 316.000,282.446 316.150,282.600 316.400 C 282.740 316.627,284.730 316.800,287.200 316.800 C 289.670 316.800,291.660 316.627,291.800 316.400 C 291.951 316.155,295.117 316.000,299.962 316.000 C 308.474 316.000,309.281 316.157,311.190 318.190 C 311.712 318.745,312.359 319.200,312.627 319.200 C 313.797 319.200,313.849 320.878,312.789 324.436 L 311.978 327.159 225.689 326.949 C 173.524 326.822,139.084 326.591,138.600 326.365 C 138.141 326.151,127.925 325.951,114.620 325.896 L 91.440 325.800 90.896 323.400 C 89.744 318.323,89.600 317.554,89.600 316.461 C 89.600 315.841,89.711 315.222,89.847 315.087 C 90.236 314.697,261.354 315.258,261.780 315.650 M138.600 329.600 C 138.763 329.864,159.863 330.000,200.600 330.000 C 241.337 330.000,262.437 330.136,262.600 330.400 C 262.760 330.660,271.340 330.800,287.031 330.800 L 311.215 330.800 310.968 331.900 C 310.831 332.505,310.388 333.474,309.983 334.053 C 309.283 335.053,307.757 340.828,307.514 343.400 L 307.400 344.600 294.025 344.705 C 285.380 344.774,280.508 344.668,280.245 344.405 C 279.977 344.137,266.368 344.000,239.944 344.000 C 213.777 344.000,199.962 343.862,199.800 343.600 C 199.638 343.338,186.300 343.180,161.276 343.143 C 140.224 343.111,116.790 342.976,109.200 342.843 L 95.400 342.600 95.176 340.000 C 95.052 338.570,94.667 336.950,94.319 336.400 C 93.971 335.850,93.570 334.500,93.428 333.400 C 93.286 332.300,93.072 330.905,92.953 330.300 L 92.736 329.200 115.545 329.200 C 130.319 329.200,138.440 329.341,138.600 329.600 " stroke="none" fill="#00ff00" fill-rule="evenodd"></path><path id="path1" d="M211.400 86.048 C 210.520 86.710,209.340 87.690,208.778 88.226 C 208.216 88.762,207.607 89.200,207.425 89.200 C 207.243 89.200,205.247 90.910,202.990 93.000 C 200.733 95.090,198.723 96.800,198.524 96.800 C 198.325 96.800,197.459 97.520,196.600 98.400 C 195.741 99.280,194.831 100.000,194.577 100.000 C 194.324 100.000,193.023 101.125,191.686 102.500 C 188.844 105.422,185.870 108.000,185.341 108.000 C 185.137 108.000,184.083 108.900,183.000 110.000 C 181.917 111.100,180.870 112.000,180.675 112.000 C 180.479 112.000,178.203 113.980,175.618 116.400 C 173.032 118.820,170.750 120.800,170.548 120.800 C 170.346 120.800,168.839 122.150,167.200 123.800 C 165.561 125.450,164.034 126.800,163.807 126.800 C 163.265 126.800,145.200 144.880,145.200 145.422 C 145.200 145.651,144.480 146.541,143.600 147.400 C 142.720 148.259,142.000 149.122,142.000 149.317 C 142.000 149.512,141.100 150.682,140.000 151.916 C 138.900 153.150,138.000 154.362,138.000 154.610 C 138.000 154.858,137.550 155.483,137.000 156.000 C 136.450 156.517,136.000 157.105,136.000 157.308 C 136.000 157.511,135.595 158.241,135.100 158.930 C 134.087 160.341,133.363 161.513,132.957 162.400 C 132.805 162.730,132.300 163.540,131.833 164.200 C 131.366 164.860,130.727 165.940,130.412 166.600 C 130.098 167.260,129.464 168.340,129.003 169.000 C 128.543 169.660,127.582 171.370,126.869 172.800 C 125.576 175.393,125.178 176.103,123.952 177.998 C 123.596 178.549,123.168 179.450,123.000 180.000 C 122.832 180.550,122.374 181.457,121.981 182.015 C 121.497 182.703,121.203 184.058,121.071 186.215 C 120.964 187.967,120.663 190.390,120.403 191.600 C 119.446 196.050,119.423 207.409,120.366 209.994 C 120.824 211.251,121.372 213.792,121.584 215.640 C 122.178 220.830,123.109 224.885,124.201 227.038 C 124.749 228.117,125.198 229.180,125.199 229.400 C 125.202 229.992,130.090 239.641,131.117 241.083 C 131.602 241.765,132.000 242.544,132.000 242.814 C 132.000 243.517,134.540 243.038,135.904 242.077 C 136.507 241.652,137.450 241.170,138.000 241.006 C 138.550 240.842,139.573 240.278,140.273 239.754 C 140.974 239.229,141.711 238.800,141.911 238.800 C 142.112 238.800,142.602 238.440,143.000 238.000 C 143.398 237.560,143.895 237.200,144.104 237.200 C 144.314 237.200,145.167 236.660,146.000 236.000 C 146.833 235.340,147.683 234.800,147.888 234.800 C 148.093 234.800,148.683 234.350,149.200 233.800 C 149.717 233.250,150.312 232.800,150.524 232.800 C 150.735 232.800,152.425 231.405,154.279 229.700 C 156.132 227.995,158.026 226.389,158.488 226.131 C 159.550 225.538,171.200 213.930,171.200 213.465 C 171.200 213.275,173.180 211.003,175.600 208.418 C 178.020 205.832,180.000 203.545,180.000 203.337 C 180.000 203.128,180.630 202.346,181.400 201.600 C 182.170 200.854,182.800 200.074,182.800 199.867 C 182.800 199.660,183.970 198.183,185.400 196.585 C 186.830 194.988,188.000 193.514,188.000 193.310 C 188.000 193.106,188.450 192.517,189.000 192.000 C 189.550 191.483,190.000 190.891,190.000 190.685 C 190.000 190.478,190.900 189.270,192.000 188.000 C 193.100 186.730,194.000 185.522,194.000 185.315 C 194.000 185.109,194.450 184.517,195.000 184.000 C 195.550 183.483,196.000 182.899,196.000 182.702 C 196.000 182.505,196.720 181.490,197.600 180.446 C 198.480 179.402,199.200 178.366,199.200 178.144 C 199.200 177.921,199.650 177.317,200.200 176.800 C 200.750 176.283,201.200 175.686,201.200 175.473 C 201.200 175.260,201.978 174.167,202.929 173.043 C 203.881 171.919,204.788 170.730,204.945 170.400 C 205.541 169.151,206.247 168.112,207.700 166.343 C 208.525 165.339,209.200 164.339,209.200 164.121 C 209.200 163.903,209.560 163.398,210.000 163.000 C 210.440 162.602,210.800 162.111,210.800 161.910 C 210.800 161.708,211.494 160.701,212.343 159.672 C 213.191 158.642,214.008 157.530,214.158 157.200 C 214.725 155.954,215.450 154.889,217.033 152.975 C 217.931 151.889,218.793 150.730,218.948 150.400 C 219.529 149.168,220.241 148.118,221.700 146.343 C 222.525 145.339,223.200 144.343,223.200 144.129 C 223.200 143.915,223.650 143.317,224.200 142.800 C 224.750 142.283,225.200 141.686,225.200 141.473 C 225.200 141.260,226.010 140.138,227.000 138.979 C 227.990 137.821,228.800 136.707,228.800 136.506 C 228.800 136.304,229.250 135.717,229.800 135.200 C 230.350 134.683,230.800 134.087,230.800 133.875 C 230.800 133.664,231.970 132.183,233.400 130.585 C 234.830 128.988,236.000 127.519,236.000 127.321 C 236.000 127.124,236.720 126.259,237.600 125.400 C 238.480 124.541,239.200 123.654,239.200 123.429 C 239.200 123.204,240.408 121.803,241.884 120.316 L 244.568 117.611 243.333 116.306 C 242.654 115.587,242.031 114.784,241.949 114.521 C 241.867 114.257,239.595 111.707,236.900 108.853 C 234.205 106.000,232.000 103.507,232.000 103.314 C 232.000 102.413,221.703 92.800,220.737 92.800 C 219.805 92.800,218.000 91.360,218.000 90.615 C 218.000 90.432,217.325 89.461,216.500 88.457 C 215.675 87.453,214.815 86.266,214.590 85.819 C 213.992 84.636,213.202 84.692,211.400 86.048 M244.637 122.362 C 243.798 123.221,242.906 124.290,242.656 124.738 C 242.405 125.185,240.805 127.068,239.100 128.921 C 237.395 130.775,236.000 132.461,236.000 132.667 C 236.000 132.874,235.370 133.654,234.600 134.400 C 233.830 135.146,233.200 135.922,233.200 136.124 C 233.200 136.326,232.330 137.506,231.268 138.746 C 230.205 139.986,229.208 141.270,229.052 141.600 C 228.469 142.834,227.758 143.883,226.300 145.657 C 225.475 146.661,224.800 147.657,224.800 147.871 C 224.800 148.085,224.350 148.683,223.800 149.200 C 223.250 149.717,222.800 150.308,222.800 150.514 C 222.800 150.720,222.035 151.803,221.100 152.919 C 219.459 154.879,218.735 155.932,218.158 157.200 C 218.008 157.530,217.191 158.642,216.343 159.672 C 215.494 160.701,214.800 161.708,214.800 161.910 C 214.800 162.111,214.440 162.602,214.000 163.000 C 213.560 163.398,213.200 163.895,213.200 164.104 C 213.200 164.314,212.660 165.167,212.000 166.000 C 211.340 166.833,210.800 167.683,210.800 167.888 C 210.800 168.093,210.350 168.683,209.800 169.200 C 209.250 169.717,208.800 170.314,208.800 170.527 C 208.800 170.740,208.022 171.833,207.071 172.957 C 206.119 174.081,205.212 175.270,205.055 175.600 C 204.459 176.849,203.753 177.888,202.300 179.657 C 201.475 180.661,200.800 181.657,200.800 181.871 C 200.800 182.085,200.350 182.683,199.800 183.200 C 199.250 183.717,198.800 184.309,198.800 184.515 C 198.800 184.722,197.900 185.930,196.800 187.200 C 195.700 188.470,194.800 189.678,194.800 189.885 C 194.800 190.091,194.350 190.683,193.800 191.200 C 193.250 191.717,192.800 192.318,192.800 192.535 C 192.800 192.753,191.720 194.146,190.400 195.631 C 189.080 197.117,188.000 198.499,188.000 198.704 C 188.000 198.909,187.619 199.419,187.153 199.838 C 186.687 200.257,186.191 200.906,186.051 201.280 C 185.912 201.654,184.223 203.665,182.299 205.749 C 180.374 207.834,178.800 209.694,178.800 209.882 C 178.800 210.071,177.720 211.294,176.400 212.600 C 175.080 213.906,174.000 215.163,174.000 215.392 C 174.000 215.932,161.121 228.800,160.581 228.800 C 160.355 228.800,159.283 229.700,158.200 230.800 C 157.117 231.900,156.071 232.800,155.877 232.800 C 155.682 232.800,154.395 233.790,153.017 235.000 C 151.639 236.210,150.334 237.200,150.118 237.200 C 149.901 237.200,149.398 237.560,149.000 238.000 C 148.602 238.440,148.105 238.800,147.896 238.800 C 147.686 238.800,146.833 239.340,146.000 240.000 C 145.167 240.660,144.308 241.200,144.091 241.200 C 143.875 241.200,143.483 241.460,143.219 241.777 C 142.956 242.094,141.409 243.003,139.782 243.796 C 138.155 244.589,136.718 245.409,136.588 245.619 C 136.459 245.829,135.984 246.000,135.533 246.000 C 134.520 246.000,134.801 247.709,136.030 249.026 C 136.453 249.480,136.800 250.043,136.800 250.277 C 136.800 250.511,137.053 250.912,137.363 251.169 C 137.673 251.426,138.226 252.214,138.592 252.918 C 139.770 255.185,140.172 255.797,141.700 257.657 C 142.525 258.661,143.200 259.657,143.200 259.871 C 143.200 260.085,143.650 260.683,144.200 261.200 C 144.750 261.717,145.200 262.356,145.200 262.621 C 145.200 263.301,146.275 264.125,146.561 263.664 C 146.688 263.457,147.278 263.167,147.872 263.018 C 148.465 262.869,149.412 262.422,149.976 262.026 C 150.539 261.629,151.450 261.170,152.000 261.006 C 152.550 260.842,153.573 260.278,154.273 259.754 C 154.974 259.229,155.711 258.800,155.911 258.800 C 156.112 258.800,156.602 258.440,157.000 258.000 C 157.398 257.560,157.895 257.200,158.104 257.200 C 158.314 257.200,159.167 256.660,160.000 256.000 C 160.833 255.340,161.686 254.800,161.896 254.800 C 162.105 254.800,162.619 254.419,163.038 253.953 C 163.457 253.487,164.112 252.989,164.493 252.847 C 164.874 252.704,166.975 250.925,169.163 248.894 C 171.350 246.862,173.291 245.200,173.475 245.200 C 173.908 245.200,186.000 233.096,186.000 232.662 C 186.000 232.482,188.655 229.548,191.900 226.142 C 195.145 222.737,197.918 219.647,198.062 219.275 C 198.206 218.904,199.151 217.798,200.162 216.817 C 201.173 215.836,202.000 214.874,202.000 214.678 C 202.000 214.483,203.620 212.567,205.600 210.421 C 207.580 208.276,209.200 206.350,209.200 206.143 C 209.200 205.936,210.010 204.972,211.000 204.000 C 211.990 203.028,212.800 202.070,212.800 201.869 C 212.800 201.669,214.240 199.928,216.000 198.000 C 217.760 196.072,219.200 194.329,219.200 194.126 C 219.200 193.923,219.830 193.146,220.600 192.400 C 221.370 191.654,222.000 190.871,222.000 190.662 C 222.000 190.452,223.620 188.524,225.600 186.379 C 227.580 184.233,229.200 182.318,229.200 182.124 C 229.200 181.929,230.100 180.883,231.200 179.800 C 232.300 178.717,233.200 177.606,233.200 177.332 C 233.200 176.632,255.791 154.000,256.489 154.000 C 256.804 154.000,257.483 153.550,258.000 153.000 C 258.517 152.450,259.115 152.000,259.329 152.000 C 259.543 152.000,260.486 151.370,261.426 150.600 C 262.366 149.830,263.307 149.200,263.518 149.200 C 265.128 149.200,263.992 145.507,260.992 140.990 C 259.721 139.075,259.213 138.240,258.929 137.600 C 258.783 137.270,258.244 136.491,257.732 135.869 C 257.219 135.247,256.800 134.514,256.800 134.239 C 256.800 133.964,256.350 133.317,255.800 132.800 C 255.250 132.283,254.800 131.697,254.800 131.498 C 254.800 131.298,254.170 130.366,253.400 129.426 C 252.630 128.486,252.000 127.543,252.000 127.329 C 252.000 127.115,251.550 126.517,251.000 126.000 C 250.450 125.483,250.000 124.901,250.000 124.706 C 250.000 124.151,247.081 120.800,246.596 120.800 C 246.358 120.800,245.476 121.503,244.637 122.362 M265.200 152.190 C 264.650 152.508,263.930 152.894,263.600 153.048 C 263.270 153.201,262.071 154.108,260.936 155.063 C 259.801 156.019,258.714 156.800,258.521 156.800 C 258.328 156.800,257.283 157.700,256.200 158.800 C 255.117 159.900,254.041 160.800,253.810 160.800 C 253.270 160.800,242.000 172.077,242.000 172.617 C 242.000 172.840,240.830 174.183,239.400 175.600 C 237.970 177.017,236.800 178.335,236.800 178.529 C 236.800 178.722,234.820 180.997,232.400 183.582 C 229.980 186.168,228.000 188.453,228.000 188.661 C 228.000 188.868,227.280 189.741,226.400 190.600 C 225.520 191.459,224.800 192.319,224.800 192.511 C 224.800 192.703,223.495 194.298,221.900 196.056 C 220.305 197.813,218.883 199.555,218.739 199.926 C 218.595 200.297,217.740 201.312,216.839 202.181 C 215.938 203.051,215.200 203.927,215.200 204.129 C 215.200 204.330,213.760 206.072,212.000 208.000 C 210.240 209.928,208.800 211.669,208.800 211.869 C 208.800 212.070,207.990 213.028,207.000 214.000 C 206.010 214.972,205.200 215.933,205.200 216.136 C 205.200 216.340,203.310 218.532,201.000 221.009 C 198.690 223.486,196.800 225.690,196.800 225.907 C 196.800 226.123,195.090 227.984,193.000 230.042 C 190.910 232.099,189.200 233.969,189.200 234.196 C 189.200 234.731,176.720 247.200,176.185 247.200 C 175.961 247.200,174.528 248.460,173.000 250.000 C 171.472 251.540,170.064 252.800,169.872 252.800 C 169.680 252.800,168.395 253.790,167.017 255.000 C 165.639 256.210,164.334 257.200,164.118 257.200 C 163.901 257.200,163.398 257.560,163.000 258.000 C 162.602 258.440,162.103 258.800,161.891 258.800 C 161.679 258.800,160.891 259.340,160.139 260.000 C 159.387 260.660,158.530 261.200,158.235 261.200 C 157.940 261.200,157.484 261.458,157.222 261.774 C 156.960 262.090,154.960 263.215,152.779 264.274 C 148.783 266.214,148.301 266.688,149.400 267.600 C 149.730 267.874,150.000 268.315,150.000 268.579 C 150.000 268.844,150.450 269.483,151.000 270.000 C 151.550 270.517,152.000 271.112,152.000 271.324 C 152.000 271.535,153.318 273.169,154.930 274.954 C 156.541 276.739,157.976 278.518,158.119 278.906 C 158.262 279.294,158.789 279.772,159.290 279.968 C 159.790 280.163,161.579 281.600,163.264 283.162 C 164.949 284.723,166.485 286.000,166.677 286.000 C 168.020 286.000,171.200 290.300,171.200 292.116 C 171.200 293.907,171.158 293.980,170.400 293.507 C 169.763 293.109,169.438 293.108,168.805 293.504 C 168.368 293.777,167.479 294.000,166.829 294.000 C 166.179 294.000,165.548 294.161,165.426 294.358 C 165.304 294.555,163.762 294.844,162.000 295.000 C 160.238 295.156,158.696 295.445,158.574 295.642 C 158.452 295.839,157.744 296.000,157.000 296.000 C 156.256 296.000,155.548 296.161,155.426 296.358 C 155.304 296.555,153.762 296.844,152.000 297.000 C 150.238 297.156,148.696 297.445,148.574 297.642 C 148.452 297.839,147.834 298.000,147.200 298.000 C 146.566 298.000,145.945 298.165,145.821 298.366 C 145.696 298.567,144.243 298.859,142.592 299.014 C 140.940 299.168,139.490 299.454,139.371 299.648 C 139.251 299.841,138.454 300.000,137.600 300.000 C 136.746 300.000,135.945 300.165,135.821 300.366 C 135.696 300.567,134.243 300.859,132.592 301.014 C 130.940 301.168,129.490 301.454,129.371 301.648 C 129.251 301.841,128.454 302.000,127.600 302.000 C 126.746 302.000,125.945 302.165,125.821 302.366 C 125.696 302.567,124.243 302.859,122.592 303.014 C 120.940 303.168,119.490 303.454,119.371 303.648 C 119.251 303.841,118.634 304.000,118.000 304.000 C 117.366 304.000,116.749 304.159,116.629 304.352 C 116.510 304.546,115.060 304.832,113.408 304.986 C 111.757 305.141,110.304 305.433,110.179 305.634 C 110.055 305.835,109.254 306.000,108.400 306.000 C 107.546 306.000,106.749 306.159,106.629 306.352 C 106.510 306.546,105.060 306.832,103.408 306.986 C 101.757 307.141,100.304 307.433,100.179 307.634 C 100.055 307.835,99.254 308.000,98.400 308.000 C 97.546 308.000,96.736 308.180,96.600 308.400 C 96.464 308.620,95.678 308.800,94.853 308.800 C 94.028 308.800,93.004 309.064,92.576 309.387 C 91.830 309.952,91.841 309.975,92.851 309.987 C 93.429 309.994,94.126 310.270,94.400 310.600 C 94.832 311.120,97.845 311.200,117.025 311.200 C 131.346 311.200,139.240 311.341,139.400 311.600 C 139.563 311.864,160.463 312.000,200.800 312.000 C 241.137 312.000,262.037 312.136,262.200 312.400 C 262.358 312.656,268.063 312.800,278.000 312.800 C 287.937 312.800,293.642 312.656,293.800 312.400 C 293.944 312.167,293.545 312.000,292.847 312.000 C 292.187 312.000,291.544 311.833,291.417 311.628 C 291.291 311.423,290.198 311.132,288.988 310.981 C 287.779 310.830,286.691 310.548,286.571 310.353 C 286.451 310.159,285.834 310.000,285.200 310.000 C 284.566 310.000,283.951 309.844,283.833 309.653 C 283.715 309.462,282.721 309.187,281.625 309.041 C 280.530 308.896,279.525 308.602,279.393 308.388 C 279.261 308.175,278.634 308.000,278.000 308.000 C 277.366 308.000,276.749 307.841,276.629 307.647 C 276.509 307.452,275.389 307.166,274.141 307.010 C 272.893 306.854,271.540 306.563,271.136 306.363 C 270.731 306.163,270.069 305.837,269.664 305.637 C 269.260 305.437,267.907 305.146,266.659 304.990 C 265.411 304.834,264.291 304.548,264.171 304.353 C 264.051 304.159,263.434 304.000,262.800 304.000 C 262.166 304.000,261.544 303.833,261.417 303.628 C 261.291 303.423,260.198 303.132,258.988 302.981 C 257.779 302.830,256.691 302.548,256.571 302.353 C 256.451 302.159,255.834 302.000,255.200 302.000 C 254.566 302.000,253.951 301.844,253.833 301.653 C 253.715 301.462,252.721 301.187,251.625 301.041 C 250.530 300.896,249.525 300.602,249.393 300.388 C 249.261 300.175,248.634 300.000,248.000 300.000 C 247.366 300.000,246.749 299.841,246.629 299.647 C 246.509 299.452,245.389 299.166,244.141 299.010 C 242.893 298.854,241.540 298.563,241.136 298.363 C 240.731 298.163,240.069 297.837,239.664 297.637 C 239.260 297.437,237.907 297.146,236.659 296.990 C 235.411 296.834,234.291 296.548,234.171 296.353 C 234.051 296.159,233.434 296.000,232.800 296.000 C 232.166 296.000,231.546 295.837,231.423 295.637 C 231.300 295.438,230.261 295.146,229.116 294.988 C 227.970 294.831,226.665 294.516,226.216 294.289 C 225.767 294.062,225.130 293.750,224.800 293.597 C 222.733 292.639,234.709 278.313,239.627 275.862 C 240.153 275.599,240.784 274.984,241.028 274.495 C 241.271 274.006,241.770 273.275,242.136 272.871 C 242.501 272.467,242.800 271.996,242.800 271.823 C 242.800 271.650,243.655 270.493,244.700 269.252 C 246.629 266.962,247.397 265.881,247.864 264.800 C 248.007 264.470,248.694 263.480,249.391 262.600 C 250.088 261.720,250.788 260.730,250.945 260.400 C 251.323 259.609,252.018 258.455,253.000 256.990 C 254.259 255.112,254.785 254.247,255.062 253.600 C 255.203 253.270,255.700 252.460,256.167 251.800 C 256.634 251.140,257.275 250.060,257.591 249.400 C 257.907 248.740,258.403 247.911,258.692 247.558 C 259.435 246.653,267.192 231.105,267.196 230.512 C 267.198 230.244,267.538 229.422,267.952 228.685 C 268.366 227.949,268.837 226.740,269.000 226.000 C 269.163 225.260,269.640 224.042,270.060 223.293 C 270.481 222.544,270.934 221.132,271.068 220.155 C 271.202 219.178,271.467 218.282,271.656 218.165 C 271.845 218.048,272.000 217.524,272.000 217.000 C 272.000 216.476,272.162 215.947,272.361 215.824 C 272.559 215.702,272.847 214.521,273.000 213.200 C 273.153 211.879,273.441 210.698,273.639 210.576 C 273.838 210.453,274.000 209.769,274.000 209.056 C 274.000 208.343,274.170 207.589,274.378 207.380 C 274.587 207.171,274.883 204.879,275.038 202.287 C 275.193 199.695,275.472 197.479,275.659 197.363 C 276.104 197.088,276.104 185.712,275.659 185.437 C 275.472 185.321,275.191 182.925,275.036 180.113 C 274.881 177.301,274.584 174.829,274.377 174.620 C 274.170 174.411,274.000 173.747,274.000 173.144 C 274.000 172.541,273.841 171.949,273.647 171.829 C 273.452 171.709,273.166 170.589,273.010 169.341 C 272.737 167.160,272.629 166.796,271.713 164.987 C 271.487 164.540,271.178 163.550,271.028 162.787 C 270.712 161.192,270.495 160.622,269.052 157.594 C 268.473 156.381,268.000 155.225,268.000 155.025 C 268.000 154.514,266.642 151.622,266.400 151.616 C 266.290 151.614,265.750 151.872,265.200 152.190 M89.847 315.087 C 89.711 315.222,89.600 315.841,89.600 316.461 C 89.600 317.554,89.744 318.323,90.896 323.400 L 91.440 325.800 114.620 325.896 C 127.925 325.951,138.141 326.151,138.600 326.365 C 139.084 326.591,173.524 326.822,225.689 326.949 L 311.978 327.159 312.789 324.436 C 313.849 320.878,313.797 319.200,312.627 319.200 C 312.359 319.200,311.712 318.745,311.190 318.190 C 309.281 316.157,308.474 316.000,299.962 316.000 C 295.117 316.000,291.951 316.155,291.800 316.400 C 291.660 316.627,289.670 316.800,287.200 316.800 C 284.730 316.800,282.740 316.627,282.600 316.400 C 282.446 316.150,278.556 316.000,272.256 316.000 C 266.703 316.000,261.989 315.843,261.780 315.650 C 261.354 315.258,90.236 314.697,89.847 315.087 M92.953 330.300 C 93.072 330.905,93.286 332.300,93.428 333.400 C 93.570 334.500,93.971 335.850,94.319 336.400 C 94.667 336.950,95.052 338.570,95.176 340.000 L 95.400 342.600 109.200 342.843 C 116.790 342.976,140.224 343.111,161.276 343.143 C 186.300 343.180,199.638 343.338,199.800 343.600 C 199.962 343.862,213.777 344.000,239.944 344.000 C 266.368 344.000,279.977 344.137,280.245 344.405 C 280.508 344.668,285.380 344.774,294.025 344.705 L 307.400 344.600 307.514 343.400 C 307.757 340.828,309.283 335.053,309.983 334.053 C 310.388 333.474,310.831 332.505,310.968 331.900 L 311.215 330.800 287.031 330.800 C 271.340 330.800,262.760 330.660,262.600 330.400 C 262.437 330.136,241.337 330.000,200.600 330.000 C 159.863 330.000,138.763 329.864,138.600 329.600 C 138.440 329.341,130.319 329.200,115.545 329.200 L 92.736 329.200 92.953 330.300 " stroke="none" fill="#ff0000" fill-rule="evenodd"></path></g></svg>