<svg id="svg" version="1.1" xmlns="http://www.w3.org/2000/svg" xmlns:xlink="http://www.w3.org/1999/xlink" width="400" height="400" viewBox="0, 0, 400,400"><g id="svgg"><path id="path0" d="M187.600 23.000 C 187.600 23.330,187.330 23.600,187.000 23.600 C 186.484 23.600,186.400 24.911,186.400 33.000 C 186.400 41.089,186.316 42.400,185.800 42.400 C 185.470 42.400,185.200 42.649,185.200 42.953 C 185.200 43.258,184.840 43.601,184.400 43.716 C 183.960 43.831,183.600 44.212,183.600 44.563 C 183.600 45.133,182.228 45.200,170.600 45.200 C 157.867 45.200,157.600 45.184,157.600 44.400 C 157.600 43.651,157.333 43.600,153.400 43.600 L 149.200 43.600 149.200 56.000 C 149.200 66.756,149.280 68.400,149.800 68.400 C 150.130 68.400,150.400 68.670,150.400 69.000 C 150.400 69.524,152.667 69.600,168.400 69.600 L 186.400 69.600 186.400 82.600 C 186.400 93.889,186.321 95.600,185.800 95.600 C 185.467 95.600,185.200 95.956,185.200 96.400 C 185.200 96.933,184.933 97.200,184.400 97.200 C 183.956 97.200,183.600 97.467,183.600 97.800 C 183.600 98.299,182.822 98.400,179.000 98.400 C 175.178 98.400,174.400 98.501,174.400 99.000 C 174.400 99.472,173.844 99.600,171.800 99.600 C 169.467 99.600,169.200 99.682,169.200 100.400 C 169.200 101.137,168.933 101.200,165.800 101.200 C 163.044 101.200,162.400 101.314,162.400 101.800 C 162.400 102.253,161.911 102.400,160.400 102.400 C 158.889 102.400,158.400 102.547,158.400 103.000 C 158.400 103.404,157.996 103.600,157.163 103.600 C 156.262 103.600,155.868 103.817,155.716 104.400 C 155.543 105.062,155.170 105.200,153.553 105.200 C 152.084 105.200,151.600 105.349,151.600 105.800 C 151.600 106.130,151.330 106.400,151.000 106.400 C 150.670 106.400,150.400 106.670,150.400 107.000 C 150.400 107.404,149.996 107.600,149.163 107.600 C 148.262 107.600,147.868 107.817,147.716 108.400 C 147.568 108.967,147.170 109.200,146.353 109.200 C 145.595 109.200,145.200 109.405,145.200 109.800 C 145.200 110.219,144.778 110.400,143.800 110.400 C 142.822 110.400,142.400 110.581,142.400 111.000 C 142.400 111.404,141.996 111.600,141.163 111.600 C 140.262 111.600,139.868 111.817,139.716 112.400 C 139.601 112.840,139.258 113.200,138.953 113.200 C 138.649 113.200,138.400 113.470,138.400 113.800 C 138.400 114.201,137.999 114.400,137.187 114.400 C 136.479 114.400,135.879 114.649,135.745 115.000 C 135.618 115.330,135.264 115.600,134.957 115.600 C 134.651 115.600,134.400 115.960,134.400 116.400 C 134.400 117.048,134.133 117.200,133.000 117.200 C 132.022 117.200,131.600 117.381,131.600 117.800 C 131.600 118.130,131.330 118.400,131.000 118.400 C 130.670 118.400,130.400 118.670,130.400 119.000 C 130.400 119.330,130.130 119.600,129.800 119.600 C 129.467 119.600,129.200 119.956,129.200 120.400 C 129.200 120.933,128.933 121.200,128.400 121.200 C 127.956 121.200,127.600 121.467,127.600 121.800 C 127.600 122.200,127.200 122.400,126.400 122.400 C 125.645 122.400,125.200 122.605,125.200 122.953 C 125.200 123.258,124.840 123.601,124.400 123.716 C 123.960 123.831,123.600 124.212,123.600 124.563 C 123.600 124.913,123.330 125.200,123.000 125.200 C 122.670 125.200,122.400 125.470,122.400 125.800 C 122.400 126.130,122.130 126.400,121.800 126.400 C 121.470 126.400,121.200 126.670,121.200 127.000 C 121.200 127.330,120.913 127.600,120.563 127.600 C 120.212 127.600,119.831 127.960,119.716 128.400 C 119.601 128.840,119.258 129.200,118.953 129.200 C 118.605 129.200,118.400 129.645,118.400 130.400 C 118.400 131.200,118.200 131.600,117.800 131.600 C 117.467 131.600,117.200 131.956,117.200 132.400 C 117.200 132.933,116.933 133.200,116.400 133.200 C 115.956 133.200,115.600 133.467,115.600 133.800 C 115.600 134.173,115.222 134.400,114.600 134.400 C 113.978 134.400,113.600 134.173,113.600 133.800 C 113.600 133.470,113.351 133.200,113.047 133.200 C 112.742 133.200,112.399 132.840,112.284 132.400 C 112.113 131.746,111.738 131.600,110.237 131.600 C 108.871 131.600,108.400 131.446,108.400 131.000 C 108.400 130.524,107.822 130.400,105.600 130.400 C 103.378 130.400,102.800 130.276,102.800 129.800 C 102.800 129.280,101.244 129.200,91.200 129.200 C 81.156 129.200,79.600 129.280,79.600 129.800 C 79.600 130.272,79.044 130.400,77.000 130.400 C 74.956 130.400,74.400 130.528,74.400 131.000 C 74.400 131.404,73.996 131.600,73.163 131.600 C 72.262 131.600,71.868 131.817,71.716 132.400 C 71.568 132.967,71.170 133.200,70.353 133.200 C 69.595 133.200,69.200 133.405,69.200 133.800 C 69.200 134.133,68.844 134.400,68.400 134.400 C 67.956 134.400,67.600 134.667,67.600 135.000 C 67.600 135.400,67.200 135.600,66.400 135.600 C 65.467 135.600,65.200 135.778,65.200 136.400 C 65.200 136.933,64.933 137.200,64.400 137.200 C 63.956 137.200,63.600 137.467,63.600 137.800 C 63.600 138.200,63.200 138.400,62.400 138.400 C 61.645 138.400,61.200 138.605,61.200 138.953 C 61.200 139.258,60.840 139.601,60.400 139.716 C 59.960 139.831,59.600 140.212,59.600 140.563 C 59.600 140.913,59.330 141.200,59.000 141.200 C 58.670 141.200,58.400 141.470,58.400 141.800 C 58.400 142.130,58.130 142.400,57.800 142.400 C 57.470 142.400,57.200 142.649,57.200 142.953 C 57.200 143.258,56.840 143.601,56.400 143.716 C 55.960 143.831,55.600 144.212,55.600 144.563 C 55.600 144.913,55.330 145.200,55.000 145.200 C 54.600 145.200,54.400 145.600,54.400 146.400 C 54.400 147.200,54.200 147.600,53.800 147.600 C 53.467 147.600,53.200 147.956,53.200 148.400 C 53.200 148.933,52.933 149.200,52.400 149.200 C 51.956 149.200,51.600 149.467,51.600 149.800 C 51.600 150.130,51.330 150.400,51.000 150.400 C 50.581 150.400,50.400 150.822,50.400 151.800 C 50.400 152.778,50.219 153.200,49.800 153.200 C 49.470 153.200,49.200 153.449,49.200 153.753 C 49.200 154.058,48.840 154.401,48.400 154.516 C 47.817 154.668,47.600 155.062,47.600 155.963 C 47.600 156.796,47.404 157.200,47.000 157.200 C 46.600 157.200,46.400 157.600,46.400 158.400 C 46.400 159.200,46.200 159.600,45.800 159.600 C 45.381 159.600,45.200 160.022,45.200 161.000 C 45.200 162.133,45.048 162.400,44.400 162.400 C 43.752 162.400,43.600 162.667,43.600 163.800 C 43.600 164.778,43.419 165.200,43.000 165.200 C 42.600 165.200,42.400 165.600,42.400 166.400 C 42.400 167.200,42.200 167.600,41.800 167.600 C 41.381 167.600,41.200 168.022,41.200 169.000 C 41.200 170.133,41.048 170.400,40.400 170.400 C 39.682 170.400,39.600 170.667,39.600 173.000 C 39.600 175.044,39.472 175.600,39.000 175.600 C 38.547 175.600,38.400 176.089,38.400 177.600 C 38.400 179.111,38.253 179.600,37.800 179.600 C 37.381 179.600,37.200 180.022,37.200 181.000 C 37.200 182.133,37.048 182.400,36.400 182.400 C 35.653 182.400,35.600 182.667,35.600 186.400 C 35.600 189.689,35.493 190.400,35.000 190.400 C 34.514 190.400,34.400 191.044,34.400 193.800 C 34.400 196.556,34.286 197.200,33.800 197.200 C 33.298 197.200,33.200 198.039,33.200 202.353 C 33.200 207.170,33.148 207.520,32.400 207.716 C 31.143 208.045,31.143 239.955,32.400 240.284 C 33.148 240.480,33.200 240.830,33.200 245.647 C 33.200 249.961,33.298 250.800,33.800 250.800 C 34.300 250.800,34.400 251.600,34.400 255.600 C 34.400 259.600,34.500 260.400,35.000 260.400 C 35.400 260.400,35.600 260.800,35.600 261.600 C 35.600 262.533,35.778 262.800,36.400 262.800 C 37.137 262.800,37.200 263.067,37.200 266.200 C 37.200 268.956,37.314 269.600,37.800 269.600 C 38.253 269.600,38.400 270.089,38.400 271.600 C 38.400 273.111,38.547 273.600,39.000 273.600 C 39.330 273.600,39.600 273.870,39.600 274.200 C 39.600 274.533,39.956 274.800,40.400 274.800 C 41.093 274.800,41.200 275.067,41.200 276.800 C 41.200 278.311,41.347 278.800,41.800 278.800 C 42.219 278.800,42.400 279.222,42.400 280.200 C 42.400 281.178,42.581 281.600,43.000 281.600 C 43.404 281.600,43.600 282.004,43.600 282.837 C 43.600 283.738,43.817 284.132,44.400 284.284 C 44.967 284.432,45.200 284.830,45.200 285.647 C 45.200 286.405,45.405 286.800,45.800 286.800 C 46.219 286.800,46.400 287.222,46.400 288.200 C 46.400 289.178,46.581 289.600,47.000 289.600 C 47.404 289.600,47.600 290.004,47.600 290.837 C 47.600 291.738,47.817 292.132,48.400 292.284 C 48.967 292.432,49.200 292.830,49.200 293.647 C 49.200 294.405,49.405 294.800,49.800 294.800 C 50.133 294.800,50.400 295.156,50.400 295.600 C 50.400 296.044,50.667 296.400,51.000 296.400 C 51.400 296.400,51.600 296.800,51.600 297.600 C 51.600 298.533,51.778 298.800,52.400 298.800 C 52.933 298.800,53.200 299.067,53.200 299.600 C 53.200 300.044,53.467 300.400,53.800 300.400 C 54.130 300.400,54.400 300.670,54.400 301.000 C 54.400 301.330,54.670 301.600,55.000 301.600 C 55.330 301.600,55.600 301.870,55.600 302.200 C 55.600 302.533,55.956 302.800,56.400 302.800 C 56.933 302.800,57.200 303.067,57.200 303.600 C 57.200 304.044,57.467 304.400,57.800 304.400 C 58.130 304.400,58.400 304.670,58.400 305.000 C 58.400 305.330,58.670 305.600,59.000 305.600 C 59.330 305.600,59.600 305.870,59.600 306.200 C 59.600 306.533,59.956 306.800,60.400 306.800 C 60.933 306.800,61.200 307.067,61.200 307.600 C 61.200 308.044,61.467 308.400,61.800 308.400 C 62.130 308.400,62.400 308.670,62.400 309.000 C 62.400 309.330,62.670 309.600,63.000 309.600 C 63.330 309.600,63.600 309.870,63.600 310.200 C 63.600 310.533,63.956 310.800,64.400 310.800 C 64.933 310.800,65.200 311.067,65.200 311.600 C 65.200 312.044,65.467 312.400,65.800 312.400 C 66.130 312.400,66.400 312.670,66.400 313.000 C 66.400 313.330,66.670 313.600,67.000 313.600 C 67.404 313.600,67.600 314.004,67.600 314.837 C 67.600 315.738,67.817 316.132,68.400 316.284 C 69.095 316.466,69.200 316.830,69.200 319.047 C 69.200 321.050,69.329 321.600,69.800 321.600 C 70.272 321.600,70.400 322.156,70.400 324.200 C 70.400 326.244,70.528 326.800,71.000 326.800 C 71.473 326.800,71.600 327.360,71.600 329.437 C 71.600 331.738,71.702 332.102,72.400 332.284 C 73.115 332.471,73.200 332.830,73.200 335.647 C 73.200 338.183,73.317 338.800,73.800 338.800 C 74.276 338.800,74.400 339.378,74.400 341.600 C 74.400 343.822,74.524 344.400,75.000 344.400 C 75.472 344.400,75.600 344.956,75.600 347.000 C 75.600 349.333,75.682 349.600,76.400 349.600 C 77.118 349.600,77.200 349.867,77.200 352.200 C 77.200 354.244,77.328 354.800,77.800 354.800 C 78.276 354.800,78.400 355.378,78.400 357.600 C 78.400 359.822,78.524 360.400,79.000 360.400 C 79.472 360.400,79.600 360.956,79.600 363.000 C 79.600 365.333,79.682 365.600,80.400 365.600 C 81.147 365.600,81.200 365.867,81.200 369.600 C 81.200 372.889,81.307 373.600,81.800 373.600 C 82.219 373.600,82.400 374.022,82.400 375.000 C 82.400 375.978,82.581 376.400,83.000 376.400 C 83.330 376.400,83.600 376.670,83.600 377.000 C 83.600 377.532,97.089 377.600,202.600 377.600 C 308.111 377.600,321.600 377.532,321.600 377.000 C 321.600 376.670,321.870 376.400,322.200 376.400 C 322.700 376.400,322.800 375.600,322.800 371.600 C 322.800 367.067,322.844 366.800,323.600 366.800 C 324.318 366.800,324.400 366.533,324.400 364.200 C 324.400 362.156,324.528 361.600,325.000 361.600 C 325.472 361.600,325.600 361.044,325.600 359.000 C 325.600 356.956,325.728 356.400,326.200 356.400 C 326.686 356.400,326.800 355.756,326.800 353.000 C 326.800 349.867,326.863 349.600,327.600 349.600 C 328.248 349.600,328.400 349.333,328.400 348.200 C 328.400 347.222,328.581 346.800,329.000 346.800 C 329.493 346.800,329.600 346.089,329.600 342.800 C 329.600 339.511,329.707 338.800,330.200 338.800 C 330.683 338.800,330.800 338.183,330.800 335.647 C 330.800 332.830,330.885 332.471,331.600 332.284 C 332.298 332.102,332.400 331.738,332.400 329.437 C 332.400 327.360,332.527 326.800,333.000 326.800 C 333.483 326.800,333.600 326.178,333.600 323.600 C 333.600 321.022,333.717 320.400,334.200 320.400 C 334.619 320.400,334.800 319.978,334.800 319.000 C 334.800 317.867,334.952 317.600,335.600 317.600 C 336.337 317.600,336.400 317.333,336.400 314.200 C 336.400 311.444,336.514 310.800,337.000 310.800 C 337.330 310.800,337.600 310.530,337.600 310.200 C 337.600 309.870,337.870 309.600,338.200 309.600 C 338.530 309.600,338.800 309.330,338.800 309.000 C 338.800 308.670,339.087 308.400,339.437 308.400 C 339.788 308.400,340.169 308.040,340.284 307.600 C 340.399 307.160,340.742 306.800,341.047 306.800 C 341.351 306.800,341.600 306.530,341.600 306.200 C 341.600 305.870,341.870 305.600,342.200 305.600 C 342.530 305.600,342.800 305.330,342.800 305.000 C 342.800 304.670,343.087 304.400,343.437 304.400 C 343.788 304.400,344.169 304.040,344.284 303.600 C 344.399 303.160,344.742 302.800,345.047 302.800 C 345.351 302.800,345.600 302.530,345.600 302.200 C 345.600 301.870,345.870 301.600,346.200 301.600 C 346.619 301.600,346.800 301.178,346.800 300.200 C 346.800 299.067,346.952 298.800,347.600 298.800 C 348.044 298.800,348.400 298.533,348.400 298.200 C 348.400 297.870,348.670 297.600,349.000 297.600 C 349.419 297.600,349.600 297.178,349.600 296.200 C 349.600 295.222,349.781 294.800,350.200 294.800 C 350.530 294.800,350.800 294.530,350.800 294.200 C 350.800 293.870,351.000 293.600,351.244 293.600 C 352.369 293.600,353.586 291.786,353.593 290.100 C 353.598 288.859,353.762 288.400,354.200 288.400 C 354.533 288.400,354.800 288.044,354.800 287.600 C 354.800 287.067,355.067 286.800,355.600 286.800 C 356.293 286.800,356.400 286.533,356.400 284.800 C 356.400 283.289,356.547 282.800,357.000 282.800 C 357.400 282.800,357.600 282.400,357.600 281.600 C 357.600 280.800,357.800 280.400,358.200 280.400 C 358.533 280.400,358.800 280.044,358.800 279.600 C 358.800 279.067,359.067 278.800,359.600 278.800 C 360.318 278.800,360.400 278.533,360.400 276.200 C 360.400 274.156,360.528 273.600,361.000 273.600 C 361.453 273.600,361.600 273.111,361.600 271.600 C 361.600 270.089,361.747 269.600,362.200 269.600 C 362.653 269.600,362.800 269.111,362.800 267.600 C 362.800 265.867,362.907 265.600,363.600 265.600 C 364.318 265.600,364.400 265.333,364.400 263.000 C 364.400 260.956,364.528 260.400,365.000 260.400 C 365.476 260.400,365.600 259.822,365.600 257.600 C 365.600 255.378,365.724 254.800,366.200 254.800 C 366.699 254.800,366.800 254.022,366.800 250.200 C 366.800 245.867,366.846 245.600,367.600 245.600 C 368.861 245.600,368.861 200.046,367.600 199.716 C 366.852 199.520,366.800 199.170,366.800 194.353 C 366.800 190.039,366.702 189.200,366.200 189.200 C 365.781 189.200,365.600 188.778,365.600 187.800 C 365.600 186.822,365.419 186.400,365.000 186.400 C 364.528 186.400,364.400 185.844,364.400 183.800 C 364.400 181.467,364.318 181.200,363.600 181.200 C 362.863 181.200,362.800 180.933,362.800 177.800 C 362.800 175.044,362.686 174.400,362.200 174.400 C 361.870 174.400,361.600 174.130,361.600 173.800 C 361.600 173.470,361.330 173.200,361.000 173.200 C 360.547 173.200,360.400 172.711,360.400 171.200 C 360.400 169.467,360.293 169.200,359.600 169.200 C 358.907 169.200,358.800 168.933,358.800 167.200 C 358.800 165.689,358.653 165.200,358.200 165.200 C 357.781 165.200,357.600 164.778,357.600 163.800 C 357.600 162.822,357.419 162.400,357.000 162.400 C 356.596 162.400,356.400 161.996,356.400 161.163 C 356.400 160.262,356.183 159.868,355.600 159.716 C 355.033 159.568,354.800 159.170,354.800 158.353 C 354.800 157.595,354.595 157.200,354.200 157.200 C 353.781 157.200,353.600 156.778,353.600 155.800 C 353.600 154.822,353.419 154.400,353.000 154.400 C 352.670 154.400,352.400 154.130,352.400 153.800 C 352.400 153.467,352.044 153.200,351.600 153.200 C 350.952 153.200,350.800 152.933,350.800 151.800 C 350.800 150.822,350.619 150.400,350.200 150.400 C 349.870 150.400,349.600 150.130,349.600 149.800 C 349.600 149.470,349.330 149.200,349.000 149.200 C 348.596 149.200,348.400 148.796,348.400 147.963 C 348.400 147.062,348.183 146.668,347.600 146.516 C 347.160 146.401,346.800 146.058,346.800 145.753 C 346.800 145.449,346.530 145.200,346.200 145.200 C 345.870 145.200,345.600 144.924,345.600 144.587 C 345.600 144.251,345.330 143.871,345.000 143.745 C 344.670 143.618,344.400 143.264,344.400 142.957 C 344.400 142.651,344.040 142.400,343.600 142.400 C 342.952 142.400,342.800 142.133,342.800 141.000 C 342.800 140.022,342.619 139.600,342.200 139.600 C 341.870 139.600,341.600 139.330,341.600 139.000 C 341.600 138.581,341.178 138.400,340.200 138.400 C 339.222 138.400,338.800 138.219,338.800 137.800 C 338.800 137.470,338.530 137.200,338.200 137.200 C 337.870 137.200,337.597 136.975,337.593 136.700 C 337.581 135.840,335.735 134.400,334.644 134.400 C 333.983 134.400,333.600 134.180,333.600 133.800 C 333.600 133.470,333.351 133.200,333.047 133.200 C 332.742 133.200,332.399 132.840,332.284 132.400 C 332.132 131.817,331.738 131.600,330.837 131.600 C 330.004 131.600,329.600 131.404,329.600 131.000 C 329.600 130.670,329.330 130.400,329.000 130.400 C 328.670 130.400,328.400 130.130,328.400 129.800 C 328.400 129.324,327.822 129.200,325.600 129.200 C 323.067 129.200,322.800 129.124,322.800 128.400 C 322.800 127.682,322.533 127.600,320.200 127.600 C 318.156 127.600,317.600 127.472,317.600 127.000 C 317.600 126.484,316.333 126.400,308.600 126.400 C 300.867 126.400,299.600 126.484,299.600 127.000 C 299.600 127.472,299.044 127.600,297.000 127.600 C 294.667 127.600,294.400 127.682,294.400 128.400 C 294.400 129.093,294.133 129.200,292.400 129.200 C 290.889 129.200,290.400 129.347,290.400 129.800 C 290.400 130.219,289.978 130.400,289.000 130.400 C 288.022 130.400,287.600 130.581,287.600 131.000 C 287.600 131.400,287.200 131.600,286.400 131.600 C 285.467 131.600,285.200 131.778,285.200 132.400 C 285.200 132.933,284.933 133.200,284.400 133.200 C 283.956 133.200,283.600 133.467,283.600 133.800 C 283.600 134.233,283.156 134.400,282.000 134.400 C 280.844 134.400,280.400 134.233,280.400 133.800 C 280.400 133.467,280.044 133.200,279.600 133.200 C 279.067 133.200,278.800 132.933,278.800 132.400 C 278.800 131.956,278.533 131.600,278.200 131.600 C 277.800 131.600,277.600 131.200,277.600 130.400 C 277.600 129.645,277.395 129.200,277.047 129.200 C 276.742 129.200,276.399 128.840,276.284 128.400 C 276.169 127.960,275.788 127.600,275.437 127.600 C 275.087 127.600,274.800 127.330,274.800 127.000 C 274.800 126.670,274.530 126.400,274.200 126.400 C 273.870 126.400,273.600 126.130,273.600 125.800 C 273.600 125.470,273.351 125.200,273.047 125.200 C 272.742 125.200,272.399 124.840,272.284 124.400 C 272.169 123.960,271.788 123.600,271.437 123.600 C 271.087 123.600,270.800 123.330,270.800 123.000 C 270.800 122.600,270.400 122.400,269.600 122.400 C 268.800 122.400,268.400 122.200,268.400 121.800 C 268.400 121.467,268.044 121.200,267.600 121.200 C 267.067 121.200,266.800 120.933,266.800 120.400 C 266.800 119.956,266.533 119.600,266.200 119.600 C 265.870 119.600,265.600 119.330,265.600 119.000 C 265.600 118.670,265.330 118.400,265.000 118.400 C 264.670 118.400,264.400 118.130,264.400 117.800 C 264.400 117.381,263.978 117.200,263.000 117.200 C 261.867 117.200,261.600 117.048,261.600 116.400 C 261.600 115.960,261.349 115.600,261.043 115.600 C 260.736 115.600,260.382 115.330,260.255 115.000 C 260.121 114.649,259.521 114.400,258.813 114.400 C 258.001 114.400,257.600 114.201,257.600 113.800 C 257.600 113.470,257.351 113.200,257.047 113.200 C 256.742 113.200,256.399 112.840,256.284 112.400 C 256.132 111.817,255.738 111.600,254.837 111.600 C 254.004 111.600,253.600 111.404,253.600 111.000 C 253.600 110.581,253.178 110.400,252.200 110.400 C 251.222 110.400,250.800 110.219,250.800 109.800 C 250.800 109.405,250.405 109.200,249.647 109.200 C 248.830 109.200,248.432 108.967,248.284 108.400 C 248.132 107.817,247.738 107.600,246.837 107.600 C 246.004 107.600,245.600 107.404,245.600 107.000 C 245.600 106.670,245.330 106.400,245.000 106.400 C 244.670 106.400,244.400 106.130,244.400 105.800 C 244.400 105.349,243.916 105.200,242.447 105.200 C 240.830 105.200,240.457 105.062,240.284 104.400 C 240.132 103.817,239.738 103.600,238.837 103.600 C 238.004 103.600,237.600 103.404,237.600 103.000 C 237.600 102.547,237.111 102.400,235.600 102.400 C 234.089 102.400,233.600 102.253,233.600 101.800 C 233.600 101.314,232.956 101.200,230.200 101.200 C 227.067 101.200,226.800 101.137,226.800 100.400 C 226.800 99.682,226.533 99.600,224.200 99.600 C 222.156 99.600,221.600 99.472,221.600 99.000 C 221.600 98.514,220.956 98.400,218.200 98.400 L 214.800 98.400 214.800 84.600 L 214.800 70.800 234.200 70.800 C 251.178 70.800,253.600 70.725,253.600 70.200 C 253.600 69.870,253.870 69.600,254.200 69.600 C 254.720 69.600,254.800 67.978,254.800 57.400 L 254.800 45.200 234.200 45.200 L 213.600 45.200 213.600 33.800 L 213.600 22.400 200.600 22.400 C 189.311 22.400,187.600 22.479,187.600 23.000 M207.200 41.200 L 207.200 45.200 203.600 45.200 L 200.000 45.200 200.000 41.467 C 200.000 36.954,199.777 37.200,203.867 37.200 L 207.200 37.200 207.200 41.200 M217.800 57.600 C 217.958 57.856,223.671 58.000,233.624 58.000 L 249.200 58.000 249.200 61.000 L 249.200 64.000 233.600 64.000 C 220.150 64.000,218.000 64.081,218.000 64.587 C 218.000 65.064,217.115 65.196,213.300 65.287 L 208.600 65.400 208.345 69.200 C 208.204 71.290,208.069 78.625,208.045 85.500 L 208.000 98.000 204.400 98.000 L 200.800 98.000 200.772 85.500 C 200.756 78.625,200.561 71.380,200.338 69.400 C 199.850 65.064,199.842 64.158,200.269 60.800 L 200.600 58.200 202.800 58.077 C 204.010 58.009,205.171 57.784,205.380 57.577 C 205.896 57.065,217.482 57.086,217.800 57.600 M186.580 58.500 C 186.666 58.775,186.823 60.125,186.930 61.500 L 187.124 64.000 175.962 64.000 L 164.800 64.000 164.800 61.000 L 164.800 58.000 175.613 58.000 C 183.913 58.000,186.461 58.116,186.580 58.500 M206.600 117.600 C 206.736 117.820,208.266 118.000,210.000 118.000 C 211.734 118.000,213.248 118.154,213.364 118.342 C 213.480 118.530,215.246 118.809,217.288 118.963 C 219.329 119.117,221.171 119.413,221.380 119.621 C 221.589 119.830,222.253 120.000,222.856 120.000 C 223.459 120.000,224.051 120.159,224.171 120.353 C 224.291 120.547,225.559 120.831,226.990 120.984 C 228.421 121.137,229.694 121.429,229.819 121.631 C 229.945 121.834,230.476 122.000,231.000 122.000 C 231.524 122.000,232.054 122.164,232.178 122.365 C 232.303 122.566,233.122 122.852,234.000 123.000 C 234.878 123.148,235.697 123.434,235.822 123.635 C 235.946 123.836,236.476 124.000,237.000 124.000 C 237.524 124.000,238.051 124.160,238.172 124.355 C 238.293 124.550,239.037 124.830,239.826 124.978 C 240.615 125.126,241.882 125.597,242.642 126.024 C 243.402 126.451,244.217 126.800,244.452 126.800 C 244.687 126.800,245.491 127.070,246.240 127.400 C 246.988 127.730,248.275 128.279,249.100 128.619 C 249.925 128.960,250.915 129.410,251.300 129.619 C 252.938 130.510,253.463 130.778,254.600 131.301 C 255.260 131.604,256.160 132.066,256.600 132.326 C 257.040 132.587,257.850 132.977,258.400 133.193 C 258.950 133.409,260.120 134.031,261.000 134.574 C 261.880 135.118,263.770 136.146,265.200 136.860 C 266.630 137.574,268.511 138.707,269.380 139.379 C 270.967 140.605,272.084 141.327,273.200 141.849 C 273.530 142.004,274.336 142.506,274.992 142.965 C 275.647 143.424,276.547 143.984,276.992 144.209 C 277.467 144.450,277.854 145.109,277.931 145.809 C 278.062 146.998,279.775 149.200,280.569 149.200 C 281.125 149.200,290.800 158.864,290.800 159.419 C 290.800 159.656,291.340 160.368,292.000 161.000 C 292.660 161.632,293.200 162.311,293.200 162.508 C 293.200 162.704,293.793 163.616,294.517 164.533 C 295.241 165.450,296.093 166.740,296.409 167.400 C 296.725 168.060,297.372 169.140,297.845 169.800 C 298.319 170.460,298.842 171.450,299.006 172.000 C 299.170 172.550,299.641 173.478,300.052 174.062 C 300.464 174.646,300.800 175.421,300.800 175.785 C 300.800 176.148,301.250 177.252,301.800 178.237 C 302.350 179.222,302.800 180.220,302.800 180.454 C 302.800 180.688,303.088 181.536,303.441 182.340 C 304.626 185.041,304.752 185.395,305.028 186.787 C 305.178 187.550,305.459 188.495,305.651 188.887 C 305.843 189.279,306.158 189.922,306.351 190.315 C 306.543 190.709,306.824 191.834,306.973 192.815 C 307.227 194.479,307.604 195.631,308.433 197.272 C 308.619 197.642,308.894 199.132,309.042 200.583 C 309.191 202.035,309.467 203.318,309.656 203.435 C 309.845 203.552,310.000 204.166,310.000 204.800 C 310.000 205.434,310.165 206.055,310.366 206.179 C 310.567 206.304,310.859 207.757,311.014 209.408 C 311.168 211.060,311.454 212.510,311.648 212.629 C 311.841 212.749,312.000 213.636,312.000 214.600 C 312.000 215.564,312.163 216.453,312.361 216.576 C 312.560 216.699,312.852 218.692,313.010 221.006 C 313.167 223.319,313.455 225.310,313.648 225.430 C 313.842 225.549,314.000 226.616,314.000 227.800 C 314.000 228.984,314.163 230.053,314.362 230.176 C 314.561 230.299,314.854 233.104,315.014 236.408 C 315.173 239.713,315.460 242.513,315.652 242.632 C 315.843 242.750,316.000 244.511,316.000 246.544 C 316.000 248.577,316.170 250.411,316.377 250.620 C 316.584 250.829,316.882 256.002,317.039 262.115 C 317.195 268.228,317.476 273.323,317.662 273.438 C 317.848 273.553,318.000 281.161,318.000 290.344 C 318.000 301.168,318.144 307.184,318.408 307.448 C 318.667 307.707,318.777 310.920,318.708 316.228 L 318.600 324.600 291.223 324.703 C 273.240 324.770,263.707 324.667,263.443 324.403 C 263.176 324.136,242.424 324.000,201.944 324.000 C 161.644 324.000,140.763 323.864,140.600 323.600 C 140.439 323.340,130.996 323.200,113.576 323.200 L 86.800 323.200 86.800 322.195 C 86.800 321.642,86.620 320.832,86.400 320.395 C 86.180 319.958,85.816 319.236,85.591 318.791 C 85.366 318.346,85.071 317.172,84.935 316.180 C 84.799 315.189,84.533 314.282,84.344 314.165 C 84.155 314.048,84.000 313.549,84.000 313.056 C 84.000 312.563,83.819 311.979,83.598 311.758 C 83.365 311.525,83.085 307.191,82.933 301.461 C 82.789 296.020,82.520 291.474,82.336 291.360 C 81.897 291.089,81.897 262.111,82.336 261.840 C 82.521 261.725,82.792 257.627,82.939 252.733 C 83.088 247.772,83.382 243.658,83.603 243.437 C 83.822 243.218,84.000 241.647,84.000 239.944 C 84.000 238.241,84.164 236.746,84.365 236.622 C 84.566 236.498,84.859 234.233,85.017 231.590 C 85.175 228.946,85.460 226.686,85.652 226.568 C 85.843 226.450,86.000 225.564,86.000 224.600 C 86.000 223.636,86.159 222.749,86.352 222.629 C 86.546 222.510,86.832 221.060,86.986 219.408 C 87.141 217.757,87.433 216.304,87.634 216.179 C 87.835 216.055,88.000 215.074,88.000 214.000 C 88.000 212.926,88.162 211.947,88.361 211.824 C 88.559 211.702,88.847 210.521,89.000 209.200 C 89.153 207.879,89.441 206.698,89.639 206.576 C 89.838 206.453,90.000 205.834,90.000 205.200 C 90.000 204.566,90.159 203.949,90.353 203.829 C 90.548 203.709,90.834 202.589,90.990 201.341 C 91.266 199.133,91.377 198.766,92.330 196.917 C 92.580 196.432,92.902 195.303,93.045 194.409 C 93.188 193.514,93.461 192.686,93.653 192.568 C 93.844 192.449,94.000 191.834,94.000 191.200 C 94.000 190.566,94.180 189.936,94.400 189.800 C 94.620 189.664,94.800 189.276,94.800 188.937 C 94.800 188.360,95.603 186.280,96.434 184.705 C 96.635 184.323,96.800 183.811,96.800 183.566 C 96.800 183.321,97.088 182.464,97.441 181.660 C 97.793 180.857,98.231 179.840,98.414 179.400 C 99.738 176.210,100.273 175.007,101.703 172.000 C 102.593 170.130,103.633 168.240,104.014 167.800 C 104.396 167.360,104.840 166.550,105.000 166.000 C 105.161 165.450,105.722 164.427,106.246 163.727 C 106.771 163.026,107.200 162.289,107.200 162.089 C 107.200 161.888,107.560 161.398,108.000 161.000 C 108.440 160.602,108.800 160.048,108.800 159.769 C 108.800 159.490,109.250 158.727,109.800 158.073 C 110.350 157.419,110.800 156.719,110.800 156.517 C 110.800 156.315,111.340 155.632,112.000 155.000 C 112.660 154.368,113.200 153.662,113.200 153.431 C 113.200 152.879,122.862 143.200,123.413 143.200 C 123.646 143.200,124.541 142.480,125.400 141.600 C 126.259 140.720,127.174 140.000,127.432 140.000 C 127.691 140.000,128.102 139.760,128.345 139.466 C 128.589 139.172,129.646 138.502,130.694 137.977 C 131.742 137.453,133.140 136.634,133.800 136.158 C 134.460 135.682,135.450 135.158,136.000 134.994 C 136.550 134.830,137.451 134.404,138.002 134.048 C 139.915 132.811,140.613 132.421,143.000 131.258 C 146.244 129.677,148.252 128.802,148.660 128.791 C 148.847 128.786,149.450 128.430,150.000 128.000 C 150.550 127.570,151.371 127.214,151.824 127.209 C 152.276 127.204,152.996 126.936,153.424 126.613 C 153.851 126.290,154.594 126.020,155.076 126.013 C 155.558 126.006,156.064 125.820,156.200 125.600 C 156.336 125.380,156.724 125.200,157.063 125.200 C 157.644 125.200,159.734 124.391,161.309 123.558 C 161.699 123.351,162.828 123.071,163.820 122.935 C 164.811 122.799,165.718 122.533,165.835 122.344 C 165.952 122.155,166.476 122.000,167.000 122.000 C 167.524 122.000,168.053 121.838,168.176 121.639 C 168.298 121.441,169.479 121.153,170.800 121.000 C 172.121 120.847,173.302 120.559,173.424 120.361 C 173.547 120.162,174.231 120.000,174.944 120.000 C 175.657 120.000,176.411 119.830,176.620 119.621 C 176.829 119.413,178.671 119.117,180.712 118.963 C 182.754 118.809,184.520 118.530,184.636 118.342 C 184.752 118.154,186.086 118.000,187.600 118.000 C 189.114 118.000,190.464 117.820,190.600 117.600 C 190.751 117.356,193.863 117.200,198.600 117.200 C 203.337 117.200,206.449 117.356,206.600 117.600 M184.636 122.342 C 184.520 122.530,182.754 122.809,180.712 122.963 C 178.671 123.117,176.829 123.413,176.620 123.621 C 176.411 123.830,175.747 124.000,175.144 124.000 C 174.541 124.000,173.952 124.155,173.835 124.344 C 173.718 124.533,172.621 124.805,171.398 124.949 C 170.174 125.093,168.819 125.388,168.386 125.605 C 167.954 125.822,167.262 126.168,166.849 126.373 C 166.436 126.578,165.401 126.873,164.549 127.028 C 163.697 127.184,162.522 127.646,161.938 128.055 C 161.354 128.465,160.613 128.800,160.291 128.800 C 159.532 128.800,150.844 133.123,149.800 134.020 C 149.360 134.399,148.550 134.841,148.000 135.004 C 147.450 135.167,146.071 136.088,144.936 137.050 C 143.801 138.013,142.707 138.800,142.506 138.800 C 142.304 138.800,141.717 139.250,141.200 139.800 C 140.683 140.350,140.026 140.800,139.740 140.800 C 139.050 140.800,127.200 152.627,127.200 153.316 C 127.200 153.610,126.660 154.368,126.000 155.000 C 125.340 155.632,124.800 156.311,124.800 156.508 C 124.800 156.704,124.207 157.616,123.483 158.533 C 122.759 159.450,121.907 160.740,121.591 161.400 C 121.275 162.060,120.628 163.140,120.155 163.800 C 119.681 164.460,119.158 165.450,118.994 166.000 C 118.830 166.550,118.359 167.478,117.948 168.062 C 117.536 168.646,117.200 169.466,117.200 169.885 C 117.200 170.304,116.936 170.996,116.613 171.424 C 116.290 171.851,116.014 172.560,116.000 173.000 C 115.986 173.440,115.710 174.149,115.387 174.576 C 115.064 175.004,114.800 175.758,114.800 176.253 C 114.800 176.748,114.620 177.264,114.400 177.400 C 114.180 177.536,114.000 178.141,114.000 178.744 C 114.000 179.347,113.810 180.030,113.577 180.263 C 113.344 180.496,113.049 181.707,112.920 182.955 C 112.791 184.203,112.531 185.319,112.343 185.435 C 112.154 185.552,112.000 186.616,112.000 187.800 C 112.000 188.984,111.820 190.064,111.600 190.200 C 111.354 190.352,111.200 193.730,111.200 199.000 C 111.200 204.270,111.354 207.648,111.600 207.800 C 111.820 207.936,112.000 208.926,112.000 210.000 C 112.000 211.074,112.156 212.049,112.347 212.167 C 112.538 212.286,112.817 213.461,112.966 214.779 C 113.115 216.097,113.409 217.282,113.618 217.411 C 113.828 217.541,114.000 218.166,114.000 218.800 C 114.000 219.434,114.160 220.051,114.355 220.172 C 114.550 220.293,114.830 221.037,114.978 221.826 C 115.126 222.615,115.597 223.882,116.024 224.642 C 116.451 225.402,116.800 226.230,116.800 226.482 C 116.800 227.090,119.939 233.483,120.979 234.992 C 121.956 236.410,122.666 237.579,123.048 238.400 C 123.201 238.730,124.108 239.929,125.063 241.064 C 126.019 242.199,126.800 243.287,126.800 243.483 C 126.800 243.678,127.520 244.541,128.400 245.400 C 129.280 246.259,130.000 247.155,130.000 247.391 C 130.000 247.938,136.081 254.000,136.630 254.000 C 136.857 254.000,137.654 254.630,138.400 255.400 C 139.146 256.170,140.014 256.800,140.327 256.800 C 140.641 256.800,149.032 264.900,158.974 274.800 C 168.915 284.700,177.220 292.800,177.428 292.800 C 178.084 292.800,195.200 310.175,195.200 310.841 C 195.200 312.315,198.659 313.599,199.400 312.400 C 199.536 312.180,200.155 312.000,200.775 312.000 C 202.163 312.000,202.619 311.455,202.933 309.419 C 203.138 308.086,203.806 307.206,207.188 303.812 C 209.395 301.598,211.200 299.634,211.200 299.447 C 211.200 299.260,216.780 293.392,223.600 286.406 C 230.420 279.421,236.000 273.544,236.000 273.346 C 236.000 273.149,238.070 270.923,240.600 268.400 C 243.130 265.877,245.202 263.630,245.204 263.407 C 245.206 263.183,249.436 258.718,254.604 253.485 C 259.772 248.252,264.000 243.738,264.000 243.455 C 264.000 243.171,264.450 242.517,265.000 242.000 C 265.550 241.483,266.000 240.893,266.000 240.688 C 266.000 240.483,266.585 239.578,267.300 238.677 C 268.872 236.696,268.965 236.534,271.722 231.000 C 274.512 225.399,275.200 223.828,275.200 223.063 C 275.200 222.724,275.380 222.336,275.600 222.200 C 275.820 222.064,276.000 221.524,276.000 221.000 C 276.000 220.476,276.175 219.939,276.388 219.807 C 276.602 219.675,276.896 218.670,277.041 217.575 C 277.187 216.479,277.462 215.485,277.653 215.367 C 277.844 215.249,278.000 214.479,278.000 213.656 C 278.000 212.833,278.225 211.935,278.500 211.660 C 279.351 210.809,279.479 187.643,278.643 185.966 C 278.289 185.257,278.000 184.085,278.000 183.362 C 278.000 182.639,277.836 181.946,277.635 181.822 C 277.434 181.697,277.154 180.832,277.012 179.898 C 276.770 178.302,276.383 177.136,275.553 175.505 C 275.359 175.123,275.200 174.483,275.200 174.082 C 275.200 173.681,274.936 173.004,274.613 172.576 C 274.290 172.149,274.018 171.530,274.010 171.200 C 273.985 170.267,269.767 162.043,268.489 160.436 C 267.860 159.646,267.216 158.730,267.057 158.400 C 266.270 156.763,265.480 155.684,263.240 153.182 C 261.898 151.683,260.800 150.313,260.800 150.138 C 260.800 149.700,255.106 144.000,254.669 144.000 C 254.475 144.000,252.851 142.695,251.059 141.100 C 247.890 138.280,246.841 137.479,245.600 136.929 C 245.270 136.783,244.491 136.244,243.869 135.732 C 243.247 135.219,242.504 134.800,242.218 134.800 C 241.932 134.800,241.488 134.547,241.232 134.239 C 240.715 133.616,231.190 128.800,230.475 128.800 C 230.227 128.800,229.402 128.451,228.642 128.024 C 227.882 127.597,226.615 127.126,225.826 126.978 C 225.037 126.830,224.293 126.550,224.172 126.355 C 224.051 126.160,223.524 126.000,223.000 126.000 C 222.476 126.000,221.939 125.825,221.807 125.612 C 221.675 125.398,220.670 125.104,219.575 124.959 C 218.479 124.813,217.485 124.538,217.367 124.347 C 217.249 124.156,216.479 124.000,215.656 124.000 C 214.833 124.000,213.977 123.817,213.754 123.594 C 213.531 123.371,211.599 123.073,209.460 122.933 C 207.321 122.792,205.477 122.525,205.362 122.339 C 205.087 121.894,184.911 121.897,184.636 122.342 M204.600 137.600 C 204.736 137.820,205.816 138.000,207.000 138.000 C 208.184 138.000,209.248 138.155,209.365 138.344 C 209.482 138.533,210.765 138.809,212.217 138.958 C 213.668 139.106,215.203 139.402,215.628 139.614 C 216.053 139.826,216.752 140.177,217.183 140.392 C 217.613 140.608,218.738 140.908,219.683 141.058 C 220.627 141.208,221.990 141.661,222.712 142.065 C 223.434 142.469,224.227 142.800,224.475 142.800 C 225.190 142.800,234.715 147.616,235.232 148.239 C 235.488 148.547,235.889 148.800,236.123 148.800 C 236.357 148.800,237.402 149.520,238.446 150.400 C 239.490 151.280,240.501 152.000,240.693 152.000 C 240.886 152.000,241.654 152.630,242.400 153.400 C 243.146 154.170,243.943 154.800,244.170 154.800 C 244.723 154.800,250.800 160.864,250.800 161.416 C 250.800 161.655,251.340 162.368,252.000 163.000 C 252.660 163.632,253.200 164.312,253.200 164.511 C 253.200 164.710,253.987 165.801,254.950 166.936 C 255.912 168.071,256.836 169.450,257.002 170.000 C 257.169 170.550,257.641 171.478,258.052 172.062 C 258.464 172.646,258.800 173.249,258.800 173.401 C 258.800 173.665,259.042 174.254,260.553 177.660 C 260.909 178.464,261.200 179.321,261.200 179.566 C 261.200 179.811,261.408 180.413,261.662 180.905 C 261.917 181.397,262.279 182.116,262.468 182.503 C 262.656 182.890,262.925 184.561,263.065 186.217 C 263.205 187.872,263.473 189.321,263.660 189.437 C 263.847 189.553,264.000 191.131,264.000 192.944 C 264.000 194.974,264.184 196.424,264.480 196.720 C 264.853 197.093,264.853 197.307,264.480 197.680 C 264.180 197.980,264.000 199.470,264.000 201.656 C 264.000 203.579,263.845 205.248,263.656 205.365 C 263.467 205.482,263.191 206.765,263.042 208.217 C 262.894 209.668,262.598 211.203,262.386 211.628 C 262.174 212.053,261.820 212.758,261.600 213.195 C 261.380 213.632,261.200 214.189,261.200 214.434 C 261.200 214.679,260.930 215.491,260.600 216.240 C 260.270 216.988,259.730 218.212,259.400 218.960 C 259.070 219.709,258.800 220.446,258.800 220.599 C 258.800 220.751,258.464 221.354,258.052 221.938 C 257.641 222.522,257.169 223.450,257.002 224.000 C 256.836 224.550,255.912 225.929,254.950 227.064 C 253.987 228.199,253.200 229.293,253.200 229.494 C 253.200 229.696,252.750 230.283,252.200 230.800 C 251.650 231.317,251.200 231.930,251.200 232.162 C 251.200 232.719,243.942 240.000,243.386 240.000 C 243.150 240.000,242.346 240.630,241.600 241.400 C 240.854 242.170,240.079 242.800,239.879 242.800 C 239.679 242.800,238.833 243.340,238.000 244.000 C 237.167 244.660,236.308 245.200,236.091 245.200 C 235.875 245.200,235.488 245.453,235.232 245.761 C 234.715 246.384,225.190 251.200,224.475 251.200 C 224.227 251.200,223.402 251.549,222.642 251.976 C 221.882 252.403,220.572 252.866,219.730 253.005 C 218.284 253.244,217.058 253.660,215.528 254.433 C 215.158 254.619,213.668 254.894,212.217 255.042 C 210.765 255.191,209.482 255.467,209.365 255.656 C 209.248 255.845,208.209 256.000,207.056 256.000 C 205.903 256.000,204.769 256.191,204.535 256.425 C 204.260 256.700,200.897 256.850,195.000 256.850 C 189.103 256.850,185.740 256.700,185.465 256.425 C 185.231 256.191,184.097 256.000,182.944 256.000 C 181.791 256.000,180.752 255.845,180.635 255.656 C 180.518 255.467,179.235 255.191,177.783 255.042 C 176.332 254.894,174.842 254.619,174.472 254.433 C 172.942 253.660,171.716 253.244,170.270 253.005 C 169.428 252.866,168.118 252.403,167.358 251.976 C 166.598 251.549,165.773 251.200,165.525 251.200 C 164.810 251.200,155.285 246.384,154.768 245.761 C 154.512 245.453,154.125 245.200,153.909 245.200 C 153.692 245.200,152.833 244.660,152.000 244.000 C 151.167 243.340,150.321 242.800,150.121 242.800 C 149.921 242.800,149.146 242.170,148.400 241.400 C 147.654 240.630,146.857 240.000,146.629 240.000 C 146.076 240.000,139.200 233.135,139.200 232.583 C 139.200 232.345,138.660 231.632,138.000 231.000 C 137.340 230.368,136.800 229.689,136.800 229.492 C 136.800 229.296,136.198 228.384,135.462 227.467 C 134.726 226.550,134.005 225.530,133.859 225.200 C 133.714 224.870,133.143 223.880,132.590 223.000 C 132.038 222.120,131.406 220.950,131.185 220.400 C 130.964 219.850,130.626 219.040,130.433 218.600 C 130.240 218.160,129.793 217.143,129.441 216.340 C 129.088 215.536,128.800 214.602,128.800 214.263 C 128.800 213.924,128.620 213.536,128.400 213.400 C 128.180 213.264,128.000 212.659,128.000 212.056 C 128.000 211.453,127.801 210.761,127.557 210.517 C 127.313 210.273,127.018 208.882,126.901 207.426 C 126.784 205.970,126.534 204.683,126.344 204.566 C 125.894 204.288,125.894 189.712,126.344 189.434 C 126.534 189.317,126.784 188.030,126.901 186.574 C 127.018 185.118,127.313 183.727,127.557 183.483 C 127.801 183.239,128.000 182.547,128.000 181.944 C 128.000 181.341,128.180 180.736,128.400 180.600 C 128.620 180.464,128.800 180.076,128.800 179.737 C 128.800 179.398,129.088 178.464,129.441 177.660 C 129.793 176.857,130.240 175.840,130.433 175.400 C 130.626 174.960,130.964 174.150,131.185 173.600 C 131.406 173.050,132.038 171.880,132.590 171.000 C 133.143 170.120,133.714 169.130,133.859 168.800 C 134.005 168.470,134.726 167.450,135.462 166.533 C 136.198 165.616,136.800 164.707,136.800 164.514 C 136.800 164.321,137.520 163.459,138.400 162.600 C 139.280 161.741,140.000 160.854,140.000 160.629 C 140.000 160.080,145.263 154.800,145.811 154.800 C 146.049 154.800,146.854 154.170,147.600 153.400 C 148.346 152.630,149.114 152.000,149.307 152.000 C 149.499 152.000,150.499 151.315,151.528 150.478 C 152.558 149.642,153.940 148.704,154.600 148.396 C 155.260 148.087,156.087 147.599,156.438 147.311 C 157.339 146.573,164.899 142.807,165.488 142.803 C 165.756 142.801,166.598 142.451,167.358 142.024 C 168.118 141.597,169.428 141.134,170.270 140.995 C 171.716 140.756,172.942 140.340,174.472 139.567 C 174.842 139.381,176.332 139.106,177.783 138.958 C 179.235 138.809,180.518 138.533,180.635 138.344 C 180.752 138.155,181.816 138.000,183.000 138.000 C 184.184 138.000,185.264 137.820,185.400 137.600 C 185.553 137.352,189.196 137.200,195.000 137.200 C 200.804 137.200,204.447 137.352,204.600 137.600 M300.163 142.340 C 300.278 142.526,301.852 142.793,303.659 142.933 C 305.467 143.072,307.129 143.369,307.353 143.593 C 307.577 143.817,308.116 144.000,308.552 144.000 C 311.523 144.000,318.570 148.527,323.900 153.860 C 326.815 156.776,329.200 159.413,329.200 159.719 C 329.200 160.025,329.560 160.602,330.000 161.000 C 330.440 161.398,330.800 161.888,330.800 162.089 C 330.800 162.289,331.229 163.026,331.754 163.727 C 332.278 164.427,332.842 165.450,333.006 166.000 C 333.170 166.550,333.618 167.450,334.000 168.000 C 334.382 168.550,334.832 169.450,335.000 170.000 C 335.168 170.550,335.643 171.480,336.056 172.066 C 336.469 172.653,336.918 173.692,337.055 174.375 C 337.192 175.058,337.460 175.714,337.652 175.832 C 337.843 175.950,338.000 176.476,338.000 177.000 C 338.000 177.524,338.164 178.054,338.365 178.178 C 338.566 178.303,338.852 179.122,339.000 180.000 C 339.148 180.878,339.434 181.697,339.635 181.822 C 339.836 181.946,340.000 182.476,340.000 183.000 C 340.000 183.524,340.162 184.053,340.361 184.176 C 340.559 184.298,340.847 185.479,341.000 186.800 C 341.153 188.121,341.441 189.302,341.639 189.424 C 341.838 189.547,342.000 190.256,342.000 191.000 C 342.000 191.744,342.158 192.451,342.352 192.570 C 342.546 192.690,342.832 194.500,342.989 196.593 C 343.146 198.686,343.438 200.500,343.637 200.623 C 343.837 200.746,344.000 202.086,344.000 203.600 C 344.000 205.114,344.180 206.464,344.400 206.600 C 344.653 206.756,344.800 211.530,344.800 219.600 C 344.800 227.670,344.653 232.444,344.400 232.600 C 344.180 232.736,344.000 234.446,344.000 236.400 C 344.000 238.354,343.843 240.050,343.652 240.168 C 343.461 240.286,343.176 242.365,343.018 244.789 C 342.861 247.212,342.568 249.296,342.366 249.421 C 342.165 249.545,342.000 250.436,342.000 251.400 C 342.000 252.364,341.841 253.251,341.648 253.371 C 341.454 253.490,341.168 254.940,341.014 256.592 C 340.859 258.243,340.567 259.696,340.366 259.821 C 340.165 259.945,340.000 260.566,340.000 261.200 C 340.000 261.834,339.838 262.453,339.639 262.576 C 339.441 262.698,339.161 263.924,339.017 265.299 C 338.873 266.675,338.561 268.250,338.324 268.800 C 337.386 270.975,337.236 271.464,336.973 273.185 C 336.824 274.166,336.543 275.291,336.351 275.685 C 336.158 276.078,335.843 276.721,335.651 277.113 C 335.459 277.505,335.178 278.450,335.028 279.213 C 334.772 280.504,334.337 281.728,333.604 283.213 C 333.438 283.550,333.178 284.450,333.028 285.213 C 332.752 286.605,332.626 286.959,331.441 289.660 C 331.088 290.464,330.800 291.313,330.800 291.548 C 330.800 291.783,330.458 292.584,330.041 293.327 C 329.624 294.070,329.187 295.021,329.070 295.439 C 328.953 295.858,328.956 293.410,329.076 290.000 C 329.196 286.590,329.453 283.629,329.647 283.420 C 329.841 283.211,330.000 281.492,330.000 279.600 C 330.000 277.708,330.169 275.989,330.375 275.780 C 330.581 275.571,330.878 270.759,331.035 265.086 C 331.192 259.414,331.474 254.678,331.661 254.563 C 332.104 254.289,332.105 220.112,331.661 219.838 C 331.475 219.723,331.196 216.337,331.041 212.314 C 330.886 208.291,330.588 204.829,330.379 204.620 C 330.171 204.411,330.000 203.207,330.000 201.944 C 330.000 200.681,329.839 199.548,329.642 199.426 C 329.445 199.304,329.156 197.762,329.000 196.000 C 328.844 194.238,328.555 192.696,328.358 192.574 C 328.161 192.452,328.000 191.744,328.000 191.000 C 328.000 190.256,327.838 189.547,327.639 189.424 C 327.441 189.302,327.153 188.121,327.000 186.800 C 326.847 185.479,326.559 184.298,326.361 184.176 C 326.162 184.053,326.000 183.524,326.000 183.000 C 326.000 182.476,325.830 181.942,325.623 181.814 C 325.416 181.686,325.119 180.733,324.964 179.697 C 324.808 178.661,324.348 177.219,323.941 176.494 C 323.533 175.769,323.200 174.983,323.200 174.748 C 323.200 173.601,319.642 166.469,317.701 163.727 C 317.205 163.026,316.800 162.289,316.800 162.089 C 316.800 161.888,316.440 161.398,316.000 161.000 C 315.560 160.602,315.200 160.030,315.200 159.728 C 315.200 159.026,306.002 149.754,304.747 149.191 C 303.496 148.629,302.220 147.880,301.512 147.293 C 300.536 146.483,295.474 144.000,294.799 144.000 C 294.448 144.000,293.989 143.837,293.780 143.639 C 293.571 143.440,293.040 143.191,292.600 143.085 C 292.073 142.958,292.236 142.877,293.076 142.846 C 293.778 142.821,294.464 142.620,294.600 142.400 C 294.900 141.915,299.867 141.861,300.163 142.340 M102.400 143.456 C 102.400 143.835,101.186 144.713,99.600 145.481 C 98.830 145.854,97.378 146.843,96.374 147.679 C 95.370 148.516,94.382 149.200,94.179 149.200 C 93.708 149.200,82.800 160.071,82.800 160.540 C 82.800 160.733,81.940 161.906,80.890 163.146 C 79.839 164.386,78.722 165.940,78.407 166.600 C 78.092 167.260,77.603 168.083,77.320 168.428 C 76.515 169.411,72.001 178.528,71.987 179.199 C 71.980 179.530,71.710 180.149,71.387 180.576 C 71.064 181.004,70.800 181.681,70.800 182.082 C 70.800 182.785,70.653 183.176,69.670 185.083 C 69.420 185.568,69.098 186.697,68.955 187.591 C 68.812 188.486,68.539 189.314,68.347 189.432 C 68.156 189.551,68.000 190.166,68.000 190.800 C 68.000 191.434,67.834 192.055,67.631 192.181 C 67.429 192.306,67.137 193.579,66.984 195.010 C 66.831 196.441,66.547 197.709,66.353 197.829 C 66.159 197.949,66.000 198.901,66.000 199.944 C 66.000 200.987,65.829 202.011,65.620 202.220 C 65.411 202.429,65.114 204.991,64.959 207.914 C 64.805 210.836,64.526 213.322,64.339 213.437 C 63.897 213.711,63.895 237.888,64.338 238.162 C 64.524 238.277,64.803 241.482,64.957 245.284 C 65.112 249.087,65.409 252.369,65.619 252.579 C 65.829 252.789,66.000 254.173,66.000 255.656 C 66.000 257.139,66.158 258.451,66.352 258.570 C 66.546 258.690,66.832 260.500,66.989 262.593 C 67.146 264.686,67.438 266.500,67.637 266.623 C 67.837 266.746,68.000 267.636,68.000 268.600 C 68.000 269.564,68.153 270.447,68.340 270.563 C 68.527 270.679,68.798 272.166,68.942 273.868 C 69.086 275.571,69.383 277.143,69.602 277.362 C 69.821 277.581,70.000 278.343,70.000 279.056 C 70.000 279.769,70.156 280.449,70.347 280.568 C 70.539 280.686,70.819 282.042,70.971 283.582 C 71.122 285.122,71.416 286.486,71.623 286.614 C 71.830 286.742,72.000 287.546,72.000 288.400 C 72.000 289.254,72.162 290.053,72.361 290.176 C 72.559 290.298,72.847 291.479,73.000 292.800 C 73.153 294.121,73.441 295.302,73.639 295.424 C 73.838 295.547,74.000 296.166,74.000 296.800 C 74.000 297.434,74.159 298.051,74.353 298.171 C 74.548 298.291,74.834 299.411,74.990 300.659 C 75.263 302.842,75.371 303.205,76.288 305.016 C 76.516 305.465,76.831 306.770,76.988 307.916 C 77.146 309.062,77.438 310.000,77.638 310.000 C 77.837 310.000,78.000 310.202,78.000 310.449 C 78.000 310.759,77.815 310.744,77.400 310.400 C 77.070 310.126,76.800 309.716,76.800 309.489 C 76.800 309.261,76.386 308.519,75.880 307.838 C 75.092 306.776,70.530 297.777,69.575 295.400 C 69.021 294.021,68.024 291.655,67.400 290.240 C 67.070 289.491,66.800 288.687,66.800 288.452 C 66.800 288.217,66.462 287.422,66.048 286.685 C 65.634 285.949,65.163 284.740,65.000 284.000 C 64.837 283.260,64.368 282.055,63.956 281.322 C 63.545 280.589,63.092 279.268,62.951 278.386 C 62.810 277.504,62.539 276.686,62.347 276.568 C 62.156 276.449,62.000 275.834,62.000 275.200 C 62.000 274.566,61.836 273.946,61.635 273.822 C 61.434 273.697,61.148 272.878,61.000 272.000 C 60.852 271.122,60.566 270.303,60.365 270.178 C 60.164 270.054,60.000 269.434,60.000 268.800 C 60.000 268.166,59.838 267.547,59.639 267.424 C 59.441 267.302,59.153 266.121,59.000 264.800 C 58.847 263.479,58.559 262.298,58.361 262.176 C 58.162 262.053,58.000 261.254,58.000 260.400 C 58.000 259.546,57.830 258.742,57.623 258.614 C 57.416 258.486,57.122 257.122,56.971 255.582 C 56.819 254.042,56.539 252.686,56.347 252.568 C 56.156 252.449,56.000 251.564,56.000 250.600 C 56.000 249.636,55.840 248.748,55.644 248.627 C 55.448 248.506,55.158 246.424,55.000 244.000 C 54.842 241.576,54.552 239.494,54.356 239.373 C 54.160 239.252,54.000 237.734,54.000 236.000 C 54.000 234.266,53.820 232.736,53.600 232.600 C 53.347 232.443,53.200 227.604,53.200 219.400 C 53.200 211.196,53.347 206.357,53.600 206.200 C 53.820 206.064,54.000 204.624,54.000 203.000 C 54.000 201.376,54.157 199.950,54.348 199.832 C 54.539 199.714,54.823 197.815,54.980 195.613 C 55.136 193.410,55.429 191.506,55.632 191.380 C 55.834 191.255,56.000 190.634,56.000 190.000 C 56.000 189.366,56.159 188.749,56.353 188.629 C 56.548 188.509,56.834 187.389,56.990 186.141 C 57.146 184.893,57.416 183.585,57.590 183.236 C 58.327 181.757,58.770 180.516,59.028 179.213 C 59.178 178.450,59.444 177.550,59.617 177.213 C 60.281 175.923,61.200 173.664,61.200 173.322 C 61.200 172.574,64.702 165.983,66.299 163.727 C 66.795 163.026,67.200 162.293,67.200 162.096 C 67.200 161.900,67.650 161.317,68.200 160.800 C 68.750 160.283,69.200 159.664,69.200 159.423 C 69.200 158.923,76.688 151.448,77.600 151.038 C 78.525 150.623,79.854 149.819,80.488 149.293 C 81.505 148.449,86.539 146.000,87.257 146.000 C 87.640 146.000,88.054 145.836,88.178 145.635 C 88.303 145.434,89.122 145.148,90.000 145.000 C 90.878 144.852,91.697 144.566,91.822 144.365 C 91.946 144.164,92.746 144.000,93.600 144.000 C 94.454 144.000,95.264 143.820,95.400 143.600 C 95.666 143.169,102.400 143.031,102.400 143.456 M113.462 144.731 C 113.098 145.134,112.800 145.636,112.800 145.847 C 112.800 146.057,111.900 147.117,110.800 148.200 C 109.700 149.283,108.800 150.328,108.800 150.521 C 108.800 150.714,108.019 151.801,107.063 152.936 C 106.108 154.071,105.210 155.270,105.066 155.600 C 104.669 156.512,103.927 157.636,102.557 159.400 C 101.874 160.280,101.175 161.450,101.005 162.000 C 100.834 162.550,100.404 163.451,100.048 164.002 C 99.691 164.553,99.181 165.363,98.914 165.802 C 98.247 166.897,96.231 171.056,95.425 173.000 C 95.060 173.880,94.558 174.960,94.310 175.400 C 93.149 177.456,92.805 178.250,92.802 178.876 C 92.801 179.248,92.620 179.664,92.400 179.800 C 92.180 179.936,92.000 180.476,92.000 181.000 C 92.000 181.524,91.820 182.064,91.600 182.200 C 91.380 182.336,91.200 182.724,91.200 183.063 C 91.200 183.620,90.437 185.619,89.617 187.213 C 89.444 187.550,89.178 188.450,89.028 189.213 C 88.877 189.976,88.560 191.050,88.323 191.600 C 87.386 193.777,87.236 194.262,86.988 195.898 C 86.846 196.832,86.566 197.697,86.365 197.822 C 86.164 197.946,86.000 198.566,86.000 199.200 C 86.000 199.834,85.838 200.453,85.639 200.576 C 85.441 200.698,85.153 201.879,85.000 203.200 C 84.847 204.521,84.559 205.702,84.361 205.824 C 84.162 205.947,84.000 206.566,84.000 207.200 C 84.000 207.834,83.839 208.452,83.642 208.574 C 83.445 208.696,83.156 210.238,83.000 212.000 C 82.844 213.762,82.555 215.304,82.358 215.426 C 82.161 215.548,82.000 216.231,82.000 216.944 C 82.000 217.657,81.830 218.411,81.621 218.620 C 81.413 218.829,81.117 220.671,80.963 222.712 C 80.809 224.754,80.530 226.520,80.342 226.636 C 80.154 226.752,80.000 227.791,80.000 228.944 C 80.000 230.097,79.825 231.215,79.610 231.430 C 79.396 231.644,79.097 234.387,78.948 237.525 C 78.798 240.663,78.523 243.324,78.338 243.439 C 78.152 243.553,78.000 245.041,78.000 246.744 C 78.000 248.447,77.826 250.014,77.614 250.226 C 77.389 250.451,77.113 257.378,76.950 266.906 C 76.797 275.868,76.521 283.200,76.336 283.200 C 76.151 283.200,76.000 282.491,76.000 281.624 C 76.000 280.757,75.841 279.949,75.647 279.829 C 75.453 279.709,75.169 278.441,75.016 277.010 C 74.863 275.579,74.571 274.306,74.369 274.181 C 74.166 274.055,74.000 273.074,74.000 272.000 C 74.000 270.926,73.839 269.948,73.643 269.826 C 73.446 269.705,73.157 267.983,73.000 266.000 C 72.843 264.017,72.554 262.295,72.357 262.174 C 72.161 262.052,72.000 261.099,72.000 260.056 C 72.000 259.013,71.831 257.989,71.625 257.780 C 71.418 257.571,71.122 254.919,70.966 251.887 C 70.810 248.855,70.529 246.280,70.341 246.164 C 70.154 246.048,70.000 244.174,70.000 242.000 C 70.000 239.796,69.823 237.938,69.600 237.800 C 69.055 237.463,69.055 213.737,69.600 213.400 C 69.820 213.264,70.000 211.734,70.000 210.000 C 70.000 208.266,70.154 206.752,70.342 206.636 C 70.530 206.520,70.809 204.754,70.963 202.712 C 71.117 200.671,71.413 198.829,71.621 198.620 C 71.830 198.411,72.000 197.657,72.000 196.944 C 72.000 196.231,72.159 195.549,72.353 195.429 C 72.548 195.309,72.830 194.221,72.981 193.012 C 73.132 191.802,73.423 190.709,73.628 190.583 C 73.833 190.456,74.000 189.834,74.000 189.200 C 74.000 188.566,74.160 187.949,74.355 187.828 C 74.550 187.707,74.830 186.963,74.978 186.174 C 75.126 185.385,75.597 184.118,76.024 183.358 C 76.451 182.598,76.800 181.774,76.800 181.528 C 76.800 181.093,78.505 177.209,79.227 176.000 C 79.424 175.670,80.043 174.473,80.602 173.341 C 81.162 172.208,81.885 171.061,82.210 170.792 C 82.534 170.523,82.800 170.060,82.800 169.765 C 82.800 169.470,83.340 168.613,84.000 167.861 C 84.660 167.109,85.200 166.325,85.200 166.117 C 85.200 165.909,85.650 165.317,86.200 164.800 C 86.750 164.283,87.200 163.664,87.200 163.423 C 87.200 162.862,95.275 154.800,95.837 154.800 C 96.070 154.800,96.683 154.350,97.200 153.800 C 97.717 153.250,98.347 152.800,98.600 152.800 C 98.853 152.800,99.474 152.360,99.979 151.823 C 100.484 151.285,101.460 150.552,102.149 150.193 C 104.309 149.068,105.172 148.548,105.897 147.934 C 106.986 147.011,111.582 144.800,112.411 144.800 C 112.819 144.800,113.264 144.620,113.400 144.400 C 113.536 144.180,113.754 144.000,113.886 144.000 C 114.017 144.000,113.826 144.329,113.462 144.731 M289.505 147.538 C 289.887 147.723,290.603 148.083,291.095 148.338 C 291.587 148.592,292.194 148.800,292.445 148.800 C 293.174 148.800,298.693 151.589,299.219 152.223 C 299.483 152.540,299.889 152.800,300.123 152.800 C 300.357 152.800,301.402 153.520,302.446 154.400 C 303.490 155.280,304.503 156.000,304.697 156.000 C 305.127 156.000,307.200 158.118,307.200 158.557 C 307.200 158.730,308.455 160.246,309.988 161.927 C 311.522 163.608,312.883 165.469,313.014 166.064 C 313.145 166.658,313.512 167.361,313.831 167.625 C 314.149 167.890,315.238 169.837,316.250 171.953 C 318.581 176.827,318.697 177.112,319.028 178.787 C 319.178 179.550,319.459 180.495,319.651 180.887 C 319.843 181.279,320.172 181.944,320.382 182.365 C 320.591 182.786,320.885 184.050,321.034 185.174 C 321.183 186.298,321.462 187.315,321.653 187.433 C 321.844 187.551,322.000 188.166,322.000 188.800 C 322.000 189.434,322.165 190.055,322.366 190.179 C 322.567 190.304,322.859 191.757,323.014 193.408 C 323.168 195.060,323.454 196.510,323.648 196.629 C 323.841 196.749,324.000 197.521,324.000 198.344 C 324.000 199.167,324.168 200.011,324.373 200.220 C 324.579 200.429,324.875 202.810,325.031 205.512 C 325.187 208.213,325.469 210.519,325.657 210.635 C 325.846 210.752,326.000 212.716,326.000 215.000 C 326.000 217.337,326.175 219.261,326.400 219.400 C 326.657 219.559,326.800 225.996,326.800 237.400 C 326.800 248.804,326.657 255.241,326.400 255.400 C 326.163 255.546,326.000 257.996,326.000 261.400 C 326.000 264.564,325.845 267.249,325.655 267.366 C 325.466 267.483,325.182 271.048,325.023 275.289 C 324.865 279.530,324.570 283.171,324.368 283.380 C 324.166 283.589,324.000 285.254,324.000 287.080 C 324.000 288.906,323.844 290.400,323.653 290.400 C 323.462 290.400,323.176 283.695,323.017 275.500 C 322.858 267.305,322.564 260.429,322.364 260.220 C 322.164 260.011,322.000 257.817,322.000 255.344 C 322.000 252.871,321.848 250.753,321.662 250.638 C 321.476 250.523,321.197 247.318,321.043 243.516 C 320.888 239.713,320.591 236.431,320.381 236.221 C 320.171 236.011,320.000 234.537,320.000 232.944 C 320.000 231.351,319.840 229.948,319.644 229.827 C 319.448 229.706,319.158 227.624,319.000 225.200 C 318.842 222.776,318.552 220.694,318.356 220.573 C 318.160 220.452,318.000 219.409,318.000 218.256 C 318.000 217.103,317.828 215.988,317.617 215.777 C 317.407 215.567,317.111 213.905,316.959 212.085 C 316.807 210.264,316.529 208.680,316.341 208.564 C 316.154 208.448,316.000 207.744,316.000 207.000 C 316.000 206.256,315.830 205.542,315.623 205.414 C 315.416 205.286,315.122 203.922,314.971 202.382 C 314.819 200.842,314.539 199.486,314.347 199.368 C 314.156 199.249,314.000 198.634,314.000 198.000 C 314.000 197.366,313.844 196.751,313.653 196.633 C 313.462 196.515,313.187 195.521,313.041 194.425 C 312.896 193.330,312.602 192.325,312.388 192.193 C 312.175 192.061,312.000 191.524,312.000 191.000 C 312.000 190.476,311.830 189.942,311.623 189.814 C 311.416 189.686,311.119 188.733,310.964 187.697 C 310.808 186.661,310.369 185.258,309.988 184.579 C 309.607 183.901,309.163 182.740,309.000 182.000 C 308.837 181.260,308.366 180.051,307.952 179.315 C 307.538 178.578,307.200 177.770,307.200 177.518 C 307.200 177.267,306.499 175.607,305.643 173.830 C 304.787 172.054,303.792 169.970,303.432 169.200 C 302.722 167.680,302.237 166.845,300.993 165.000 C 300.548 164.340,299.922 163.260,299.602 162.600 C 299.282 161.940,298.161 160.386,297.110 159.146 C 296.060 157.906,295.200 156.722,295.200 156.515 C 295.200 156.309,294.750 155.717,294.200 155.200 C 293.650 154.683,293.200 154.062,293.200 153.820 C 293.200 153.577,291.940 152.128,290.400 150.600 C 287.159 147.383,286.823 146.234,289.505 147.538 M263.380 327.651 C 263.589 327.843,275.874 328.000,290.680 328.000 L 317.600 328.000 317.600 329.368 C 317.600 331.101,316.544 335.292,315.555 337.483 L 314.796 339.165 227.898 338.952 C 175.390 338.823,140.683 338.591,140.200 338.365 C 139.740 338.150,129.214 337.951,115.422 337.896 L 91.443 337.800 90.349 334.248 C 89.747 332.294,89.063 330.503,88.828 330.268 C 88.592 330.032,88.400 329.162,88.400 328.334 L 88.400 326.828 175.700 327.065 C 224.518 327.197,263.168 327.455,263.380 327.651 M139.800 341.600 C 139.963 341.864,161.130 342.000,202.000 342.000 C 242.870 342.000,264.037 342.136,264.200 342.400 C 264.360 342.660,273.130 342.800,289.200 342.800 C 302.814 342.800,314.039 342.940,314.145 343.111 C 314.251 343.282,313.981 344.407,313.545 345.611 C 312.497 348.510,311.971 350.845,311.658 354.000 L 311.400 356.600 296.625 356.705 C 287.046 356.773,281.708 356.668,281.445 356.405 C 281.177 356.137,267.602 356.000,241.344 356.000 C 219.511 356.000,201.553 355.848,201.438 355.661 C 201.323 355.475,177.533 355.224,148.571 355.104 C 103.764 354.918,95.829 354.800,95.344 354.316 C 94.747 353.719,94.198 351.293,93.598 346.600 C 93.401 345.060,93.132 343.215,93.002 342.500 L 92.764 341.200 116.158 341.200 C 131.323 341.200,139.640 341.341,139.800 341.600 " stroke="none" fill="#fbfbfb" fill-rule="evenodd"></path><path id="path1" d="M200.267 37.467 C 200.120 37.613,200.000 39.413,200.000 41.467 L 200.000 45.200 203.600 45.200 L 207.200 45.200 207.200 41.200 L 207.200 37.200 203.867 37.200 C 202.033 37.200,200.413 37.320,200.267 37.467 M205.380 57.577 C 205.171 57.784,204.010 58.009,202.800 58.077 L 200.600 58.200 200.269 60.800 C 199.842 64.158,199.850 65.064,200.338 69.400 C 200.561 71.380,200.756 78.625,200.772 85.500 L 200.800 98.000 204.400 98.000 L 208.000 98.000 208.045 85.500 C 208.069 78.625,208.204 71.290,208.345 69.200 L 208.600 65.400 213.300 65.287 C 217.115 65.196,218.000 65.064,218.000 64.587 C 218.000 64.081,220.150 64.000,233.600 64.000 L 249.200 64.000 249.200 61.000 L 249.200 58.000 233.624 58.000 C 223.671 58.000,217.958 57.856,217.800 57.600 C 217.482 57.086,205.896 57.065,205.380 57.577 M164.800 61.000 L 164.800 64.000 175.962 64.000 L 187.124 64.000 186.930 61.500 C 186.823 60.125,186.666 58.775,186.580 58.500 C 186.461 58.116,183.913 58.000,175.613 58.000 L 164.800 58.000 164.800 61.000 M190.600 117.600 C 190.464 117.820,189.114 118.000,187.600 118.000 C 186.086 118.000,184.752 118.154,184.636 118.342 C 184.520 118.530,182.754 118.809,180.712 118.963 C 178.671 119.117,176.829 119.413,176.620 119.621 C 176.411 119.830,175.657 120.000,174.944 120.000 C 174.231 120.000,173.547 120.162,173.424 120.361 C 173.302 120.559,172.121 120.847,170.800 121.000 C 169.479 121.153,168.298 121.441,168.176 121.639 C 168.053 121.838,167.524 122.000,167.000 122.000 C 166.476 122.000,165.952 122.155,165.835 122.344 C 165.718 122.533,164.811 122.799,163.820 122.935 C 162.828 123.071,161.699 123.351,161.309 123.558 C 159.734 124.391,157.644 125.200,157.063 125.200 C 156.724 125.200,156.336 125.380,156.200 125.600 C 156.064 125.820,155.558 126.006,155.076 126.013 C 154.594 126.020,153.851 126.290,153.424 126.613 C 152.996 126.936,152.276 127.204,151.824 127.209 C 151.371 127.214,150.550 127.570,150.000 128.000 C 149.450 128.430,148.847 128.786,148.660 128.791 C 148.252 128.802,146.244 129.677,143.000 131.258 C 140.613 132.421,139.915 132.811,138.002 134.048 C 137.451 134.404,136.550 134.830,136.000 134.994 C 135.450 135.158,134.460 135.682,133.800 136.158 C 133.140 136.634,131.742 137.453,130.694 137.977 C 129.646 138.502,128.589 139.172,128.345 139.466 C 128.102 139.760,127.691 140.000,127.432 140.000 C 127.174 140.000,126.259 140.720,125.400 141.600 C 124.541 142.480,123.646 143.200,123.413 143.200 C 122.862 143.200,113.200 152.879,113.200 153.431 C 113.200 153.662,112.660 154.368,112.000 155.000 C 111.340 155.632,110.800 156.315,110.800 156.517 C 110.800 156.719,110.350 157.419,109.800 158.073 C 109.250 158.727,108.800 159.490,108.800 159.769 C 108.800 160.048,108.440 160.602,108.000 161.000 C 107.560 161.398,107.200 161.888,107.200 162.089 C 107.200 162.289,106.771 163.026,106.246 163.727 C 105.722 164.427,105.161 165.450,105.000 166.000 C 104.840 166.550,104.396 167.360,104.014 167.800 C 103.633 168.240,102.593 170.130,101.703 172.000 C 100.273 175.007,99.738 176.210,98.414 179.400 C 98.231 179.840,97.793 180.857,97.441 181.660 C 97.088 182.464,96.800 183.321,96.800 183.566 C 96.800 183.811,96.635 184.323,96.434 184.705 C 95.603 186.280,94.800 188.360,94.800 188.937 C 94.800 189.276,94.620 189.664,94.400 189.800 C 94.180 189.936,94.000 190.566,94.000 191.200 C 94.000 191.834,93.844 192.449,93.653 192.568 C 93.461 192.686,93.188 193.514,93.045 194.409 C 92.902 195.303,92.580 196.432,92.330 196.917 C 91.377 198.766,91.266 199.133,90.990 201.341 C 90.834 202.589,90.548 203.709,90.353 203.829 C 90.159 203.949,90.000 204.566,90.000 205.200 C 90.000 205.834,89.838 206.453,89.639 206.576 C 89.441 206.698,89.153 207.879,89.000 209.200 C 88.847 210.521,88.559 211.702,88.361 211.824 C 88.162 211.947,88.000 212.926,88.000 214.000 C 88.000 215.074,87.835 216.055,87.634 216.179 C 87.433 216.304,87.141 217.757,86.986 219.408 C 86.832 221.060,86.546 222.510,86.352 222.629 C 86.159 222.749,86.000 223.636,86.000 224.600 C 86.000 225.564,85.843 226.450,85.652 226.568 C 85.460 226.686,85.175 228.946,85.017 231.590 C 84.859 234.233,84.566 236.498,84.365 236.622 C 84.164 236.746,84.000 238.241,84.000 239.944 C 84.000 241.647,83.822 243.218,83.603 243.437 C 83.382 243.658,83.088 247.772,82.939 252.733 C 82.792 257.627,82.521 261.725,82.336 261.840 C 81.897 262.111,81.897 291.089,82.336 291.360 C 82.520 291.474,82.789 296.020,82.933 301.461 C 83.085 307.191,83.365 311.525,83.598 311.758 C 83.819 311.979,84.000 312.563,84.000 313.056 C 84.000 313.549,84.155 314.048,84.344 314.165 C 84.533 314.282,84.799 315.189,84.935 316.180 C 85.071 317.172,85.366 318.346,85.591 318.791 C 85.816 319.236,86.180 319.958,86.400 320.395 C 86.620 320.832,86.800 321.642,86.800 322.195 L 86.800 323.200 113.576 323.200 C 130.996 323.200,140.439 323.340,140.600 323.600 C 140.763 323.864,161.644 324.000,201.944 324.000 C 242.424 324.000,263.176 324.136,263.443 324.403 C 263.707 324.667,273.240 324.770,291.223 324.703 L 318.600 324.600 318.708 316.228 C 318.777 310.920,318.667 307.707,318.408 307.448 C 318.144 307.184,318.000 301.168,318.000 290.344 C 318.000 281.161,317.848 273.553,317.662 273.438 C 317.476 273.323,317.195 268.228,317.039 262.115 C 316.882 256.002,316.584 250.829,316.377 250.620 C 316.170 250.411,316.000 248.577,316.000 246.544 C 316.000 244.511,315.843 242.750,315.652 242.632 C 315.460 242.513,315.173 239.713,315.014 236.408 C 314.854 233.104,314.561 230.299,314.362 230.176 C 314.163 230.053,314.000 228.984,314.000 227.800 C 314.000 226.616,313.842 225.549,313.648 225.430 C 313.455 225.310,313.167 223.319,313.010 221.006 C 312.852 218.692,312.560 216.699,312.361 216.576 C 312.163 216.453,312.000 215.564,312.000 214.600 C 312.000 213.636,311.841 212.749,311.648 212.629 C 311.454 212.510,311.168 211.060,311.014 209.408 C 310.859 207.757,310.567 206.304,310.366 206.179 C 310.165 206.055,310.000 205.434,310.000 204.800 C 310.000 204.166,309.845 203.552,309.656 203.435 C 309.467 203.318,309.191 202.035,309.042 200.583 C 308.894 199.132,308.619 197.642,308.433 197.272 C 307.604 195.631,307.227 194.479,306.973 192.815 C 306.824 191.834,306.543 190.709,306.351 190.315 C 306.158 189.922,305.843 189.279,305.651 188.887 C 305.459 188.495,305.178 187.550,305.028 186.787 C 304.752 185.395,304.626 185.041,303.441 182.340 C 303.088 181.536,302.800 180.688,302.800 180.454 C 302.800 180.220,302.350 179.222,301.800 178.237 C 301.250 177.252,300.800 176.148,300.800 175.785 C 300.800 175.421,300.464 174.646,300.052 174.062 C 299.641 173.478,299.170 172.550,299.006 172.000 C 298.842 171.450,298.319 170.460,297.845 169.800 C 297.372 169.140,296.725 168.060,296.409 167.400 C 296.093 166.740,295.241 165.450,294.517 164.533 C 293.793 163.616,293.200 162.704,293.200 162.508 C 293.200 162.311,292.660 161.632,292.000 161.000 C 291.340 160.368,290.800 159.656,290.800 159.419 C 290.800 158.864,281.125 149.200,280.569 149.200 C 279.775 149.200,278.062 146.998,277.931 145.809 C 277.854 145.109,277.467 144.450,276.992 144.209 C 276.547 143.984,275.647 143.424,274.992 142.965 C 274.336 142.506,273.530 142.004,273.200 141.849 C 272.084 141.327,270.967 140.605,269.380 139.379 C 268.511 138.707,266.630 137.574,265.200 136.860 C 263.770 136.146,261.880 135.118,261.000 134.574 C 260.120 134.031,258.950 133.409,258.400 133.193 C 257.850 132.977,257.040 132.587,256.600 132.326 C 256.160 132.066,255.260 131.604,254.600 131.301 C 253.463 130.778,252.938 130.510,251.300 129.619 C 250.915 129.410,249.925 128.960,249.100 128.619 C 248.275 128.279,246.988 127.730,246.240 127.400 C 245.491 127.070,244.687 126.800,244.452 126.800 C 244.217 126.800,243.402 126.451,242.642 126.024 C 241.882 125.597,240.615 125.126,239.826 124.978 C 239.037 124.830,238.293 124.550,238.172 124.355 C 238.051 124.160,237.524 124.000,237.000 124.000 C 236.476 124.000,235.946 123.836,235.822 123.635 C 235.697 123.434,234.878 123.148,234.000 123.000 C 233.122 122.852,232.303 122.566,232.178 122.365 C 232.054 122.164,231.524 122.000,231.000 122.000 C 230.476 122.000,229.945 121.834,229.819 121.631 C 229.694 121.429,228.421 121.137,226.990 120.984 C 225.559 120.831,224.291 120.547,224.171 120.353 C 224.051 120.159,223.459 120.000,222.856 120.000 C 222.253 120.000,221.589 119.830,221.380 119.621 C 221.171 119.413,219.329 119.117,217.288 118.963 C 215.246 118.809,213.480 118.530,213.364 118.342 C 213.248 118.154,211.734 118.000,210.000 118.000 C 208.266 118.000,206.736 117.820,206.600 117.600 C 206.449 117.356,203.337 117.200,198.600 117.200 C 193.863 117.200,190.751 117.356,190.600 117.600 M205.362 122.339 C 205.477 122.525,207.321 122.792,209.460 122.933 C 211.599 123.073,213.531 123.371,213.754 123.594 C 213.977 123.817,214.833 124.000,215.656 124.000 C 216.479 124.000,217.249 124.156,217.367 124.347 C 217.485 124.538,218.479 124.813,219.575 124.959 C 220.670 125.104,221.675 125.398,221.807 125.612 C 221.939 125.825,222.476 126.000,223.000 126.000 C 223.524 126.000,224.051 126.160,224.172 126.355 C 224.293 126.550,225.037 126.830,225.826 126.978 C 226.615 127.126,227.882 127.597,228.642 128.024 C 229.402 128.451,230.227 128.800,230.475 128.800 C 231.190 128.800,240.715 133.616,241.232 134.239 C 241.488 134.547,241.932 134.800,242.218 134.800 C 242.504 134.800,243.247 135.219,243.869 135.732 C 244.491 136.244,245.270 136.783,245.600 136.929 C 246.841 137.479,247.890 138.280,251.059 141.100 C 252.851 142.695,254.475 144.000,254.669 144.000 C 255.106 144.000,260.800 149.700,260.800 150.138 C 260.800 150.313,261.898 151.683,263.240 153.182 C 265.480 155.684,266.270 156.763,267.057 158.400 C 267.216 158.730,267.860 159.646,268.489 160.436 C 269.767 162.043,273.985 170.267,274.010 171.200 C 274.018 171.530,274.290 172.149,274.613 172.576 C 274.936 173.004,275.200 173.681,275.200 174.082 C 275.200 174.483,275.359 175.123,275.553 175.505 C 276.383 177.136,276.770 178.302,277.012 179.898 C 277.154 180.832,277.434 181.697,277.635 181.822 C 277.836 181.946,278.000 182.639,278.000 183.362 C 278.000 184.085,278.289 185.257,278.643 185.966 C 279.479 187.643,279.351 210.809,278.500 211.660 C 278.225 211.935,278.000 212.833,278.000 213.656 C 278.000 214.479,277.844 215.249,277.653 215.367 C 277.462 215.485,277.187 216.479,277.041 217.575 C 276.896 218.670,276.602 219.675,276.388 219.807 C 276.175 219.939,276.000 220.476,276.000 221.000 C 276.000 221.524,275.820 222.064,275.600 222.200 C 275.380 222.336,275.200 222.724,275.200 223.063 C 275.200 223.828,274.512 225.399,271.722 231.000 C 268.965 236.534,268.872 236.696,267.300 238.677 C 266.585 239.578,266.000 240.483,266.000 240.688 C 266.000 240.893,265.550 241.483,265.000 242.000 C 264.450 242.517,264.000 243.171,264.000 243.455 C 264.000 243.738,259.772 248.252,254.604 253.485 C 249.436 258.718,245.206 263.183,245.204 263.407 C 245.202 263.630,243.130 265.877,240.600 268.400 C 238.070 270.923,236.000 273.149,236.000 273.346 C 236.000 273.544,230.420 279.421,223.600 286.406 C 216.780 293.392,211.200 299.260,211.200 299.447 C 211.200 299.634,209.395 301.598,207.188 303.812 C 203.806 307.206,203.138 308.086,202.933 309.419 C 202.619 311.455,202.163 312.000,200.775 312.000 C 200.155 312.000,199.536 312.180,199.400 312.400 C 198.659 313.599,195.200 312.315,195.200 310.841 C 195.200 310.175,178.084 292.800,177.428 292.800 C 177.220 292.800,168.915 284.700,158.974 274.800 C 149.032 264.900,140.641 256.800,140.327 256.800 C 140.014 256.800,139.146 256.170,138.400 255.400 C 137.654 254.630,136.857 254.000,136.630 254.000 C 136.081 254.000,130.000 247.938,130.000 247.391 C 130.000 247.155,129.280 246.259,128.400 245.400 C 127.520 244.541,126.800 243.678,126.800 243.483 C 126.800 243.287,126.019 242.199,125.063 241.064 C 124.108 239.929,123.201 238.730,123.048 238.400 C 122.666 237.579,121.956 236.410,120.979 234.992 C 119.939 233.483,116.800 227.090,116.800 226.482 C 116.800 226.230,116.451 225.402,116.024 224.642 C 115.597 223.882,115.126 222.615,114.978 221.826 C 114.830 221.037,114.550 220.293,114.355 220.172 C 114.160 220.051,114.000 219.434,114.000 218.800 C 114.000 218.166,113.828 217.541,113.618 217.411 C 113.409 217.282,113.115 216.097,112.966 214.779 C 112.817 213.461,112.538 212.286,112.347 212.167 C 112.156 212.049,112.000 211.074,112.000 210.000 C 112.000 208.926,111.820 207.936,111.600 207.800 C 111.354 207.648,111.200 204.270,111.200 199.000 C 111.200 193.730,111.354 190.352,111.600 190.200 C 111.820 190.064,112.000 188.984,112.000 187.800 C 112.000 186.616,112.154 185.552,112.343 185.435 C 112.531 185.319,112.791 184.203,112.920 182.955 C 113.049 181.707,113.344 180.496,113.577 180.263 C 113.810 180.030,114.000 179.347,114.000 178.744 C 114.000 178.141,114.180 177.536,114.400 177.400 C 114.620 177.264,114.800 176.748,114.800 176.253 C 114.800 175.758,115.064 175.004,115.387 174.576 C 115.710 174.149,115.986 173.440,116.000 173.000 C 116.014 172.560,116.290 171.851,116.613 171.424 C 116.936 170.996,117.200 170.304,117.200 169.885 C 117.200 169.466,117.536 168.646,117.948 168.062 C 118.359 167.478,118.830 166.550,118.994 166.000 C 119.158 165.450,119.681 164.460,120.155 163.800 C 120.628 163.140,121.275 162.060,121.591 161.400 C 121.907 160.740,122.759 159.450,123.483 158.533 C 124.207 157.616,124.800 156.704,124.800 156.508 C 124.800 156.311,125.340 155.632,126.000 155.000 C 126.660 154.368,127.200 153.610,127.200 153.316 C 127.200 152.627,139.050 140.800,139.740 140.800 C 140.026 140.800,140.683 140.350,141.200 139.800 C 141.717 139.250,142.304 138.800,142.506 138.800 C 142.707 138.800,143.801 138.013,144.936 137.050 C 146.071 136.088,147.450 135.167,148.000 135.004 C 148.550 134.841,149.360 134.399,149.800 134.020 C 150.844 133.123,159.532 128.800,160.291 128.800 C 160.613 128.800,161.354 128.465,161.938 128.055 C 162.522 127.646,163.697 127.184,164.549 127.028 C 165.401 126.873,166.436 126.578,166.849 126.373 C 167.262 126.168,167.954 125.822,168.386 125.605 C 168.819 125.388,170.174 125.093,171.398 124.949 C 172.621 124.805,173.718 124.533,173.835 124.344 C 173.952 124.155,174.541 124.000,175.144 124.000 C 175.747 124.000,176.411 123.830,176.620 123.621 C 176.829 123.413,178.671 123.117,180.712 122.963 C 182.754 122.809,184.520 122.530,184.636 122.342 C 184.911 121.897,205.087 121.894,205.362 122.339 M185.400 137.600 C 185.264 137.820,184.184 138.000,183.000 138.000 C 181.816 138.000,180.752 138.155,180.635 138.344 C 180.518 138.533,179.235 138.809,177.783 138.958 C 176.332 139.106,174.842 139.381,174.472 139.567 C 172.942 140.340,171.716 140.756,170.270 140.995 C 169.428 141.134,168.118 141.597,167.358 142.024 C 166.598 142.451,165.756 142.801,165.488 142.803 C 164.899 142.807,157.339 146.573,156.438 147.311 C 156.087 147.599,155.260 148.087,154.600 148.396 C 153.940 148.704,152.558 149.642,151.528 150.478 C 150.499 151.315,149.499 152.000,149.307 152.000 C 149.114 152.000,148.346 152.630,147.600 153.400 C 146.854 154.170,146.049 154.800,145.811 154.800 C 145.263 154.800,140.000 160.080,140.000 160.629 C 140.000 160.854,139.280 161.741,138.400 162.600 C 137.520 163.459,136.800 164.321,136.800 164.514 C 136.800 164.707,136.198 165.616,135.462 166.533 C 134.726 167.450,134.005 168.470,133.859 168.800 C 133.714 169.130,133.143 170.120,132.590 171.000 C 132.038 171.880,131.406 173.050,131.185 173.600 C 130.964 174.150,130.626 174.960,130.433 175.400 C 130.240 175.840,129.793 176.857,129.441 177.660 C 129.088 178.464,128.800 179.398,128.800 179.737 C 128.800 180.076,128.620 180.464,128.400 180.600 C 128.180 180.736,128.000 181.341,128.000 181.944 C 128.000 182.547,127.801 183.239,127.557 183.483 C 127.313 183.727,127.018 185.118,126.901 186.574 C 126.784 188.030,126.534 189.317,126.344 189.434 C 125.894 189.712,125.894 204.288,126.344 204.566 C 126.534 204.683,126.784 205.970,126.901 207.426 C 127.018 208.882,127.313 210.273,127.557 210.517 C 127.801 210.761,128.000 211.453,128.000 212.056 C 128.000 212.659,128.180 213.264,128.400 213.400 C 128.620 213.536,128.800 213.924,128.800 214.263 C 128.800 214.602,129.088 215.536,129.441 216.340 C 129.793 217.143,130.240 218.160,130.433 218.600 C 130.626 219.040,130.964 219.850,131.185 220.400 C 131.406 220.950,132.038 222.120,132.590 223.000 C 133.143 223.880,133.714 224.870,133.859 225.200 C 134.005 225.530,134.726 226.550,135.462 227.467 C 136.198 228.384,136.800 229.296,136.800 229.492 C 136.800 229.689,137.340 230.368,138.000 231.000 C 138.660 231.632,139.200 232.345,139.200 232.583 C 139.200 233.135,146.076 240.000,146.629 240.000 C 146.857 240.000,147.654 240.630,148.400 241.400 C 149.146 242.170,149.921 242.800,150.121 242.800 C 150.321 242.800,151.167 243.340,152.000 244.000 C 152.833 244.660,153.692 245.200,153.909 245.200 C 154.125 245.200,154.512 245.453,154.768 245.761 C 155.285 246.384,164.810 251.200,165.525 251.200 C 165.773 251.200,166.598 251.549,167.358 251.976 C 168.118 252.403,169.428 252.866,170.270 253.005 C 171.716 253.244,172.942 253.660,174.472 254.433 C 174.842 254.619,176.332 254.894,177.783 255.042 C 179.235 255.191,180.518 255.467,180.635 255.656 C 180.752 255.845,181.791 256.000,182.944 256.000 C 184.097 256.000,185.231 256.191,185.465 256.425 C 185.740 256.700,189.103 256.850,195.000 256.850 C 200.897 256.850,204.260 256.700,204.535 256.425 C 204.769 256.191,205.903 256.000,207.056 256.000 C 208.209 256.000,209.248 255.845,209.365 255.656 C 209.482 255.467,210.765 255.191,212.217 255.042 C 213.668 254.894,215.158 254.619,215.528 254.433 C 217.058 253.660,218.284 253.244,219.730 253.005 C 220.572 252.866,221.882 252.403,222.642 251.976 C 223.402 251.549,224.227 251.200,224.475 251.200 C 225.190 251.200,234.715 246.384,235.232 245.761 C 235.488 245.453,235.875 245.200,236.091 245.200 C 236.308 245.200,237.167 244.660,238.000 244.000 C 238.833 243.340,239.679 242.800,239.879 242.800 C 240.079 242.800,240.854 242.170,241.600 241.400 C 242.346 240.630,243.150 240.000,243.386 240.000 C 243.942 240.000,251.200 232.719,251.200 232.162 C 251.200 231.930,251.650 231.317,252.200 230.800 C 252.750 230.283,253.200 229.696,253.200 229.494 C 253.200 229.293,253.987 228.199,254.950 227.064 C 255.912 225.929,256.836 224.550,257.002 224.000 C 257.169 223.450,257.641 222.522,258.052 221.938 C 258.464 221.354,258.800 220.751,258.800 220.599 C 258.800 220.446,259.070 219.709,259.400 218.960 C 259.730 218.212,260.270 216.988,260.600 216.240 C 260.930 215.491,261.200 214.679,261.200 214.434 C 261.200 214.189,261.380 213.632,261.600 213.195 C 261.820 212.758,262.174 212.053,262.386 211.628 C 262.598 211.203,262.894 209.668,263.042 208.217 C 263.191 206.765,263.467 205.482,263.656 205.365 C 263.845 205.248,264.000 203.579,264.000 201.656 C 264.000 199.470,264.180 197.980,264.480 197.680 C 264.853 197.307,264.853 197.093,264.480 196.720 C 264.184 196.424,264.000 194.974,264.000 192.944 C 264.000 191.131,263.847 189.553,263.660 189.437 C 263.473 189.321,263.205 187.872,263.065 186.217 C 262.925 184.561,262.656 182.890,262.468 182.503 C 262.279 182.116,261.917 181.397,261.662 180.905 C 261.408 180.413,261.200 179.811,261.200 179.566 C 261.200 179.321,260.909 178.464,260.553 177.660 C 259.042 174.254,258.800 173.665,258.800 173.401 C 258.800 173.249,258.464 172.646,258.052 172.062 C 257.641 171.478,257.169 170.550,257.002 170.000 C 256.836 169.450,255.912 168.071,254.950 166.936 C 253.987 165.801,253.200 164.710,253.200 164.511 C 253.200 164.312,252.660 163.632,252.000 163.000 C 251.340 162.368,250.800 161.655,250.800 161.416 C 250.800 160.864,244.723 154.800,244.170 154.800 C 243.943 154.800,243.146 154.170,242.400 153.400 C 241.654 152.630,240.886 152.000,240.693 152.000 C 240.501 152.000,239.490 151.280,238.446 150.400 C 237.402 149.520,236.357 148.800,236.123 148.800 C 235.889 148.800,235.488 148.547,235.232 148.239 C 234.715 147.616,225.190 142.800,224.475 142.800 C 224.227 142.800,223.434 142.469,222.712 142.065 C 221.990 141.661,220.627 141.208,219.683 141.058 C 218.738 140.908,217.613 140.608,217.183 140.392 C 216.752 140.177,216.053 139.826,215.628 139.614 C 215.203 139.402,213.668 139.106,212.217 138.958 C 210.765 138.809,209.482 138.533,209.365 138.344 C 209.248 138.155,208.184 138.000,207.000 138.000 C 205.816 138.000,204.736 137.820,204.600 137.600 C 204.447 137.352,200.804 137.200,195.000 137.200 C 189.196 137.200,185.553 137.352,185.400 137.600 M294.600 142.400 C 294.464 142.620,293.778 142.821,293.076 142.846 C 292.236 142.877,292.073 142.958,292.600 143.085 C 293.040 143.191,293.571 143.440,293.780 143.639 C 293.989 143.837,294.448 144.000,294.799 144.000 C 295.474 144.000,300.536 146.483,301.512 147.293 C 302.220 147.880,303.496 148.629,304.747 149.191 C 306.002 149.754,315.200 159.026,315.200 159.728 C 315.200 160.030,315.560 160.602,316.000 161.000 C 316.440 161.398,316.800 161.888,316.800 162.089 C 316.800 162.289,317.205 163.026,317.701 163.727 C 319.642 166.469,323.200 173.601,323.200 174.748 C 323.200 174.983,323.533 175.769,323.941 176.494 C 324.348 177.219,324.808 178.661,324.964 179.697 C 325.119 180.733,325.416 181.686,325.623 181.814 C 325.830 181.942,326.000 182.476,326.000 183.000 C 326.000 183.524,326.162 184.053,326.361 184.176 C 326.559 184.298,326.847 185.479,327.000 186.800 C 327.153 188.121,327.441 189.302,327.639 189.424 C 327.838 189.547,328.000 190.256,328.000 191.000 C 328.000 191.744,328.161 192.452,328.358 192.574 C 328.555 192.696,328.844 194.238,329.000 196.000 C 329.156 197.762,329.445 199.304,329.642 199.426 C 329.839 199.548,330.000 200.681,330.000 201.944 C 330.000 203.207,330.171 204.411,330.379 204.620 C 330.588 204.829,330.886 208.291,331.041 212.314 C 331.196 216.337,331.475 219.723,331.661 219.838 C 332.105 220.112,332.104 254.289,331.661 254.563 C 331.474 254.678,331.192 259.414,331.035 265.086 C 330.878 270.759,330.581 275.571,330.375 275.780 C 330.169 275.989,330.000 277.708,330.000 279.600 C 330.000 281.492,329.841 283.211,329.647 283.420 C 329.453 283.629,329.196 286.590,329.076 290.000 C 328.956 293.410,328.953 295.858,329.070 295.439 C 329.187 295.021,329.624 294.070,330.041 293.327 C 330.458 292.584,330.800 291.783,330.800 291.548 C 330.800 291.313,331.088 290.464,331.441 289.660 C 332.626 286.959,332.752 286.605,333.028 285.213 C 333.178 284.450,333.438 283.550,333.604 283.213 C 334.337 281.728,334.772 280.504,335.028 279.213 C 335.178 278.450,335.459 277.505,335.651 277.113 C 335.843 276.721,336.158 276.078,336.351 275.685 C 336.543 275.291,336.824 274.166,336.973 273.185 C 337.236 271.464,337.386 270.975,338.324 268.800 C 338.561 268.250,338.873 266.675,339.017 265.299 C 339.161 263.924,339.441 262.698,339.639 262.576 C 339.838 262.453,340.000 261.834,340.000 261.200 C 340.000 260.566,340.165 259.945,340.366 259.821 C 340.567 259.696,340.859 258.243,341.014 256.592 C 341.168 254.940,341.454 253.490,341.648 253.371 C 341.841 253.251,342.000 252.364,342.000 251.400 C 342.000 250.436,342.165 249.545,342.366 249.421 C 342.568 249.296,342.861 247.212,343.018 244.789 C 343.176 242.365,343.461 240.286,343.652 240.168 C 343.843 240.050,344.000 238.354,344.000 236.400 C 344.000 234.446,344.180 232.736,344.400 232.600 C 344.653 232.444,344.800 227.670,344.800 219.600 C 344.800 211.530,344.653 206.756,344.400 206.600 C 344.180 206.464,344.000 205.114,344.000 203.600 C 344.000 202.086,343.837 200.746,343.637 200.623 C 343.438 200.500,343.146 198.686,342.989 196.593 C 342.832 194.500,342.546 192.690,342.352 192.570 C 342.158 192.451,342.000 191.744,342.000 191.000 C 342.000 190.256,341.838 189.547,341.639 189.424 C 341.441 189.302,341.153 188.121,341.000 186.800 C 340.847 185.479,340.559 184.298,340.361 184.176 C 340.162 184.053,340.000 183.524,340.000 183.000 C 340.000 182.476,339.836 181.946,339.635 181.822 C 339.434 181.697,339.148 180.878,339.000 180.000 C 338.852 179.122,338.566 178.303,338.365 178.178 C 338.164 178.054,338.000 177.524,338.000 177.000 C 338.000 176.476,337.843 175.950,337.652 175.832 C 337.460 175.714,337.192 175.058,337.055 174.375 C 336.918 173.692,336.469 172.653,336.056 172.066 C 335.643 171.480,335.168 170.550,335.000 170.000 C 334.832 169.450,334.382 168.550,334.000 168.000 C 333.618 167.450,333.170 166.550,333.006 166.000 C 332.842 165.450,332.278 164.427,331.754 163.727 C 331.229 163.026,330.800 162.289,330.800 162.089 C 330.800 161.888,330.440 161.398,330.000 161.000 C 329.560 160.602,329.200 160.025,329.200 159.719 C 329.200 159.413,326.815 156.776,323.900 153.860 C 318.570 148.527,311.523 144.000,308.552 144.000 C 308.116 144.000,307.577 143.817,307.353 143.593 C 307.129 143.369,305.467 143.072,303.659 142.933 C 301.852 142.793,300.278 142.526,300.163 142.340 C 299.867 141.861,294.900 141.915,294.600 142.400 M95.400 143.600 C 95.264 143.820,94.454 144.000,93.600 144.000 C 92.746 144.000,91.946 144.164,91.822 144.365 C 91.697 144.566,90.878 144.852,90.000 145.000 C 89.122 145.148,88.303 145.434,88.178 145.635 C 88.054 145.836,87.640 146.000,87.257 146.000 C 86.539 146.000,81.505 148.449,80.488 149.293 C 79.854 149.819,78.525 150.623,77.600 151.038 C 76.688 151.448,69.200 158.923,69.200 159.423 C 69.200 159.664,68.750 160.283,68.200 160.800 C 67.650 161.317,67.200 161.900,67.200 162.096 C 67.200 162.293,66.795 163.026,66.299 163.727 C 64.702 165.983,61.200 172.574,61.200 173.322 C 61.200 173.664,60.281 175.923,59.617 177.213 C 59.444 177.550,59.178 178.450,59.028 179.213 C 58.770 180.516,58.327 181.757,57.590 183.236 C 57.416 183.585,57.146 184.893,56.990 186.141 C 56.834 187.389,56.548 188.509,56.353 188.629 C 56.159 188.749,56.000 189.366,56.000 190.000 C 56.000 190.634,55.834 191.255,55.632 191.380 C 55.429 191.506,55.136 193.410,54.980 195.613 C 54.823 197.815,54.539 199.714,54.348 199.832 C 54.157 199.950,54.000 201.376,54.000 203.000 C 54.000 204.624,53.820 206.064,53.600 206.200 C 53.347 206.357,53.200 211.196,53.200 219.400 C 53.200 227.604,53.347 232.443,53.600 232.600 C 53.820 232.736,54.000 234.266,54.000 236.000 C 54.000 237.734,54.160 239.252,54.356 239.373 C 54.552 239.494,54.842 241.576,55.000 244.000 C 55.158 246.424,55.448 248.506,55.644 248.627 C 55.840 248.748,56.000 249.636,56.000 250.600 C 56.000 251.564,56.156 252.449,56.347 252.568 C 56.539 252.686,56.819 254.042,56.971 255.582 C 57.122 257.122,57.416 258.486,57.623 258.614 C 57.830 258.742,58.000 259.546,58.000 260.400 C 58.000 261.254,58.162 262.053,58.361 262.176 C 58.559 262.298,58.847 263.479,59.000 264.800 C 59.153 266.121,59.441 267.302,59.639 267.424 C 59.838 267.547,60.000 268.166,60.000 268.800 C 60.000 269.434,60.164 270.054,60.365 270.178 C 60.566 270.303,60.852 271.122,61.000 272.000 C 61.148 272.878,61.434 273.697,61.635 273.822 C 61.836 273.946,62.000 274.566,62.000 275.200 C 62.000 275.834,62.156 276.449,62.347 276.568 C 62.539 276.686,62.810 277.504,62.951 278.386 C 63.092 279.268,63.545 280.589,63.956 281.322 C 64.368 282.055,64.837 283.260,65.000 284.000 C 65.163 284.740,65.634 285.949,66.048 286.685 C 66.462 287.422,66.800 288.217,66.800 288.452 C 66.800 288.687,67.070 289.491,67.400 290.240 C 68.024 291.655,69.021 294.021,69.575 295.400 C 70.530 297.777,75.092 306.776,75.880 307.838 C 76.386 308.519,76.800 309.261,76.800 309.489 C 76.800 309.716,77.070 310.126,77.400 310.400 C 77.815 310.744,78.000 310.759,78.000 310.449 C 78.000 310.202,77.837 310.000,77.638 310.000 C 77.438 310.000,77.146 309.062,76.988 307.916 C 76.831 306.770,76.516 305.465,76.288 305.016 C 75.371 303.205,75.263 302.842,74.990 300.659 C 74.834 299.411,74.548 298.291,74.353 298.171 C 74.159 298.051,74.000 297.434,74.000 296.800 C 74.000 296.166,73.838 295.547,73.639 295.424 C 73.441 295.302,73.153 294.121,73.000 292.800 C 72.847 291.479,72.559 290.298,72.361 290.176 C 72.162 290.053,72.000 289.254,72.000 288.400 C 72.000 287.546,71.830 286.742,71.623 286.614 C 71.416 286.486,71.122 285.122,70.971 283.582 C 70.819 282.042,70.539 280.686,70.347 280.568 C 70.156 280.449,70.000 279.769,70.000 279.056 C 70.000 278.343,69.821 277.581,69.602 277.362 C 69.383 277.143,69.086 275.571,68.942 273.868 C 68.798 272.166,68.527 270.679,68.340 270.563 C 68.153 270.447,68.000 269.564,68.000 268.600 C 68.000 267.636,67.837 266.746,67.637 266.623 C 67.438 266.500,67.146 264.686,66.989 262.593 C 66.832 260.500,66.546 258.690,66.352 258.570 C 66.158 258.451,66.000 257.139,66.000 255.656 C 66.000 254.173,65.829 252.789,65.619 252.579 C 65.409 252.369,65.112 249.087,64.957 245.284 C 64.803 241.482,64.524 238.277,64.338 238.162 C 63.895 237.888,63.897 213.711,64.339 213.437 C 64.526 213.322,64.805 210.836,64.959 207.914 C 65.114 204.991,65.411 202.429,65.620 202.220 C 65.829 202.011,66.000 200.987,66.000 199.944 C 66.000 198.901,66.159 197.949,66.353 197.829 C 66.547 197.709,66.831 196.441,66.984 195.010 C 67.137 193.579,67.429 192.306,67.631 192.181 C 67.834 192.055,68.000 191.434,68.000 190.800 C 68.000 190.166,68.156 189.551,68.347 189.432 C 68.539 189.314,68.812 188.486,68.955 187.591 C 69.098 186.697,69.420 185.568,69.670 185.083 C 70.653 183.176,70.800 182.785,70.800 182.082 C 70.800 181.681,71.064 181.004,71.387 180.576 C 71.710 180.149,71.980 179.530,71.987 179.199 C 72.001 178.528,76.515 169.411,77.320 168.428 C 77.603 168.083,78.092 167.260,78.407 166.600 C 78.722 165.940,79.839 164.386,80.890 163.146 C 81.940 161.906,82.800 160.733,82.800 160.540 C 82.800 160.071,93.708 149.200,94.179 149.200 C 94.382 149.200,95.370 148.516,96.374 147.679 C 97.378 146.843,98.830 145.854,99.600 145.481 C 101.186 144.713,102.400 143.835,102.400 143.456 C 102.400 143.031,95.666 143.169,95.400 143.600 M113.400 144.400 C 113.264 144.620,112.819 144.800,112.411 144.800 C 111.582 144.800,106.986 147.011,105.897 147.934 C 105.172 148.548,104.309 149.068,102.149 150.193 C 101.460 150.552,100.484 151.285,99.979 151.823 C 99.474 152.360,98.853 152.800,98.600 152.800 C 98.347 152.800,97.717 153.250,97.200 153.800 C 96.683 154.350,96.070 154.800,95.837 154.800 C 95.275 154.800,87.200 162.862,87.200 163.423 C 87.200 163.664,86.750 164.283,86.200 164.800 C 85.650 165.317,85.200 165.909,85.200 166.117 C 85.200 166.325,84.660 167.109,84.000 167.861 C 83.340 168.613,82.800 169.470,82.800 169.765 C 82.800 170.060,82.534 170.523,82.210 170.792 C 81.885 171.061,81.162 172.208,80.602 173.341 C 80.043 174.473,79.424 175.670,79.227 176.000 C 78.505 177.209,76.800 181.093,76.800 181.528 C 76.800 181.774,76.451 182.598,76.024 183.358 C 75.597 184.118,75.126 185.385,74.978 186.174 C 74.830 186.963,74.550 187.707,74.355 187.828 C 74.160 187.949,74.000 188.566,74.000 189.200 C 74.000 189.834,73.833 190.456,73.628 190.583 C 73.423 190.709,73.132 191.802,72.981 193.012 C 72.830 194.221,72.548 195.309,72.353 195.429 C 72.159 195.549,72.000 196.231,72.000 196.944 C 72.000 197.657,71.830 198.411,71.621 198.620 C 71.413 198.829,71.117 200.671,70.963 202.712 C 70.809 204.754,70.530 206.520,70.342 206.636 C 70.154 206.752,70.000 208.266,70.000 210.000 C 70.000 211.734,69.820 213.264,69.600 213.400 C 69.055 213.737,69.055 237.463,69.600 237.800 C 69.823 237.938,70.000 239.796,70.000 242.000 C 70.000 244.174,70.154 246.048,70.341 246.164 C 70.529 246.280,70.810 248.855,70.966 251.887 C 71.122 254.919,71.418 257.571,71.625 257.780 C 71.831 257.989,72.000 259.013,72.000 260.056 C 72.000 261.099,72.161 262.052,72.357 262.174 C 72.554 262.295,72.843 264.017,73.000 266.000 C 73.157 267.983,73.446 269.705,73.643 269.826 C 73.839 269.948,74.000 270.926,74.000 272.000 C 74.000 273.074,74.166 274.055,74.369 274.181 C 74.571 274.306,74.863 275.579,75.016 277.010 C 75.169 278.441,75.453 279.709,75.647 279.829 C 75.841 279.949,76.000 280.757,76.000 281.624 C 76.000 282.491,76.151 283.200,76.336 283.200 C 76.521 283.200,76.797 275.868,76.950 266.906 C 77.113 257.378,77.389 250.451,77.614 250.226 C 77.826 250.014,78.000 248.447,78.000 246.744 C 78.000 245.041,78.152 243.553,78.338 243.439 C 78.523 243.324,78.798 240.663,78.948 237.525 C 79.097 234.387,79.396 231.644,79.610 231.430 C 79.825 231.215,80.000 230.097,80.000 228.944 C 80.000 227.791,80.154 226.752,80.342 226.636 C 80.530 226.520,80.809 224.754,80.963 222.712 C 81.117 220.671,81.413 218.829,81.621 218.620 C 81.830 218.411,82.000 217.657,82.000 216.944 C 82.000 216.231,82.161 215.548,82.358 215.426 C 82.555 215.304,82.844 213.762,83.000 212.000 C 83.156 210.238,83.445 208.696,83.642 208.574 C 83.839 208.452,84.000 207.834,84.000 207.200 C 84.000 206.566,84.162 205.947,84.361 205.824 C 84.559 205.702,84.847 204.521,85.000 203.200 C 85.153 201.879,85.441 200.698,85.639 200.576 C 85.838 200.453,86.000 199.834,86.000 199.200 C 86.000 198.566,86.164 197.946,86.365 197.822 C 86.566 197.697,86.846 196.832,86.988 195.898 C 87.236 194.262,87.386 193.777,88.323 191.600 C 88.560 191.050,88.877 189.976,89.028 189.213 C 89.178 188.450,89.444 187.550,89.617 187.213 C 90.437 185.619,91.200 183.620,91.200 183.063 C 91.200 182.724,91.380 182.336,91.600 182.200 C 91.820 182.064,92.000 181.524,92.000 181.000 C 92.000 180.476,92.180 179.936,92.400 179.800 C 92.620 179.664,92.801 179.248,92.802 178.876 C 92.805 178.250,93.149 177.456,94.310 175.400 C 94.558 174.960,95.060 173.880,95.425 173.000 C 96.231 171.056,98.247 166.897,98.914 165.802 C 99.181 165.363,99.691 164.553,100.048 164.002 C 100.404 163.451,100.834 162.550,101.005 162.000 C 101.175 161.450,101.874 160.280,102.557 159.400 C 103.927 157.636,104.669 156.512,105.066 155.600 C 105.210 155.270,106.108 154.071,107.063 152.936 C 108.019 151.801,108.800 150.714,108.800 150.521 C 108.800 150.328,109.700 149.283,110.800 148.200 C 111.900 147.117,112.800 146.057,112.800 145.847 C 112.800 145.636,113.098 145.134,113.462 144.731 C 113.826 144.329,114.017 144.000,113.886 144.000 C 113.754 144.000,113.536 144.180,113.400 144.400 M287.600 147.511 C 287.600 147.682,288.860 149.072,290.400 150.600 C 291.940 152.128,293.200 153.577,293.200 153.820 C 293.200 154.062,293.650 154.683,294.200 155.200 C 294.750 155.717,295.200 156.309,295.200 156.515 C 295.200 156.722,296.060 157.906,297.110 159.146 C 298.161 160.386,299.282 161.940,299.602 162.600 C 299.922 163.260,300.548 164.340,300.993 165.000 C 302.237 166.845,302.722 167.680,303.432 169.200 C 303.792 169.970,304.787 172.054,305.643 173.830 C 306.499 175.607,307.200 177.267,307.200 177.518 C 307.200 177.770,307.538 178.578,307.952 179.315 C 308.366 180.051,308.837 181.260,309.000 182.000 C 309.163 182.740,309.607 183.901,309.988 184.579 C 310.369 185.258,310.808 186.661,310.964 187.697 C 311.119 188.733,311.416 189.686,311.623 189.814 C 311.830 189.942,312.000 190.476,312.000 191.000 C 312.000 191.524,312.175 192.061,312.388 192.193 C 312.602 192.325,312.896 193.330,313.041 194.425 C 313.187 195.521,313.462 196.515,313.653 196.633 C 313.844 196.751,314.000 197.366,314.000 198.000 C 314.000 198.634,314.156 199.249,314.347 199.368 C 314.539 199.486,314.819 200.842,314.971 202.382 C 315.122 203.922,315.416 205.286,315.623 205.414 C 315.830 205.542,316.000 206.256,316.000 207.000 C 316.000 207.744,316.154 208.448,316.341 208.564 C 316.529 208.680,316.807 210.264,316.959 212.085 C 317.111 213.905,317.407 215.567,317.617 215.777 C 317.828 215.988,318.000 217.103,318.000 218.256 C 318.000 219.409,318.160 220.452,318.356 220.573 C 318.552 220.694,318.842 222.776,319.000 225.200 C 319.158 227.624,319.448 229.706,319.644 229.827 C 319.840 229.948,320.000 231.351,320.000 232.944 C 320.000 234.537,320.171 236.011,320.381 236.221 C 320.591 236.431,320.888 239.713,321.043 243.516 C 321.197 247.318,321.476 250.523,321.662 250.638 C 321.848 250.753,322.000 252.871,322.000 255.344 C 322.000 257.817,322.164 260.011,322.364 260.220 C 322.564 260.429,322.858 267.305,323.017 275.500 C 323.176 283.695,323.462 290.400,323.653 290.400 C 323.844 290.400,324.000 288.906,324.000 287.080 C 324.000 285.254,324.166 283.589,324.368 283.380 C 324.570 283.171,324.865 279.530,325.023 275.289 C 325.182 271.048,325.466 267.483,325.655 267.366 C 325.845 267.249,326.000 264.564,326.000 261.400 C 326.000 257.996,326.163 255.546,326.400 255.400 C 326.657 255.241,326.800 248.804,326.800 237.400 C 326.800 225.996,326.657 219.559,326.400 219.400 C 326.175 219.261,326.000 217.337,326.000 215.000 C 326.000 212.716,325.846 210.752,325.657 210.635 C 325.469 210.519,325.187 208.213,325.031 205.512 C 324.875 202.810,324.579 200.429,324.373 200.220 C 324.168 200.011,324.000 199.167,324.000 198.344 C 324.000 197.521,323.841 196.749,323.648 196.629 C 323.454 196.510,323.168 195.060,323.014 193.408 C 322.859 191.757,322.567 190.304,322.366 190.179 C 322.165 190.055,322.000 189.434,322.000 188.800 C 322.000 188.166,321.844 187.551,321.653 187.433 C 321.462 187.315,321.183 186.298,321.034 185.174 C 320.885 184.050,320.591 182.786,320.382 182.365 C 320.172 181.944,319.843 181.279,319.651 180.887 C 319.459 180.495,319.178 179.550,319.028 178.787 C 318.697 177.112,318.581 176.827,316.250 171.953 C 315.238 169.837,314.149 167.890,313.831 167.625 C 313.512 167.361,313.145 166.658,313.014 166.064 C 312.883 165.469,311.522 163.608,309.988 161.927 C 308.455 160.246,307.200 158.730,307.200 158.557 C 307.200 158.118,305.127 156.000,304.697 156.000 C 304.503 156.000,303.490 155.280,302.446 154.400 C 301.402 153.520,300.357 152.800,300.123 152.800 C 299.889 152.800,299.483 152.540,299.219 152.223 C 298.693 151.589,293.174 148.800,292.445 148.800 C 292.194 148.800,291.587 148.592,291.095 148.338 C 289.218 147.367,288.793 147.200,288.205 147.200 C 287.872 147.200,287.600 147.340,287.600 147.511 M88.400 328.334 C 88.400 329.162,88.592 330.032,88.828 330.268 C 89.063 330.503,89.747 332.294,90.349 334.248 L 91.443 337.800 115.422 337.896 C 129.214 337.951,139.740 338.150,140.200 338.365 C 140.683 338.591,175.390 338.823,227.898 338.952 L 314.796 339.165 315.555 337.483 C 316.544 335.292,317.600 331.101,317.600 329.368 L 317.600 328.000 290.680 328.000 C 275.874 328.000,263.589 327.843,263.380 327.651 C 263.168 327.455,224.518 327.197,175.700 327.065 L 88.400 326.828 88.400 328.334 M93.002 342.500 C 93.132 343.215,93.401 345.060,93.598 346.600 C 94.198 351.293,94.747 353.719,95.344 354.316 C 95.829 354.800,103.764 354.918,148.571 355.104 C 177.533 355.224,201.323 355.475,201.438 355.661 C 201.553 355.848,219.511 356.000,241.344 356.000 C 267.602 356.000,281.177 356.137,281.445 356.405 C 281.708 356.668,287.046 356.773,296.625 356.705 L 311.400 356.600 311.658 354.000 C 311.971 350.845,312.497 348.510,313.545 345.611 C 313.981 344.407,314.251 343.282,314.145 343.111 C 314.039 342.940,302.814 342.800,289.200 342.800 C 273.130 342.800,264.360 342.660,264.200 342.400 C 264.037 342.136,242.870 342.000,202.000 342.000 C 161.130 342.000,139.963 341.864,139.800 341.600 C 139.640 341.341,131.323 341.200,116.158 341.200 L 92.764 341.200 93.002 342.500 " stroke="none" fill="#242424" fill-rule="evenodd"></path></g></svg>