<svg id="svg" version="1.1" xmlns="http://www.w3.org/2000/svg" xmlns:xlink="http://www.w3.org/1999/xlink" width="400" height="400" viewBox="0, 0, 400,400"><g id="svgg"><path id="path0" d="M207.200 26.000 C 207.200 29.644,207.303 30.400,207.800 30.400 C 208.200 30.400,208.400 30.800,208.400 31.600 C 208.400 32.400,208.600 32.800,209.000 32.800 C 209.330 32.800,209.600 33.087,209.600 33.437 C 209.600 33.788,209.960 34.169,210.400 34.284 C 210.967 34.432,211.200 34.830,211.200 35.647 C 211.200 36.405,211.405 36.800,211.800 36.800 C 212.306 36.800,212.400 37.711,212.400 42.600 C 212.400 47.489,212.306 48.400,211.800 48.400 C 211.347 48.400,211.200 48.889,211.200 50.400 C 211.200 52.133,211.093 52.400,210.400 52.400 C 209.960 52.400,209.600 52.651,209.600 52.957 C 209.600 53.264,209.330 53.618,209.000 53.745 C 208.670 53.871,208.400 54.251,208.400 54.587 C 208.400 54.924,208.130 55.200,207.800 55.200 C 207.470 55.200,207.200 55.449,207.200 55.753 C 207.200 56.058,206.840 56.401,206.400 56.516 C 205.817 56.668,205.600 57.062,205.600 57.963 C 205.600 58.796,205.404 59.200,205.000 59.200 C 204.670 59.200,204.400 59.470,204.400 59.800 C 204.400 60.130,204.130 60.400,203.800 60.400 C 203.470 60.400,203.200 60.649,203.200 60.953 C 203.200 61.258,202.840 61.601,202.400 61.716 C 201.960 61.831,201.600 62.212,201.600 62.563 C 201.600 63.061,201.163 63.200,199.600 63.200 C 198.089 63.200,197.600 63.347,197.600 63.800 C 197.600 64.272,197.044 64.400,195.000 64.400 C 192.956 64.400,192.400 64.528,192.400 65.000 C 192.400 65.472,191.844 65.600,189.800 65.600 C 187.467 65.600,187.200 65.682,187.200 66.400 C 187.200 67.048,186.933 67.200,185.800 67.200 C 184.822 67.200,184.400 67.381,184.400 67.800 C 184.400 68.130,184.130 68.400,183.800 68.400 C 183.470 68.400,183.200 68.649,183.200 68.953 C 183.200 69.258,182.840 69.601,182.400 69.716 C 181.960 69.831,181.600 70.212,181.600 70.563 C 181.600 71.004,181.231 71.200,180.400 71.200 C 179.600 71.200,179.200 71.400,179.200 71.800 C 179.200 72.219,178.778 72.400,177.800 72.400 C 176.822 72.400,176.400 72.581,176.400 73.000 C 176.400 73.330,176.130 73.600,175.800 73.600 C 175.467 73.600,175.200 73.956,175.200 74.400 C 175.200 74.933,174.933 75.200,174.400 75.200 C 173.956 75.200,173.600 75.467,173.600 75.800 C 173.600 76.200,173.200 76.400,172.400 76.400 C 171.600 76.400,171.200 76.600,171.200 77.000 C 171.200 77.330,170.913 77.600,170.563 77.600 C 170.212 77.600,169.831 77.960,169.716 78.400 C 169.601 78.840,169.258 79.200,168.953 79.200 C 168.649 79.200,168.400 79.470,168.400 79.800 C 168.400 80.253,167.911 80.400,166.400 80.400 C 164.889 80.400,164.400 80.547,164.400 81.000 C 164.400 81.404,163.996 81.600,163.163 81.600 C 162.262 81.600,161.868 81.817,161.716 82.400 C 161.568 82.967,161.170 83.200,160.353 83.200 C 159.595 83.200,159.200 83.405,159.200 83.800 C 159.200 84.219,158.778 84.400,157.800 84.400 C 156.822 84.400,156.400 84.581,156.400 85.000 C 156.400 85.404,155.996 85.600,155.163 85.600 C 154.262 85.600,153.868 85.817,153.716 86.400 C 153.568 86.967,153.170 87.200,152.353 87.200 C 151.595 87.200,151.200 87.405,151.200 87.800 C 151.200 88.219,150.778 88.400,149.800 88.400 C 148.822 88.400,148.400 88.581,148.400 89.000 C 148.400 89.446,147.929 89.600,146.563 89.600 C 145.062 89.600,144.687 89.746,144.516 90.400 C 144.401 90.840,144.058 91.200,143.753 91.200 C 143.449 91.200,143.200 91.470,143.200 91.800 C 143.200 92.219,142.778 92.400,141.800 92.400 C 140.822 92.400,140.400 92.581,140.400 93.000 C 140.400 93.453,139.911 93.600,138.400 93.600 C 136.667 93.600,136.400 93.707,136.400 94.400 C 136.400 95.048,136.133 95.200,135.000 95.200 C 134.022 95.200,133.600 95.381,133.600 95.800 C 133.600 96.200,133.200 96.400,132.400 96.400 C 131.645 96.400,131.200 96.605,131.200 96.953 C 131.200 97.258,130.840 97.601,130.400 97.716 C 129.960 97.831,129.600 98.212,129.600 98.563 C 129.600 98.913,129.330 99.200,129.000 99.200 C 128.670 99.200,128.400 99.470,128.400 99.800 C 128.400 100.219,127.978 100.400,127.000 100.400 C 126.022 100.400,125.600 100.581,125.600 101.000 C 125.600 101.400,125.200 101.600,124.400 101.600 C 123.467 101.600,123.200 101.778,123.200 102.400 C 123.200 102.933,122.933 103.200,122.400 103.200 C 121.956 103.200,121.600 103.467,121.600 103.800 C 121.600 104.272,121.044 104.400,119.000 104.400 C 116.956 104.400,116.400 104.528,116.400 105.000 C 116.400 105.453,115.911 105.600,114.400 105.600 C 112.667 105.600,112.400 105.707,112.400 106.400 C 112.400 107.093,112.133 107.200,110.400 107.200 C 108.889 107.200,108.400 107.347,108.400 107.800 C 108.400 108.130,108.130 108.400,107.800 108.400 C 107.470 108.400,107.200 108.649,107.200 108.953 C 107.200 109.258,106.840 109.601,106.400 109.716 C 105.960 109.831,105.600 110.212,105.600 110.563 C 105.600 111.004,105.231 111.200,104.400 111.200 C 103.600 111.200,103.200 111.400,103.200 111.800 C 103.200 112.130,102.924 112.400,102.587 112.400 C 102.251 112.400,101.871 112.670,101.745 113.000 C 101.618 113.330,101.264 113.600,100.957 113.600 C 100.651 113.600,100.400 113.960,100.400 114.400 C 100.400 115.048,100.133 115.200,99.000 115.200 C 98.022 115.200,97.600 115.381,97.600 115.800 C 97.600 116.130,97.330 116.400,97.000 116.400 C 96.670 116.400,96.400 116.670,96.400 117.000 C 96.400 117.330,96.130 117.600,95.800 117.600 C 95.467 117.600,95.200 117.956,95.200 118.400 C 95.200 118.933,94.933 119.200,94.400 119.200 C 93.956 119.200,93.600 119.467,93.600 119.800 C 93.600 120.236,93.151 120.400,91.956 120.400 C 90.285 120.400,88.422 121.607,88.407 122.700 C 88.403 122.975,88.130 123.200,87.800 123.200 C 87.470 123.200,87.200 123.470,87.200 123.800 C 87.200 124.219,86.778 124.400,85.800 124.400 C 84.822 124.400,84.400 124.581,84.400 125.000 C 84.400 125.404,83.996 125.600,83.163 125.600 C 82.262 125.600,81.868 125.817,81.716 126.400 C 81.601 126.840,81.258 127.200,80.953 127.200 C 80.649 127.200,80.400 127.470,80.400 127.800 C 80.400 128.186,80.008 128.402,79.300 128.407 C 78.209 128.414,76.400 129.879,76.400 130.756 C 76.400 131.000,76.130 131.200,75.800 131.200 C 75.470 131.200,75.200 131.470,75.200 131.800 C 75.200 132.130,74.975 132.403,74.700 132.407 C 73.250 132.427,72.400 134.255,72.400 137.356 C 72.400 139.795,72.281 140.400,71.800 140.400 C 71.470 140.400,71.200 140.649,71.200 140.953 C 71.200 141.258,70.840 141.601,70.400 141.716 C 69.146 142.044,69.146 165.956,70.400 166.284 C 70.967 166.432,71.200 166.830,71.200 167.647 C 71.200 168.405,71.405 168.800,71.800 168.800 C 72.133 168.800,72.400 169.156,72.400 169.600 C 72.400 170.044,72.667 170.400,73.000 170.400 C 73.400 170.400,73.600 170.800,73.600 171.600 C 73.600 172.533,73.778 172.800,74.400 172.800 C 75.048 172.800,75.200 173.067,75.200 174.200 C 75.200 175.178,75.381 175.600,75.800 175.600 C 76.130 175.600,76.400 175.870,76.400 176.200 C 76.400 176.530,76.670 176.800,77.000 176.800 C 77.330 176.800,77.600 177.087,77.600 177.437 C 77.600 177.788,77.960 178.169,78.400 178.284 C 79.062 178.457,79.200 178.830,79.200 180.447 C 79.200 181.916,79.349 182.400,79.800 182.400 C 80.130 182.400,80.400 182.670,80.400 183.000 C 80.400 183.330,80.670 183.600,81.000 183.600 C 81.330 183.600,81.600 183.870,81.600 184.200 C 81.600 184.533,81.956 184.800,82.400 184.800 C 82.933 184.800,83.200 185.067,83.200 185.600 C 83.200 186.222,83.467 186.400,84.400 186.400 C 85.200 186.400,85.600 186.600,85.600 187.000 C 85.600 187.520,87.244 187.600,98.000 187.600 C 108.756 187.600,110.400 187.520,110.400 187.000 C 110.400 186.600,110.800 186.400,111.600 186.400 C 112.533 186.400,112.800 186.222,112.800 185.600 C 112.800 184.907,113.067 184.800,114.800 184.800 C 116.311 184.800,116.800 184.653,116.800 184.200 C 116.800 183.714,117.444 183.600,120.200 183.600 C 122.956 183.600,123.600 183.486,123.600 183.000 C 123.600 182.596,124.004 182.400,124.837 182.400 C 125.738 182.400,126.132 182.183,126.284 181.600 C 126.558 180.554,129.600 180.405,129.600 181.437 C 129.600 181.788,129.960 182.169,130.400 182.284 C 130.840 182.399,131.200 182.742,131.200 183.047 C 131.200 183.351,131.470 183.600,131.800 183.600 C 132.130 183.600,132.400 183.870,132.400 184.200 C 132.400 184.653,132.889 184.800,134.400 184.800 C 136.133 184.800,136.400 184.907,136.400 185.600 C 136.400 186.385,136.667 186.400,150.600 186.400 C 164.533 186.400,164.800 186.385,164.800 185.600 C 164.800 184.907,165.067 184.800,166.800 184.800 C 168.311 184.800,168.800 184.653,168.800 184.200 C 168.800 183.714,169.444 183.600,172.200 183.600 C 174.956 183.600,175.600 183.486,175.600 183.000 C 175.600 182.528,176.156 182.400,178.200 182.400 C 180.533 182.400,180.800 182.318,180.800 181.600 C 180.800 180.863,181.067 180.800,184.200 180.800 C 186.956 180.800,187.600 180.686,187.600 180.200 C 187.600 179.747,188.089 179.600,189.600 179.600 C 191.111 179.600,191.600 179.453,191.600 179.000 C 191.600 178.670,191.780 178.400,192.000 178.400 C 192.240 178.400,192.400 180.000,192.400 182.400 C 192.400 185.689,192.507 186.400,193.000 186.400 C 193.472 186.400,193.600 186.956,193.600 189.000 C 193.600 191.333,193.682 191.600,194.400 191.600 C 195.111 191.600,195.200 191.867,195.200 194.000 C 195.200 196.133,195.111 196.400,194.400 196.400 C 193.707 196.400,193.600 196.667,193.600 198.400 C 193.600 199.911,193.453 200.400,193.000 200.400 C 192.581 200.400,192.400 200.822,192.400 201.800 C 192.400 202.778,192.219 203.200,191.800 203.200 C 191.470 203.200,191.200 203.470,191.200 203.800 C 191.200 204.130,190.975 204.403,190.700 204.407 C 190.090 204.415,188.400 206.142,188.400 206.756 C 188.400 207.000,188.130 207.200,187.800 207.200 C 187.470 207.200,187.200 207.470,187.200 207.800 C 187.200 208.130,186.975 208.403,186.700 208.407 C 186.090 208.415,184.400 210.142,184.400 210.756 C 184.400 211.000,184.130 211.200,183.800 211.200 C 183.470 211.200,183.200 211.470,183.200 211.800 C 183.200 212.253,182.711 212.400,181.200 212.400 C 179.689 212.400,179.200 212.547,179.200 213.000 C 179.200 213.419,178.778 213.600,177.800 213.600 C 176.667 213.600,176.400 213.752,176.400 214.400 C 176.400 215.093,176.133 215.200,174.400 215.200 C 172.889 215.200,172.400 215.347,172.400 215.800 C 172.400 216.130,172.130 216.400,171.800 216.400 C 171.470 216.400,171.200 216.670,171.200 217.000 C 171.200 217.419,170.778 217.600,169.800 217.600 C 168.667 217.600,168.400 217.752,168.400 218.400 C 168.400 219.048,168.133 219.200,167.000 219.200 C 166.022 219.200,165.600 219.381,165.600 219.800 C 165.600 220.200,165.200 220.400,164.400 220.400 C 163.600 220.400,163.200 220.600,163.200 221.000 C 163.200 221.419,162.778 221.600,161.800 221.600 C 160.667 221.600,160.400 221.752,160.400 222.400 C 160.400 223.048,160.133 223.200,159.000 223.200 C 158.022 223.200,157.600 223.381,157.600 223.800 C 157.600 224.200,157.200 224.400,156.400 224.400 C 155.645 224.400,155.200 224.605,155.200 224.953 C 155.200 225.258,154.840 225.601,154.400 225.716 C 153.960 225.831,153.600 226.212,153.600 226.563 C 153.600 227.004,153.231 227.200,152.400 227.200 C 151.600 227.200,151.200 227.400,151.200 227.800 C 151.200 228.219,150.778 228.400,149.800 228.400 C 148.822 228.400,148.400 228.581,148.400 229.000 C 148.400 229.330,148.130 229.600,147.800 229.600 C 147.467 229.600,147.200 229.956,147.200 230.400 C 147.200 231.048,146.933 231.200,145.800 231.200 C 144.822 231.200,144.400 231.381,144.400 231.800 C 144.400 232.130,144.130 232.400,143.800 232.400 C 143.470 232.400,143.200 232.670,143.200 233.000 C 143.200 233.404,142.796 233.600,141.963 233.600 C 141.062 233.600,140.668 233.817,140.516 234.400 C 140.401 234.840,140.058 235.200,139.753 235.200 C 139.449 235.200,139.200 235.470,139.200 235.800 C 139.200 236.133,138.844 236.400,138.400 236.400 C 137.956 236.400,137.600 236.667,137.600 237.000 C 137.600 237.400,137.200 237.600,136.400 237.600 C 135.467 237.600,135.200 237.778,135.200 238.400 C 135.200 238.933,134.933 239.200,134.400 239.200 C 133.956 239.200,133.600 239.467,133.600 239.800 C 133.600 240.130,133.330 240.400,133.000 240.400 C 132.670 240.400,132.400 240.670,132.400 241.000 C 132.400 241.404,131.996 241.600,131.163 241.600 C 130.262 241.600,129.868 241.817,129.716 242.400 C 129.601 242.840,129.258 243.200,128.953 243.200 C 128.649 243.200,128.400 243.470,128.400 243.800 C 128.400 244.130,128.130 244.400,127.800 244.400 C 127.470 244.400,127.200 244.670,127.200 245.000 C 127.200 245.330,126.913 245.600,126.563 245.600 C 126.212 245.600,125.831 245.960,125.716 246.400 C 125.601 246.840,125.258 247.200,124.953 247.200 C 124.649 247.200,124.400 247.470,124.400 247.800 C 124.400 248.130,124.130 248.400,123.800 248.400 C 123.470 248.400,123.200 248.670,123.200 249.000 C 123.200 249.404,122.796 249.600,121.963 249.600 C 121.062 249.600,120.668 249.817,120.516 250.400 C 120.401 250.840,120.058 251.200,119.753 251.200 C 119.449 251.200,119.200 251.470,119.200 251.800 C 119.200 252.130,119.000 252.400,118.756 252.400 C 118.142 252.400,116.415 254.090,116.407 254.700 C 116.403 254.975,116.130 255.200,115.800 255.200 C 115.470 255.200,115.200 255.470,115.200 255.800 C 115.200 256.130,115.000 256.400,114.756 256.400 C 114.142 256.400,112.415 258.090,112.407 258.700 C 112.403 258.975,112.130 259.200,111.800 259.200 C 111.470 259.200,111.200 259.449,111.200 259.753 C 111.200 260.058,110.840 260.401,110.400 260.516 C 109.817 260.668,109.600 261.062,109.600 261.963 C 109.600 262.796,109.404 263.200,109.000 263.200 C 108.670 263.200,108.400 263.470,108.400 263.800 C 108.400 264.130,108.130 264.400,107.800 264.400 C 107.470 264.400,107.200 264.670,107.200 265.000 C 107.200 265.330,106.913 265.600,106.563 265.600 C 106.212 265.600,105.831 265.960,105.716 266.400 C 105.601 266.840,105.258 267.200,104.953 267.200 C 104.649 267.200,104.400 267.470,104.400 267.800 C 104.400 268.130,104.130 268.400,103.800 268.400 C 103.381 268.400,103.200 268.822,103.200 269.800 C 103.200 270.933,103.048 271.200,102.400 271.200 C 101.956 271.200,101.600 271.467,101.600 271.800 C 101.600 272.130,101.330 272.400,101.000 272.400 C 100.670 272.400,100.400 272.670,100.400 273.000 C 100.400 273.330,100.130 273.600,99.800 273.600 C 99.467 273.600,99.200 273.956,99.200 274.400 C 99.200 274.933,98.933 275.200,98.400 275.200 C 97.778 275.200,97.600 275.467,97.600 276.400 C 97.600 277.200,97.400 277.600,97.000 277.600 C 96.667 277.600,96.400 277.956,96.400 278.400 C 96.400 278.844,96.133 279.200,95.800 279.200 C 95.400 279.200,95.200 279.600,95.200 280.400 C 95.200 281.231,95.004 281.600,94.563 281.600 C 94.212 281.600,93.831 281.960,93.716 282.400 C 93.601 282.840,93.258 283.200,92.953 283.200 C 92.605 283.200,92.400 283.645,92.400 284.400 C 92.400 285.200,92.200 285.600,91.800 285.600 C 91.467 285.600,91.200 285.956,91.200 286.400 C 91.200 286.933,90.933 287.200,90.400 287.200 C 89.778 287.200,89.600 287.467,89.600 288.400 C 89.600 289.200,89.400 289.600,89.000 289.600 C 88.581 289.600,88.400 290.022,88.400 291.000 C 88.400 291.978,88.219 292.400,87.800 292.400 C 87.470 292.400,87.200 292.649,87.200 292.953 C 87.200 293.258,86.840 293.601,86.400 293.716 C 85.817 293.868,85.600 294.262,85.600 295.163 C 85.600 295.996,85.404 296.400,85.000 296.400 C 84.581 296.400,84.400 296.822,84.400 297.800 C 84.400 298.778,84.219 299.200,83.800 299.200 C 83.405 299.200,83.200 299.595,83.200 300.353 C 83.200 301.170,82.967 301.568,82.400 301.716 C 81.817 301.868,81.600 302.262,81.600 303.163 C 81.600 303.996,81.404 304.400,81.000 304.400 C 80.547 304.400,80.400 304.889,80.400 306.400 C 80.400 307.911,80.253 308.400,79.800 308.400 C 79.470 308.400,79.200 308.649,79.200 308.953 C 79.200 309.258,78.840 309.601,78.400 309.716 C 77.746 309.887,77.600 310.262,77.600 311.763 C 77.600 313.129,77.446 313.600,77.000 313.600 C 76.667 313.600,76.400 313.956,76.400 314.400 C 76.400 314.844,76.133 315.200,75.800 315.200 C 75.295 315.200,75.200 316.089,75.200 320.800 C 75.200 325.511,75.295 326.400,75.800 326.400 C 76.280 326.400,76.400 327.000,76.400 329.400 C 76.400 331.800,76.280 332.400,75.800 332.400 C 75.311 332.400,75.200 333.067,75.200 336.000 C 75.200 338.933,75.311 339.600,75.800 339.600 C 76.293 339.600,76.400 340.311,76.400 343.600 C 76.400 346.889,76.507 347.600,77.000 347.600 C 77.472 347.600,77.600 348.156,77.600 350.200 C 77.600 352.533,77.682 352.800,78.400 352.800 C 79.124 352.800,79.200 353.067,79.200 355.600 C 79.200 357.822,79.324 358.400,79.800 358.400 C 80.272 358.400,80.400 358.956,80.400 361.000 C 80.400 363.044,80.528 363.600,81.000 363.600 C 81.493 363.600,81.600 364.311,81.600 367.600 C 81.600 371.333,81.653 371.600,82.400 371.600 C 83.048 371.600,83.200 371.867,83.200 373.000 C 83.200 373.978,83.381 374.400,83.800 374.400 C 84.200 374.400,84.400 374.800,84.400 375.600 C 84.400 376.355,84.605 376.800,84.953 376.800 C 85.258 376.800,85.601 377.160,85.716 377.601 C 85.925 378.400,86.187 378.401,204.663 378.301 L 323.400 378.200 323.522 376.300 C 323.608 374.966,323.816 374.400,324.222 374.400 C 324.694 374.400,324.800 373.519,324.800 369.600 C 324.800 365.067,324.844 364.800,325.600 364.800 C 326.318 364.800,326.400 364.533,326.400 362.200 C 326.400 360.156,326.528 359.600,327.000 359.600 C 327.419 359.600,327.600 359.178,327.600 358.200 C 327.600 357.222,327.781 356.800,328.200 356.800 C 328.693 356.800,328.800 356.089,328.800 352.800 C 328.800 349.067,328.853 348.800,329.600 348.800 C 330.382 348.800,330.400 348.533,330.400 336.763 C 330.400 325.062,330.378 324.719,329.600 324.516 C 329.160 324.401,328.800 324.058,328.800 323.753 C 328.800 323.449,328.530 323.200,328.200 323.200 C 327.781 323.200,327.600 322.778,327.600 321.800 C 327.600 320.822,327.419 320.400,327.000 320.400 C 326.670 320.400,326.400 320.130,326.400 319.800 C 326.400 319.467,326.044 319.200,325.600 319.200 C 325.067 319.200,324.800 318.933,324.800 318.400 C 324.800 317.956,324.533 317.600,324.200 317.600 C 323.755 317.600,323.600 317.132,323.600 315.787 C 323.600 314.545,323.411 313.902,323.000 313.745 C 322.670 313.618,322.400 313.264,322.400 312.957 C 322.400 312.651,322.040 312.400,321.600 312.400 C 320.952 312.400,320.800 312.133,320.800 311.000 C 320.800 310.022,320.619 309.600,320.200 309.600 C 319.870 309.600,319.600 309.330,319.600 309.000 C 319.600 308.670,319.330 308.400,319.000 308.400 C 318.670 308.400,318.400 308.130,318.400 307.800 C 318.400 307.467,318.044 307.200,317.600 307.200 C 317.067 307.200,316.800 306.933,316.800 306.400 C 316.800 305.956,316.533 305.600,316.200 305.600 C 315.870 305.600,315.600 305.330,315.600 305.000 C 315.600 304.670,315.330 304.400,315.000 304.400 C 314.670 304.400,314.400 304.130,314.400 303.800 C 314.400 303.467,314.044 303.200,313.600 303.200 C 313.067 303.200,312.800 302.933,312.800 302.400 C 312.800 301.956,312.533 301.600,312.200 301.600 C 311.870 301.600,311.600 301.330,311.600 301.000 C 311.600 300.547,311.111 300.400,309.600 300.400 C 308.089 300.400,307.600 300.253,307.600 299.800 C 307.600 299.470,307.330 299.200,307.000 299.200 C 306.596 299.200,306.400 298.796,306.400 297.963 C 306.400 297.062,306.183 296.668,305.600 296.516 C 305.160 296.401,304.800 296.058,304.800 295.753 C 304.800 295.449,304.530 295.200,304.200 295.200 C 303.870 295.200,303.597 294.975,303.593 294.700 C 303.585 294.090,301.858 292.400,301.244 292.400 C 301.000 292.400,300.800 292.130,300.800 291.800 C 300.800 291.470,300.530 291.200,300.200 291.200 C 299.728 291.200,299.600 290.643,299.600 288.587 C 299.600 286.634,299.449 285.917,299.000 285.745 C 298.670 285.618,298.400 285.264,298.400 284.957 C 298.400 284.651,298.040 284.400,297.600 284.400 C 296.863 284.400,296.800 284.133,296.800 281.000 C 296.800 278.244,296.686 277.600,296.200 277.600 C 295.800 277.600,295.600 277.200,295.600 276.400 C 295.600 275.600,295.400 275.200,295.000 275.200 C 294.507 275.200,294.400 274.489,294.400 271.200 C 294.400 267.467,294.347 267.200,293.600 267.200 C 292.907 267.200,292.800 266.933,292.800 265.200 C 292.800 263.689,292.653 263.200,292.200 263.200 C 291.687 263.200,291.600 262.044,291.600 255.200 C 291.600 248.356,291.513 247.200,291.000 247.200 C 290.517 247.200,290.400 246.578,290.400 244.000 C 290.400 241.422,290.517 240.800,291.000 240.800 C 291.330 240.800,291.600 240.530,291.600 240.200 C 291.600 239.870,291.870 239.600,292.200 239.600 C 292.653 239.600,292.800 239.111,292.800 237.600 C 292.800 235.867,292.907 235.600,293.600 235.600 C 294.248 235.600,294.400 235.333,294.400 234.200 C 294.400 233.222,294.581 232.800,295.000 232.800 C 295.453 232.800,295.600 232.311,295.600 230.800 C 295.600 229.289,295.747 228.800,296.200 228.800 C 296.595 228.800,296.800 228.405,296.800 227.647 C 296.800 226.830,297.033 226.432,297.600 226.284 C 298.183 226.132,298.400 225.738,298.400 224.837 C 298.400 224.004,298.596 223.600,299.000 223.600 C 299.453 223.600,299.600 223.111,299.600 221.600 C 299.600 220.089,299.747 219.600,300.200 219.600 C 300.653 219.600,300.800 219.111,300.800 217.600 C 300.800 215.867,300.907 215.600,301.600 215.600 C 302.293 215.600,302.400 215.333,302.400 213.600 C 302.400 212.089,302.547 211.600,303.000 211.600 C 303.486 211.600,303.600 210.956,303.600 208.200 C 303.600 205.444,303.714 204.800,304.200 204.800 C 304.683 204.800,304.800 204.183,304.800 201.647 C 304.800 198.830,304.885 198.471,305.600 198.284 C 306.183 198.132,306.400 197.738,306.400 196.837 C 306.400 196.004,306.596 195.600,307.000 195.600 C 307.486 195.600,307.600 194.956,307.600 192.200 C 307.600 189.444,307.714 188.800,308.200 188.800 C 308.707 188.800,308.800 187.867,308.800 182.800 C 308.800 177.067,308.836 176.800,309.600 176.800 C 310.392 176.800,310.400 176.533,310.400 150.000 C 310.400 123.467,310.392 123.200,309.600 123.200 C 308.863 123.200,308.800 122.933,308.800 119.800 C 308.800 117.044,308.686 116.400,308.200 116.400 C 307.728 116.400,307.600 115.844,307.600 113.800 C 307.600 111.756,307.472 111.200,307.000 111.200 C 306.547 111.200,306.400 110.711,306.400 109.200 C 306.400 107.467,306.293 107.200,305.600 107.200 C 304.907 107.200,304.800 106.933,304.800 105.200 C 304.800 103.689,304.653 103.200,304.200 103.200 C 303.781 103.200,303.600 102.778,303.600 101.800 C 303.600 100.822,303.419 100.400,303.000 100.400 C 302.670 100.400,302.400 100.130,302.400 99.800 C 302.400 99.467,302.044 99.200,301.600 99.200 C 300.907 99.200,300.800 98.933,300.800 97.200 C 300.800 95.689,300.653 95.200,300.200 95.200 C 299.867 95.200,299.600 94.844,299.600 94.400 C 299.600 93.956,299.333 93.600,299.000 93.600 C 298.600 93.600,298.400 93.200,298.400 92.400 C 298.400 91.467,298.222 91.200,297.600 91.200 C 296.952 91.200,296.800 90.933,296.800 89.800 C 296.800 88.822,296.619 88.400,296.200 88.400 C 295.870 88.400,295.600 88.130,295.600 87.800 C 295.600 87.470,295.330 87.200,295.000 87.200 C 294.581 87.200,294.400 86.778,294.400 85.800 C 294.400 84.667,294.248 84.400,293.600 84.400 C 292.952 84.400,292.800 84.133,292.800 83.000 C 292.800 82.022,292.619 81.600,292.200 81.600 C 291.870 81.600,291.600 81.330,291.600 81.000 C 291.600 80.670,291.330 80.400,291.000 80.400 C 290.670 80.400,290.400 80.130,290.400 79.800 C 290.400 79.467,290.044 79.200,289.600 79.200 C 289.067 79.200,288.800 78.933,288.800 78.400 C 288.800 77.956,288.533 77.600,288.200 77.600 C 287.870 77.600,287.600 77.330,287.600 77.000 C 287.600 76.670,287.330 76.400,287.000 76.400 C 286.670 76.400,286.400 76.130,286.400 75.800 C 286.400 75.467,286.044 75.200,285.600 75.200 C 285.067 75.200,284.800 74.933,284.800 74.400 C 284.800 73.956,284.533 73.600,284.200 73.600 C 283.870 73.600,283.600 73.330,283.600 73.000 C 283.600 72.581,283.178 72.400,282.200 72.400 C 281.222 72.400,280.800 72.219,280.800 71.800 C 280.800 71.400,280.400 71.200,279.600 71.200 C 278.769 71.200,278.400 71.004,278.400 70.563 C 278.400 70.212,278.040 69.831,277.600 69.716 C 277.160 69.601,276.800 69.258,276.800 68.953 C 276.800 68.649,276.530 68.400,276.200 68.400 C 275.870 68.400,275.600 68.130,275.600 67.800 C 275.600 67.347,275.111 67.200,273.600 67.200 C 271.867 67.200,271.600 67.093,271.600 66.400 C 271.600 65.752,271.333 65.600,270.200 65.600 C 269.222 65.600,268.800 65.419,268.800 65.000 C 268.800 64.547,268.311 64.400,266.800 64.400 C 265.289 64.400,264.800 64.253,264.800 63.800 C 264.800 63.347,264.311 63.200,262.800 63.200 C 261.067 63.200,260.800 63.093,260.800 62.400 C 260.800 61.707,260.533 61.600,258.800 61.600 C 257.289 61.600,256.800 61.453,256.800 61.000 C 256.800 60.600,256.400 60.400,255.600 60.400 C 254.800 60.400,254.400 60.200,254.400 59.800 C 254.400 59.467,254.044 59.200,253.600 59.200 C 252.952 59.200,252.800 58.933,252.800 57.800 C 252.800 56.822,252.619 56.400,252.200 56.400 C 251.747 56.400,251.600 55.911,251.600 54.400 C 251.600 52.889,251.453 52.400,251.000 52.400 C 250.547 52.400,250.400 51.911,250.400 50.400 C 250.400 48.667,250.293 48.400,249.600 48.400 C 248.952 48.400,248.800 48.133,248.800 47.000 C 248.800 46.022,248.619 45.600,248.200 45.600 C 247.800 45.600,247.600 45.200,247.600 44.400 C 247.600 43.600,247.400 43.200,247.000 43.200 C 246.596 43.200,246.400 42.796,246.400 41.963 C 246.400 41.062,246.183 40.668,245.600 40.516 C 245.160 40.401,244.800 40.058,244.800 39.753 C 244.800 39.449,244.530 39.200,244.200 39.200 C 243.870 39.200,243.597 38.975,243.593 38.700 C 243.585 38.090,241.858 36.400,241.244 36.400 C 241.000 36.400,240.800 36.130,240.800 35.800 C 240.800 35.470,240.530 35.200,240.200 35.200 C 239.870 35.200,239.597 34.975,239.593 34.700 C 239.581 33.840,237.735 32.400,236.644 32.400 C 235.983 32.400,235.600 32.180,235.600 31.800 C 235.600 31.470,235.351 31.200,235.047 31.200 C 234.742 31.200,234.399 30.840,234.284 30.400 C 234.132 29.817,233.738 29.600,232.837 29.600 C 232.004 29.600,231.600 29.404,231.600 29.000 C 231.600 28.581,231.178 28.400,230.200 28.400 C 229.222 28.400,228.800 28.219,228.800 27.800 C 228.800 27.347,228.311 27.200,226.800 27.200 C 225.067 27.200,224.800 27.093,224.800 26.400 C 224.800 25.956,224.533 25.600,224.200 25.600 C 223.870 25.600,223.600 25.330,223.600 25.000 C 223.600 24.514,222.956 24.400,220.200 24.400 C 217.444 24.400,216.800 24.286,216.800 23.800 C 216.800 23.347,216.311 23.200,214.800 23.200 C 213.067 23.200,212.800 23.093,212.800 22.400 C 212.800 21.676,212.533 21.600,210.000 21.600 L 207.200 21.600 207.200 26.000 M227.678 36.303 C 232.320 40.751,233.202 51.435,229.403 57.200 C 228.750 58.190,228.029 59.356,227.800 59.792 C 226.848 61.605,223.404 62.204,222.000 60.800 C 220.797 59.597,220.984 58.206,222.505 57.045 C 227.359 53.343,227.743 43.752,223.212 39.411 C 220.862 37.160,222.347 33.960,225.400 34.694 C 225.840 34.800,226.865 35.524,227.678 36.303 M237.200 75.086 C 239.070 75.267,241.230 75.710,242.000 76.070 C 242.837 76.462,244.981 76.817,247.332 76.954 C 250.652 77.147,251.434 77.326,252.357 78.103 C 252.959 78.609,254.249 79.269,255.225 79.571 C 261.983 81.659,267.872 86.024,275.769 94.800 C 277.043 96.216,278.987 99.543,279.567 101.299 C 279.837 102.118,280.211 102.883,280.398 102.999 C 280.585 103.114,281.319 104.422,282.029 105.904 C 282.740 107.387,283.576 108.898,283.889 109.263 C 284.581 110.071,286.510 113.555,287.620 116.000 C 288.069 116.990,288.635 118.156,288.879 118.591 C 289.528 119.754,290.800 125.088,290.800 126.651 L 290.800 128.000 287.424 128.000 C 285.567 128.000,283.936 128.180,283.800 128.400 C 283.661 128.625,281.740 128.800,279.409 128.800 C 274.101 128.800,272.592 129.632,274.480 131.520 C 275.054 132.094,282.840 132.193,283.420 131.634 C 284.359 130.729,292.001 130.939,292.000 131.869 C 292.000 132.348,292.171 133.608,292.381 134.669 C 292.590 135.731,292.957 137.950,293.197 139.600 C 293.436 141.250,293.871 143.729,294.163 145.109 C 294.456 146.489,294.539 147.714,294.348 147.832 C 294.156 147.951,294.000 147.880,294.000 147.675 C 294.000 147.470,293.280 147.187,292.400 147.046 C 291.520 146.906,290.800 146.613,290.800 146.395 C 290.800 146.178,290.361 146.000,289.824 146.000 C 289.287 146.000,288.742 145.830,288.614 145.623 C 288.486 145.416,287.576 145.125,286.591 144.978 C 285.606 144.830,284.800 144.550,284.800 144.355 C 284.800 144.160,284.361 144.000,283.824 144.000 C 283.287 144.000,282.742 143.830,282.614 143.623 C 282.486 143.416,281.576 143.125,280.591 142.978 C 279.606 142.830,278.800 142.550,278.800 142.355 C 278.800 142.160,278.438 142.000,277.995 142.000 C 277.552 142.000,276.831 141.776,276.393 141.503 C 275.392 140.878,274.258 141.492,274.069 142.763 C 273.901 143.895,274.658 144.800,275.773 144.800 C 276.254 144.800,276.996 145.064,277.424 145.387 C 277.851 145.710,278.605 145.980,279.100 145.987 C 279.595 145.994,280.000 146.160,280.000 146.355 C 280.000 146.550,280.806 146.830,281.791 146.978 C 282.776 147.125,283.686 147.416,283.814 147.623 C 283.942 147.830,284.487 148.000,285.024 148.000 C 285.561 148.000,286.000 148.160,286.000 148.355 C 286.000 148.550,286.806 148.830,287.791 148.978 C 288.776 149.125,289.686 149.416,289.814 149.623 C 289.942 149.830,290.487 150.000,291.024 150.000 C 291.561 150.000,292.000 150.180,292.000 150.400 C 292.000 150.620,292.414 150.800,292.920 150.800 C 294.690 150.800,294.800 151.309,294.800 159.507 L 294.800 167.254 293.900 166.970 C 293.405 166.813,292.719 166.363,292.376 165.970 C 292.033 165.576,291.282 165.135,290.706 164.991 C 290.130 164.846,289.348 164.384,288.967 163.964 C 288.587 163.544,288.043 163.200,287.758 163.200 C 287.473 163.200,287.096 162.965,286.920 162.678 C 286.744 162.392,285.970 161.847,285.200 161.467 C 283.508 160.634,282.270 159.890,282.000 159.544 C 281.890 159.403,281.080 158.898,280.200 158.423 C 277.815 157.134,277.075 156.663,276.400 156.000 C 275.616 155.230,274.615 154.614,272.500 153.597 C 271.565 153.148,270.800 152.625,270.800 152.437 C 270.800 152.248,270.485 151.984,270.100 151.851 C 269.715 151.718,268.860 151.260,268.200 150.834 C 266.721 149.878,265.365 149.792,265.043 150.633 C 264.561 151.889,264.809 152.823,265.716 153.168 C 266.220 153.360,266.873 153.805,267.165 154.158 C 267.458 154.511,267.937 154.800,268.229 154.800 C 268.521 154.800,268.904 155.035,269.080 155.322 C 269.256 155.608,270.030 156.153,270.800 156.533 C 272.492 157.366,273.730 158.110,274.000 158.456 C 274.110 158.597,274.920 159.102,275.800 159.577 C 278.185 160.866,278.925 161.337,279.600 162.000 C 280.384 162.770,281.385 163.386,283.500 164.403 C 284.435 164.852,285.200 165.353,285.200 165.515 C 285.200 165.677,285.543 165.988,285.961 166.205 C 286.380 166.422,287.415 166.954,288.261 167.387 C 289.887 168.218,289.893 168.222,291.858 169.794 C 292.550 170.347,293.330 170.800,293.591 170.800 C 294.133 170.800,293.761 179.084,293.147 180.726 C 292.956 181.235,292.800 182.260,292.800 183.002 C 292.800 184.823,292.156 185.100,290.846 183.844 C 290.246 183.270,289.616 182.800,289.445 182.800 C 289.273 182.800,288.521 182.170,287.774 181.400 C 287.026 180.630,286.266 180.000,286.086 180.000 C 285.905 180.000,285.146 179.370,284.400 178.600 C 283.654 177.830,282.842 177.200,282.596 177.200 C 282.351 177.200,281.632 176.660,281.000 176.000 C 280.368 175.340,279.689 174.800,279.492 174.800 C 279.295 174.800,278.521 174.170,277.774 173.400 C 277.026 172.630,276.266 172.000,276.086 172.000 C 275.905 172.000,275.146 171.370,274.400 170.600 C 273.654 169.830,272.842 169.200,272.596 169.200 C 272.351 169.200,271.632 168.660,271.000 168.000 C 270.368 167.340,269.689 166.800,269.492 166.800 C 269.295 166.800,268.521 166.170,267.774 165.400 C 267.026 164.630,266.266 164.000,266.086 164.000 C 265.905 164.000,265.146 163.370,264.400 162.600 C 263.654 161.830,262.840 161.200,262.591 161.200 C 262.343 161.200,261.717 160.750,261.200 160.200 C 259.743 158.649,258.000 159.087,258.000 161.005 C 258.000 161.853,259.895 164.000,260.643 164.000 C 260.863 164.000,261.654 164.630,262.400 165.400 C 263.146 166.170,263.927 166.800,264.135 166.800 C 264.342 166.800,264.982 167.245,265.556 167.789 C 267.914 170.024,270.313 172.000,270.666 172.000 C 270.874 172.000,271.654 172.630,272.400 173.400 C 273.146 174.170,273.927 174.800,274.135 174.800 C 274.342 174.800,274.982 175.245,275.556 175.789 C 277.914 178.024,280.313 180.000,280.666 180.000 C 280.874 180.000,281.654 180.630,282.400 181.400 C 283.146 182.170,283.927 182.800,284.135 182.800 C 284.342 182.800,284.982 183.245,285.556 183.789 C 287.996 186.102,290.319 188.000,290.707 188.000 C 291.448 188.000,290.780 192.910,289.939 193.647 C 289.532 194.003,289.200 194.760,289.200 195.330 C 289.200 196.553,287.975 199.176,287.398 199.190 C 287.176 199.196,286.741 199.785,286.430 200.500 C 286.119 201.215,285.760 201.890,285.632 202.000 C 285.504 202.110,285.211 202.543,284.981 202.961 C 283.982 204.775,279.200 202.757,279.200 200.522 C 279.200 200.330,278.210 199.195,277.000 198.000 C 275.790 196.805,274.800 195.654,274.800 195.442 C 274.800 195.094,272.184 192.194,266.771 186.543 C 265.687 185.411,264.800 184.325,264.800 184.130 C 264.800 183.935,263.720 182.706,262.400 181.400 C 261.080 180.094,260.000 178.834,260.000 178.601 C 260.000 178.368,258.830 177.017,257.400 175.600 C 255.970 174.183,254.800 172.883,254.800 172.712 C 254.800 172.131,251.604 169.200,250.971 169.200 C 248.948 169.200,248.749 171.228,250.600 172.974 C 251.370 173.700,252.000 174.459,252.000 174.660 C 252.000 174.861,253.080 176.094,254.400 177.400 C 255.720 178.706,256.800 179.966,256.800 180.199 C 256.800 180.432,257.970 181.783,259.400 183.200 C 260.830 184.617,262.000 185.915,262.000 186.084 C 262.000 186.252,263.080 187.460,264.400 188.768 C 265.720 190.076,266.800 191.298,266.800 191.485 C 266.800 191.671,267.970 192.983,269.400 194.400 C 270.830 195.817,272.000 197.148,272.000 197.356 C 272.000 197.698,273.660 199.570,279.030 205.283 L 280.800 207.166 280.800 213.957 C 280.800 217.692,280.628 221.201,280.418 221.754 C 280.207 222.307,279.922 224.884,279.783 227.480 C 279.635 230.255,279.225 233.189,278.788 234.600 C 278.380 235.920,277.934 238.260,277.798 239.800 C 277.661 241.340,277.187 243.615,276.743 244.855 C 275.575 248.120,276.124 261.242,277.539 263.887 C 277.793 264.360,278.005 265.614,278.012 266.674 C 278.018 267.733,278.366 269.770,278.784 271.200 C 280.069 275.587,282.461 282.517,283.251 284.138 C 283.739 285.140,284.000 286.546,284.000 288.176 C 284.000 290.528,284.723 292.858,285.625 293.416 C 285.831 293.543,286.000 294.158,286.000 294.782 C 286.000 295.639,286.550 296.442,288.241 298.058 C 289.474 299.236,290.917 301.100,291.449 302.200 C 292.413 304.194,293.220 305.620,293.600 306.000 C 294.190 306.590,294.800 308.113,294.800 308.995 C 294.800 309.548,295.028 310.000,295.306 310.000 C 295.833 310.000,297.200 312.754,297.200 313.815 C 297.200 314.151,297.515 314.542,297.900 314.686 C 299.707 315.359,300.800 316.947,300.800 318.899 C 300.800 320.296,300.954 320.800,301.382 320.800 C 302.923 320.800,308.806 325.896,307.916 326.460 C 307.151 326.946,290.800 326.888,290.800 326.400 C 290.800 326.142,286.208 326.000,277.824 326.000 C 270.687 326.000,264.754 325.849,264.639 325.664 C 264.525 325.479,226.962 325.222,181.166 325.094 C 122.569 324.930,97.773 324.733,97.470 324.430 C 97.234 324.194,96.734 324.000,96.360 324.000 C 95.985 324.000,95.301 323.360,94.840 322.577 C 93.839 320.881,93.828 320.800,94.600 320.800 C 95.549 320.800,95.298 320.070,94.300 319.928 C 93.449 319.807,93.394 319.595,93.284 316.004 C 93.149 311.618,93.364 311.031,96.098 308.302 C 98.168 306.236,98.302 306.000,97.400 306.000 C 96.558 306.000,96.653 305.560,97.700 304.607 C 98.648 303.745,99.365 302.728,99.961 301.400 C 100.158 300.960,100.878 300.071,101.560 299.425 C 102.242 298.779,102.800 298.039,102.800 297.781 C 102.800 297.523,103.250 296.974,103.800 296.561 C 104.350 296.148,104.800 295.617,104.800 295.380 C 104.800 295.143,105.340 294.432,106.000 293.800 C 106.660 293.168,107.200 292.449,107.200 292.204 C 107.200 291.958,107.830 291.146,108.600 290.400 C 109.370 289.654,110.000 288.881,110.000 288.682 C 110.000 288.483,110.900 287.439,112.000 286.362 C 113.100 285.285,114.000 284.263,114.000 284.090 C 114.000 283.918,115.170 282.617,116.600 281.200 C 118.030 279.783,119.200 278.440,119.200 278.216 C 119.200 277.706,132.855 264.000,133.364 264.000 C 133.692 264.000,134.926 262.911,140.871 257.371 C 141.679 256.617,142.499 256.000,142.692 256.000 C 142.885 256.000,143.654 255.370,144.400 254.600 C 145.146 253.830,145.923 253.200,146.126 253.200 C 146.453 253.200,147.311 252.550,150.226 250.095 C 151.280 249.207,152.387 248.492,153.400 248.045 C 153.840 247.851,154.543 247.311,154.962 246.846 C 155.381 246.381,155.947 246.000,156.219 246.000 C 156.492 246.000,156.818 245.730,156.945 245.400 C 157.071 245.070,157.423 244.800,157.725 244.800 C 158.028 244.800,158.587 244.456,158.967 244.036 C 159.348 243.616,160.130 243.154,160.706 243.009 C 161.282 242.865,162.036 242.444,162.382 242.073 C 163.060 241.348,163.715 240.920,166.200 239.577 C 167.080 239.102,167.890 238.597,168.000 238.456 C 168.270 238.110,169.506 237.367,171.200 236.532 C 171.970 236.152,172.703 235.693,172.830 235.511 C 172.956 235.329,174.126 234.627,175.430 233.951 C 176.733 233.275,177.890 232.595,178.000 232.440 C 178.245 232.095,180.986 230.800,181.472 230.800 C 181.665 230.800,182.083 230.440,182.400 230.000 C 182.717 229.560,183.135 229.200,183.328 229.200 C 183.852 229.200,186.565 227.892,186.830 227.511 C 186.956 227.329,188.126 226.627,189.430 225.951 C 190.733 225.275,191.890 224.595,192.000 224.440 C 192.269 224.062,195.008 222.800,195.560 222.800 C 195.802 222.800,196.000 222.641,196.000 222.447 C 196.000 222.252,196.315 221.984,196.700 221.851 C 198.299 221.299,199.808 220.082,199.931 219.248 C 200.004 218.747,200.486 218.195,201.031 217.988 C 201.564 217.786,202.000 217.409,202.000 217.151 C 202.000 216.894,202.765 215.829,203.700 214.786 C 207.643 210.385,208.481 208.605,209.059 203.400 C 209.181 202.300,209.533 200.629,209.840 199.686 C 210.510 197.636,210.570 194.088,209.962 192.526 C 209.231 190.650,208.341 187.128,208.009 184.800 C 207.836 183.590,207.317 181.250,206.857 179.600 C 206.396 177.950,206.012 176.060,206.004 175.400 C 205.974 173.043,203.876 168.222,202.001 166.200 C 201.389 165.540,200.773 164.616,200.632 164.148 C 200.214 162.754,195.988 162.290,193.854 163.402 C 193.224 163.731,192.369 164.000,191.954 164.000 C 191.539 164.000,191.200 164.180,191.200 164.400 C 191.200 164.620,191.002 164.800,190.760 164.800 C 190.519 164.800,189.664 165.091,188.860 165.447 C 185.347 167.005,184.855 167.200,184.440 167.200 C 184.198 167.200,184.000 167.338,184.000 167.506 C 184.000 167.827,181.080 169.200,180.397 169.200 C 180.179 169.200,180.000 169.380,180.000 169.600 C 180.000 169.820,179.561 170.000,179.024 170.000 C 178.487 170.000,177.954 170.151,177.839 170.336 C 177.725 170.521,174.083 170.787,169.746 170.926 C 165.252 171.071,161.684 171.356,161.450 171.590 C 161.225 171.815,160.122 172.000,159.000 172.000 C 157.878 172.000,156.773 172.187,156.545 172.415 C 156.317 172.643,154.526 172.938,152.565 173.069 C 150.604 173.201,148.769 173.491,148.486 173.715 C 148.137 173.990,147.689 173.982,147.086 173.689 C 146.599 173.452,144.602 173.173,142.649 173.070 C 140.696 172.967,138.986 172.719,138.849 172.520 C 138.132 171.478,135.526 170.800,132.240 170.800 C 130.213 170.800,128.800 170.636,128.800 170.400 C 128.800 170.157,127.008 170.000,124.224 170.000 C 121.360 170.000,119.547 169.837,119.378 169.565 C 119.185 169.252,118.988 169.252,118.675 169.565 C 118.436 169.804,117.747 170.000,117.144 170.000 C 116.541 170.000,115.942 170.170,115.814 170.377 C 115.686 170.584,114.776 170.875,113.791 171.022 C 112.806 171.170,112.000 171.450,112.000 171.645 C 112.000 171.840,111.561 172.000,111.024 172.000 C 110.487 172.000,109.936 172.180,109.800 172.400 C 109.664 172.620,109.235 172.800,108.846 172.800 C 108.457 172.800,107.717 173.250,107.200 173.800 C 106.196 174.868,96.800 175.410,96.800 174.400 C 96.800 174.180,96.468 174.000,96.061 174.000 C 95.103 174.000,92.800 172.850,92.800 172.371 C 92.800 172.167,92.524 172.000,92.187 172.000 C 91.851 172.000,91.471 171.730,91.345 171.400 C 91.183 170.980,90.528 170.800,89.157 170.800 C 87.839 170.800,87.200 170.634,87.200 170.291 C 87.200 170.011,86.570 168.825,85.800 167.656 C 85.030 166.487,84.393 165.231,84.384 164.865 C 84.375 164.499,83.835 163.210,83.184 162.000 C 81.474 158.822,81.390 150.326,83.036 146.962 C 83.630 145.747,84.165 143.822,84.290 142.443 C 84.503 140.085,85.626 138.800,87.472 138.800 C 87.665 138.800,88.083 138.440,88.400 138.000 C 88.717 137.560,89.135 137.200,89.328 137.200 C 89.875 137.200,92.571 135.884,92.848 135.482 C 92.984 135.284,93.293 135.364,93.534 135.661 C 93.775 135.957,94.563 136.903,95.286 137.761 C 96.009 138.620,96.786 139.970,97.013 140.760 C 97.589 142.770,100.287 144.310,101.993 143.603 C 104.015 142.765,104.537 139.990,103.158 137.417 C 100.550 132.551,101.877 126.000,105.470 126.000 C 106.598 126.000,107.200 125.824,107.200 125.494 C 107.200 125.216,107.947 124.631,108.859 124.194 C 111.503 122.929,112.000 122.630,112.000 122.305 C 112.000 122.137,112.345 122.000,112.768 122.000 C 113.635 122.000,115.994 120.758,115.997 120.300 C 115.999 120.135,116.405 119.994,116.900 119.987 C 117.395 119.980,118.149 119.710,118.576 119.387 C 119.004 119.064,119.698 118.800,120.119 118.800 C 120.540 118.800,121.419 118.350,122.073 117.800 C 122.810 117.180,123.758 116.800,124.569 116.800 C 126.082 116.800,127.954 115.956,128.997 114.803 C 129.397 114.361,129.937 114.000,130.198 114.000 C 130.458 114.000,130.877 113.550,131.127 113.000 C 131.378 112.450,131.857 112.000,132.191 112.000 C 132.526 112.000,132.800 111.840,132.800 111.643 C 132.800 111.447,133.295 111.164,133.900 111.014 C 134.505 110.864,135.360 110.418,135.800 110.023 C 136.240 109.629,137.319 109.196,138.197 109.062 C 139.075 108.928,139.855 108.635,139.930 108.409 C 140.005 108.184,140.385 108.000,140.774 108.000 C 141.163 108.000,142.327 107.550,143.362 107.000 C 144.396 106.450,145.672 106.000,146.198 106.000 C 146.723 106.000,147.255 105.834,147.381 105.631 C 147.506 105.428,148.147 105.143,148.805 104.999 C 149.462 104.855,150.000 104.615,150.000 104.466 C 150.000 104.043,152.021 103.294,154.000 102.984 C 154.990 102.829,155.890 102.580,156.000 102.430 C 156.275 102.057,159.019 100.800,159.560 100.800 C 159.802 100.800,160.000 100.620,160.000 100.400 C 160.000 100.180,160.345 100.000,160.768 100.000 C 161.635 100.000,163.994 98.758,163.997 98.300 C 163.999 98.135,164.405 97.994,164.900 97.987 C 165.395 97.980,166.149 97.710,166.576 97.387 C 167.004 97.064,167.909 96.800,168.588 96.800 C 169.364 96.800,170.038 96.503,170.399 96.002 C 170.715 95.563,171.610 95.087,172.387 94.944 C 173.164 94.801,173.890 94.576,174.000 94.442 C 174.279 94.104,175.550 93.345,177.200 92.532 C 177.970 92.152,178.690 91.729,178.800 91.592 C 178.910 91.454,179.270 91.218,179.600 91.066 C 179.930 90.915,180.740 90.435,181.400 90.000 C 182.060 89.565,182.870 89.084,183.200 88.932 C 183.530 88.780,184.112 88.304,184.494 87.873 C 185.364 86.893,187.057 86.000,188.046 86.000 C 188.461 86.000,188.800 85.820,188.800 85.600 C 188.800 85.380,189.228 85.200,189.751 85.200 C 190.274 85.200,190.926 84.930,191.200 84.600 C 191.486 84.255,192.401 83.988,193.349 83.971 C 194.258 83.955,195.539 83.593,196.200 83.166 C 196.860 82.740,197.715 82.282,198.100 82.149 C 198.485 82.016,198.800 81.748,198.800 81.553 C 198.800 81.359,198.979 81.200,199.197 81.200 C 199.880 81.200,202.800 79.827,202.800 79.506 C 202.800 79.338,202.998 79.200,203.240 79.200 C 203.755 79.200,206.508 77.956,206.800 77.592 C 206.910 77.454,207.270 77.219,207.600 77.068 C 207.930 76.918,208.920 76.354,209.800 75.815 C 211.476 74.788,216.864 74.332,217.383 75.173 C 217.516 75.388,218.075 75.299,218.707 74.962 C 219.885 74.333,230.131 74.401,237.200 75.086 M210.600 91.889 C 210.160 91.997,209.045 92.426,208.122 92.843 C 207.199 93.259,205.847 93.600,205.118 93.600 C 203.075 93.600,197.970 96.658,197.105 98.400 C 193.920 104.811,193.857 108.574,196.886 111.436 C 201.300 115.607,206.862 113.006,208.798 105.866 C 209.730 102.432,210.766 102.078,219.206 102.311 L 226.213 102.504 227.706 100.851 C 230.697 97.540,228.413 93.452,222.839 92.140 C 220.712 91.639,212.321 91.467,210.600 91.889 M142.000 328.356 C 142.000 328.561,172.139 328.773,213.467 328.857 C 270.104 328.972,284.969 329.106,285.100 329.501 C 285.309 330.128,294.800 330.224,294.800 329.600 C 294.800 329.348,297.515 329.200,302.145 329.200 L 309.490 329.200 311.045 330.433 C 311.900 331.112,312.780 331.978,313.000 332.358 C 313.220 332.739,313.918 333.716,314.551 334.530 C 315.758 336.081,315.820 337.177,314.845 339.700 L 314.420 340.800 290.034 340.800 C 274.207 340.800,265.560 340.660,265.400 340.400 C 265.237 340.136,244.137 340.000,203.400 340.000 C 162.663 340.000,141.563 339.864,141.400 339.600 C 141.240 339.341,133.542 339.200,119.616 339.200 L 98.080 339.200 97.846 335.700 C 97.718 333.775,97.502 331.255,97.368 330.100 L 97.123 328.000 119.561 328.000 C 132.389 328.000,142.000 328.152,142.000 328.356 M265.133 343.658 C 265.207 343.846,276.165 344.000,289.486 344.000 L 313.705 344.000 313.469 345.450 C 313.340 346.247,312.946 347.218,312.593 347.607 C 311.899 348.375,310.419 353.556,310.111 356.300 L 309.919 358.000 296.383 358.000 C 288.938 358.000,282.750 357.842,282.631 357.649 C 282.509 357.452,247.513 357.168,202.607 357.000 C 158.617 356.835,122.800 356.546,122.800 356.357 C 122.800 356.168,117.912 355.965,111.938 355.906 L 101.076 355.800 100.348 353.600 C 99.947 352.390,99.400 351.040,99.131 350.600 C 98.863 350.160,98.544 348.240,98.422 346.333 L 98.200 342.866 181.600 343.091 C 227.470 343.214,265.060 343.469,265.133 343.658 " stroke="none" fill="#fbfafa" fill-rule="evenodd"></path><path id="path1" d="M223.810 34.698 C 221.741 35.210,221.425 37.700,223.212 39.411 C 227.743 43.752,227.359 53.343,222.505 57.045 C 220.984 58.206,220.797 59.597,222.000 60.800 C 223.404 62.204,226.848 61.605,227.800 59.792 C 228.029 59.356,228.750 58.190,229.403 57.200 C 234.459 49.528,230.369 33.073,223.810 34.698 M218.707 74.962 C 218.075 75.299,217.516 75.388,217.383 75.173 C 216.864 74.332,211.476 74.788,209.800 75.815 C 208.920 76.354,207.930 76.918,207.600 77.068 C 207.270 77.219,206.910 77.454,206.800 77.592 C 206.508 77.956,203.755 79.200,203.240 79.200 C 202.998 79.200,202.800 79.338,202.800 79.506 C 202.800 79.827,199.880 81.200,199.197 81.200 C 198.979 81.200,198.800 81.359,198.800 81.553 C 198.800 81.748,198.485 82.016,198.100 82.149 C 197.715 82.282,196.860 82.740,196.200 83.166 C 195.539 83.593,194.258 83.955,193.349 83.971 C 192.401 83.988,191.486 84.255,191.200 84.600 C 190.926 84.930,190.274 85.200,189.751 85.200 C 189.228 85.200,188.800 85.380,188.800 85.600 C 188.800 85.820,188.461 86.000,188.046 86.000 C 187.057 86.000,185.364 86.893,184.494 87.873 C 184.112 88.304,183.530 88.780,183.200 88.932 C 182.870 89.084,182.060 89.565,181.400 90.000 C 180.740 90.435,179.930 90.915,179.600 91.066 C 179.270 91.218,178.910 91.454,178.800 91.592 C 178.690 91.729,177.970 92.152,177.200 92.532 C 175.550 93.345,174.279 94.104,174.000 94.442 C 173.890 94.576,173.164 94.801,172.387 94.944 C 171.610 95.087,170.715 95.563,170.399 96.002 C 170.038 96.503,169.364 96.800,168.588 96.800 C 167.909 96.800,167.004 97.064,166.576 97.387 C 166.149 97.710,165.395 97.980,164.900 97.987 C 164.405 97.994,163.999 98.135,163.997 98.300 C 163.994 98.758,161.635 100.000,160.768 100.000 C 160.345 100.000,160.000 100.180,160.000 100.400 C 160.000 100.620,159.802 100.800,159.560 100.800 C 159.019 100.800,156.275 102.057,156.000 102.430 C 155.890 102.580,154.990 102.829,154.000 102.984 C 152.021 103.294,150.000 104.043,150.000 104.466 C 150.000 104.615,149.462 104.855,148.805 104.999 C 148.147 105.143,147.506 105.428,147.381 105.631 C 147.255 105.834,146.723 106.000,146.198 106.000 C 145.672 106.000,144.396 106.450,143.362 107.000 C 142.327 107.550,141.163 108.000,140.774 108.000 C 140.385 108.000,140.005 108.184,139.930 108.409 C 139.855 108.635,139.075 108.928,138.197 109.062 C 137.319 109.196,136.240 109.629,135.800 110.023 C 135.360 110.418,134.505 110.864,133.900 111.014 C 133.295 111.164,132.800 111.447,132.800 111.643 C 132.800 111.840,132.526 112.000,132.191 112.000 C 131.857 112.000,131.378 112.450,131.127 113.000 C 130.877 113.550,130.458 114.000,130.198 114.000 C 129.937 114.000,129.397 114.361,128.997 114.803 C 127.954 115.956,126.082 116.800,124.569 116.800 C 123.758 116.800,122.810 117.180,122.073 117.800 C 121.419 118.350,120.540 118.800,120.119 118.800 C 119.698 118.800,119.004 119.064,118.576 119.387 C 118.149 119.710,117.395 119.980,116.900 119.987 C 116.405 119.994,115.999 120.135,115.997 120.300 C 115.994 120.758,113.635 122.000,112.768 122.000 C 112.345 122.000,112.000 122.137,112.000 122.305 C 112.000 122.630,111.503 122.929,108.859 124.194 C 107.947 124.631,107.200 125.216,107.200 125.494 C 107.200 125.824,106.598 126.000,105.470 126.000 C 101.877 126.000,100.550 132.551,103.158 137.417 C 104.537 139.990,104.015 142.765,101.993 143.603 C 100.287 144.310,97.589 142.770,97.013 140.760 C 96.786 139.970,96.009 138.620,95.286 137.761 C 94.563 136.903,93.775 135.957,93.534 135.661 C 93.293 135.364,92.984 135.284,92.848 135.482 C 92.571 135.884,89.875 137.200,89.328 137.200 C 89.135 137.200,88.717 137.560,88.400 138.000 C 88.083 138.440,87.665 138.800,87.472 138.800 C 85.626 138.800,84.503 140.085,84.290 142.443 C 84.165 143.822,83.630 145.747,83.036 146.962 C 81.390 150.326,81.474 158.822,83.184 162.000 C 83.835 163.210,84.375 164.499,84.384 164.865 C 84.393 165.231,85.030 166.487,85.800 167.656 C 86.570 168.825,87.200 170.011,87.200 170.291 C 87.200 170.634,87.839 170.800,89.157 170.800 C 90.528 170.800,91.183 170.980,91.345 171.400 C 91.471 171.730,91.851 172.000,92.187 172.000 C 92.524 172.000,92.800 172.167,92.800 172.371 C 92.800 172.850,95.103 174.000,96.061 174.000 C 96.468 174.000,96.800 174.180,96.800 174.400 C 96.800 175.410,106.196 174.868,107.200 173.800 C 107.717 173.250,108.457 172.800,108.846 172.800 C 109.235 172.800,109.664 172.620,109.800 172.400 C 109.936 172.180,110.487 172.000,111.024 172.000 C 111.561 172.000,112.000 171.840,112.000 171.645 C 112.000 171.450,112.806 171.170,113.791 171.022 C 114.776 170.875,115.686 170.584,115.814 170.377 C 115.942 170.170,116.541 170.000,117.144 170.000 C 117.747 170.000,118.436 169.804,118.675 169.565 C 118.988 169.252,119.185 169.252,119.378 169.565 C 119.547 169.837,121.360 170.000,124.224 170.000 C 127.008 170.000,128.800 170.157,128.800 170.400 C 128.800 170.636,130.213 170.800,132.240 170.800 C 135.526 170.800,138.132 171.478,138.849 172.520 C 138.986 172.719,140.696 172.967,142.649 173.070 C 144.602 173.173,146.599 173.452,147.086 173.689 C 147.689 173.982,148.137 173.990,148.486 173.715 C 148.769 173.491,150.604 173.201,152.565 173.069 C 154.526 172.938,156.317 172.643,156.545 172.415 C 156.773 172.187,157.878 172.000,159.000 172.000 C 160.122 172.000,161.225 171.815,161.450 171.590 C 161.684 171.356,165.252 171.071,169.746 170.926 C 174.083 170.787,177.725 170.521,177.839 170.336 C 177.954 170.151,178.487 170.000,179.024 170.000 C 179.561 170.000,180.000 169.820,180.000 169.600 C 180.000 169.380,180.179 169.200,180.397 169.200 C 181.080 169.200,184.000 167.827,184.000 167.506 C 184.000 167.338,184.198 167.200,184.440 167.200 C 184.855 167.200,185.347 167.005,188.860 165.447 C 189.664 165.091,190.519 164.800,190.760 164.800 C 191.002 164.800,191.200 164.620,191.200 164.400 C 191.200 164.180,191.539 164.000,191.954 164.000 C 192.369 164.000,193.224 163.731,193.854 163.402 C 195.988 162.290,200.214 162.754,200.632 164.148 C 200.773 164.616,201.389 165.540,202.001 166.200 C 203.876 168.222,205.974 173.043,206.004 175.400 C 206.012 176.060,206.396 177.950,206.857 179.600 C 207.317 181.250,207.836 183.590,208.009 184.800 C 208.341 187.128,209.231 190.650,209.962 192.526 C 210.570 194.088,210.510 197.636,209.840 199.686 C 209.533 200.629,209.181 202.300,209.059 203.400 C 208.481 208.605,207.643 210.385,203.700 214.786 C 202.765 215.829,202.000 216.894,202.000 217.151 C 202.000 217.409,201.564 217.786,201.031 217.988 C 200.486 218.195,200.004 218.747,199.931 219.248 C 199.808 220.082,198.299 221.299,196.700 221.851 C 196.315 221.984,196.000 222.252,196.000 222.447 C 196.000 222.641,195.802 222.800,195.560 222.800 C 195.008 222.800,192.269 224.062,192.000 224.440 C 191.890 224.595,190.733 225.275,189.430 225.951 C 188.126 226.627,186.956 227.329,186.830 227.511 C 186.565 227.892,183.852 229.200,183.328 229.200 C 183.135 229.200,182.717 229.560,182.400 230.000 C 182.083 230.440,181.665 230.800,181.472 230.800 C 180.986 230.800,178.245 232.095,178.000 232.440 C 177.890 232.595,176.733 233.275,175.430 233.951 C 174.126 234.627,172.956 235.329,172.830 235.511 C 172.703 235.693,171.970 236.152,171.200 236.532 C 169.506 237.367,168.270 238.110,168.000 238.456 C 167.890 238.597,167.080 239.102,166.200 239.577 C 163.715 240.920,163.060 241.348,162.382 242.073 C 162.036 242.444,161.282 242.865,160.706 243.009 C 160.130 243.154,159.348 243.616,158.967 244.036 C 158.587 244.456,158.028 244.800,157.725 244.800 C 157.423 244.800,157.071 245.070,156.945 245.400 C 156.818 245.730,156.492 246.000,156.219 246.000 C 155.947 246.000,155.381 246.381,154.962 246.846 C 154.543 247.311,153.840 247.851,153.400 248.045 C 152.387 248.492,151.280 249.207,150.226 250.095 C 147.311 252.550,146.453 253.200,146.126 253.200 C 145.923 253.200,145.146 253.830,144.400 254.600 C 143.654 255.370,142.885 256.000,142.692 256.000 C 142.499 256.000,141.679 256.617,140.871 257.371 C 134.926 262.911,133.692 264.000,133.364 264.000 C 132.855 264.000,119.200 277.706,119.200 278.216 C 119.200 278.440,118.030 279.783,116.600 281.200 C 115.170 282.617,114.000 283.918,114.000 284.090 C 114.000 284.263,113.100 285.285,112.000 286.362 C 110.900 287.439,110.000 288.483,110.000 288.682 C 110.000 288.881,109.370 289.654,108.600 290.400 C 107.830 291.146,107.200 291.958,107.200 292.204 C 107.200 292.449,106.660 293.168,106.000 293.800 C 105.340 294.432,104.800 295.143,104.800 295.380 C 104.800 295.617,104.350 296.148,103.800 296.561 C 103.250 296.974,102.800 297.523,102.800 297.781 C 102.800 298.039,102.242 298.779,101.560 299.425 C 100.878 300.071,100.158 300.960,99.961 301.400 C 99.365 302.728,98.648 303.745,97.700 304.607 C 96.653 305.560,96.558 306.000,97.400 306.000 C 98.302 306.000,98.168 306.236,96.098 308.302 C 93.364 311.031,93.149 311.618,93.284 316.004 C 93.394 319.595,93.449 319.807,94.300 319.928 C 95.298 320.070,95.549 320.800,94.600 320.800 C 93.828 320.800,93.839 320.881,94.840 322.577 C 95.301 323.360,95.985 324.000,96.360 324.000 C 96.734 324.000,97.234 324.194,97.470 324.430 C 97.773 324.733,122.569 324.930,181.166 325.094 C 226.962 325.222,264.525 325.479,264.639 325.664 C 264.754 325.849,270.687 326.000,277.824 326.000 C 286.208 326.000,290.800 326.142,290.800 326.400 C 290.800 326.888,307.151 326.946,307.916 326.460 C 308.806 325.896,302.923 320.800,301.382 320.800 C 300.954 320.800,300.800 320.296,300.800 318.899 C 300.800 316.947,299.707 315.359,297.900 314.686 C 297.515 314.542,297.200 314.151,297.200 313.815 C 297.200 312.754,295.833 310.000,295.306 310.000 C 295.028 310.000,294.800 309.548,294.800 308.995 C 294.800 308.113,294.190 306.590,293.600 306.000 C 293.220 305.620,292.413 304.194,291.449 302.200 C 290.917 301.100,289.474 299.236,288.241 298.058 C 286.550 296.442,286.000 295.639,286.000 294.782 C 286.000 294.158,285.831 293.543,285.625 293.416 C 284.723 292.858,284.000 290.528,284.000 288.176 C 284.000 286.546,283.739 285.140,283.251 284.138 C 282.461 282.517,280.069 275.587,278.784 271.200 C 278.366 269.770,278.018 267.733,278.012 266.674 C 278.005 265.614,277.793 264.360,277.539 263.887 C 276.124 261.242,275.575 248.120,276.743 244.855 C 277.187 243.615,277.661 241.340,277.798 239.800 C 277.934 238.260,278.380 235.920,278.788 234.600 C 279.225 233.189,279.635 230.255,279.783 227.480 C 279.922 224.884,280.207 222.307,280.418 221.754 C 280.628 221.201,280.800 217.692,280.800 213.957 L 280.800 207.166 279.030 205.283 C 273.660 199.570,272.000 197.698,272.000 197.356 C 272.000 197.148,270.830 195.817,269.400 194.400 C 267.970 192.983,266.800 191.671,266.800 191.485 C 266.800 191.298,265.720 190.076,264.400 188.768 C 263.080 187.460,262.000 186.252,262.000 186.084 C 262.000 185.915,260.830 184.617,259.400 183.200 C 257.970 181.783,256.800 180.432,256.800 180.199 C 256.800 179.966,255.720 178.706,254.400 177.400 C 253.080 176.094,252.000 174.861,252.000 174.660 C 252.000 174.459,251.370 173.700,250.600 172.974 C 248.749 171.228,248.948 169.200,250.971 169.200 C 251.604 169.200,254.800 172.131,254.800 172.712 C 254.800 172.883,255.970 174.183,257.400 175.600 C 258.830 177.017,260.000 178.368,260.000 178.601 C 260.000 178.834,261.080 180.094,262.400 181.400 C 263.720 182.706,264.800 183.935,264.800 184.130 C 264.800 184.325,265.687 185.411,266.771 186.543 C 272.184 192.194,274.800 195.094,274.800 195.442 C 274.800 195.654,275.790 196.805,277.000 198.000 C 278.210 199.195,279.200 200.330,279.200 200.522 C 279.200 202.757,283.982 204.775,284.981 202.961 C 285.211 202.543,285.504 202.110,285.632 202.000 C 285.760 201.890,286.119 201.215,286.430 200.500 C 286.741 199.785,287.176 199.196,287.398 199.190 C 287.975 199.176,289.200 196.553,289.200 195.330 C 289.200 194.760,289.532 194.003,289.939 193.647 C 290.780 192.910,291.448 188.000,290.707 188.000 C 290.319 188.000,287.996 186.102,285.556 183.789 C 284.982 183.245,284.342 182.800,284.135 182.800 C 283.927 182.800,283.146 182.170,282.400 181.400 C 281.654 180.630,280.874 180.000,280.666 180.000 C 280.313 180.000,277.914 178.024,275.556 175.789 C 274.982 175.245,274.342 174.800,274.135 174.800 C 273.927 174.800,273.146 174.170,272.400 173.400 C 271.654 172.630,270.874 172.000,270.666 172.000 C 270.313 172.000,267.914 170.024,265.556 167.789 C 264.982 167.245,264.342 166.800,264.135 166.800 C 263.927 166.800,263.146 166.170,262.400 165.400 C 261.654 164.630,260.863 164.000,260.643 164.000 C 259.895 164.000,258.000 161.853,258.000 161.005 C 258.000 159.087,259.743 158.649,261.200 160.200 C 261.717 160.750,262.343 161.200,262.591 161.200 C 262.840 161.200,263.654 161.830,264.400 162.600 C 265.146 163.370,265.905 164.000,266.086 164.000 C 266.266 164.000,267.026 164.630,267.774 165.400 C 268.521 166.170,269.295 166.800,269.492 166.800 C 269.689 166.800,270.368 167.340,271.000 168.000 C 271.632 168.660,272.351 169.200,272.596 169.200 C 272.842 169.200,273.654 169.830,274.400 170.600 C 275.146 171.370,275.905 172.000,276.086 172.000 C 276.266 172.000,277.026 172.630,277.774 173.400 C 278.521 174.170,279.295 174.800,279.492 174.800 C 279.689 174.800,280.368 175.340,281.000 176.000 C 281.632 176.660,282.351 177.200,282.596 177.200 C 282.842 177.200,283.654 177.830,284.400 178.600 C 285.146 179.370,285.905 180.000,286.086 180.000 C 286.266 180.000,287.026 180.630,287.774 181.400 C 288.521 182.170,289.273 182.800,289.445 182.800 C 289.616 182.800,290.246 183.270,290.846 183.844 C 292.156 185.100,292.800 184.823,292.800 183.002 C 292.800 182.260,292.956 181.235,293.147 180.726 C 293.761 179.084,294.133 170.800,293.591 170.800 C 293.330 170.800,292.550 170.347,291.858 169.794 C 289.893 168.222,289.887 168.218,288.261 167.387 C 287.415 166.954,286.380 166.422,285.961 166.205 C 285.543 165.988,285.200 165.677,285.200 165.515 C 285.200 165.353,284.435 164.852,283.500 164.403 C 281.385 163.386,280.384 162.770,279.600 162.000 C 278.925 161.337,278.185 160.866,275.800 159.577 C 274.920 159.102,274.110 158.597,274.000 158.456 C 273.730 158.110,272.492 157.366,270.800 156.533 C 270.030 156.153,269.256 155.608,269.080 155.322 C 268.904 155.035,268.521 154.800,268.229 154.800 C 267.937 154.800,267.458 154.511,267.165 154.158 C 266.873 153.805,266.220 153.360,265.716 153.168 C 264.809 152.823,264.561 151.889,265.043 150.633 C 265.365 149.792,266.721 149.878,268.200 150.834 C 268.860 151.260,269.715 151.718,270.100 151.851 C 270.485 151.984,270.800 152.248,270.800 152.437 C 270.800 152.625,271.565 153.148,272.500 153.597 C 274.615 154.614,275.616 155.230,276.400 156.000 C 277.075 156.663,277.815 157.134,280.200 158.423 C 281.080 158.898,281.890 159.403,282.000 159.544 C 282.270 159.890,283.508 160.634,285.200 161.467 C 285.970 161.847,286.744 162.392,286.920 162.678 C 287.096 162.965,287.473 163.200,287.758 163.200 C 288.043 163.200,288.587 163.544,288.967 163.964 C 289.348 164.384,290.130 164.846,290.706 164.991 C 291.282 165.135,292.033 165.576,292.376 165.970 C 292.719 166.363,293.405 166.813,293.900 166.970 L 294.800 167.254 294.800 159.507 C 294.800 151.309,294.690 150.800,292.920 150.800 C 292.414 150.800,292.000 150.620,292.000 150.400 C 292.000 150.180,291.561 150.000,291.024 150.000 C 290.487 150.000,289.942 149.830,289.814 149.623 C 289.686 149.416,288.776 149.125,287.791 148.978 C 286.806 148.830,286.000 148.550,286.000 148.355 C 286.000 148.160,285.561 148.000,285.024 148.000 C 284.487 148.000,283.942 147.830,283.814 147.623 C 283.686 147.416,282.776 147.125,281.791 146.978 C 280.806 146.830,280.000 146.550,280.000 146.355 C 280.000 146.160,279.595 145.994,279.100 145.987 C 278.605 145.980,277.851 145.710,277.424 145.387 C 276.996 145.064,276.254 144.800,275.773 144.800 C 274.658 144.800,273.901 143.895,274.069 142.763 C 274.258 141.492,275.392 140.878,276.393 141.503 C 276.831 141.776,277.552 142.000,277.995 142.000 C 278.438 142.000,278.800 142.160,278.800 142.355 C 278.800 142.550,279.606 142.830,280.591 142.978 C 281.576 143.125,282.486 143.416,282.614 143.623 C 282.742 143.830,283.287 144.000,283.824 144.000 C 284.361 144.000,284.800 144.160,284.800 144.355 C 284.800 144.550,285.606 144.830,286.591 144.978 C 287.576 145.125,288.486 145.416,288.614 145.623 C 288.742 145.830,289.287 146.000,289.824 146.000 C 290.361 146.000,290.800 146.178,290.800 146.395 C 290.800 146.613,291.520 146.906,292.400 147.046 C 293.280 147.187,294.000 147.470,294.000 147.675 C 294.000 147.880,294.156 147.951,294.348 147.832 C 294.539 147.714,294.456 146.489,294.163 145.109 C 293.871 143.729,293.436 141.250,293.197 139.600 C 292.957 137.950,292.590 135.731,292.381 134.669 C 292.171 133.608,292.000 132.348,292.000 131.869 C 292.001 130.939,284.359 130.729,283.420 131.634 C 282.840 132.193,275.054 132.094,274.480 131.520 C 272.592 129.632,274.101 128.800,279.409 128.800 C 281.740 128.800,283.661 128.625,283.800 128.400 C 283.936 128.180,285.567 128.000,287.424 128.000 L 290.800 128.000 290.800 126.651 C 290.800 125.088,289.528 119.754,288.879 118.591 C 288.635 118.156,288.069 116.990,287.620 116.000 C 286.510 113.555,284.581 110.071,283.889 109.263 C 283.576 108.898,282.740 107.387,282.029 105.904 C 281.319 104.422,280.585 103.114,280.398 102.999 C 280.211 102.883,279.837 102.118,279.567 101.299 C 278.987 99.543,277.043 96.216,275.769 94.800 C 274.354 93.227,267.359 86.265,266.525 85.600 C 263.511 83.194,258.778 80.668,255.225 79.571 C 254.249 79.269,252.959 78.609,252.357 78.103 C 251.434 77.326,250.652 77.147,247.332 76.954 C 244.981 76.817,242.837 76.462,242.000 76.070 C 239.201 74.761,220.729 73.882,218.707 74.962 M222.839 92.140 C 228.413 93.452,230.697 97.540,227.706 100.851 L 226.213 102.504 219.206 102.311 C 210.766 102.078,209.730 102.432,208.798 105.866 C 206.862 113.006,201.300 115.607,196.886 111.436 C 193.857 108.574,193.920 104.811,197.105 98.400 C 197.970 96.658,203.075 93.600,205.118 93.600 C 205.847 93.600,207.199 93.259,208.122 92.843 C 209.045 92.426,210.160 91.997,210.600 91.889 C 212.321 91.467,220.712 91.639,222.839 92.140 M97.368 330.100 C 97.502 331.255,97.718 333.775,97.846 335.700 L 98.080 339.200 119.616 339.200 C 133.542 339.200,141.240 339.341,141.400 339.600 C 141.563 339.864,162.663 340.000,203.400 340.000 C 244.137 340.000,265.237 340.136,265.400 340.400 C 265.560 340.660,274.207 340.800,290.034 340.800 L 314.420 340.800 314.845 339.700 C 315.820 337.177,315.758 336.081,314.551 334.530 C 313.918 333.716,313.220 332.739,313.000 332.358 C 312.780 331.978,311.900 331.112,311.045 330.433 L 309.490 329.200 302.145 329.200 C 297.515 329.200,294.800 329.348,294.800 329.600 C 294.800 330.224,285.309 330.128,285.100 329.501 C 284.969 329.106,270.104 328.972,213.467 328.857 C 172.139 328.773,142.000 328.561,142.000 328.356 C 142.000 328.152,132.389 328.000,119.561 328.000 L 97.123 328.000 97.368 330.100 M98.422 346.333 C 98.544 348.240,98.863 350.160,99.131 350.600 C 99.400 351.040,99.947 352.390,100.348 353.600 L 101.076 355.800 111.938 355.906 C 117.912 355.965,122.800 356.168,122.800 356.357 C 122.800 356.546,158.617 356.835,202.607 357.000 C 247.513 357.168,282.509 357.452,282.631 357.649 C 282.750 357.842,288.938 358.000,296.383 358.000 L 309.919 358.000 310.111 356.300 C 310.419 353.556,311.899 348.375,312.593 347.607 C 312.946 347.218,313.340 346.247,313.469 345.450 L 313.705 344.000 289.486 344.000 C 276.165 344.000,265.207 343.846,265.133 343.658 C 265.060 343.469,227.470 343.214,181.600 343.091 L 98.200 342.866 98.422 346.333 " stroke="none" fill="#040404" fill-rule="evenodd"></path></g></svg>