<svg id="svg" version="1.1" xmlns="http://www.w3.org/2000/svg" xmlns:xlink="http://www.w3.org/1999/xlink" width="400" height="400" viewBox="0, 0, 400,400"><g id="svgg"><path id="path0" d="M191.600 35.000 C 191.600 35.400,191.200 35.600,190.400 35.600 C 189.467 35.600,189.200 35.778,189.200 36.400 C 189.200 37.124,188.933 37.200,186.400 37.200 C 184.178 37.200,183.600 37.324,183.600 37.800 C 183.600 38.130,183.330 38.400,183.000 38.400 C 182.670 38.400,182.400 38.670,182.400 39.000 C 182.400 39.446,181.929 39.600,180.563 39.600 C 179.062 39.600,178.687 39.746,178.516 40.400 C 178.401 40.840,178.058 41.200,177.753 41.200 C 177.449 41.200,177.200 41.470,177.200 41.800 C 177.200 42.219,176.778 42.400,175.800 42.400 C 174.822 42.400,174.400 42.581,174.400 43.000 C 174.400 43.404,173.996 43.600,173.163 43.600 C 172.262 43.600,171.868 43.817,171.716 44.400 C 171.601 44.840,171.258 45.200,170.953 45.200 C 170.649 45.200,170.400 45.470,170.400 45.800 C 170.400 46.130,170.130 46.400,169.800 46.400 C 169.470 46.400,169.200 46.649,169.200 46.953 C 169.200 47.258,168.840 47.601,168.400 47.716 C 167.960 47.831,167.600 48.212,167.600 48.563 C 167.600 49.004,167.231 49.200,166.400 49.200 C 165.645 49.200,165.200 49.405,165.200 49.753 C 165.200 50.058,164.840 50.401,164.400 50.516 C 163.817 50.668,163.600 51.062,163.600 51.963 C 163.600 52.796,163.404 53.200,163.000 53.200 C 162.670 53.200,162.400 53.470,162.400 53.800 C 162.400 54.130,162.130 54.400,161.800 54.400 C 161.470 54.400,161.200 54.649,161.200 54.953 C 161.200 55.258,160.840 55.601,160.400 55.716 C 159.817 55.868,159.600 56.262,159.600 57.163 C 159.600 57.996,159.404 58.400,159.000 58.400 C 158.670 58.400,158.400 58.670,158.400 59.000 C 158.400 59.330,158.130 59.600,157.800 59.600 C 157.381 59.600,157.200 60.022,157.200 61.000 C 157.200 62.133,157.048 62.400,156.400 62.400 C 155.752 62.400,155.600 62.667,155.600 63.800 C 155.600 64.778,155.419 65.200,155.000 65.200 C 154.547 65.200,154.400 65.689,154.400 67.200 C 154.400 68.711,154.253 69.200,153.800 69.200 C 153.405 69.200,153.200 69.595,153.200 70.353 C 153.200 71.170,152.967 71.568,152.400 71.716 C 151.617 71.921,151.600 72.262,151.600 87.363 C 151.600 102.533,151.614 102.800,152.400 102.800 C 153.048 102.800,153.200 103.067,153.200 104.200 C 153.200 105.178,153.381 105.600,153.800 105.600 C 154.253 105.600,154.400 106.089,154.400 107.600 C 154.400 109.111,154.547 109.600,155.000 109.600 C 155.404 109.600,155.600 110.004,155.600 110.837 C 155.600 111.738,155.817 112.132,156.400 112.284 C 156.967 112.432,157.200 112.830,157.200 113.647 C 157.200 114.405,157.405 114.800,157.800 114.800 C 158.133 114.800,158.400 115.156,158.400 115.600 C 158.400 116.044,158.667 116.400,159.000 116.400 C 159.400 116.400,159.600 116.800,159.600 117.600 C 159.600 118.533,159.778 118.800,160.400 118.800 C 160.933 118.800,161.200 119.067,161.200 119.600 C 161.200 120.044,161.467 120.400,161.800 120.400 C 162.130 120.400,162.400 120.670,162.400 121.000 C 162.400 121.330,162.670 121.600,163.000 121.600 C 163.404 121.600,163.600 122.004,163.600 122.837 C 163.600 123.738,163.817 124.132,164.400 124.284 C 164.840 124.399,165.200 124.742,165.200 125.047 C 165.200 125.351,165.470 125.600,165.800 125.600 C 166.130 125.600,166.400 125.870,166.400 126.200 C 166.400 126.619,166.822 126.800,167.800 126.800 C 168.933 126.800,169.200 126.952,169.200 127.600 C 169.200 128.044,169.467 128.400,169.800 128.400 C 170.130 128.400,170.400 128.670,170.400 129.000 C 170.400 129.330,170.670 129.600,171.000 129.600 C 171.330 129.600,171.600 129.870,171.600 130.200 C 171.600 130.619,172.022 130.800,173.000 130.800 L 174.400 130.800 174.400 134.600 C 174.400 137.711,174.291 138.400,173.800 138.400 C 173.381 138.400,173.200 138.822,173.200 139.800 C 173.200 140.933,173.048 141.200,172.400 141.200 C 171.667 141.200,171.600 141.467,171.600 144.400 C 171.600 146.978,171.483 147.600,171.000 147.600 C 170.581 147.600,170.400 148.022,170.400 149.000 C 170.400 149.978,170.219 150.400,169.800 150.400 C 169.314 150.400,169.200 151.044,169.200 153.800 C 169.200 156.933,169.137 157.200,168.400 157.200 C 167.682 157.200,167.600 157.467,167.600 159.800 C 167.600 161.844,167.472 162.400,167.000 162.400 C 166.547 162.400,166.400 162.889,166.400 164.400 C 166.400 165.911,166.253 166.400,165.800 166.400 C 165.329 166.400,165.200 166.950,165.200 168.953 C 165.200 171.170,165.095 171.534,164.400 171.716 C 163.817 171.868,163.600 172.262,163.600 173.163 C 163.600 173.996,163.404 174.400,163.000 174.400 C 162.514 174.400,162.400 175.044,162.400 177.800 C 162.400 180.556,162.286 181.200,161.800 181.200 C 161.328 181.200,161.200 181.756,161.200 183.800 C 161.200 186.133,161.118 186.400,160.400 186.400 C 159.707 186.400,159.600 186.667,159.600 188.400 C 159.600 189.911,159.453 190.400,159.000 190.400 C 158.528 190.400,158.400 190.956,158.400 193.000 C 158.400 195.044,158.272 195.600,157.800 195.600 C 157.349 195.600,157.200 196.084,157.200 197.553 C 157.200 199.170,157.062 199.543,156.400 199.716 C 155.702 199.898,155.600 200.262,155.600 202.563 C 155.600 204.640,155.473 205.200,155.000 205.200 C 154.547 205.200,154.400 205.689,154.400 207.200 C 154.400 208.711,154.253 209.200,153.800 209.200 C 153.328 209.200,153.200 209.756,153.200 211.800 C 153.200 214.133,153.118 214.400,152.400 214.400 C 151.707 214.400,151.600 214.667,151.600 216.400 C 151.600 217.911,151.453 218.400,151.000 218.400 C 150.547 218.400,150.400 218.889,150.400 220.400 C 150.400 221.911,150.253 222.400,149.800 222.400 C 149.381 222.400,149.200 222.822,149.200 223.800 C 149.200 224.933,149.048 225.200,148.400 225.200 C 147.682 225.200,147.600 225.467,147.600 227.800 C 147.600 229.844,147.472 230.400,147.000 230.400 C 146.581 230.400,146.400 230.822,146.400 231.800 C 146.400 232.778,146.219 233.200,145.800 233.200 C 145.328 233.200,145.200 233.756,145.200 235.800 C 145.200 238.133,145.118 238.400,144.400 238.400 C 143.707 238.400,143.600 238.667,143.600 240.400 C 143.600 241.911,143.453 242.400,143.000 242.400 C 142.670 242.400,142.400 242.670,142.400 243.000 C 142.400 243.330,142.130 243.600,141.800 243.600 C 141.349 243.600,141.200 244.084,141.200 245.553 C 141.200 247.170,141.062 247.543,140.400 247.716 C 139.746 247.887,139.600 248.262,139.600 249.763 C 139.600 251.129,139.446 251.600,139.000 251.600 C 138.581 251.600,138.400 252.022,138.400 253.000 C 138.400 253.978,138.219 254.400,137.800 254.400 C 137.470 254.400,137.200 254.649,137.200 254.953 C 137.200 255.258,136.840 255.601,136.400 255.716 C 135.817 255.868,135.600 256.262,135.600 257.163 C 135.600 257.996,135.404 258.400,135.000 258.400 C 134.581 258.400,134.400 258.822,134.400 259.800 C 134.400 260.778,134.219 261.200,133.800 261.200 C 133.470 261.200,133.200 261.449,133.200 261.753 C 133.200 262.058,132.840 262.401,132.400 262.516 C 131.817 262.668,131.600 263.062,131.600 263.963 C 131.600 264.796,131.404 265.200,131.000 265.200 C 130.670 265.200,130.400 265.470,130.400 265.800 C 130.400 266.130,130.130 266.400,129.800 266.400 C 129.470 266.400,129.200 266.649,129.200 266.953 C 129.200 267.258,128.840 267.601,128.400 267.716 C 127.817 267.868,127.600 268.262,127.600 269.163 C 127.600 269.996,127.404 270.400,127.000 270.400 C 126.670 270.400,126.400 270.670,126.400 271.000 C 126.400 271.330,126.130 271.600,125.800 271.600 C 125.467 271.600,125.200 271.956,125.200 272.400 C 125.200 272.933,124.933 273.200,124.400 273.200 C 123.956 273.200,123.600 273.467,123.600 273.800 C 123.600 274.130,123.330 274.400,123.000 274.400 C 122.670 274.400,122.400 274.670,122.400 275.000 C 122.400 275.330,122.130 275.600,121.800 275.600 C 121.467 275.600,121.200 275.956,121.200 276.400 C 121.200 276.933,120.933 277.200,120.400 277.200 C 119.956 277.200,119.600 277.467,119.600 277.800 C 119.600 278.200,119.200 278.400,118.400 278.400 C 117.600 278.400,117.200 278.600,117.200 279.000 C 117.200 279.330,116.913 279.600,116.563 279.600 C 116.212 279.600,115.831 279.960,115.716 280.400 C 115.601 280.840,115.258 281.200,114.953 281.200 C 114.649 281.200,114.400 281.470,114.400 281.800 C 114.400 282.201,113.999 282.400,113.187 282.400 C 112.479 282.400,111.879 282.649,111.745 283.000 C 111.618 283.330,111.264 283.600,110.957 283.600 C 110.651 283.600,110.400 283.960,110.400 284.400 C 110.400 285.048,110.133 285.200,109.000 285.200 C 108.022 285.200,107.600 285.381,107.600 285.800 C 107.600 286.200,107.200 286.400,106.400 286.400 C 105.600 286.400,105.200 286.600,105.200 287.000 C 105.200 287.330,104.913 287.600,104.563 287.600 C 104.212 287.600,103.831 287.960,103.716 288.400 C 103.568 288.967,103.170 289.200,102.353 289.200 C 101.595 289.200,101.200 289.405,101.200 289.800 C 101.200 290.219,100.778 290.400,99.800 290.400 C 98.822 290.400,98.400 290.581,98.400 291.000 C 98.400 291.330,98.130 291.600,97.800 291.600 C 97.467 291.600,97.200 291.956,97.200 292.400 C 97.200 293.048,96.933 293.200,95.800 293.200 C 94.822 293.200,94.400 293.381,94.400 293.800 C 94.400 294.219,93.978 294.400,93.000 294.400 C 92.022 294.400,91.600 294.581,91.600 295.000 C 91.600 295.446,91.129 295.600,89.763 295.600 C 88.262 295.600,87.887 295.746,87.716 296.400 C 87.568 296.967,87.170 297.200,86.353 297.200 C 85.595 297.200,85.200 297.405,85.200 297.800 C 85.200 298.253,84.711 298.400,83.200 298.400 C 81.689 298.400,81.200 298.547,81.200 299.000 C 81.200 299.330,80.913 299.600,80.563 299.600 C 80.212 299.600,79.831 299.960,79.716 300.400 C 79.568 300.967,79.170 301.200,78.353 301.200 C 77.595 301.200,77.200 301.405,77.200 301.800 C 77.200 302.253,76.711 302.400,75.200 302.400 C 73.689 302.400,73.200 302.547,73.200 303.000 C 73.200 303.419,72.778 303.600,71.800 303.600 C 70.667 303.600,70.400 303.752,70.400 304.400 C 70.400 305.048,70.133 305.200,69.000 305.200 L 67.600 305.200 67.600 310.000 C 67.600 314.533,67.644 314.800,68.400 314.800 C 68.933 314.800,69.200 315.067,69.200 315.600 C 69.200 316.044,69.467 316.400,69.800 316.400 C 70.283 316.400,70.400 317.022,70.400 319.600 C 70.400 322.178,70.517 322.800,71.000 322.800 C 71.453 322.800,71.600 323.289,71.600 324.800 C 71.600 326.533,71.707 326.800,72.400 326.800 C 73.124 326.800,73.200 327.067,73.200 329.600 C 73.200 331.822,73.324 332.400,73.800 332.400 C 74.272 332.400,74.400 332.956,74.400 335.000 C 74.400 337.044,74.528 337.600,75.000 337.600 C 75.472 337.600,75.600 338.156,75.600 340.200 C 75.600 342.533,75.682 342.800,76.400 342.800 C 77.124 342.800,77.200 343.067,77.200 345.600 C 77.200 347.822,77.324 348.400,77.800 348.400 C 78.272 348.400,78.400 348.956,78.400 351.000 C 78.400 353.044,78.528 353.600,79.000 353.600 C 79.493 353.600,79.600 354.311,79.600 357.600 C 79.600 361.333,79.653 361.600,80.400 361.600 C 81.048 361.600,81.200 361.867,81.200 363.000 C 81.200 363.978,81.381 364.400,81.800 364.400 C 82.130 364.400,82.400 364.670,82.400 365.000 C 82.400 365.914,319.905 365.914,320.255 365.000 C 320.382 364.670,320.736 364.400,321.043 364.400 C 321.488 364.400,321.600 363.436,321.600 359.600 C 321.600 355.600,321.700 354.800,322.200 354.800 C 322.672 354.800,322.800 354.244,322.800 352.200 C 322.800 349.867,322.882 349.600,323.600 349.600 C 324.318 349.600,324.400 349.333,324.400 347.000 C 324.400 344.956,324.528 344.400,325.000 344.400 C 325.486 344.400,325.600 343.756,325.600 341.000 C 325.600 338.244,325.714 337.600,326.200 337.600 C 326.619 337.600,326.800 337.178,326.800 336.200 C 326.800 335.067,326.952 334.800,327.600 334.800 C 328.347 334.800,328.400 334.533,328.400 330.800 C 328.400 327.511,328.507 326.800,329.000 326.800 C 329.483 326.800,329.600 326.178,329.600 323.600 C 329.600 321.022,329.717 320.400,330.200 320.400 C 330.619 320.400,330.800 319.978,330.800 319.000 C 330.800 317.867,330.952 317.600,331.600 317.600 C 332.356 317.600,332.400 317.333,332.400 312.763 C 332.400 308.262,332.344 307.911,331.600 307.716 C 331.160 307.601,330.800 307.258,330.800 306.953 C 330.800 306.556,330.236 306.400,328.800 306.400 C 327.289 306.400,326.800 306.253,326.800 305.800 C 326.800 305.405,326.405 305.200,325.647 305.200 C 324.830 305.200,324.432 304.967,324.284 304.400 C 324.113 303.746,323.738 303.600,322.237 303.600 C 320.871 303.600,320.400 303.446,320.400 303.000 C 320.400 302.547,319.911 302.400,318.400 302.400 C 316.889 302.400,316.400 302.253,316.400 301.800 C 316.400 301.381,315.978 301.200,315.000 301.200 C 313.867 301.200,313.600 301.048,313.600 300.400 C 313.600 299.752,313.333 299.600,312.200 299.600 C 311.222 299.600,310.800 299.419,310.800 299.000 C 310.800 298.600,310.400 298.400,309.600 298.400 C 308.800 298.400,308.400 298.200,308.400 297.800 C 308.400 297.467,308.044 297.200,307.600 297.200 C 307.067 297.200,306.800 296.933,306.800 296.400 C 306.800 295.778,306.533 295.600,305.600 295.600 C 304.800 295.600,304.400 295.400,304.400 295.000 C 304.400 294.581,303.978 294.400,303.000 294.400 C 302.022 294.400,301.600 294.219,301.600 293.800 C 301.600 293.470,301.351 293.200,301.047 293.200 C 300.742 293.200,300.399 292.840,300.284 292.400 C 300.132 291.817,299.738 291.600,298.837 291.600 C 298.004 291.600,297.600 291.404,297.600 291.000 C 297.600 290.670,297.330 290.400,297.000 290.400 C 296.670 290.400,296.400 290.130,296.400 289.800 C 296.400 289.381,295.978 289.200,295.000 289.200 C 293.867 289.200,293.600 289.048,293.600 288.400 C 293.600 287.960,293.349 287.600,293.043 287.600 C 292.736 287.600,292.382 287.330,292.255 287.000 C 292.129 286.670,291.749 286.400,291.413 286.400 C 291.076 286.400,290.800 286.130,290.800 285.800 C 290.800 285.470,290.530 285.200,290.200 285.200 C 289.870 285.200,289.597 284.975,289.593 284.700 C 289.585 284.090,287.858 282.400,287.244 282.400 C 287.000 282.400,286.800 282.130,286.800 281.800 C 286.800 281.470,286.530 281.200,286.200 281.200 C 285.870 281.200,285.597 280.975,285.593 280.700 C 285.585 280.090,283.858 278.400,283.244 278.400 C 283.000 278.400,282.800 278.130,282.800 277.800 C 282.800 277.470,282.530 277.200,282.200 277.200 C 281.867 277.200,281.600 276.844,281.600 276.400 C 281.600 275.956,281.333 275.600,281.000 275.600 C 280.600 275.600,280.400 275.200,280.400 274.400 C 280.400 273.467,280.222 273.200,279.600 273.200 C 279.067 273.200,278.800 272.933,278.800 272.400 C 278.800 271.956,278.533 271.600,278.200 271.600 C 277.800 271.600,277.600 271.200,277.600 270.400 C 277.600 269.600,277.400 269.200,277.000 269.200 C 276.596 269.200,276.400 268.796,276.400 267.963 C 276.400 267.062,276.183 266.668,275.600 266.516 C 275.160 266.401,274.800 266.058,274.800 265.753 C 274.800 265.449,274.530 265.200,274.200 265.200 C 273.781 265.200,273.600 264.778,273.600 263.800 C 273.600 262.822,273.419 262.400,273.000 262.400 C 272.596 262.400,272.400 261.996,272.400 261.163 C 272.400 260.262,272.183 259.868,271.600 259.716 C 271.033 259.568,270.800 259.170,270.800 258.353 C 270.800 257.595,270.595 257.200,270.200 257.200 C 269.724 257.200,269.600 256.622,269.600 254.400 C 269.600 252.178,269.476 251.600,269.000 251.600 C 268.554 251.600,268.400 251.129,268.400 249.763 C 268.400 248.262,268.254 247.887,267.600 247.716 C 266.938 247.543,266.800 247.170,266.800 245.553 C 266.800 244.084,266.651 243.600,266.200 243.600 C 265.800 243.600,265.600 243.200,265.600 242.400 C 265.600 241.600,265.400 241.200,265.000 241.200 C 264.514 241.200,264.400 240.556,264.400 237.800 C 264.400 234.667,264.337 234.400,263.600 234.400 C 262.952 234.400,262.800 234.133,262.800 233.000 C 262.800 232.022,262.619 231.600,262.200 231.600 C 261.717 231.600,261.600 230.978,261.600 228.400 C 261.600 225.822,261.483 225.200,261.000 225.200 C 260.527 225.200,260.400 224.640,260.400 222.563 C 260.400 220.262,260.298 219.898,259.600 219.716 C 258.859 219.522,258.800 219.170,258.800 214.953 C 258.800 211.173,258.698 210.400,258.200 210.400 C 257.747 210.400,257.600 209.911,257.600 208.400 C 257.600 206.889,257.453 206.400,257.000 206.400 C 256.516 206.400,256.400 205.774,256.400 203.163 C 256.400 200.262,256.317 199.903,255.600 199.716 C 254.868 199.524,254.800 199.170,254.800 195.553 C 254.800 192.306,254.693 191.600,254.200 191.600 C 253.707 191.600,253.600 190.889,253.600 187.600 C 253.600 184.311,253.493 183.600,253.000 183.600 C 252.508 183.600,252.400 182.907,252.400 179.763 C 252.400 176.262,252.330 175.907,251.600 175.716 C 250.868 175.524,250.800 175.170,250.800 171.553 C 250.800 168.306,250.693 167.600,250.200 167.600 C 249.707 167.600,249.600 166.889,249.600 163.600 C 249.600 160.311,249.493 159.600,249.000 159.600 C 248.494 159.600,248.400 158.685,248.400 153.763 C 248.400 148.262,248.354 147.913,247.600 147.716 C 246.938 147.543,246.800 147.170,246.800 145.553 C 246.800 144.084,246.651 143.600,246.200 143.600 C 245.701 143.600,245.600 142.822,245.600 139.000 C 245.600 135.178,245.499 134.400,245.000 134.400 C 244.627 134.400,244.400 134.022,244.400 133.400 C 244.400 132.778,244.627 132.400,245.000 132.400 C 245.333 132.400,245.600 132.044,245.600 131.600 C 245.600 130.952,245.867 130.800,247.000 130.800 C 247.978 130.800,248.400 130.619,248.400 130.200 C 248.400 129.870,248.670 129.600,249.000 129.600 C 249.330 129.600,249.600 129.330,249.600 129.000 C 249.600 128.596,250.004 128.400,250.837 128.400 C 251.738 128.400,252.132 128.183,252.284 127.600 C 252.399 127.160,252.742 126.800,253.047 126.800 C 253.351 126.800,253.600 126.530,253.600 126.200 C 253.600 125.870,253.870 125.600,254.200 125.600 C 254.530 125.600,254.800 125.351,254.800 125.047 C 254.800 124.742,255.160 124.399,255.600 124.284 C 256.040 124.169,256.400 123.788,256.400 123.437 C 256.400 123.087,256.670 122.800,257.000 122.800 C 257.330 122.800,257.600 122.530,257.600 122.200 C 257.600 121.870,257.870 121.600,258.200 121.600 C 258.530 121.600,258.800 121.351,258.800 121.047 C 258.800 120.742,259.160 120.399,259.600 120.284 C 260.040 120.169,260.400 119.788,260.400 119.437 C 260.400 119.087,260.670 118.800,261.000 118.800 C 261.400 118.800,261.600 118.400,261.600 117.600 C 261.600 116.800,261.800 116.400,262.200 116.400 C 262.533 116.400,262.800 116.044,262.800 115.600 C 262.800 115.067,263.067 114.800,263.600 114.800 C 264.222 114.800,264.400 114.533,264.400 113.600 C 264.400 112.800,264.600 112.400,265.000 112.400 C 265.419 112.400,265.600 111.978,265.600 111.000 C 265.600 110.022,265.781 109.600,266.200 109.600 C 266.619 109.600,266.800 109.178,266.800 108.200 C 266.800 107.067,266.952 106.800,267.600 106.800 C 268.318 106.800,268.400 106.533,268.400 104.200 C 268.400 102.156,268.528 101.600,269.000 101.600 C 269.521 101.600,269.600 99.889,269.600 88.600 C 269.600 77.311,269.521 75.600,269.000 75.600 C 268.554 75.600,268.400 75.129,268.400 73.763 C 268.400 72.262,268.254 71.887,267.600 71.716 C 266.938 71.543,266.800 71.170,266.800 69.553 C 266.800 68.084,266.651 67.600,266.200 67.600 C 265.800 67.600,265.600 67.200,265.600 66.400 C 265.600 65.600,265.400 65.200,265.000 65.200 C 264.596 65.200,264.400 64.796,264.400 63.963 C 264.400 63.062,264.183 62.668,263.600 62.516 C 263.160 62.401,262.800 62.058,262.800 61.753 C 262.800 61.449,262.530 61.200,262.200 61.200 C 261.781 61.200,261.600 60.778,261.600 59.800 C 261.600 58.822,261.419 58.400,261.000 58.400 C 260.670 58.400,260.400 58.130,260.400 57.800 C 260.400 57.467,260.044 57.200,259.600 57.200 C 258.952 57.200,258.800 56.933,258.800 55.800 C 258.800 54.822,258.619 54.400,258.200 54.400 C 257.870 54.400,257.600 54.130,257.600 53.800 C 257.600 53.470,257.330 53.200,257.000 53.200 C 256.670 53.200,256.400 52.913,256.400 52.563 C 256.400 52.212,256.040 51.831,255.600 51.716 C 255.160 51.601,254.800 51.258,254.800 50.953 C 254.800 50.649,254.530 50.400,254.200 50.400 C 253.870 50.400,253.600 50.130,253.600 49.800 C 253.600 49.470,253.330 49.200,253.000 49.200 C 252.670 49.200,252.400 48.913,252.400 48.563 C 252.400 48.212,252.040 47.831,251.600 47.716 C 251.160 47.601,250.800 47.258,250.800 46.953 C 250.800 46.649,250.530 46.400,250.200 46.400 C 249.870 46.400,249.600 46.130,249.600 45.800 C 249.600 45.381,249.178 45.200,248.200 45.200 C 247.067 45.200,246.800 45.048,246.800 44.400 C 246.800 43.956,246.533 43.600,246.200 43.600 C 245.870 43.600,245.600 43.330,245.600 43.000 C 245.600 42.581,245.178 42.400,244.200 42.400 C 243.222 42.400,242.800 42.219,242.800 41.800 C 242.800 41.405,242.405 41.200,241.647 41.200 C 240.830 41.200,240.432 40.967,240.284 40.400 C 240.169 39.960,239.788 39.600,239.437 39.600 C 239.087 39.600,238.800 39.330,238.800 39.000 C 238.800 38.547,238.311 38.400,236.800 38.400 C 235.289 38.400,234.800 38.253,234.800 37.800 C 234.800 37.405,234.405 37.200,233.647 37.200 C 232.830 37.200,232.432 36.967,232.284 36.400 C 232.097 35.683,231.738 35.600,228.837 35.600 C 226.226 35.600,225.600 35.484,225.600 35.000 C 225.600 34.476,223.444 34.400,208.600 34.400 C 193.756 34.400,191.600 34.476,191.600 35.000 M223.670 45.510 C 223.940 45.780,224.653 46.000,225.256 46.000 C 225.859 46.000,226.454 46.163,226.577 46.363 C 226.700 46.562,227.746 46.854,228.900 47.011 C 230.055 47.168,231.478 47.635,232.062 48.048 C 232.646 48.462,233.389 48.800,233.714 48.800 C 234.541 48.800,242.476 52.858,244.158 54.141 C 244.922 54.723,245.707 55.200,245.904 55.200 C 246.100 55.200,246.683 55.650,247.200 56.200 C 247.717 56.750,248.327 57.200,248.557 57.200 C 249.125 57.200,253.200 61.259,253.200 61.824 C 253.200 62.073,253.560 62.602,254.000 63.000 C 254.440 63.398,254.800 63.888,254.800 64.089 C 254.800 64.289,255.229 65.026,255.754 65.727 C 256.278 66.427,256.842 67.450,257.006 68.000 C 257.170 68.550,257.641 69.478,258.052 70.062 C 258.464 70.646,258.800 71.466,258.800 71.885 C 258.800 72.304,259.064 72.996,259.387 73.424 C 259.710 73.851,259.980 74.659,259.987 75.220 C 259.994 75.781,260.196 76.436,260.435 76.675 C 260.675 76.915,260.968 78.976,261.088 81.255 C 261.207 83.535,261.489 85.631,261.713 85.914 C 261.991 86.264,261.984 86.709,261.690 87.314 C 261.454 87.801,261.170 89.978,261.059 92.151 C 260.949 94.324,260.665 96.295,260.429 96.531 C 260.193 96.767,260.000 97.453,260.000 98.056 C 260.000 98.659,259.840 99.252,259.644 99.373 C 259.449 99.494,259.172 100.089,259.028 100.696 C 258.607 102.483,255.943 107.665,254.518 109.467 C 253.793 110.384,253.200 111.282,253.200 111.461 C 253.200 111.890,243.911 121.200,243.483 121.200 C 243.301 121.200,242.472 121.747,241.640 122.416 C 239.896 123.818,231.730 127.993,230.724 127.997 C 230.352 127.999,229.946 128.164,229.822 128.365 C 229.697 128.566,228.878 128.852,228.000 129.000 C 227.122 129.148,226.303 129.434,226.178 129.635 C 226.054 129.836,225.279 130.000,224.456 130.000 C 223.633 130.000,222.770 130.190,222.538 130.422 C 222.306 130.654,219.795 130.948,216.958 131.076 C 214.121 131.203,211.569 131.490,211.286 131.714 C 210.937 131.991,210.489 131.983,209.886 131.691 C 209.399 131.455,206.766 131.165,204.037 131.048 C 201.307 130.930,198.886 130.646,198.657 130.417 C 198.427 130.187,197.657 130.000,196.944 130.000 C 196.231 130.000,195.551 129.844,195.432 129.653 C 195.314 129.461,194.496 129.190,193.614 129.049 C 192.732 128.908,191.423 128.464,190.705 128.062 C 189.987 127.661,188.871 127.200,188.224 127.039 C 187.578 126.878,186.588 126.422,186.024 126.026 C 185.461 125.629,184.550 125.170,184.000 125.006 C 183.450 124.842,182.427 124.278,181.727 123.754 C 181.026 123.229,180.293 122.800,180.096 122.800 C 179.900 122.800,179.317 122.350,178.800 121.800 C 178.283 121.250,177.664 120.800,177.423 120.800 C 176.871 120.800,168.523 112.452,167.784 111.160 C 167.482 110.632,167.058 109.812,166.842 109.339 C 166.626 108.865,166.269 108.366,166.048 108.229 C 165.526 107.907,162.800 102.461,162.800 101.741 C 162.800 101.437,162.592 100.787,162.338 100.295 C 162.083 99.803,161.708 99.063,161.504 98.651 C 161.299 98.239,161.032 96.929,160.909 95.739 C 160.786 94.550,160.531 93.481,160.343 93.365 C 159.895 93.088,159.895 80.112,160.344 79.835 C 160.533 79.718,160.805 78.621,160.949 77.398 C 161.093 76.174,161.388 74.819,161.605 74.386 C 161.822 73.954,162.180 73.242,162.400 72.805 C 162.620 72.368,162.800 71.806,162.800 71.555 C 162.800 70.417,165.750 65.216,167.196 63.803 C 168.078 62.942,168.800 62.058,168.800 61.838 C 168.800 61.289,171.254 58.800,171.795 58.800 C 172.036 58.800,173.028 57.990,174.000 57.000 C 174.972 56.010,175.921 55.200,176.110 55.200 C 176.299 55.200,177.078 54.723,177.842 54.141 C 179.524 52.858,187.459 48.800,188.286 48.800 C 188.611 48.800,189.354 48.462,189.938 48.048 C 190.522 47.635,191.945 47.168,193.100 47.011 C 194.254 46.854,195.300 46.562,195.423 46.363 C 195.546 46.163,196.231 46.000,196.944 46.000 C 197.657 46.000,198.411 45.832,198.620 45.627 C 199.549 44.715,222.767 44.607,223.670 45.510 M191.400 137.600 C 191.536 137.820,192.141 138.000,192.744 138.000 C 193.347 138.000,194.015 138.175,194.229 138.389 C 194.443 138.603,195.924 138.899,197.521 139.047 C 199.118 139.196,200.520 139.471,200.636 139.659 C 200.911 140.104,218.288 140.105,218.563 139.660 C 218.679 139.473,220.166 139.202,221.868 139.058 C 223.571 138.914,225.143 138.617,225.362 138.398 C 225.581 138.179,226.253 138.000,226.856 138.000 C 227.459 138.000,228.064 137.820,228.200 137.600 C 228.794 136.639,229.200 137.361,229.200 139.376 C 229.200 140.573,229.380 141.664,229.600 141.800 C 229.820 141.936,230.000 142.746,230.000 143.600 C 230.000 144.454,230.163 145.254,230.363 145.377 C 230.562 145.500,230.854 147.314,231.011 149.407 C 231.168 151.500,231.454 153.310,231.648 153.430 C 231.842 153.549,232.000 154.256,232.000 155.000 C 232.000 155.744,232.158 156.451,232.352 156.570 C 232.546 156.690,232.832 158.500,232.989 160.593 C 233.146 162.686,233.438 164.500,233.637 164.623 C 233.837 164.746,234.000 165.546,234.000 166.400 C 234.000 167.254,234.158 168.051,234.352 168.170 C 234.546 168.290,234.832 169.920,234.988 171.793 C 235.144 173.665,235.435 175.298,235.636 175.422 C 235.836 175.546,236.000 176.436,236.000 177.400 C 236.000 178.364,236.159 179.251,236.352 179.371 C 236.546 179.490,236.832 180.940,236.986 182.592 C 237.141 184.243,237.433 185.696,237.634 185.821 C 237.835 185.945,238.000 186.746,238.000 187.600 C 238.000 188.454,238.159 189.251,238.352 189.371 C 238.546 189.490,238.832 190.940,238.986 192.592 C 239.141 194.243,239.433 195.696,239.634 195.821 C 239.835 195.945,240.000 196.926,240.000 198.000 C 240.000 199.074,240.159 200.051,240.353 200.171 C 240.547 200.291,240.831 201.559,240.984 202.990 C 241.137 204.421,241.429 205.694,241.631 205.819 C 241.834 205.945,242.000 206.746,242.000 207.600 C 242.000 208.454,242.159 209.251,242.352 209.371 C 242.546 209.490,242.832 210.940,242.986 212.592 C 243.141 214.243,243.433 215.696,243.634 215.821 C 243.835 215.945,244.000 216.566,244.000 217.200 C 244.000 217.834,244.156 218.449,244.347 218.568 C 244.539 218.686,244.819 220.042,244.971 221.582 C 245.122 223.122,245.416 224.486,245.623 224.614 C 245.830 224.742,246.000 225.366,246.000 226.000 C 246.000 226.634,246.156 227.249,246.347 227.368 C 246.539 227.486,246.819 228.842,246.971 230.382 C 247.122 231.922,247.416 233.286,247.623 233.414 C 247.830 233.542,248.000 234.166,248.000 234.800 C 248.000 235.434,248.156 236.049,248.347 236.167 C 248.538 236.285,248.813 237.279,248.959 238.375 C 249.104 239.470,249.398 240.475,249.612 240.607 C 249.825 240.739,250.000 241.366,250.000 242.000 C 250.000 242.634,250.170 243.258,250.377 243.386 C 250.584 243.514,250.875 244.427,251.023 245.414 C 251.171 246.402,251.452 247.308,251.646 247.429 C 251.841 247.549,252.000 248.166,252.000 248.800 C 252.000 249.434,252.164 250.054,252.365 250.178 C 252.566 250.303,252.852 251.122,253.000 252.000 C 253.148 252.878,253.434 253.697,253.635 253.822 C 253.836 253.946,254.000 254.476,254.000 255.000 C 254.000 255.524,254.180 256.064,254.400 256.200 C 254.620 256.336,254.800 256.724,254.800 257.063 C 254.800 257.402,255.049 258.246,255.353 258.940 C 255.656 259.633,256.196 260.857,256.553 261.660 C 256.909 262.464,257.200 263.278,257.200 263.469 C 257.200 263.973,262.713 274.835,263.345 275.575 C 263.639 275.919,264.003 276.470,264.155 276.800 C 264.682 277.943,265.406 279.047,266.700 280.677 C 267.415 281.578,268.000 282.661,268.000 283.083 C 268.000 283.871,269.929 286.000,270.643 286.000 C 270.863 286.000,271.654 286.630,272.400 287.400 C 273.146 288.170,273.926 288.800,274.133 288.800 C 274.340 288.800,275.817 289.970,277.415 291.400 C 279.012 292.830,280.486 294.000,280.690 294.000 C 280.894 294.000,281.483 294.450,282.000 295.000 C 282.517 295.550,283.106 296.000,283.310 296.000 C 283.514 296.000,284.988 297.170,286.585 298.600 C 288.183 300.030,289.660 301.200,289.867 301.200 C 290.074 301.200,290.854 301.830,291.600 302.600 C 292.346 303.370,293.117 304.000,293.313 304.000 C 293.508 304.000,294.883 305.080,296.369 306.400 C 297.854 307.720,299.224 308.800,299.413 308.800 C 299.602 308.800,300.250 309.273,300.853 309.850 C 301.456 310.428,302.345 311.103,302.830 311.350 C 303.314 311.598,303.685 311.980,303.655 312.200 C 303.579 312.755,262.796 312.956,262.244 312.404 C 261.976 312.136,241.312 312.000,200.744 312.000 C 160.444 312.000,139.563 311.864,139.400 311.600 C 139.240 311.341,131.346 311.200,117.025 311.200 C 97.845 311.200,94.832 311.120,94.400 310.600 C 94.126 310.270,93.429 309.994,92.851 309.987 C 91.505 309.971,92.796 308.806,94.176 308.791 C 94.629 308.786,95.450 308.430,96.000 308.000 C 96.550 307.570,97.371 307.214,97.824 307.209 C 98.276 307.204,98.996 306.936,99.424 306.613 C 99.851 306.290,100.467 306.020,100.794 306.013 C 101.121 306.006,102.291 305.568,103.394 305.040 C 104.497 304.512,106.120 303.783,107.000 303.420 C 107.880 303.058,108.960 302.562,109.400 302.318 C 110.640 301.631,111.301 301.297,112.600 300.699 C 113.260 300.396,114.160 299.934,114.600 299.674 C 115.040 299.413,115.850 299.023,116.400 298.807 C 116.950 298.591,118.120 297.968,119.000 297.423 C 119.880 296.878,121.177 296.138,121.882 295.779 C 122.586 295.420,123.374 294.873,123.631 294.563 C 123.888 294.253,124.315 294.000,124.579 294.000 C 124.844 294.000,125.483 293.550,126.000 293.000 C 126.517 292.450,127.180 292.000,127.475 292.000 C 128.201 292.000,142.235 278.053,142.771 276.799 C 143.330 275.491,143.932 274.545,145.443 272.600 C 146.126 271.720,146.822 270.550,146.989 270.000 C 147.156 269.450,147.684 268.460,148.163 267.800 C 149.329 266.192,153.186 258.195,153.209 257.340 C 153.214 257.153,153.570 256.550,154.000 256.000 C 154.430 255.450,154.786 254.629,154.791 254.176 C 154.796 253.724,155.064 253.004,155.387 252.576 C 155.710 252.149,155.980 251.406,155.987 250.924 C 155.994 250.442,156.180 249.936,156.400 249.800 C 156.620 249.664,156.800 249.276,156.800 248.937 C 156.800 248.371,157.583 246.330,158.406 244.749 C 158.593 244.391,158.873 243.401,159.028 242.549 C 159.184 241.697,159.621 240.550,160.000 240.000 C 160.379 239.450,160.816 238.303,160.972 237.451 C 161.127 236.599,161.401 235.609,161.581 235.251 C 162.403 233.610,162.775 232.469,163.027 230.815 C 163.176 229.834,163.485 228.664,163.712 228.215 C 164.668 226.328,164.797 225.959,165.045 224.409 C 165.188 223.514,165.461 222.686,165.653 222.568 C 165.844 222.449,166.000 221.834,166.000 221.200 C 166.000 220.566,166.164 219.946,166.365 219.822 C 166.566 219.697,166.852 218.878,167.000 218.000 C 167.148 217.122,167.434 216.303,167.635 216.178 C 167.836 216.054,168.000 215.434,168.000 214.800 C 168.000 214.166,168.163 213.546,168.363 213.423 C 168.562 213.300,168.854 212.261,169.012 211.116 C 169.169 209.970,169.435 208.755,169.602 208.416 C 170.409 206.784,170.776 205.660,171.012 204.102 C 171.154 203.168,171.434 202.303,171.635 202.178 C 171.836 202.054,172.000 201.434,172.000 200.800 C 172.000 200.166,172.167 199.544,172.372 199.417 C 172.577 199.291,172.868 198.198,173.019 196.988 C 173.170 195.779,173.452 194.691,173.647 194.571 C 173.841 194.451,174.000 193.834,174.000 193.200 C 174.000 192.566,174.175 191.939,174.388 191.807 C 174.602 191.675,174.896 190.670,175.041 189.575 C 175.187 188.479,175.462 187.485,175.653 187.367 C 175.844 187.249,176.000 186.634,176.000 186.000 C 176.000 185.366,176.175 184.739,176.388 184.607 C 176.602 184.475,176.896 183.470,177.041 182.375 C 177.187 181.279,177.462 180.285,177.653 180.167 C 177.844 180.049,178.000 179.524,178.000 179.000 C 178.000 178.476,178.159 177.949,178.353 177.829 C 178.548 177.709,178.834 176.589,178.990 175.341 C 179.146 174.093,179.416 172.785,179.590 172.436 C 180.401 170.807,180.774 169.669,181.012 168.102 C 181.154 167.168,181.434 166.303,181.635 166.178 C 181.836 166.054,182.000 165.434,182.000 164.800 C 182.000 164.166,182.159 163.549,182.353 163.429 C 182.548 163.309,182.830 162.221,182.981 161.012 C 183.132 159.802,183.423 158.709,183.628 158.583 C 183.833 158.456,184.000 157.834,184.000 157.200 C 184.000 156.566,184.156 155.951,184.347 155.833 C 184.538 155.715,184.813 154.721,184.959 153.625 C 185.104 152.530,185.398 151.525,185.612 151.393 C 185.825 151.261,186.000 150.634,186.000 150.000 C 186.000 149.366,186.175 148.739,186.388 148.607 C 186.602 148.475,186.896 147.470,187.041 146.375 C 187.187 145.279,187.462 144.285,187.653 144.167 C 187.844 144.049,188.000 143.434,188.000 142.800 C 188.000 142.166,188.156 141.551,188.347 141.432 C 188.539 141.314,188.815 140.466,188.962 139.547 C 189.331 137.243,190.568 136.254,191.400 137.600 M261.780 315.650 C 261.989 315.843,272.446 316.000,285.019 316.000 C 309.779 316.000,309.078 315.941,311.190 318.190 C 311.712 318.745,312.359 319.200,312.627 319.200 C 313.797 319.200,313.849 320.878,312.789 324.436 L 311.978 327.159 225.689 326.949 C 173.524 326.822,139.084 326.591,138.600 326.365 C 138.141 326.151,127.925 325.951,114.620 325.896 L 91.440 325.800 90.896 323.400 C 89.744 318.323,89.600 317.554,89.600 316.461 C 89.600 315.841,89.711 315.222,89.847 315.087 C 90.236 314.697,261.354 315.258,261.780 315.650 M138.600 329.600 C 138.763 329.864,159.863 330.000,200.600 330.000 C 241.337 330.000,262.437 330.136,262.600 330.400 C 262.760 330.660,271.340 330.800,287.031 330.800 L 311.215 330.800 310.968 331.900 C 310.831 332.505,310.388 333.474,309.983 334.053 C 309.283 335.053,307.757 340.828,307.514 343.400 L 307.400 344.600 294.025 344.705 C 285.380 344.774,280.508 344.668,280.245 344.405 C 279.977 344.137,266.368 344.000,239.944 344.000 C 213.777 344.000,199.962 343.862,199.800 343.600 C 199.638 343.338,186.300 343.180,161.276 343.143 C 140.224 343.111,116.790 342.976,109.200 342.843 L 95.400 342.600 95.176 340.000 C 95.052 338.570,94.667 336.950,94.319 336.400 C 93.971 335.850,93.570 334.500,93.428 333.400 C 93.286 332.300,93.072 330.905,92.953 330.300 L 92.736 329.200 115.545 329.200 C 130.319 329.200,138.440 329.341,138.600 329.600 " stroke="none" fill="#fbfbfb" fill-rule="evenodd"></path><path id="path1" d="M200.600 45.071 C 199.720 45.171,198.829 45.421,198.620 45.627 C 198.411 45.832,197.657 46.000,196.944 46.000 C 196.231 46.000,195.546 46.163,195.423 46.363 C 195.300 46.562,194.254 46.854,193.100 47.011 C 191.945 47.168,190.522 47.635,189.938 48.048 C 189.354 48.462,188.611 48.800,188.286 48.800 C 187.459 48.800,179.524 52.858,177.842 54.141 C 177.078 54.723,176.299 55.200,176.110 55.200 C 175.921 55.200,174.972 56.010,174.000 57.000 C 173.028 57.990,172.036 58.800,171.795 58.800 C 171.254 58.800,168.800 61.289,168.800 61.838 C 168.800 62.058,168.078 62.942,167.196 63.803 C 165.750 65.216,162.800 70.417,162.800 71.555 C 162.800 71.806,162.620 72.368,162.400 72.805 C 162.180 73.242,161.822 73.954,161.605 74.386 C 161.388 74.819,161.093 76.174,160.949 77.398 C 160.805 78.621,160.533 79.718,160.344 79.835 C 159.895 80.112,159.895 93.088,160.343 93.365 C 160.531 93.481,160.786 94.550,160.909 95.739 C 161.032 96.929,161.299 98.239,161.504 98.651 C 161.708 99.063,162.083 99.803,162.338 100.295 C 162.592 100.787,162.800 101.437,162.800 101.741 C 162.800 102.461,165.526 107.907,166.048 108.229 C 166.269 108.366,166.626 108.865,166.842 109.339 C 167.058 109.812,167.482 110.632,167.784 111.160 C 168.523 112.452,176.871 120.800,177.423 120.800 C 177.664 120.800,178.283 121.250,178.800 121.800 C 179.317 122.350,179.900 122.800,180.096 122.800 C 180.293 122.800,181.026 123.229,181.727 123.754 C 182.427 124.278,183.450 124.842,184.000 125.006 C 184.550 125.170,185.461 125.629,186.024 126.026 C 186.588 126.422,187.578 126.878,188.224 127.039 C 188.871 127.200,189.987 127.661,190.705 128.062 C 191.423 128.464,192.732 128.908,193.614 129.049 C 194.496 129.190,195.314 129.461,195.432 129.653 C 195.551 129.844,196.231 130.000,196.944 130.000 C 197.657 130.000,198.427 130.187,198.657 130.417 C 198.886 130.646,201.307 130.930,204.037 131.048 C 206.766 131.165,209.399 131.455,209.886 131.691 C 210.489 131.983,210.937 131.991,211.286 131.714 C 211.569 131.490,214.121 131.203,216.958 131.076 C 219.795 130.948,222.306 130.654,222.538 130.422 C 222.770 130.190,223.633 130.000,224.456 130.000 C 225.279 130.000,226.054 129.836,226.178 129.635 C 226.303 129.434,227.122 129.148,228.000 129.000 C 228.878 128.852,229.697 128.566,229.822 128.365 C 229.946 128.164,230.352 127.999,230.724 127.997 C 231.730 127.993,239.896 123.818,241.640 122.416 C 242.472 121.747,243.301 121.200,243.483 121.200 C 243.911 121.200,253.200 111.890,253.200 111.461 C 253.200 111.282,253.793 110.384,254.518 109.467 C 255.943 107.665,258.607 102.483,259.028 100.696 C 259.172 100.089,259.449 99.494,259.644 99.373 C 259.840 99.252,260.000 98.659,260.000 98.056 C 260.000 97.453,260.193 96.767,260.429 96.531 C 260.665 96.295,260.949 94.324,261.059 92.151 C 261.170 89.978,261.454 87.801,261.690 87.314 C 261.984 86.709,261.991 86.264,261.713 85.914 C 261.489 85.631,261.207 83.535,261.088 81.255 C 260.968 78.976,260.675 76.915,260.435 76.675 C 260.196 76.436,259.994 75.781,259.987 75.220 C 259.980 74.659,259.710 73.851,259.387 73.424 C 259.064 72.996,258.800 72.304,258.800 71.885 C 258.800 71.466,258.464 70.646,258.052 70.062 C 257.641 69.478,257.170 68.550,257.006 68.000 C 256.842 67.450,256.278 66.427,255.754 65.727 C 255.229 65.026,254.800 64.289,254.800 64.089 C 254.800 63.888,254.440 63.398,254.000 63.000 C 253.560 62.602,253.200 62.073,253.200 61.824 C 253.200 61.259,249.125 57.200,248.557 57.200 C 248.327 57.200,247.717 56.750,247.200 56.200 C 246.683 55.650,246.100 55.200,245.904 55.200 C 245.707 55.200,244.922 54.723,244.158 54.141 C 242.476 52.858,234.541 48.800,233.714 48.800 C 233.389 48.800,232.646 48.462,232.062 48.048 C 231.478 47.635,230.055 47.168,228.900 47.011 C 227.746 46.854,226.700 46.562,226.577 46.363 C 226.454 46.163,225.859 46.000,225.256 46.000 C 224.653 46.000,223.940 45.780,223.670 45.510 C 223.177 45.017,204.243 44.656,200.600 45.071 M189.438 137.538 C 189.323 137.724,189.109 138.628,188.962 139.547 C 188.815 140.466,188.539 141.314,188.347 141.432 C 188.156 141.551,188.000 142.166,188.000 142.800 C 188.000 143.434,187.844 144.049,187.653 144.167 C 187.462 144.285,187.187 145.279,187.041 146.375 C 186.896 147.470,186.602 148.475,186.388 148.607 C 186.175 148.739,186.000 149.366,186.000 150.000 C 186.000 150.634,185.825 151.261,185.612 151.393 C 185.398 151.525,185.104 152.530,184.959 153.625 C 184.813 154.721,184.538 155.715,184.347 155.833 C 184.156 155.951,184.000 156.566,184.000 157.200 C 184.000 157.834,183.833 158.456,183.628 158.583 C 183.423 158.709,183.132 159.802,182.981 161.012 C 182.830 162.221,182.548 163.309,182.353 163.429 C 182.159 163.549,182.000 164.166,182.000 164.800 C 182.000 165.434,181.836 166.054,181.635 166.178 C 181.434 166.303,181.154 167.168,181.012 168.102 C 180.774 169.669,180.401 170.807,179.590 172.436 C 179.416 172.785,179.146 174.093,178.990 175.341 C 178.834 176.589,178.548 177.709,178.353 177.829 C 178.159 177.949,178.000 178.476,178.000 179.000 C 178.000 179.524,177.844 180.049,177.653 180.167 C 177.462 180.285,177.187 181.279,177.041 182.375 C 176.896 183.470,176.602 184.475,176.388 184.607 C 176.175 184.739,176.000 185.366,176.000 186.000 C 176.000 186.634,175.844 187.249,175.653 187.367 C 175.462 187.485,175.187 188.479,175.041 189.575 C 174.896 190.670,174.602 191.675,174.388 191.807 C 174.175 191.939,174.000 192.566,174.000 193.200 C 174.000 193.834,173.841 194.451,173.647 194.571 C 173.452 194.691,173.170 195.779,173.019 196.988 C 172.868 198.198,172.577 199.291,172.372 199.417 C 172.167 199.544,172.000 200.166,172.000 200.800 C 172.000 201.434,171.836 202.054,171.635 202.178 C 171.434 202.303,171.154 203.168,171.012 204.102 C 170.776 205.660,170.409 206.784,169.602 208.416 C 169.435 208.755,169.169 209.970,169.012 211.116 C 168.854 212.261,168.562 213.300,168.363 213.423 C 168.163 213.546,168.000 214.166,168.000 214.800 C 168.000 215.434,167.836 216.054,167.635 216.178 C 167.434 216.303,167.148 217.122,167.000 218.000 C 166.852 218.878,166.566 219.697,166.365 219.822 C 166.164 219.946,166.000 220.566,166.000 221.200 C 166.000 221.834,165.844 222.449,165.653 222.568 C 165.461 222.686,165.188 223.514,165.045 224.409 C 164.797 225.959,164.668 226.328,163.712 228.215 C 163.485 228.664,163.176 229.834,163.027 230.815 C 162.775 232.469,162.403 233.610,161.581 235.251 C 161.401 235.609,161.127 236.599,160.972 237.451 C 160.816 238.303,160.379 239.450,160.000 240.000 C 159.621 240.550,159.184 241.697,159.028 242.549 C 158.873 243.401,158.593 244.391,158.406 244.749 C 157.583 246.330,156.800 248.371,156.800 248.937 C 156.800 249.276,156.620 249.664,156.400 249.800 C 156.180 249.936,155.994 250.442,155.987 250.924 C 155.980 251.406,155.710 252.149,155.387 252.576 C 155.064 253.004,154.796 253.724,154.791 254.176 C 154.786 254.629,154.430 255.450,154.000 256.000 C 153.570 256.550,153.214 257.153,153.209 257.340 C 153.186 258.195,149.329 266.192,148.163 267.800 C 147.684 268.460,147.156 269.450,146.989 270.000 C 146.822 270.550,146.126 271.720,145.443 272.600 C 143.932 274.545,143.330 275.491,142.771 276.799 C 142.235 278.053,128.201 292.000,127.475 292.000 C 127.180 292.000,126.517 292.450,126.000 293.000 C 125.483 293.550,124.844 294.000,124.579 294.000 C 124.315 294.000,123.888 294.253,123.631 294.563 C 123.374 294.873,122.586 295.420,121.882 295.779 C 121.177 296.138,119.880 296.878,119.000 297.423 C 118.120 297.968,116.950 298.591,116.400 298.807 C 115.850 299.023,115.040 299.413,114.600 299.674 C 114.160 299.934,113.260 300.396,112.600 300.699 C 111.301 301.297,110.640 301.631,109.400 302.318 C 108.960 302.562,107.880 303.058,107.000 303.420 C 106.120 303.783,104.497 304.512,103.394 305.040 C 102.291 305.568,101.121 306.006,100.794 306.013 C 100.467 306.020,99.851 306.290,99.424 306.613 C 98.996 306.936,98.276 307.204,97.824 307.209 C 97.371 307.214,96.550 307.570,96.000 308.000 C 95.450 308.430,94.629 308.786,94.176 308.791 C 92.796 308.806,91.505 309.971,92.851 309.987 C 93.429 309.994,94.126 310.270,94.400 310.600 C 94.832 311.120,97.845 311.200,117.025 311.200 C 131.346 311.200,139.240 311.341,139.400 311.600 C 139.563 311.864,160.444 312.000,200.744 312.000 C 241.312 312.000,261.976 312.136,262.244 312.404 C 262.796 312.956,303.579 312.755,303.655 312.200 C 303.685 311.980,303.314 311.598,302.830 311.350 C 302.345 311.103,301.456 310.428,300.853 309.850 C 300.250 309.273,299.602 308.800,299.413 308.800 C 299.224 308.800,297.854 307.720,296.369 306.400 C 294.883 305.080,293.508 304.000,293.313 304.000 C 293.117 304.000,292.346 303.370,291.600 302.600 C 290.854 301.830,290.074 301.200,289.867 301.200 C 289.660 301.200,288.183 300.030,286.585 298.600 C 284.988 297.170,283.514 296.000,283.310 296.000 C 283.106 296.000,282.517 295.550,282.000 295.000 C 281.483 294.450,280.894 294.000,280.690 294.000 C 280.486 294.000,279.012 292.830,277.415 291.400 C 275.817 289.970,274.340 288.800,274.133 288.800 C 273.926 288.800,273.146 288.170,272.400 287.400 C 271.654 286.630,270.863 286.000,270.643 286.000 C 269.929 286.000,268.000 283.871,268.000 283.083 C 268.000 282.661,267.415 281.578,266.700 280.677 C 265.406 279.047,264.682 277.943,264.155 276.800 C 264.003 276.470,263.639 275.919,263.345 275.575 C 262.713 274.835,257.200 263.973,257.200 263.469 C 257.200 263.278,256.909 262.464,256.553 261.660 C 256.196 260.857,255.656 259.633,255.353 258.940 C 255.049 258.246,254.800 257.402,254.800 257.063 C 254.800 256.724,254.620 256.336,254.400 256.200 C 254.180 256.064,254.000 255.524,254.000 255.000 C 254.000 254.476,253.836 253.946,253.635 253.822 C 253.434 253.697,253.148 252.878,253.000 252.000 C 252.852 251.122,252.566 250.303,252.365 250.178 C 252.164 250.054,252.000 249.434,252.000 248.800 C 252.000 248.166,251.841 247.549,251.646 247.429 C 251.452 247.308,251.171 246.402,251.023 245.414 C 250.875 244.427,250.584 243.514,250.377 243.386 C 250.170 243.258,250.000 242.634,250.000 242.000 C 250.000 241.366,249.825 240.739,249.612 240.607 C 249.398 240.475,249.104 239.470,248.959 238.375 C 248.813 237.279,248.538 236.285,248.347 236.167 C 248.156 236.049,248.000 235.434,248.000 234.800 C 248.000 234.166,247.830 233.542,247.623 233.414 C 247.416 233.286,247.122 231.922,246.971 230.382 C 246.819 228.842,246.539 227.486,246.347 227.368 C 246.156 227.249,246.000 226.634,246.000 226.000 C 246.000 225.366,245.830 224.742,245.623 224.614 C 245.416 224.486,245.122 223.122,244.971 221.582 C 244.819 220.042,244.539 218.686,244.347 218.568 C 244.156 218.449,244.000 217.834,244.000 217.200 C 244.000 216.566,243.835 215.945,243.634 215.821 C 243.433 215.696,243.141 214.243,242.986 212.592 C 242.832 210.940,242.546 209.490,242.352 209.371 C 242.159 209.251,242.000 208.454,242.000 207.600 C 242.000 206.746,241.834 205.945,241.631 205.819 C 241.429 205.694,241.137 204.421,240.984 202.990 C 240.831 201.559,240.547 200.291,240.353 200.171 C 240.159 200.051,240.000 199.074,240.000 198.000 C 240.000 196.926,239.835 195.945,239.634 195.821 C 239.433 195.696,239.141 194.243,238.986 192.592 C 238.832 190.940,238.546 189.490,238.352 189.371 C 238.159 189.251,238.000 188.454,238.000 187.600 C 238.000 186.746,237.835 185.945,237.634 185.821 C 237.433 185.696,237.141 184.243,236.986 182.592 C 236.832 180.940,236.546 179.490,236.352 179.371 C 236.159 179.251,236.000 178.364,236.000 177.400 C 236.000 176.436,235.836 175.546,235.636 175.422 C 235.435 175.298,235.144 173.665,234.988 171.793 C 234.832 169.920,234.546 168.290,234.352 168.170 C 234.158 168.051,234.000 167.254,234.000 166.400 C 234.000 165.546,233.837 164.746,233.637 164.623 C 233.438 164.500,233.146 162.686,232.989 160.593 C 232.832 158.500,232.546 156.690,232.352 156.570 C 232.158 156.451,232.000 155.744,232.000 155.000 C 232.000 154.256,231.842 153.549,231.648 153.430 C 231.454 153.310,231.168 151.500,231.011 149.407 C 230.854 147.314,230.562 145.500,230.363 145.377 C 230.163 145.254,230.000 144.454,230.000 143.600 C 230.000 142.746,229.820 141.936,229.600 141.800 C 229.380 141.664,229.200 140.573,229.200 139.376 C 229.200 137.361,228.794 136.639,228.200 137.600 C 228.064 137.820,227.459 138.000,226.856 138.000 C 226.253 138.000,225.581 138.179,225.362 138.398 C 225.143 138.617,223.571 138.914,221.868 139.058 C 220.166 139.202,218.679 139.473,218.563 139.660 C 218.288 140.105,200.911 140.104,200.636 139.659 C 200.520 139.471,199.118 139.196,197.521 139.047 C 195.924 138.899,194.443 138.603,194.229 138.389 C 194.015 138.175,193.347 138.000,192.744 138.000 C 192.141 138.000,191.536 137.820,191.400 137.600 C 191.099 137.113,189.728 137.070,189.438 137.538 M89.847 315.087 C 89.711 315.222,89.600 315.841,89.600 316.461 C 89.600 317.554,89.744 318.323,90.896 323.400 L 91.440 325.800 114.620 325.896 C 127.925 325.951,138.141 326.151,138.600 326.365 C 139.084 326.591,173.524 326.822,225.689 326.949 L 311.978 327.159 312.789 324.436 C 313.849 320.878,313.797 319.200,312.627 319.200 C 312.359 319.200,311.712 318.745,311.190 318.190 C 309.078 315.941,309.779 316.000,285.019 316.000 C 272.446 316.000,261.989 315.843,261.780 315.650 C 261.354 315.258,90.236 314.697,89.847 315.087 M92.953 330.300 C 93.072 330.905,93.286 332.300,93.428 333.400 C 93.570 334.500,93.971 335.850,94.319 336.400 C 94.667 336.950,95.052 338.570,95.176 340.000 L 95.400 342.600 109.200 342.843 C 116.790 342.976,140.224 343.111,161.276 343.143 C 186.300 343.180,199.638 343.338,199.800 343.600 C 199.962 343.862,213.777 344.000,239.944 344.000 C 266.368 344.000,279.977 344.137,280.245 344.405 C 280.508 344.668,285.380 344.774,294.025 344.705 L 307.400 344.600 307.514 343.400 C 307.757 340.828,309.283 335.053,309.983 334.053 C 310.388 333.474,310.831 332.505,310.968 331.900 L 311.215 330.800 287.031 330.800 C 271.340 330.800,262.760 330.660,262.600 330.400 C 262.437 330.136,241.337 330.000,200.600 330.000 C 159.863 330.000,138.763 329.864,138.600 329.600 C 138.440 329.341,130.319 329.200,115.545 329.200 L 92.736 329.200 92.953 330.300 " stroke="none" fill="#242424" fill-rule="evenodd"></path></g></svg>