<svg id="svg" version="1.1" xmlns="http://www.w3.org/2000/svg" xmlns:xlink="http://www.w3.org/1999/xlink" width="400" height="400" viewBox="0, 0, 400,400"><g id="svgg"><path id="path0" d="M141.600 45.800 C 141.600 46.272,141.044 46.400,139.000 46.400 C 136.956 46.400,136.400 46.528,136.400 47.000 C 136.400 47.404,135.996 47.600,135.163 47.600 C 134.262 47.600,133.868 47.817,133.716 48.400 C 133.568 48.967,133.170 49.200,132.353 49.200 C 131.595 49.200,131.200 49.405,131.200 49.800 C 131.200 50.130,131.000 50.400,130.756 50.400 C 129.879 50.400,128.414 52.209,128.407 53.300 C 128.402 54.008,128.186 54.400,127.800 54.400 C 127.347 54.400,127.200 54.889,127.200 56.400 C 127.200 58.133,127.093 58.400,126.400 58.400 C 125.634 58.400,125.600 58.667,125.600 64.600 C 125.600 70.533,125.634 70.800,126.400 70.800 C 127.048 70.800,127.200 71.067,127.200 72.200 C 127.200 73.178,127.381 73.600,127.800 73.600 C 128.130 73.600,128.400 73.870,128.400 74.200 C 128.400 74.530,128.659 74.800,128.975 74.800 C 129.331 74.800,129.597 75.295,129.675 76.100 C 129.785 77.243,129.957 77.415,131.100 77.525 C 131.905 77.603,132.400 77.869,132.400 78.225 C 132.400 78.541,132.649 78.800,132.953 78.800 C 133.258 78.800,133.601 79.160,133.716 79.600 C 133.831 80.040,134.212 80.400,134.563 80.400 C 135.662 80.400,135.503 91.427,134.400 91.716 C 133.634 91.916,133.600 92.262,133.600 99.763 C 133.600 106.463,133.513 107.600,133.000 107.600 C 132.485 107.600,132.400 108.844,132.400 116.400 C 132.400 123.956,132.315 125.200,131.800 125.200 C 131.307 125.200,131.200 125.911,131.200 129.200 C 131.200 132.933,131.147 133.200,130.400 133.200 C 129.618 133.200,129.600 133.467,129.600 145.200 C 129.600 155.600,129.520 157.200,129.000 157.200 C 128.485 157.200,128.400 158.422,128.400 165.800 C 128.400 173.178,128.315 174.400,127.800 174.400 C 127.301 174.400,127.200 175.178,127.200 179.000 C 127.200 183.182,126.867 184.593,126.255 183.000 C 126.129 182.670,125.749 182.400,125.413 182.400 C 125.076 182.400,124.800 182.130,124.800 181.800 C 124.800 181.470,124.530 181.200,124.200 181.200 C 123.870 181.200,123.600 181.000,123.600 180.756 C 123.600 180.142,121.910 178.415,121.300 178.407 C 121.025 178.403,120.800 178.130,120.800 177.800 C 120.800 177.470,120.530 177.200,120.200 177.200 C 119.870 177.200,119.600 177.000,119.600 176.756 C 119.600 176.142,117.910 174.415,117.300 174.407 C 117.025 174.403,116.800 174.130,116.800 173.800 C 116.800 173.470,116.530 173.200,116.200 173.200 C 115.781 173.200,115.600 172.778,115.600 171.800 C 115.600 170.822,115.419 170.400,115.000 170.400 C 114.670 170.400,114.400 170.130,114.400 169.800 C 114.400 169.467,114.044 169.200,113.600 169.200 C 113.067 169.200,112.800 168.933,112.800 168.400 C 112.800 167.956,112.533 167.600,112.200 167.600 C 111.870 167.600,111.600 167.330,111.600 167.000 C 111.600 166.670,111.330 166.400,111.000 166.400 C 110.670 166.400,110.400 166.130,110.400 165.800 C 110.400 165.467,110.044 165.200,109.600 165.200 C 109.067 165.200,108.800 164.933,108.800 164.400 C 108.800 163.956,108.533 163.600,108.200 163.600 C 107.870 163.600,107.600 163.330,107.600 163.000 C 107.600 162.670,107.330 162.400,107.000 162.400 C 106.670 162.400,106.400 162.130,106.400 161.800 C 106.400 161.467,106.044 161.200,105.600 161.200 C 105.067 161.200,104.800 160.933,104.800 160.400 C 104.800 159.956,104.533 159.600,104.200 159.600 C 103.870 159.600,103.600 159.330,103.600 159.000 C 103.600 158.670,103.330 158.400,103.000 158.400 C 102.670 158.400,102.400 158.130,102.400 157.800 C 102.400 157.467,102.044 157.200,101.600 157.200 C 101.067 157.200,100.800 156.933,100.800 156.400 C 100.800 155.956,100.533 155.600,100.200 155.600 C 99.870 155.600,99.600 155.330,99.600 155.000 C 99.600 154.670,99.330 154.400,99.000 154.400 C 98.670 154.400,98.400 154.130,98.400 153.800 C 98.400 153.467,98.044 153.200,97.600 153.200 C 97.067 153.200,96.800 152.933,96.800 152.400 C 96.800 151.956,96.533 151.600,96.200 151.600 C 95.870 151.600,95.600 151.330,95.600 151.000 C 95.600 150.670,95.330 150.400,95.000 150.400 C 94.596 150.400,94.400 149.996,94.400 149.163 C 94.400 148.262,94.183 147.868,93.600 147.716 C 93.160 147.601,92.800 147.258,92.800 146.953 C 92.800 146.649,92.530 146.400,92.200 146.400 C 91.870 146.400,91.600 146.130,91.600 145.800 C 91.600 145.470,91.330 145.200,91.000 145.200 C 90.670 145.200,90.400 144.913,90.400 144.563 C 90.400 144.212,90.040 143.831,89.600 143.716 C 89.160 143.601,88.800 143.258,88.800 142.953 C 88.800 142.649,88.530 142.400,88.200 142.400 C 87.870 142.400,87.600 142.130,87.600 141.800 C 87.600 141.470,87.330 141.200,87.000 141.200 C 86.670 141.200,86.400 140.913,86.400 140.563 C 86.400 140.212,86.040 139.831,85.600 139.716 C 85.160 139.601,84.800 139.258,84.800 138.953 C 84.800 138.649,84.530 138.400,84.200 138.400 C 83.870 138.400,83.600 138.130,83.600 137.800 C 83.600 137.470,83.330 137.200,83.000 137.200 C 82.670 137.200,82.400 136.913,82.400 136.563 C 82.400 136.212,82.040 135.831,81.600 135.716 C 81.160 135.601,80.800 135.258,80.800 134.953 C 80.800 134.649,80.530 134.400,80.200 134.400 C 79.870 134.400,79.600 134.130,79.600 133.800 C 79.600 133.470,79.330 133.200,79.000 133.200 C 78.670 133.200,78.400 132.913,78.400 132.563 C 78.400 132.212,78.040 131.831,77.600 131.716 C 77.160 131.601,76.800 131.258,76.800 130.953 C 76.800 130.649,76.530 130.400,76.200 130.400 C 75.870 130.400,75.600 130.130,75.600 129.800 C 75.600 129.470,75.330 129.200,75.000 129.200 C 74.670 129.200,74.400 128.913,74.400 128.563 C 74.400 128.212,74.040 127.831,73.600 127.716 C 73.033 127.568,72.800 127.170,72.800 126.353 C 72.800 125.595,72.595 125.200,72.200 125.200 C 71.870 125.200,71.597 124.975,71.593 124.700 C 71.585 124.090,69.858 122.400,69.244 122.400 C 69.000 122.400,68.800 122.130,68.800 121.800 C 68.800 121.470,68.530 121.200,68.200 121.200 C 67.870 121.200,67.597 120.975,67.593 120.700 C 67.585 120.090,65.858 118.400,65.244 118.400 C 65.000 118.400,64.800 118.130,64.800 117.800 C 64.800 117.470,64.530 117.200,64.200 117.200 C 63.870 117.200,63.597 116.975,63.593 116.700 C 63.585 116.090,61.858 114.400,61.244 114.400 C 61.000 114.400,60.800 114.130,60.800 113.800 C 60.800 113.470,60.530 113.200,60.200 113.200 C 59.870 113.200,59.597 112.975,59.593 112.700 C 59.585 112.090,57.858 110.400,57.244 110.400 C 56.937 110.400,56.800 108.366,56.800 103.800 C 56.800 98.200,56.709 97.200,56.200 97.200 C 55.747 97.200,55.600 96.711,55.600 95.200 C 55.600 93.689,55.453 93.200,55.000 93.200 C 54.596 93.200,54.400 92.796,54.400 91.963 C 54.400 91.062,54.183 90.668,53.600 90.516 C 53.160 90.401,52.800 90.058,52.800 89.753 C 52.800 89.410,52.362 89.200,51.647 89.200 C 50.830 89.200,50.432 88.967,50.284 88.400 C 50.169 87.960,49.788 87.600,49.437 87.600 C 49.087 87.600,48.800 87.330,48.800 87.000 C 48.800 86.547,48.311 86.400,46.800 86.400 C 45.289 86.400,44.800 86.253,44.800 85.800 C 44.800 85.285,43.556 85.200,36.000 85.200 C 28.444 85.200,27.200 85.285,27.200 85.800 C 27.200 86.253,26.711 86.400,25.200 86.400 C 23.764 86.400,23.200 86.556,23.200 86.953 C 23.200 87.258,22.840 87.601,22.400 87.716 C 21.960 87.831,21.600 88.212,21.600 88.563 C 21.600 89.004,21.231 89.200,20.400 89.200 C 19.645 89.200,19.200 89.405,19.200 89.753 C 19.200 90.058,18.840 90.401,18.400 90.516 C 17.817 90.668,17.600 91.062,17.600 91.963 C 17.600 92.796,17.404 93.200,17.000 93.200 C 16.547 93.200,16.400 93.689,16.400 95.200 C 16.400 96.711,16.253 97.200,15.800 97.200 C 15.300 97.200,15.200 98.000,15.200 102.000 C 15.200 106.000,15.300 106.800,15.800 106.800 C 16.276 106.800,16.400 107.378,16.400 109.600 C 16.400 111.822,16.524 112.400,17.000 112.400 C 17.400 112.400,17.600 112.800,17.600 113.600 C 17.600 114.533,17.778 114.800,18.400 114.800 C 18.933 114.800,19.200 115.067,19.200 115.600 C 19.200 116.044,19.467 116.400,19.800 116.400 C 20.130 116.400,20.400 116.670,20.400 117.000 C 20.400 117.330,20.670 117.600,21.000 117.600 C 21.330 117.600,21.600 117.870,21.600 118.200 C 21.600 118.533,21.956 118.800,22.400 118.800 C 22.933 118.800,23.200 119.067,23.200 119.600 C 23.200 120.044,23.467 120.400,23.800 120.400 C 24.130 120.400,24.400 120.670,24.400 121.000 C 24.400 121.330,24.670 121.600,25.000 121.600 C 25.330 121.600,25.600 121.870,25.600 122.200 C 25.600 122.533,25.956 122.800,26.400 122.800 C 27.048 122.800,27.200 123.067,27.200 124.200 C 27.200 125.178,27.381 125.600,27.800 125.600 C 28.272 125.600,28.400 126.156,28.400 128.200 C 28.400 130.244,28.528 130.800,29.000 130.800 C 29.473 130.800,29.600 131.360,29.600 133.437 C 29.600 135.738,29.702 136.102,30.400 136.284 C 31.095 136.466,31.200 136.830,31.200 139.047 C 31.200 141.050,31.329 141.600,31.800 141.600 C 32.272 141.600,32.400 142.156,32.400 144.200 C 32.400 146.244,32.528 146.800,33.000 146.800 C 33.473 146.800,33.600 147.360,33.600 149.437 C 33.600 151.738,33.702 152.102,34.400 152.284 C 35.115 152.471,35.200 152.830,35.200 155.647 C 35.200 158.183,35.317 158.800,35.800 158.800 C 36.276 158.800,36.400 159.378,36.400 161.600 C 36.400 163.822,36.524 164.400,37.000 164.400 C 37.472 164.400,37.600 164.956,37.600 167.000 C 37.600 169.333,37.682 169.600,38.400 169.600 C 39.118 169.600,39.200 169.867,39.200 172.200 C 39.200 174.244,39.328 174.800,39.800 174.800 C 40.276 174.800,40.400 175.378,40.400 177.600 C 40.400 179.822,40.524 180.400,41.000 180.400 C 41.472 180.400,41.600 180.956,41.600 183.000 C 41.600 185.333,41.682 185.600,42.400 185.600 C 43.118 185.600,43.200 185.867,43.200 188.200 C 43.200 190.244,43.328 190.800,43.800 190.800 C 44.276 190.800,44.400 191.378,44.400 193.600 C 44.400 195.822,44.524 196.400,45.000 196.400 C 45.472 196.400,45.600 196.956,45.600 199.000 C 45.600 201.333,45.682 201.600,46.400 201.600 C 47.118 201.600,47.200 201.867,47.200 204.200 C 47.200 206.244,47.328 206.800,47.800 206.800 C 48.276 206.800,48.400 207.378,48.400 209.600 C 48.400 211.822,48.524 212.400,49.000 212.400 C 49.472 212.400,49.600 212.956,49.600 215.000 C 49.600 217.333,49.682 217.600,50.400 217.600 C 51.118 217.600,51.200 217.867,51.200 220.200 C 51.200 222.244,51.328 222.800,51.800 222.800 C 52.276 222.800,52.400 223.378,52.400 225.600 C 52.400 227.822,52.524 228.400,53.000 228.400 C 53.483 228.400,53.600 229.022,53.600 231.600 C 53.600 234.533,53.667 234.800,54.400 234.800 C 55.124 234.800,55.200 235.067,55.200 237.600 C 55.200 239.822,55.324 240.400,55.800 240.400 C 56.272 240.400,56.400 240.956,56.400 243.000 C 56.400 245.044,56.528 245.600,57.000 245.600 C 57.472 245.600,57.600 246.156,57.600 248.200 C 57.600 250.533,57.682 250.800,58.400 250.800 C 59.124 250.800,59.200 251.067,59.200 253.600 C 59.200 255.822,59.324 256.400,59.800 256.400 C 60.272 256.400,60.400 256.956,60.400 259.000 C 60.400 261.044,60.528 261.600,61.000 261.600 C 61.472 261.600,61.600 262.156,61.600 264.200 C 61.600 266.533,61.682 266.800,62.400 266.800 C 63.147 266.800,63.200 267.067,63.200 270.800 C 63.200 274.089,63.307 274.800,63.800 274.800 C 64.219 274.800,64.400 275.222,64.400 276.200 C 64.400 277.178,64.581 277.600,65.000 277.600 C 65.472 277.600,65.600 278.156,65.600 280.200 C 65.600 282.533,65.682 282.800,66.400 282.800 C 67.124 282.800,67.200 283.067,67.200 285.600 C 67.200 287.822,67.324 288.400,67.800 288.400 C 68.272 288.400,68.400 288.956,68.400 291.000 C 68.400 293.044,68.528 293.600,69.000 293.600 C 69.472 293.600,69.600 294.156,69.600 296.200 C 69.600 298.533,69.682 298.800,70.400 298.800 C 71.124 298.800,71.200 299.067,71.200 301.600 C 71.200 303.822,71.324 304.400,71.800 304.400 C 72.272 304.400,72.400 304.956,72.400 307.000 C 72.400 309.044,72.528 309.600,73.000 309.600 C 73.484 309.600,73.600 310.226,73.600 312.837 C 73.600 315.738,73.683 316.097,74.400 316.284 C 75.095 316.466,75.200 316.830,75.200 319.047 C 75.200 321.050,75.329 321.600,75.800 321.600 C 76.272 321.600,76.400 322.156,76.400 324.200 C 76.400 326.244,76.528 326.800,77.000 326.800 C 77.473 326.800,77.600 327.360,77.600 329.437 C 77.600 331.738,77.702 332.102,78.400 332.284 C 79.095 332.466,79.200 332.830,79.200 335.047 C 79.200 337.050,79.329 337.600,79.800 337.600 C 80.272 337.600,80.400 338.156,80.400 340.200 C 80.400 342.244,80.528 342.800,81.000 342.800 C 81.473 342.800,81.600 343.360,81.600 345.437 C 81.600 347.738,81.702 348.102,82.400 348.284 C 83.095 348.466,83.200 348.830,83.200 351.047 C 83.200 353.050,83.329 353.600,83.800 353.600 C 84.130 353.600,84.400 353.870,84.400 354.200 C 84.400 354.732,97.889 354.800,203.400 354.800 C 308.911 354.800,322.400 354.732,322.400 354.200 C 322.400 353.870,322.670 353.600,323.000 353.600 C 323.499 353.600,323.600 352.822,323.600 349.000 C 323.600 345.178,323.701 344.400,324.200 344.400 C 324.676 344.400,324.800 343.822,324.800 341.600 C 324.800 339.067,324.876 338.800,325.600 338.800 C 326.318 338.800,326.400 338.533,326.400 336.200 C 326.400 334.156,326.528 333.600,327.000 333.600 C 327.486 333.600,327.600 332.956,327.600 330.200 C 327.600 327.444,327.714 326.800,328.200 326.800 C 328.595 326.800,328.800 326.405,328.800 325.647 C 328.800 324.830,329.033 324.432,329.600 324.284 C 330.330 324.093,330.400 323.738,330.400 320.237 C 330.400 317.093,330.508 316.400,331.000 316.400 C 331.486 316.400,331.600 315.756,331.600 313.000 C 331.600 310.244,331.714 309.600,332.200 309.600 C 332.671 309.600,332.800 309.050,332.800 307.047 C 332.800 304.830,332.905 304.466,333.600 304.284 C 334.317 304.097,334.400 303.738,334.400 300.837 C 334.400 298.226,334.516 297.600,335.000 297.600 C 335.419 297.600,335.600 297.178,335.600 296.200 C 335.600 295.222,335.781 294.800,336.200 294.800 C 336.693 294.800,336.800 294.089,336.800 290.800 C 336.800 287.067,336.853 286.800,337.600 286.800 C 338.333 286.800,338.400 286.533,338.400 283.600 C 338.400 281.022,338.517 280.400,339.000 280.400 C 339.419 280.400,339.600 279.978,339.600 279.000 C 339.600 278.022,339.781 277.600,340.200 277.600 C 340.698 277.600,340.800 276.827,340.800 273.047 C 340.800 268.830,340.859 268.478,341.600 268.284 C 342.298 268.102,342.400 267.738,342.400 265.437 C 342.400 263.360,342.527 262.800,343.000 262.800 C 343.472 262.800,343.600 262.244,343.600 260.200 C 343.600 258.156,343.728 257.600,344.200 257.600 C 344.686 257.600,344.800 256.956,344.800 254.200 C 344.800 251.067,344.863 250.800,345.600 250.800 C 346.222 250.800,346.400 250.533,346.400 249.600 C 346.400 248.800,346.600 248.400,347.000 248.400 C 347.500 248.400,347.600 247.600,347.600 243.600 C 347.600 239.600,347.700 238.800,348.200 238.800 C 348.672 238.800,348.800 238.244,348.800 236.200 C 348.800 233.867,348.882 233.600,349.600 233.600 C 350.318 233.600,350.400 233.333,350.400 231.000 C 350.400 228.956,350.528 228.400,351.000 228.400 C 351.486 228.400,351.600 227.756,351.600 225.000 C 351.600 222.244,351.714 221.600,352.200 221.600 C 352.619 221.600,352.800 221.178,352.800 220.200 C 352.800 219.067,352.952 218.800,353.600 218.800 C 354.347 218.800,354.400 218.533,354.400 214.800 C 354.400 211.511,354.507 210.800,355.000 210.800 C 355.483 210.800,355.600 210.178,355.600 207.600 C 355.600 205.022,355.717 204.400,356.200 204.400 C 356.676 204.400,356.800 203.822,356.800 201.600 C 356.800 199.067,356.876 198.800,357.600 198.800 C 358.333 198.800,358.400 198.533,358.400 195.600 C 358.400 193.022,358.517 192.400,359.000 192.400 C 359.476 192.400,359.600 191.822,359.600 189.600 C 359.600 187.378,359.724 186.800,360.200 186.800 C 360.672 186.800,360.800 186.244,360.800 184.200 C 360.800 181.867,360.882 181.600,361.600 181.600 C 362.337 181.600,362.400 181.333,362.400 178.200 C 362.400 175.444,362.514 174.800,363.000 174.800 C 363.400 174.800,363.600 174.400,363.600 173.600 C 363.600 172.800,363.800 172.400,364.200 172.400 C 364.700 172.400,364.800 171.600,364.800 167.600 C 364.800 163.067,364.844 162.800,365.600 162.800 C 366.318 162.800,366.400 162.533,366.400 160.200 C 366.400 158.156,366.528 157.600,367.000 157.600 C 367.472 157.600,367.600 157.044,367.600 155.000 C 367.600 152.956,367.728 152.400,368.200 152.400 C 368.686 152.400,368.800 151.756,368.800 149.000 C 368.800 145.867,368.863 145.600,369.600 145.600 C 370.248 145.600,370.400 145.333,370.400 144.200 C 370.400 143.222,370.581 142.800,371.000 142.800 C 371.493 142.800,371.600 142.089,371.600 138.800 C 371.600 135.511,371.707 134.800,372.200 134.800 C 372.683 134.800,372.800 134.183,372.800 131.647 C 372.800 128.830,372.885 128.471,373.600 128.284 C 374.298 128.102,374.400 127.738,374.400 125.437 C 374.400 123.360,374.527 122.800,375.000 122.800 C 375.400 122.800,375.600 122.400,375.600 121.600 C 375.600 120.800,375.800 120.400,376.200 120.400 C 376.533 120.400,376.800 120.044,376.800 119.600 C 376.800 119.067,377.067 118.800,377.600 118.800 C 378.044 118.800,378.400 118.533,378.400 118.200 C 378.400 117.870,378.670 117.600,379.000 117.600 C 379.330 117.600,379.600 117.330,379.600 117.000 C 379.600 116.670,379.870 116.400,380.200 116.400 C 380.619 116.400,380.800 115.978,380.800 115.000 C 380.800 113.867,380.952 113.600,381.600 113.600 C 382.248 113.600,382.400 113.333,382.400 112.200 C 382.400 111.222,382.581 110.800,383.000 110.800 C 383.453 110.800,383.600 110.311,383.600 108.800 C 383.600 107.289,383.747 106.800,384.200 106.800 C 384.705 106.800,384.800 105.911,384.800 101.200 C 384.800 96.489,384.705 95.600,384.200 95.600 C 383.755 95.600,383.600 95.132,383.600 93.787 C 383.600 92.545,383.411 91.902,383.000 91.745 C 382.670 91.618,382.400 91.264,382.400 90.957 C 382.400 90.651,382.040 90.400,381.600 90.400 C 380.952 90.400,380.800 90.133,380.800 89.000 C 380.800 88.022,380.619 87.600,380.200 87.600 C 379.870 87.600,379.600 87.330,379.600 87.000 C 379.600 86.581,379.178 86.400,378.200 86.400 C 377.222 86.400,376.800 86.219,376.800 85.800 C 376.800 85.470,376.551 85.200,376.247 85.200 C 375.942 85.200,375.599 84.840,375.484 84.400 C 375.313 83.746,374.938 83.600,373.437 83.600 C 372.071 83.600,371.600 83.446,371.600 83.000 C 371.600 82.486,370.422 82.400,363.400 82.400 C 356.378 82.400,355.200 82.486,355.200 83.000 C 355.200 83.453,354.711 83.600,353.200 83.600 C 351.467 83.600,351.200 83.707,351.200 84.400 C 351.200 85.048,350.933 85.200,349.800 85.200 C 348.822 85.200,348.400 85.381,348.400 85.800 C 348.400 86.130,348.130 86.400,347.800 86.400 C 347.470 86.400,347.200 86.670,347.200 87.000 C 347.200 87.330,346.913 87.600,346.563 87.600 C 346.212 87.600,345.831 87.960,345.716 88.400 C 345.601 88.840,345.258 89.200,344.953 89.200 C 344.649 89.200,344.400 89.470,344.400 89.800 C 344.400 90.130,344.130 90.400,343.800 90.400 C 343.347 90.400,343.200 90.889,343.200 92.400 C 343.200 94.133,343.093 94.400,342.400 94.400 C 341.632 94.400,341.600 94.667,341.600 101.000 C 341.600 106.600,341.509 107.600,341.000 107.600 C 340.667 107.600,340.400 107.956,340.400 108.400 C 340.400 108.844,340.133 109.200,339.800 109.200 C 339.470 109.200,339.200 109.470,339.200 109.800 C 339.200 110.130,339.000 110.400,338.756 110.400 C 338.142 110.400,336.415 112.090,336.407 112.700 C 336.403 112.975,336.130 113.200,335.800 113.200 C 335.470 113.200,335.200 113.449,335.200 113.753 C 335.200 114.058,334.840 114.401,334.400 114.516 C 333.817 114.668,333.600 115.062,333.600 115.963 C 333.600 116.796,333.404 117.200,333.000 117.200 C 332.670 117.200,332.400 117.470,332.400 117.800 C 332.400 118.130,332.130 118.400,331.800 118.400 C 331.470 118.400,331.200 118.670,331.200 119.000 C 331.200 119.330,330.913 119.600,330.563 119.600 C 330.212 119.600,329.831 119.960,329.716 120.400 C 329.601 120.840,329.258 121.200,328.953 121.200 C 328.649 121.200,328.400 121.470,328.400 121.800 C 328.400 122.130,328.130 122.400,327.800 122.400 C 327.470 122.400,327.200 122.670,327.200 123.000 C 327.200 123.330,326.913 123.600,326.563 123.600 C 326.212 123.600,325.831 123.960,325.716 124.400 C 325.601 124.840,325.258 125.200,324.953 125.200 C 324.605 125.200,324.400 125.645,324.400 126.400 C 324.400 127.200,324.200 127.600,323.800 127.600 C 323.467 127.600,323.200 127.956,323.200 128.400 C 323.200 128.933,322.933 129.200,322.400 129.200 C 321.956 129.200,321.600 129.467,321.600 129.800 C 321.600 130.130,321.330 130.400,321.000 130.400 C 320.670 130.400,320.400 130.670,320.400 131.000 C 320.400 131.330,320.130 131.600,319.800 131.600 C 319.467 131.600,319.200 131.956,319.200 132.400 C 319.200 132.933,318.933 133.200,318.400 133.200 C 317.956 133.200,317.600 133.467,317.600 133.800 C 317.600 134.130,317.330 134.400,317.000 134.400 C 316.670 134.400,316.400 134.670,316.400 135.000 C 316.400 135.330,316.130 135.600,315.800 135.600 C 315.467 135.600,315.200 135.956,315.200 136.400 C 315.200 136.933,314.933 137.200,314.400 137.200 C 313.778 137.200,313.600 137.467,313.600 138.400 C 313.600 139.200,313.400 139.600,313.000 139.600 C 312.667 139.600,312.400 139.956,312.400 140.400 C 312.400 140.844,312.133 141.200,311.800 141.200 C 311.470 141.200,311.200 141.470,311.200 141.800 C 311.200 142.130,311.000 142.400,310.756 142.400 C 310.142 142.400,308.415 144.090,308.407 144.700 C 308.403 144.975,308.130 145.200,307.800 145.200 C 307.470 145.200,307.200 145.470,307.200 145.800 C 307.200 146.130,307.000 146.400,306.756 146.400 C 305.879 146.400,304.414 148.209,304.407 149.300 C 304.402 150.008,304.186 150.400,303.800 150.400 C 303.470 150.400,303.200 150.670,303.200 151.000 C 303.200 151.330,302.913 151.600,302.563 151.600 C 302.212 151.600,301.831 151.960,301.716 152.400 C 301.601 152.840,301.258 153.200,300.953 153.200 C 300.649 153.200,300.400 153.470,300.400 153.800 C 300.400 154.130,300.130 154.400,299.800 154.400 C 299.470 154.400,299.200 154.670,299.200 155.000 C 299.200 155.330,298.913 155.600,298.563 155.600 C 298.212 155.600,297.831 155.960,297.716 156.400 C 297.601 156.840,297.258 157.200,296.953 157.200 C 296.649 157.200,296.400 157.470,296.400 157.800 C 296.400 158.130,296.130 158.400,295.800 158.400 C 295.470 158.400,295.200 158.649,295.200 158.953 C 295.200 159.258,294.840 159.601,294.400 159.716 C 293.817 159.868,293.600 160.262,293.600 161.163 C 293.600 161.996,293.404 162.400,293.000 162.400 C 292.670 162.400,292.400 162.670,292.400 163.000 C 292.400 163.330,292.130 163.600,291.800 163.600 C 291.467 163.600,291.200 163.956,291.200 164.400 C 291.200 164.933,290.933 165.200,290.400 165.200 C 289.956 165.200,289.600 165.467,289.600 165.800 C 289.600 166.130,289.330 166.400,289.000 166.400 C 288.670 166.400,288.400 166.670,288.400 167.000 C 288.400 167.330,288.130 167.600,287.800 167.600 C 287.467 167.600,287.200 167.956,287.200 168.400 C 287.200 168.933,286.933 169.200,286.400 169.200 C 285.956 169.200,285.600 169.467,285.600 169.800 C 285.600 170.130,285.330 170.400,285.000 170.400 C 284.581 170.400,284.400 170.822,284.400 171.800 C 284.400 172.778,284.219 173.200,283.800 173.200 C 283.470 173.200,283.200 173.470,283.200 173.800 C 283.200 174.130,282.975 174.403,282.700 174.407 C 282.090 174.415,280.400 176.142,280.400 176.756 C 280.400 177.000,280.130 177.200,279.800 177.200 C 279.470 177.200,279.200 177.470,279.200 177.800 C 279.200 178.130,278.975 178.403,278.700 178.407 C 278.090 178.415,276.400 180.142,276.400 180.756 C 276.400 181.000,276.130 181.200,275.800 181.200 C 275.470 181.200,275.200 181.449,275.200 181.753 C 275.200 182.058,274.840 182.401,274.400 182.516 C 273.817 182.668,273.600 183.062,273.600 183.963 C 273.600 184.796,273.404 185.200,273.000 185.200 C 272.670 185.200,272.400 185.470,272.400 185.800 C 272.400 186.130,272.130 186.400,271.800 186.400 C 271.470 186.400,271.200 186.670,271.200 187.000 C 271.200 187.400,270.800 187.600,270.000 187.600 L 268.800 187.600 268.800 177.600 C 268.800 168.978,268.717 167.600,268.200 167.600 C 267.682 167.600,267.600 166.156,267.600 157.000 C 267.600 147.844,267.518 146.400,267.000 146.400 C 266.477 146.400,266.400 144.440,266.400 131.163 C 266.400 116.262,266.382 115.920,265.600 115.716 C 264.852 115.520,264.800 115.170,264.800 110.353 C 264.800 106.039,264.702 105.200,264.200 105.200 C 263.682 105.200,263.600 103.778,263.600 94.800 C 263.600 85.822,263.682 84.400,264.200 84.400 C 264.533 84.400,264.800 84.044,264.800 83.600 C 264.800 82.952,265.067 82.800,266.200 82.800 C 267.178 82.800,267.600 82.619,267.600 82.200 C 267.600 81.870,267.870 81.600,268.200 81.600 C 268.530 81.600,268.800 81.351,268.800 81.047 C 268.800 80.742,269.160 80.399,269.600 80.284 C 270.040 80.169,270.400 79.788,270.400 79.437 C 270.400 79.087,270.670 78.800,271.000 78.800 C 271.330 78.800,271.600 78.530,271.600 78.200 C 271.600 77.870,271.870 77.600,272.200 77.600 C 272.619 77.600,272.800 77.178,272.800 76.200 C 272.800 75.067,272.952 74.800,273.600 74.800 C 274.374 74.800,274.400 74.533,274.400 66.600 C 274.400 58.667,274.374 58.400,273.600 58.400 C 272.952 58.400,272.800 58.133,272.800 57.000 C 272.800 56.022,272.619 55.600,272.200 55.600 C 271.870 55.600,271.600 55.330,271.600 55.000 C 271.600 54.670,271.330 54.400,271.000 54.400 C 270.670 54.400,270.400 54.130,270.400 53.800 C 270.400 53.467,270.044 53.200,269.600 53.200 C 269.067 53.200,268.800 52.933,268.800 52.400 C 268.800 51.956,268.533 51.600,268.200 51.600 C 267.870 51.600,267.600 51.330,267.600 51.000 C 267.600 50.528,267.044 50.400,265.000 50.400 C 262.956 50.400,262.400 50.272,262.400 49.800 C 262.400 49.283,261.067 49.200,252.800 49.200 C 244.533 49.200,243.200 49.283,243.200 49.800 C 243.200 50.133,242.844 50.400,242.400 50.400 C 241.956 50.400,241.600 50.667,241.600 51.000 C 241.600 51.400,241.200 51.600,240.400 51.600 C 239.467 51.600,239.200 51.778,239.200 52.400 C 239.200 53.048,238.933 53.200,237.800 53.200 C 236.511 53.200,236.400 53.295,236.400 54.400 C 236.400 55.200,236.200 55.600,235.800 55.600 C 235.467 55.600,235.200 55.956,235.200 56.400 C 235.200 56.933,234.933 57.200,234.400 57.200 C 233.707 57.200,233.600 57.467,233.600 59.200 C 233.600 60.711,233.453 61.200,233.000 61.200 C 232.495 61.200,232.400 62.089,232.400 66.800 C 232.400 71.511,232.495 72.400,233.000 72.400 C 233.446 72.400,233.600 72.871,233.600 74.237 C 233.600 75.738,233.746 76.113,234.400 76.284 C 234.840 76.399,235.200 76.742,235.200 77.047 C 235.200 77.351,235.470 77.600,235.800 77.600 C 236.201 77.600,236.400 78.001,236.400 78.813 C 236.400 79.521,236.649 80.121,237.000 80.255 C 237.439 80.424,237.600 81.116,237.600 82.843 C 237.600 84.671,237.465 85.200,237.000 85.200 C 236.528 85.200,236.400 85.756,236.400 87.800 C 236.400 89.844,236.272 90.400,235.800 90.400 C 235.381 90.400,235.200 90.822,235.200 91.800 C 235.200 92.933,235.048 93.200,234.400 93.200 C 233.778 93.200,233.600 93.467,233.600 94.400 C 233.600 95.200,233.400 95.600,233.000 95.600 C 232.524 95.600,232.400 96.178,232.400 98.400 C 232.400 100.622,232.276 101.200,231.800 101.200 C 231.347 101.200,231.200 101.689,231.200 103.200 C 231.200 104.933,231.093 105.200,230.400 105.200 C 229.778 105.200,229.600 105.467,229.600 106.400 C 229.600 107.200,229.400 107.600,229.000 107.600 C 228.581 107.600,228.400 108.022,228.400 109.000 C 228.400 109.978,228.219 110.400,227.800 110.400 C 227.329 110.400,227.200 110.950,227.200 112.953 C 227.200 115.170,227.095 115.534,226.400 115.716 C 225.746 115.887,225.600 116.262,225.600 117.763 C 225.600 119.129,225.446 119.600,225.000 119.600 C 224.581 119.600,224.400 120.022,224.400 121.000 C 224.400 121.978,224.219 122.400,223.800 122.400 C 223.381 122.400,223.200 122.822,223.200 123.800 C 223.200 124.933,223.048 125.200,222.400 125.200 C 221.682 125.200,221.600 125.467,221.600 127.800 C 221.600 129.844,221.472 130.400,221.000 130.400 C 220.547 130.400,220.400 130.889,220.400 132.400 C 220.400 133.911,220.253 134.400,219.800 134.400 C 219.470 134.400,219.200 134.649,219.200 134.953 C 219.200 135.258,218.840 135.601,218.400 135.716 C 217.746 135.887,217.600 136.262,217.600 137.763 C 217.600 139.129,217.446 139.600,217.000 139.600 C 216.524 139.600,216.400 140.178,216.400 142.400 C 216.400 144.622,216.276 145.200,215.800 145.200 C 215.347 145.200,215.200 145.689,215.200 147.200 C 215.200 148.933,215.093 149.200,214.400 149.200 C 213.956 149.200,213.600 149.467,213.600 149.800 C 213.600 150.130,213.330 150.400,213.000 150.400 C 212.547 150.400,212.400 150.889,212.400 152.400 C 212.400 153.911,212.253 154.400,211.800 154.400 C 211.329 154.400,211.200 154.950,211.200 156.953 C 211.200 159.170,211.095 159.534,210.400 159.716 C 209.746 159.887,209.600 160.262,209.600 161.763 C 209.600 163.129,209.446 163.600,209.000 163.600 C 208.667 163.600,208.400 163.956,208.400 164.400 C 208.400 164.844,208.133 165.200,207.800 165.200 C 207.328 165.200,207.200 165.756,207.200 167.800 C 207.200 170.133,207.118 170.400,206.400 170.400 C 205.707 170.400,205.600 170.667,205.600 172.400 C 205.600 173.911,205.453 174.400,205.000 174.400 C 204.581 174.400,204.400 174.822,204.400 175.800 C 204.400 176.778,204.219 177.200,203.800 177.200 C 203.405 177.200,203.200 177.595,203.200 178.353 C 203.200 179.170,202.967 179.568,202.400 179.716 C 201.702 179.898,201.600 180.262,201.600 182.563 C 201.600 184.640,201.473 185.200,201.000 185.200 C 200.547 185.200,200.400 185.689,200.400 187.200 C 200.400 189.067,200.333 189.200,199.400 189.200 C 198.467 189.200,198.400 189.067,198.400 187.200 C 198.400 185.467,198.293 185.200,197.600 185.200 C 196.907 185.200,196.800 184.933,196.800 183.200 C 196.800 181.689,196.653 181.200,196.200 181.200 C 195.747 181.200,195.600 180.711,195.600 179.200 C 195.600 177.689,195.453 177.200,195.000 177.200 C 194.547 177.200,194.400 176.711,194.400 175.200 C 194.400 173.467,194.293 173.200,193.600 173.200 C 192.952 173.200,192.800 172.933,192.800 171.800 C 192.800 170.822,192.619 170.400,192.200 170.400 C 191.781 170.400,191.600 169.978,191.600 169.000 C 191.600 168.022,191.419 167.600,191.000 167.600 C 190.554 167.600,190.400 167.129,190.400 165.763 C 190.400 164.262,190.254 163.887,189.600 163.716 C 188.938 163.543,188.800 163.170,188.800 161.553 C 188.800 160.084,188.651 159.600,188.200 159.600 C 187.747 159.600,187.600 159.111,187.600 157.600 C 187.600 156.089,187.453 155.600,187.000 155.600 C 186.554 155.600,186.400 155.129,186.400 153.763 C 186.400 152.262,186.254 151.887,185.600 151.716 C 184.938 151.543,184.800 151.170,184.800 149.553 C 184.800 148.084,184.651 147.600,184.200 147.600 C 183.747 147.600,183.600 147.111,183.600 145.600 C 183.600 144.089,183.453 143.600,183.000 143.600 C 182.528 143.600,182.400 143.044,182.400 141.000 C 182.400 138.667,182.318 138.400,181.600 138.400 C 180.907 138.400,180.800 138.133,180.800 136.400 C 180.800 134.889,180.653 134.400,180.200 134.400 C 179.747 134.400,179.600 133.911,179.600 132.400 C 179.600 130.889,179.453 130.400,179.000 130.400 C 178.547 130.400,178.400 129.911,178.400 128.400 C 178.400 126.667,178.293 126.400,177.600 126.400 C 176.907 126.400,176.800 126.133,176.800 124.400 C 176.800 122.889,176.653 122.400,176.200 122.400 C 175.747 122.400,175.600 121.911,175.600 120.400 C 175.600 118.889,175.453 118.400,175.000 118.400 C 174.547 118.400,174.400 117.911,174.400 116.400 C 174.400 114.667,174.293 114.400,173.600 114.400 C 172.907 114.400,172.800 114.133,172.800 112.400 C 172.800 110.889,172.653 110.400,172.200 110.400 C 171.870 110.400,171.600 110.130,171.600 109.800 C 171.600 109.470,171.330 109.200,171.000 109.200 C 170.547 109.200,170.400 108.711,170.400 107.200 C 170.400 105.467,170.293 105.200,169.600 105.200 C 168.907 105.200,168.800 104.933,168.800 103.200 C 168.800 101.689,168.653 101.200,168.200 101.200 C 167.747 101.200,167.600 100.711,167.600 99.200 C 167.600 97.689,167.453 97.200,167.000 97.200 C 166.547 97.200,166.400 96.711,166.400 95.200 C 166.400 93.467,166.293 93.200,165.600 93.200 C 164.907 93.200,164.800 92.933,164.800 91.200 C 164.800 89.689,164.653 89.200,164.200 89.200 C 163.747 89.200,163.600 88.711,163.600 87.200 C 163.600 85.689,163.453 85.200,163.000 85.200 C 162.547 85.200,162.400 84.711,162.400 83.200 C 162.400 81.467,162.293 81.200,161.600 81.200 C 161.160 81.200,160.800 81.020,160.800 80.800 C 160.800 80.580,161.087 80.400,161.437 80.400 C 161.788 80.400,162.169 80.040,162.284 79.600 C 162.399 79.160,162.742 78.800,163.047 78.800 C 163.351 78.800,163.600 78.530,163.600 78.200 C 163.600 77.870,163.870 77.600,164.200 77.600 C 164.530 77.600,164.800 77.330,164.800 77.000 C 164.800 76.670,165.087 76.400,165.437 76.400 C 165.788 76.400,166.169 76.040,166.284 75.600 C 166.399 75.160,166.742 74.800,167.047 74.800 C 167.444 74.800,167.600 74.236,167.600 72.800 C 167.600 71.289,167.747 70.800,168.200 70.800 C 168.714 70.800,168.800 69.622,168.800 62.600 C 168.800 55.578,168.714 54.400,168.200 54.400 C 167.870 54.400,167.600 54.130,167.600 53.800 C 167.600 53.470,167.341 53.200,167.025 53.200 C 166.669 53.200,166.403 52.705,166.325 51.900 C 166.215 50.757,166.043 50.585,164.900 50.475 C 164.095 50.397,163.600 50.131,163.600 49.775 C 163.600 49.459,163.351 49.200,163.047 49.200 C 162.742 49.200,162.399 48.840,162.284 48.400 C 162.132 47.817,161.738 47.600,160.837 47.600 C 160.004 47.600,159.600 47.404,159.600 47.000 C 159.600 46.528,159.044 46.400,157.000 46.400 C 154.956 46.400,154.400 46.272,154.400 45.800 C 154.400 45.292,153.422 45.200,148.000 45.200 C 142.578 45.200,141.600 45.292,141.600 45.800 M150.600 51.600 C 150.736 51.820,151.258 52.000,151.760 52.000 C 152.528 52.000,155.406 53.310,158.388 55.016 C 159.629 55.726,160.469 56.534,160.847 57.384 C 161.046 57.833,161.612 58.830,162.103 59.600 C 163.545 61.862,163.425 68.106,161.900 70.105 C 161.295 70.898,160.800 71.705,160.800 71.898 C 160.800 72.643,157.921 74.999,156.000 75.827 C 155.670 75.969,154.833 76.336,154.140 76.643 C 153.446 76.949,152.332 77.200,151.663 77.200 C 150.994 77.200,150.336 77.380,150.200 77.600 C 150.064 77.820,148.624 78.000,147.000 78.000 C 145.376 78.000,143.936 77.820,143.800 77.600 C 143.664 77.380,143.058 77.200,142.453 77.200 C 141.848 77.200,141.004 76.936,140.576 76.613 C 140.149 76.290,139.400 76.020,138.910 76.013 C 137.717 75.996,133.522 71.845,132.630 69.800 C 132.247 68.920,131.768 67.887,131.566 67.505 C 131.073 66.570,131.099 62.510,131.600 62.200 C 131.820 62.064,132.000 61.575,132.000 61.114 C 132.000 60.653,132.450 59.686,133.000 58.964 C 133.550 58.243,134.000 57.518,134.000 57.352 C 134.000 56.919,135.674 55.200,136.096 55.200 C 136.293 55.200,137.026 54.764,137.727 54.231 C 138.427 53.698,139.497 53.138,140.104 52.987 C 140.711 52.835,141.306 52.551,141.427 52.356 C 141.548 52.160,142.166 52.000,142.800 52.000 C 143.434 52.000,144.064 51.820,144.200 51.600 C 144.336 51.380,145.776 51.200,147.400 51.200 C 149.024 51.200,150.464 51.380,150.600 51.600 M255.400 53.600 C 255.536 53.820,256.049 54.000,256.539 54.000 C 257.577 54.000,260.153 55.244,261.362 56.329 C 261.823 56.742,262.518 57.193,262.906 57.330 C 263.294 57.467,263.789 57.989,264.005 58.490 C 264.412 59.433,264.839 60.154,266.200 62.198 C 268.040 64.963,266.967 73.636,264.534 75.655 C 264.240 75.898,264.000 76.318,264.000 76.587 C 264.000 77.654,260.246 80.000,258.539 80.000 C 258.049 80.000,257.536 80.180,257.400 80.400 C 257.264 80.620,255.644 80.800,253.800 80.800 C 251.956 80.800,250.336 80.620,250.200 80.400 C 250.064 80.180,249.534 80.000,249.022 80.000 C 248.510 80.000,247.576 79.731,246.946 79.402 C 246.316 79.074,245.513 78.804,245.162 78.802 C 244.811 78.801,244.198 78.440,243.800 78.000 C 243.402 77.560,242.868 77.200,242.613 77.200 C 241.558 77.200,238.800 73.194,238.800 71.662 C 238.800 71.214,238.620 70.736,238.400 70.600 C 238.180 70.464,238.000 69.114,238.000 67.600 C 238.000 66.086,238.180 64.736,238.400 64.600 C 238.620 64.464,238.800 64.084,238.800 63.754 C 238.800 61.457,243.724 55.500,246.044 54.990 C 246.675 54.852,247.294 54.572,247.419 54.369 C 247.545 54.166,248.166 54.000,248.800 54.000 C 249.434 54.000,250.064 53.820,250.200 53.600 C 250.336 53.380,251.506 53.200,252.800 53.200 C 254.094 53.200,255.264 53.380,255.400 53.600 M150.085 81.900 C 150.420 82.285,150.811 83.373,150.954 84.317 C 151.098 85.262,151.371 86.342,151.561 86.717 C 152.309 88.194,152.765 89.460,153.028 90.787 C 153.178 91.550,153.438 92.450,153.604 92.787 C 154.337 94.272,154.772 95.496,155.028 96.787 C 155.178 97.550,155.438 98.450,155.604 98.787 C 156.337 100.272,156.772 101.496,157.028 102.787 C 157.178 103.550,157.438 104.450,157.604 104.787 C 158.337 106.272,158.772 107.496,159.028 108.787 C 159.178 109.550,159.438 110.450,159.604 110.787 C 160.337 112.272,160.772 113.496,161.028 114.787 C 161.178 115.550,161.438 116.450,161.604 116.787 C 162.337 118.272,162.772 119.496,163.028 120.787 C 163.178 121.550,163.438 122.450,163.604 122.787 C 164.337 124.272,164.772 125.496,165.028 126.787 C 165.178 127.550,165.438 128.450,165.604 128.787 C 166.337 130.272,166.772 131.496,167.028 132.787 C 167.178 133.550,167.438 134.450,167.604 134.787 C 168.337 136.272,168.772 137.496,169.028 138.787 C 169.178 139.550,169.438 140.450,169.604 140.787 C 170.337 142.272,170.772 143.496,171.028 144.787 C 171.178 145.550,171.459 146.495,171.651 146.887 C 171.843 147.279,172.158 147.922,172.351 148.315 C 172.543 148.709,172.824 149.834,172.973 150.815 C 173.222 152.450,173.584 153.567,174.396 155.213 C 174.562 155.550,174.822 156.450,174.972 157.213 C 175.228 158.504,175.663 159.728,176.396 161.213 C 176.562 161.550,176.822 162.450,176.972 163.213 C 177.228 164.504,177.663 165.728,178.396 167.213 C 178.562 167.550,178.822 168.450,178.972 169.213 C 179.228 170.504,179.663 171.728,180.396 173.213 C 180.562 173.550,180.822 174.450,180.972 175.213 C 181.228 176.504,181.663 177.728,182.396 179.213 C 182.562 179.550,182.822 180.450,182.972 181.213 C 183.228 182.504,183.663 183.728,184.396 185.213 C 184.562 185.550,184.822 186.450,184.972 187.213 C 185.228 188.504,185.663 189.728,186.396 191.213 C 186.562 191.550,186.822 192.450,186.972 193.213 C 187.228 194.504,187.663 195.728,188.396 197.213 C 188.562 197.550,188.822 198.450,188.972 199.213 C 189.228 200.504,189.663 201.728,190.396 203.213 C 190.562 203.550,190.822 204.450,190.972 205.213 C 191.228 206.504,191.663 207.728,192.396 209.213 C 192.562 209.550,192.822 210.450,192.972 211.213 C 193.238 212.559,193.421 213.098,194.321 215.200 C 194.557 215.750,194.854 216.578,194.983 217.039 C 195.828 220.087,202.000 218.302,202.000 215.010 C 202.000 214.481,202.164 213.946,202.365 213.822 C 202.566 213.697,202.852 212.878,203.000 212.000 C 203.148 211.122,203.434 210.303,203.635 210.178 C 203.836 210.054,204.006 209.558,204.013 209.076 C 204.020 208.594,204.290 207.851,204.613 207.424 C 204.936 206.996,205.200 206.319,205.200 205.918 C 205.200 205.517,205.380 204.832,205.600 204.395 C 205.820 203.958,206.168 203.262,206.373 202.849 C 206.578 202.436,206.873 201.401,207.028 200.549 C 207.184 199.697,207.621 198.550,208.000 198.000 C 208.379 197.450,208.816 196.303,208.972 195.451 C 209.127 194.599,209.422 193.564,209.627 193.151 C 209.832 192.738,210.180 192.042,210.400 191.605 C 210.620 191.168,210.800 190.483,210.800 190.082 C 210.800 189.681,211.064 189.004,211.387 188.576 C 211.710 188.149,211.980 187.406,211.987 186.924 C 211.994 186.442,212.164 185.946,212.365 185.822 C 212.566 185.697,212.852 184.878,213.000 184.000 C 213.148 183.122,213.434 182.303,213.635 182.178 C 213.836 182.054,214.006 181.558,214.013 181.076 C 214.020 180.594,214.290 179.851,214.613 179.424 C 214.936 178.996,215.200 178.319,215.200 177.918 C 215.200 177.517,215.380 176.832,215.600 176.395 C 215.820 175.958,216.168 175.262,216.373 174.849 C 216.578 174.436,216.873 173.401,217.028 172.549 C 217.184 171.697,217.621 170.550,218.000 170.000 C 218.379 169.450,218.816 168.303,218.972 167.451 C 219.127 166.599,219.422 165.564,219.627 165.151 C 219.832 164.738,220.180 164.042,220.400 163.605 C 220.620 163.168,220.800 162.483,220.800 162.082 C 220.800 161.681,221.064 161.004,221.387 160.576 C 221.710 160.149,221.980 159.406,221.987 158.924 C 221.994 158.442,222.164 157.946,222.365 157.822 C 222.566 157.697,222.852 156.878,223.000 156.000 C 223.148 155.122,223.434 154.303,223.635 154.178 C 223.836 154.054,224.006 153.558,224.013 153.076 C 224.020 152.594,224.290 151.851,224.613 151.424 C 224.936 150.996,225.200 150.319,225.200 149.918 C 225.200 149.517,225.380 148.832,225.600 148.395 C 225.820 147.958,226.168 147.262,226.373 146.849 C 226.578 146.436,226.873 145.401,227.028 144.549 C 227.184 143.697,227.621 142.550,228.000 142.000 C 228.379 141.450,228.816 140.303,228.972 139.451 C 229.127 138.599,229.401 137.609,229.581 137.251 C 230.319 135.777,230.768 134.525,231.025 133.227 C 231.174 132.472,231.623 131.271,232.024 130.557 C 232.425 129.844,232.874 128.615,233.022 127.826 C 233.170 127.037,233.450 126.293,233.645 126.172 C 233.840 126.051,234.000 125.524,234.000 125.000 C 234.000 124.476,234.180 123.936,234.400 123.800 C 234.620 123.664,234.800 123.276,234.800 122.937 C 234.800 122.380,235.563 120.381,236.383 118.787 C 236.556 118.450,236.822 117.550,236.972 116.787 C 237.248 115.395,237.374 115.041,238.559 112.340 C 238.912 111.536,239.200 110.679,239.200 110.434 C 239.200 110.189,239.359 109.677,239.553 109.295 C 240.304 107.820,240.764 106.547,241.025 105.227 C 241.174 104.472,241.623 103.271,242.024 102.557 C 242.425 101.844,242.874 100.615,243.022 99.826 C 243.170 99.037,243.450 98.293,243.645 98.172 C 243.840 98.051,244.000 97.524,244.000 97.000 C 244.000 96.476,244.180 95.936,244.400 95.800 C 244.620 95.664,244.800 95.276,244.800 94.937 C 244.800 94.363,245.598 92.293,246.426 90.717 C 246.623 90.342,246.902 89.303,247.045 88.409 C 247.188 87.514,247.461 86.686,247.653 86.568 C 247.844 86.449,248.000 85.982,248.000 85.530 C 248.000 84.871,248.180 84.755,248.900 84.948 C 249.395 85.081,250.565 85.192,251.500 85.195 L 253.200 85.200 253.200 87.776 C 253.200 89.193,253.380 90.464,253.600 90.600 C 253.839 90.747,254.000 93.330,254.000 97.000 C 254.000 100.384,254.160 103.252,254.356 103.373 C 254.551 103.494,254.844 108.998,255.007 115.604 C 255.169 122.211,255.459 127.713,255.651 127.831 C 255.843 127.950,256.000 130.816,256.000 134.200 C 256.000 137.584,256.159 140.451,256.354 140.572 C 256.549 140.692,256.841 146.286,257.003 153.002 C 257.166 159.719,257.457 165.311,257.649 165.431 C 257.842 165.550,258.000 168.416,258.000 171.800 C 258.000 175.184,258.160 178.052,258.356 178.173 C 258.551 178.294,258.844 183.798,259.007 190.404 C 259.169 197.011,259.459 202.513,259.651 202.631 C 259.843 202.750,260.000 204.549,260.000 206.629 L 260.000 210.412 261.300 211.215 C 263.084 212.317,265.680 212.156,265.984 210.924 C 266.103 210.443,267.685 208.432,269.500 206.456 C 271.315 204.480,272.800 202.707,272.800 202.518 C 272.800 202.328,273.790 201.195,275.000 200.000 C 276.210 198.805,277.200 197.660,277.200 197.456 C 277.200 197.251,279.180 194.968,281.600 192.382 C 284.020 189.797,286.000 187.521,286.000 187.325 C 286.000 187.130,286.900 186.083,288.000 185.000 C 289.100 183.917,290.000 182.868,290.000 182.671 C 290.000 182.473,292.070 180.105,294.600 177.408 C 297.130 174.712,299.200 172.340,299.200 172.138 C 299.200 171.935,300.100 170.883,301.200 169.800 C 302.300 168.717,303.200 167.670,303.200 167.475 C 303.200 167.279,305.180 165.003,307.600 162.418 C 310.020 159.832,312.000 157.549,312.000 157.346 C 312.000 157.142,313.080 155.906,314.400 154.600 C 315.720 153.294,316.800 152.061,316.800 151.860 C 316.800 151.659,318.690 149.468,321.000 146.991 C 323.310 144.514,325.200 142.327,325.200 142.131 C 325.200 141.935,326.280 140.706,327.600 139.400 C 328.920 138.094,330.000 136.858,330.000 136.654 C 330.000 136.451,331.980 134.168,334.400 131.582 C 336.820 128.997,338.800 126.720,338.800 126.524 C 338.800 126.327,339.627 125.364,340.638 124.383 C 341.649 123.402,342.594 122.311,342.738 121.959 C 342.882 121.606,344.222 120.002,345.715 118.394 L 348.429 115.471 349.734 116.736 C 350.451 117.431,351.195 118.000,351.388 118.000 C 351.580 118.000,352.021 118.252,352.369 118.559 C 353.661 119.704,356.123 120.832,357.845 121.068 C 358.822 121.202,359.718 121.467,359.835 121.656 C 359.952 121.845,361.409 122.000,363.073 122.000 C 365.445 122.000,366.009 122.108,365.688 122.500 C 365.462 122.775,365.149 124.037,364.992 125.305 C 364.835 126.573,364.548 127.709,364.353 127.829 C 364.159 127.949,364.000 128.566,364.000 129.200 C 364.000 129.834,363.838 130.453,363.639 130.576 C 363.441 130.698,363.153 131.879,363.000 133.200 C 362.847 134.521,362.559 135.702,362.361 135.824 C 362.162 135.947,362.000 136.746,362.000 137.600 C 362.000 138.454,361.838 139.253,361.639 139.376 C 361.441 139.498,361.153 140.679,361.000 142.000 C 360.847 143.321,360.559 144.502,360.361 144.624 C 360.162 144.747,360.000 145.366,360.000 146.000 C 360.000 146.634,359.838 147.253,359.639 147.376 C 359.441 147.498,359.153 148.679,359.000 150.000 C 358.847 151.321,358.559 152.502,358.361 152.624 C 358.162 152.747,358.000 153.546,358.000 154.400 C 358.000 155.254,357.838 156.053,357.639 156.176 C 357.441 156.298,357.153 157.479,357.000 158.800 C 356.847 160.121,356.559 161.302,356.361 161.424 C 356.162 161.547,356.000 162.166,356.000 162.800 C 356.000 163.434,355.838 164.053,355.639 164.176 C 355.441 164.298,355.153 165.479,355.000 166.800 C 354.847 168.121,354.559 169.302,354.361 169.424 C 354.162 169.547,354.000 170.256,354.000 171.000 C 354.000 171.744,353.838 172.453,353.639 172.576 C 353.441 172.698,353.153 173.879,353.000 175.200 C 352.847 176.521,352.559 177.702,352.361 177.824 C 352.162 177.947,352.000 178.566,352.000 179.200 C 352.000 179.834,351.838 180.453,351.639 180.576 C 351.441 180.698,351.153 181.879,351.000 183.200 C 350.847 184.521,350.559 185.702,350.361 185.824 C 350.162 185.947,350.000 186.746,350.000 187.600 C 350.000 188.454,349.838 189.253,349.639 189.376 C 349.441 189.498,349.153 190.679,349.000 192.000 C 348.847 193.321,348.559 194.502,348.361 194.624 C 348.162 194.747,348.000 195.366,348.000 196.000 C 348.000 196.634,347.838 197.253,347.639 197.376 C 347.441 197.498,347.153 198.679,347.000 200.000 C 346.847 201.321,346.559 202.502,346.361 202.624 C 346.162 202.747,346.000 203.546,346.000 204.400 C 346.000 205.254,345.838 206.053,345.639 206.176 C 345.441 206.298,345.153 207.479,345.000 208.800 C 344.847 210.121,344.559 211.302,344.361 211.424 C 344.162 211.547,344.000 212.166,344.000 212.800 C 344.000 213.434,343.838 214.053,343.639 214.176 C 343.441 214.298,343.153 215.479,343.000 216.800 C 342.847 218.121,342.559 219.302,342.361 219.424 C 342.162 219.547,342.000 220.256,342.000 221.000 C 342.000 221.744,341.838 222.453,341.639 222.576 C 341.441 222.698,341.153 223.879,341.000 225.200 C 340.847 226.521,340.559 227.702,340.361 227.824 C 340.162 227.947,340.000 228.566,340.000 229.200 C 340.000 229.834,339.838 230.453,339.639 230.576 C 339.441 230.698,339.153 231.879,339.000 233.200 C 338.847 234.521,338.559 235.702,338.361 235.824 C 338.162 235.947,338.000 236.746,338.000 237.600 C 338.000 238.454,337.838 239.253,337.639 239.376 C 337.441 239.498,337.153 240.679,337.000 242.000 C 336.847 243.321,336.559 244.502,336.361 244.624 C 336.162 244.747,336.000 245.366,336.000 246.000 C 336.000 246.634,335.838 247.253,335.639 247.376 C 335.441 247.498,335.153 248.679,335.000 250.000 C 334.847 251.321,334.559 252.502,334.361 252.624 C 334.162 252.747,334.000 253.546,334.000 254.400 C 334.000 255.254,333.838 256.053,333.639 256.176 C 333.441 256.298,333.153 257.479,333.000 258.800 C 332.847 260.121,332.559 261.302,332.361 261.424 C 332.162 261.547,332.000 262.166,332.000 262.800 C 332.000 263.434,331.838 264.053,331.639 264.176 C 331.441 264.298,331.153 265.479,331.000 266.800 C 330.847 268.121,330.559 269.302,330.361 269.424 C 330.162 269.547,330.000 270.256,330.000 271.000 C 330.000 271.744,329.838 272.453,329.639 272.576 C 329.441 272.698,329.153 273.879,329.000 275.200 C 328.847 276.521,328.559 277.702,328.361 277.824 C 328.162 277.947,328.000 278.566,328.000 279.200 C 328.000 279.834,327.838 280.453,327.639 280.576 C 327.441 280.698,327.153 281.879,327.000 283.200 C 326.847 284.521,326.559 285.702,326.361 285.824 C 326.162 285.947,326.000 286.746,326.000 287.600 C 326.000 288.454,325.838 289.253,325.639 289.376 C 325.441 289.498,325.153 290.679,325.000 292.000 C 324.847 293.321,324.559 294.502,324.361 294.624 C 324.162 294.747,324.000 295.347,324.000 295.957 C 324.000 296.567,323.865 297.201,323.700 297.366 C 323.535 297.530,323.220 298.595,323.000 299.732 L 322.600 301.800 293.600 301.908 C 276.073 301.973,264.284 301.866,263.800 301.639 C 263.312 301.409,227.900 301.174,173.046 301.036 C 77.057 300.793,82.000 300.916,82.000 298.775 C 82.000 298.155,81.838 297.547,81.639 297.424 C 81.441 297.302,81.153 296.121,81.000 294.800 C 80.847 293.479,80.559 292.298,80.361 292.176 C 80.162 292.053,80.000 291.434,80.000 290.800 C 80.000 290.166,79.838 289.547,79.639 289.424 C 79.441 289.302,79.153 288.121,79.000 286.800 C 78.847 285.479,78.559 284.298,78.361 284.176 C 78.162 284.053,78.000 283.434,78.000 282.800 C 78.000 282.166,77.838 281.547,77.639 281.424 C 77.441 281.302,77.153 280.121,77.000 278.800 C 76.847 277.479,76.559 276.298,76.361 276.176 C 76.162 276.053,76.000 275.524,76.000 275.000 C 76.000 274.476,75.838 273.947,75.639 273.824 C 75.441 273.702,75.153 272.521,75.000 271.200 C 74.847 269.879,74.559 268.698,74.361 268.576 C 74.162 268.453,74.000 267.834,74.000 267.200 C 74.000 266.566,73.838 265.947,73.639 265.824 C 73.441 265.702,73.153 264.521,73.000 263.200 C 72.847 261.879,72.559 260.698,72.361 260.576 C 72.162 260.453,72.000 259.834,72.000 259.200 C 72.000 258.566,71.838 257.947,71.639 257.824 C 71.441 257.702,71.153 256.521,71.000 255.200 C 70.847 253.879,70.559 252.698,70.361 252.576 C 70.162 252.453,70.000 251.834,70.000 251.200 C 70.000 250.566,69.838 249.947,69.639 249.824 C 69.441 249.702,69.153 248.521,69.000 247.200 C 68.847 245.879,68.559 244.698,68.361 244.576 C 68.162 244.453,68.000 243.834,68.000 243.200 C 68.000 242.566,67.825 241.939,67.612 241.807 C 67.398 241.675,67.104 240.670,66.959 239.575 C 66.813 238.479,66.538 237.485,66.347 237.367 C 66.156 237.249,66.000 236.634,66.000 236.000 C 66.000 235.366,65.838 234.747,65.639 234.624 C 65.441 234.502,65.153 233.321,65.000 232.000 C 64.847 230.679,64.559 229.498,64.361 229.376 C 64.162 229.253,64.000 228.634,64.000 228.000 C 64.000 227.366,63.838 226.747,63.639 226.624 C 63.441 226.502,63.153 225.321,63.000 224.000 C 62.847 222.679,62.559 221.498,62.361 221.376 C 62.162 221.253,62.000 220.634,62.000 220.000 C 62.000 219.366,61.838 218.747,61.639 218.624 C 61.441 218.502,61.153 217.321,61.000 216.000 C 60.847 214.679,60.559 213.498,60.361 213.376 C 60.162 213.253,60.000 212.634,60.000 212.000 C 60.000 211.366,59.825 210.739,59.612 210.607 C 59.398 210.475,59.104 209.470,58.959 208.375 C 58.813 207.279,58.538 206.285,58.347 206.167 C 58.156 206.049,58.000 205.434,58.000 204.800 C 58.000 204.166,57.838 203.547,57.639 203.424 C 57.441 203.302,57.153 202.121,57.000 200.800 C 56.847 199.479,56.559 198.298,56.361 198.176 C 56.162 198.053,56.000 197.434,56.000 196.800 C 56.000 196.166,55.838 195.547,55.639 195.424 C 55.441 195.302,55.153 194.121,55.000 192.800 C 54.847 191.479,54.559 190.298,54.361 190.176 C 54.162 190.053,54.000 189.434,54.000 188.800 C 54.000 188.166,53.838 187.547,53.639 187.424 C 53.441 187.302,53.153 186.121,53.000 184.800 C 52.847 183.479,52.559 182.298,52.361 182.176 C 52.162 182.053,52.000 181.434,52.000 180.800 C 52.000 180.166,51.841 179.549,51.647 179.429 C 51.452 179.309,51.170 178.221,51.019 177.012 C 50.868 175.802,50.577 174.709,50.372 174.583 C 50.167 174.456,50.000 173.834,50.000 173.200 C 50.000 172.566,49.838 171.947,49.639 171.824 C 49.441 171.702,49.153 170.521,49.000 169.200 C 48.847 167.879,48.559 166.698,48.361 166.576 C 48.162 166.453,48.000 165.834,48.000 165.200 C 48.000 164.566,47.838 163.947,47.639 163.824 C 47.441 163.702,47.153 162.521,47.000 161.200 C 46.847 159.879,46.559 158.698,46.361 158.576 C 46.162 158.453,46.000 157.834,46.000 157.200 C 46.000 156.566,45.838 155.947,45.639 155.824 C 45.441 155.702,45.153 154.521,45.000 153.200 C 44.847 151.879,44.559 150.698,44.361 150.576 C 44.162 150.453,44.000 149.834,44.000 149.200 C 44.000 148.566,43.844 147.951,43.653 147.833 C 43.462 147.715,43.187 146.721,43.041 145.625 C 42.896 144.530,42.602 143.525,42.388 143.393 C 42.175 143.261,42.000 142.634,42.000 142.000 C 42.000 141.366,41.838 140.747,41.639 140.624 C 41.441 140.502,41.153 139.321,41.000 138.000 C 40.847 136.679,40.559 135.498,40.361 135.376 C 40.162 135.253,40.000 134.634,40.000 134.000 C 40.000 133.366,39.838 132.747,39.639 132.624 C 39.441 132.502,39.153 131.321,39.000 130.000 C 38.847 128.679,38.559 127.498,38.361 127.376 C 38.162 127.253,38.000 126.659,38.000 126.056 C 38.000 125.453,37.805 124.765,37.566 124.526 C 36.626 123.586,37.316 122.208,38.798 122.067 C 39.568 121.994,40.378 121.792,40.598 121.618 C 40.819 121.444,41.896 121.171,42.992 121.012 C 44.088 120.853,45.452 120.390,46.023 119.984 L 47.062 119.244 50.131 122.331 C 51.819 124.029,53.200 125.596,53.200 125.813 C 53.200 126.031,56.350 129.355,60.200 133.200 C 64.050 137.045,67.200 140.351,67.200 140.545 C 67.200 140.740,73.500 147.334,81.200 155.200 C 88.900 163.066,95.200 169.660,95.200 169.855 C 95.200 170.050,98.260 173.265,102.000 177.000 C 105.740 180.735,108.807 183.973,108.814 184.196 C 108.865 185.614,132.731 208.855,134.009 208.730 C 136.328 208.503,136.741 207.153,137.055 198.784 C 137.204 194.816,137.478 191.476,137.663 191.361 C 137.848 191.247,138.000 189.014,138.000 186.400 C 138.000 183.786,138.160 181.548,138.355 181.428 C 138.550 181.307,138.843 176.973,139.004 171.797 C 139.166 166.621,139.456 162.289,139.649 162.170 C 139.842 162.050,140.000 159.904,140.000 157.400 C 140.000 154.896,140.158 152.750,140.351 152.630 C 140.544 152.511,140.834 148.179,140.996 143.003 C 141.157 137.827,141.450 133.493,141.645 133.372 C 141.840 133.252,142.000 131.014,142.000 128.400 C 142.000 125.786,142.160 123.548,142.355 123.428 C 142.550 123.307,142.843 118.973,143.004 113.797 C 143.166 108.621,143.456 104.289,143.649 104.170 C 143.842 104.050,144.000 101.724,144.000 99.000 C 144.000 96.276,144.153 93.952,144.341 93.837 C 144.528 93.721,144.779 91.024,144.898 87.844 C 145.017 84.664,145.234 81.868,145.381 81.631 C 145.832 80.902,149.394 81.105,150.085 81.900 M369.880 87.914 C 370.523 88.372,371.575 88.879,372.217 89.040 C 374.744 89.674,378.547 94.479,379.060 97.685 C 379.195 98.528,379.461 99.314,379.653 99.432 C 380.116 99.719,380.100 105.091,379.635 105.378 C 379.434 105.503,379.147 106.368,378.996 107.302 C 378.723 109.002,375.291 113.200,374.176 113.200 C 373.927 113.200,373.401 113.556,373.007 113.992 C 372.613 114.428,371.683 114.898,370.941 115.038 C 370.198 115.177,369.493 115.450,369.372 115.645 C 369.251 115.840,368.634 116.000,368.000 116.000 C 367.366 116.000,366.736 116.180,366.600 116.400 C 366.464 116.620,364.844 116.800,363.000 116.800 C 361.156 116.800,359.536 116.620,359.400 116.400 C 359.264 116.180,358.734 116.000,358.222 116.000 C 357.710 116.000,356.776 115.731,356.146 115.402 C 355.516 115.074,354.713 114.804,354.362 114.802 C 354.011 114.801,353.398 114.440,353.000 114.000 C 352.602 113.560,352.069 113.200,351.816 113.200 C 351.189 113.200,349.069 110.849,348.480 109.500 C 348.216 108.895,347.775 107.923,347.500 107.340 C 346.867 105.999,346.837 98.866,347.459 97.563 C 348.977 94.380,349.309 93.709,349.782 92.867 C 350.448 91.683,352.842 89.200,353.318 89.200 C 353.517 89.200,354.336 88.912,355.140 88.559 C 356.808 87.827,357.936 87.357,358.800 87.034 C 360.433 86.424,368.710 87.081,369.880 87.914 M41.688 90.862 C 42.067 90.962,42.502 91.169,42.655 91.322 C 42.808 91.475,43.263 91.600,43.667 91.600 C 44.070 91.600,44.400 91.780,44.400 92.000 C 44.400 92.220,44.738 92.400,45.151 92.400 C 45.564 92.400,46.126 92.670,46.400 93.000 C 46.674 93.330,47.146 93.600,47.449 93.600 C 47.961 93.600,48.183 94.115,48.031 94.949 C 47.996 95.141,48.235 95.195,48.563 95.069 C 48.933 94.927,49.253 95.138,49.408 95.626 C 49.545 96.058,49.825 96.308,50.029 96.182 C 50.233 96.056,50.400 96.223,50.400 96.554 C 50.400 96.884,50.715 97.392,51.100 97.682 C 52.828 98.984,53.641 104.792,52.175 105.354 C 51.831 105.486,51.661 105.776,51.798 105.997 C 51.935 106.219,51.756 106.400,51.400 106.400 C 51.044 106.400,50.852 106.561,50.974 106.758 C 51.096 106.955,50.928 107.630,50.600 108.258 C 50.273 108.886,49.991 109.220,49.974 109.000 C 49.958 108.780,49.803 108.960,49.632 109.400 C 49.460 109.840,49.068 110.200,48.760 110.200 C 48.452 110.200,48.200 110.452,48.200 110.760 C 48.200 111.068,47.840 111.460,47.400 111.632 C 46.960 111.803,46.780 111.968,47.000 111.997 C 47.220 112.027,46.950 112.247,46.400 112.488 C 45.850 112.728,45.271 112.899,45.114 112.867 C 44.957 112.836,44.932 113.079,45.059 113.409 C 45.223 113.837,45.104 113.938,44.645 113.762 C 44.290 113.626,44.000 113.681,44.000 113.885 C 44.000 114.089,43.100 114.500,42.000 114.800 C 40.900 115.100,40.000 115.492,40.000 115.672 C 40.000 115.853,38.200 116.000,36.000 116.000 C 33.800 116.000,32.000 115.853,32.000 115.672 C 32.000 115.492,31.100 115.100,30.000 114.800 C 28.900 114.500,28.000 114.089,28.000 113.885 C 28.000 113.681,27.710 113.626,27.355 113.762 C 26.896 113.938,26.777 113.837,26.941 113.409 C 27.068 113.079,27.043 112.836,26.886 112.867 C 26.729 112.899,26.150 112.728,25.600 112.488 C 25.050 112.247,24.780 112.027,25.000 111.997 C 25.220 111.968,25.040 111.803,24.600 111.632 C 24.160 111.460,23.792 111.068,23.782 110.760 C 23.772 110.452,23.531 110.250,23.247 110.311 C 22.963 110.373,22.636 110.060,22.520 109.616 C 22.404 109.172,22.150 108.908,21.955 109.028 C 21.760 109.149,21.600 108.887,21.600 108.447 C 21.600 108.007,21.420 107.536,21.200 107.400 C 20.980 107.264,20.800 105.993,20.800 104.576 C 20.800 103.125,20.975 102.000,21.200 102.000 C 21.420 102.000,21.600 101.662,21.600 101.249 C 21.600 100.067,22.783 97.542,23.212 97.807 C 23.425 97.939,23.600 97.659,23.600 97.184 C 23.600 96.066,26.066 93.600,27.184 93.600 C 27.659 93.600,27.942 93.430,27.814 93.223 C 27.686 93.016,28.261 92.548,29.091 92.182 C 29.921 91.817,30.988 91.336,31.462 91.112 C 31.936 90.889,32.484 90.805,32.681 90.926 C 32.877 91.048,33.300 90.975,33.619 90.765 C 34.170 90.402,40.220 90.475,41.688 90.862 M141.359 304.334 C 141.472 304.517,181.996 304.784,231.411 304.928 C 320.070 305.184,322.413 305.216,321.658 306.136 C 321.448 306.391,321.149 307.637,320.992 308.905 C 320.835 310.173,320.548 311.309,320.353 311.429 C 320.159 311.549,320.000 312.166,320.000 312.800 C 320.000 313.434,319.820 314.064,319.600 314.200 C 319.380 314.336,319.200 314.977,319.200 315.624 L 319.200 316.800 292.024 316.800 C 274.337 316.800,264.761 316.660,264.600 316.400 C 264.437 316.136,243.337 316.000,202.600 316.000 C 161.863 316.000,140.763 315.864,140.600 315.600 C 140.439 315.340,130.863 315.200,113.176 315.200 L 86.000 315.200 86.000 314.024 C 86.000 313.377,85.841 312.749,85.647 312.629 C 85.452 312.509,85.166 311.389,85.010 310.141 C 84.732 307.920,84.621 307.555,83.649 305.684 C 83.387 305.180,83.280 304.595,83.410 304.384 C 83.706 303.905,141.063 303.855,141.359 304.334 M264.580 319.651 C 264.789 319.843,276.894 320.000,291.480 320.000 L 318.000 320.000 318.000 321.176 C 318.000 321.823,317.838 322.453,317.639 322.576 C 317.441 322.698,317.153 323.879,317.000 325.200 C 316.847 326.521,316.559 327.702,316.361 327.824 C 316.162 327.947,316.000 328.566,316.000 329.200 C 316.000 329.834,315.820 330.464,315.600 330.600 C 315.380 330.736,315.200 331.341,315.200 331.944 C 315.200 332.547,314.984 333.256,314.720 333.520 C 314.144 334.096,282.184 334.222,281.831 333.650 C 281.709 333.453,246.752 333.168,202.000 333.000 C 157.248 332.832,122.291 332.547,122.169 332.350 C 122.050 332.158,114.979 332.000,106.456 332.000 C 89.837 332.000,90.000 332.020,90.000 329.944 C 90.000 329.341,89.838 328.747,89.639 328.624 C 89.441 328.502,89.153 327.321,89.000 326.000 C 88.847 324.679,88.559 323.498,88.361 323.376 C 88.162 323.253,88.000 322.634,88.000 322.000 C 88.000 321.366,87.820 320.736,87.600 320.600 C 87.380 320.464,87.200 320.009,87.200 319.589 C 87.200 318.759,263.676 318.820,264.580 319.651 " stroke="none" fill="#fbfafb" fill-rule="evenodd"></path><path id="path1" d="M144.200 51.600 C 144.064 51.820,143.434 52.000,142.800 52.000 C 142.166 52.000,141.548 52.160,141.427 52.356 C 141.306 52.551,140.711 52.835,140.104 52.987 C 139.497 53.138,138.427 53.698,137.727 54.231 C 137.026 54.764,136.293 55.200,136.096 55.200 C 135.674 55.200,134.000 56.919,134.000 57.352 C 134.000 57.518,133.550 58.243,133.000 58.964 C 132.450 59.686,132.000 60.653,132.000 61.114 C 132.000 61.575,131.820 62.064,131.600 62.200 C 131.099 62.510,131.073 66.570,131.566 67.505 C 131.768 67.887,132.247 68.920,132.630 69.800 C 133.522 71.845,137.717 75.996,138.910 76.013 C 139.400 76.020,140.149 76.290,140.576 76.613 C 141.004 76.936,141.848 77.200,142.453 77.200 C 143.058 77.200,143.664 77.380,143.800 77.600 C 143.936 77.820,145.376 78.000,147.000 78.000 C 148.624 78.000,150.064 77.820,150.200 77.600 C 150.336 77.380,150.994 77.200,151.663 77.200 C 152.332 77.200,153.446 76.949,154.140 76.643 C 154.833 76.336,155.670 75.969,156.000 75.827 C 157.921 74.999,160.800 72.643,160.800 71.898 C 160.800 71.705,161.295 70.898,161.900 70.105 C 163.425 68.106,163.545 61.862,162.103 59.600 C 161.612 58.830,161.046 57.833,160.847 57.384 C 160.469 56.534,159.629 55.726,158.388 55.016 C 155.406 53.310,152.528 52.000,151.760 52.000 C 151.258 52.000,150.736 51.820,150.600 51.600 C 150.464 51.380,149.024 51.200,147.400 51.200 C 145.776 51.200,144.336 51.380,144.200 51.600 M250.200 53.600 C 250.064 53.820,249.434 54.000,248.800 54.000 C 248.166 54.000,247.545 54.166,247.419 54.369 C 247.294 54.572,246.675 54.852,246.044 54.990 C 243.724 55.500,238.800 61.457,238.800 63.754 C 238.800 64.084,238.620 64.464,238.400 64.600 C 238.180 64.736,238.000 66.086,238.000 67.600 C 238.000 69.114,238.180 70.464,238.400 70.600 C 238.620 70.736,238.800 71.214,238.800 71.662 C 238.800 73.194,241.558 77.200,242.613 77.200 C 242.868 77.200,243.402 77.560,243.800 78.000 C 244.198 78.440,244.811 78.801,245.162 78.802 C 245.513 78.804,246.316 79.074,246.946 79.402 C 247.576 79.731,248.510 80.000,249.022 80.000 C 249.534 80.000,250.064 80.180,250.200 80.400 C 250.336 80.620,251.956 80.800,253.800 80.800 C 255.644 80.800,257.264 80.620,257.400 80.400 C 257.536 80.180,258.049 80.000,258.539 80.000 C 260.246 80.000,264.000 77.654,264.000 76.587 C 264.000 76.318,264.240 75.898,264.534 75.655 C 266.967 73.636,268.040 64.963,266.200 62.198 C 264.839 60.154,264.412 59.433,264.005 58.490 C 263.789 57.989,263.294 57.467,262.906 57.330 C 262.518 57.193,261.823 56.742,261.362 56.329 C 260.153 55.244,257.577 54.000,256.539 54.000 C 256.049 54.000,255.536 53.820,255.400 53.600 C 255.264 53.380,254.094 53.200,252.800 53.200 C 251.506 53.200,250.336 53.380,250.200 53.600 M145.381 81.631 C 145.234 81.868,145.017 84.664,144.898 87.844 C 144.779 91.024,144.528 93.721,144.341 93.837 C 144.153 93.952,144.000 96.276,144.000 99.000 C 144.000 101.724,143.842 104.050,143.649 104.170 C 143.456 104.289,143.166 108.621,143.004 113.797 C 142.843 118.973,142.550 123.307,142.355 123.428 C 142.160 123.548,142.000 125.786,142.000 128.400 C 142.000 131.014,141.840 133.252,141.645 133.372 C 141.450 133.493,141.157 137.827,140.996 143.003 C 140.834 148.179,140.544 152.511,140.351 152.630 C 140.158 152.750,140.000 154.896,140.000 157.400 C 140.000 159.904,139.842 162.050,139.649 162.170 C 139.456 162.289,139.166 166.621,139.004 171.797 C 138.843 176.973,138.550 181.307,138.355 181.428 C 138.160 181.548,138.000 183.786,138.000 186.400 C 138.000 189.014,137.848 191.247,137.663 191.361 C 137.478 191.476,137.204 194.816,137.055 198.784 C 136.741 207.153,136.328 208.503,134.009 208.730 C 132.731 208.855,108.865 185.614,108.814 184.196 C 108.807 183.973,105.740 180.735,102.000 177.000 C 98.260 173.265,95.200 170.050,95.200 169.855 C 95.200 169.660,88.900 163.066,81.200 155.200 C 73.500 147.334,67.200 140.740,67.200 140.545 C 67.200 140.351,64.050 137.045,60.200 133.200 C 56.350 129.355,53.200 126.031,53.200 125.813 C 53.200 125.596,51.819 124.029,50.131 122.331 L 47.062 119.244 46.023 119.984 C 45.452 120.390,44.088 120.853,42.992 121.012 C 41.896 121.171,40.819 121.444,40.598 121.618 C 40.378 121.792,39.568 121.994,38.798 122.067 C 37.316 122.208,36.626 123.586,37.566 124.526 C 37.805 124.765,38.000 125.453,38.000 126.056 C 38.000 126.659,38.162 127.253,38.361 127.376 C 38.559 127.498,38.847 128.679,39.000 130.000 C 39.153 131.321,39.441 132.502,39.639 132.624 C 39.838 132.747,40.000 133.366,40.000 134.000 C 40.000 134.634,40.162 135.253,40.361 135.376 C 40.559 135.498,40.847 136.679,41.000 138.000 C 41.153 139.321,41.441 140.502,41.639 140.624 C 41.838 140.747,42.000 141.366,42.000 142.000 C 42.000 142.634,42.175 143.261,42.388 143.393 C 42.602 143.525,42.896 144.530,43.041 145.625 C 43.187 146.721,43.462 147.715,43.653 147.833 C 43.844 147.951,44.000 148.566,44.000 149.200 C 44.000 149.834,44.162 150.453,44.361 150.576 C 44.559 150.698,44.847 151.879,45.000 153.200 C 45.153 154.521,45.441 155.702,45.639 155.824 C 45.838 155.947,46.000 156.566,46.000 157.200 C 46.000 157.834,46.162 158.453,46.361 158.576 C 46.559 158.698,46.847 159.879,47.000 161.200 C 47.153 162.521,47.441 163.702,47.639 163.824 C 47.838 163.947,48.000 164.566,48.000 165.200 C 48.000 165.834,48.162 166.453,48.361 166.576 C 48.559 166.698,48.847 167.879,49.000 169.200 C 49.153 170.521,49.441 171.702,49.639 171.824 C 49.838 171.947,50.000 172.566,50.000 173.200 C 50.000 173.834,50.167 174.456,50.372 174.583 C 50.577 174.709,50.868 175.802,51.019 177.012 C 51.170 178.221,51.452 179.309,51.647 179.429 C 51.841 179.549,52.000 180.166,52.000 180.800 C 52.000 181.434,52.162 182.053,52.361 182.176 C 52.559 182.298,52.847 183.479,53.000 184.800 C 53.153 186.121,53.441 187.302,53.639 187.424 C 53.838 187.547,54.000 188.166,54.000 188.800 C 54.000 189.434,54.162 190.053,54.361 190.176 C 54.559 190.298,54.847 191.479,55.000 192.800 C 55.153 194.121,55.441 195.302,55.639 195.424 C 55.838 195.547,56.000 196.166,56.000 196.800 C 56.000 197.434,56.162 198.053,56.361 198.176 C 56.559 198.298,56.847 199.479,57.000 200.800 C 57.153 202.121,57.441 203.302,57.639 203.424 C 57.838 203.547,58.000 204.166,58.000 204.800 C 58.000 205.434,58.156 206.049,58.347 206.167 C 58.538 206.285,58.813 207.279,58.959 208.375 C 59.104 209.470,59.398 210.475,59.612 210.607 C 59.825 210.739,60.000 211.366,60.000 212.000 C 60.000 212.634,60.162 213.253,60.361 213.376 C 60.559 213.498,60.847 214.679,61.000 216.000 C 61.153 217.321,61.441 218.502,61.639 218.624 C 61.838 218.747,62.000 219.366,62.000 220.000 C 62.000 220.634,62.162 221.253,62.361 221.376 C 62.559 221.498,62.847 222.679,63.000 224.000 C 63.153 225.321,63.441 226.502,63.639 226.624 C 63.838 226.747,64.000 227.366,64.000 228.000 C 64.000 228.634,64.162 229.253,64.361 229.376 C 64.559 229.498,64.847 230.679,65.000 232.000 C 65.153 233.321,65.441 234.502,65.639 234.624 C 65.838 234.747,66.000 235.366,66.000 236.000 C 66.000 236.634,66.156 237.249,66.347 237.367 C 66.538 237.485,66.813 238.479,66.959 239.575 C 67.104 240.670,67.398 241.675,67.612 241.807 C 67.825 241.939,68.000 242.566,68.000 243.200 C 68.000 243.834,68.162 244.453,68.361 244.576 C 68.559 244.698,68.847 245.879,69.000 247.200 C 69.153 248.521,69.441 249.702,69.639 249.824 C 69.838 249.947,70.000 250.566,70.000 251.200 C 70.000 251.834,70.162 252.453,70.361 252.576 C 70.559 252.698,70.847 253.879,71.000 255.200 C 71.153 256.521,71.441 257.702,71.639 257.824 C 71.838 257.947,72.000 258.566,72.000 259.200 C 72.000 259.834,72.162 260.453,72.361 260.576 C 72.559 260.698,72.847 261.879,73.000 263.200 C 73.153 264.521,73.441 265.702,73.639 265.824 C 73.838 265.947,74.000 266.566,74.000 267.200 C 74.000 267.834,74.162 268.453,74.361 268.576 C 74.559 268.698,74.847 269.879,75.000 271.200 C 75.153 272.521,75.441 273.702,75.639 273.824 C 75.838 273.947,76.000 274.476,76.000 275.000 C 76.000 275.524,76.162 276.053,76.361 276.176 C 76.559 276.298,76.847 277.479,77.000 278.800 C 77.153 280.121,77.441 281.302,77.639 281.424 C 77.838 281.547,78.000 282.166,78.000 282.800 C 78.000 283.434,78.162 284.053,78.361 284.176 C 78.559 284.298,78.847 285.479,79.000 286.800 C 79.153 288.121,79.441 289.302,79.639 289.424 C 79.838 289.547,80.000 290.166,80.000 290.800 C 80.000 291.434,80.162 292.053,80.361 292.176 C 80.559 292.298,80.847 293.479,81.000 294.800 C 81.153 296.121,81.441 297.302,81.639 297.424 C 81.838 297.547,82.000 298.155,82.000 298.775 C 82.000 300.916,77.057 300.793,173.046 301.036 C 227.900 301.174,263.312 301.409,263.800 301.639 C 264.284 301.866,276.073 301.973,293.600 301.908 L 322.600 301.800 323.000 299.732 C 323.220 298.595,323.535 297.530,323.700 297.366 C 323.865 297.201,324.000 296.567,324.000 295.957 C 324.000 295.347,324.162 294.747,324.361 294.624 C 324.559 294.502,324.847 293.321,325.000 292.000 C 325.153 290.679,325.441 289.498,325.639 289.376 C 325.838 289.253,326.000 288.454,326.000 287.600 C 326.000 286.746,326.162 285.947,326.361 285.824 C 326.559 285.702,326.847 284.521,327.000 283.200 C 327.153 281.879,327.441 280.698,327.639 280.576 C 327.838 280.453,328.000 279.834,328.000 279.200 C 328.000 278.566,328.162 277.947,328.361 277.824 C 328.559 277.702,328.847 276.521,329.000 275.200 C 329.153 273.879,329.441 272.698,329.639 272.576 C 329.838 272.453,330.000 271.744,330.000 271.000 C 330.000 270.256,330.162 269.547,330.361 269.424 C 330.559 269.302,330.847 268.121,331.000 266.800 C 331.153 265.479,331.441 264.298,331.639 264.176 C 331.838 264.053,332.000 263.434,332.000 262.800 C 332.000 262.166,332.162 261.547,332.361 261.424 C 332.559 261.302,332.847 260.121,333.000 258.800 C 333.153 257.479,333.441 256.298,333.639 256.176 C 333.838 256.053,334.000 255.254,334.000 254.400 C 334.000 253.546,334.162 252.747,334.361 252.624 C 334.559 252.502,334.847 251.321,335.000 250.000 C 335.153 248.679,335.441 247.498,335.639 247.376 C 335.838 247.253,336.000 246.634,336.000 246.000 C 336.000 245.366,336.162 244.747,336.361 244.624 C 336.559 244.502,336.847 243.321,337.000 242.000 C 337.153 240.679,337.441 239.498,337.639 239.376 C 337.838 239.253,338.000 238.454,338.000 237.600 C 338.000 236.746,338.162 235.947,338.361 235.824 C 338.559 235.702,338.847 234.521,339.000 233.200 C 339.153 231.879,339.441 230.698,339.639 230.576 C 339.838 230.453,340.000 229.834,340.000 229.200 C 340.000 228.566,340.162 227.947,340.361 227.824 C 340.559 227.702,340.847 226.521,341.000 225.200 C 341.153 223.879,341.441 222.698,341.639 222.576 C 341.838 222.453,342.000 221.744,342.000 221.000 C 342.000 220.256,342.162 219.547,342.361 219.424 C 342.559 219.302,342.847 218.121,343.000 216.800 C 343.153 215.479,343.441 214.298,343.639 214.176 C 343.838 214.053,344.000 213.434,344.000 212.800 C 344.000 212.166,344.162 211.547,344.361 211.424 C 344.559 211.302,344.847 210.121,345.000 208.800 C 345.153 207.479,345.441 206.298,345.639 206.176 C 345.838 206.053,346.000 205.254,346.000 204.400 C 346.000 203.546,346.162 202.747,346.361 202.624 C 346.559 202.502,346.847 201.321,347.000 200.000 C 347.153 198.679,347.441 197.498,347.639 197.376 C 347.838 197.253,348.000 196.634,348.000 196.000 C 348.000 195.366,348.162 194.747,348.361 194.624 C 348.559 194.502,348.847 193.321,349.000 192.000 C 349.153 190.679,349.441 189.498,349.639 189.376 C 349.838 189.253,350.000 188.454,350.000 187.600 C 350.000 186.746,350.162 185.947,350.361 185.824 C 350.559 185.702,350.847 184.521,351.000 183.200 C 351.153 181.879,351.441 180.698,351.639 180.576 C 351.838 180.453,352.000 179.834,352.000 179.200 C 352.000 178.566,352.162 177.947,352.361 177.824 C 352.559 177.702,352.847 176.521,353.000 175.200 C 353.153 173.879,353.441 172.698,353.639 172.576 C 353.838 172.453,354.000 171.744,354.000 171.000 C 354.000 170.256,354.162 169.547,354.361 169.424 C 354.559 169.302,354.847 168.121,355.000 166.800 C 355.153 165.479,355.441 164.298,355.639 164.176 C 355.838 164.053,356.000 163.434,356.000 162.800 C 356.000 162.166,356.162 161.547,356.361 161.424 C 356.559 161.302,356.847 160.121,357.000 158.800 C 357.153 157.479,357.441 156.298,357.639 156.176 C 357.838 156.053,358.000 155.254,358.000 154.400 C 358.000 153.546,358.162 152.747,358.361 152.624 C 358.559 152.502,358.847 151.321,359.000 150.000 C 359.153 148.679,359.441 147.498,359.639 147.376 C 359.838 147.253,360.000 146.634,360.000 146.000 C 360.000 145.366,360.162 144.747,360.361 144.624 C 360.559 144.502,360.847 143.321,361.000 142.000 C 361.153 140.679,361.441 139.498,361.639 139.376 C 361.838 139.253,362.000 138.454,362.000 137.600 C 362.000 136.746,362.162 135.947,362.361 135.824 C 362.559 135.702,362.847 134.521,363.000 133.200 C 363.153 131.879,363.441 130.698,363.639 130.576 C 363.838 130.453,364.000 129.834,364.000 129.200 C 364.000 128.566,364.159 127.949,364.353 127.829 C 364.548 127.709,364.835 126.573,364.992 125.305 C 365.149 124.037,365.462 122.775,365.688 122.500 C 366.009 122.108,365.445 122.000,363.073 122.000 C 361.409 122.000,359.952 121.845,359.835 121.656 C 359.718 121.467,358.822 121.202,357.845 121.068 C 356.123 120.832,353.661 119.704,352.369 118.559 C 352.021 118.252,351.580 118.000,351.388 118.000 C 351.195 118.000,350.451 117.431,349.734 116.736 L 348.429 115.471 345.715 118.394 C 344.222 120.002,342.882 121.606,342.738 121.959 C 342.594 122.311,341.649 123.402,340.638 124.383 C 339.627 125.364,338.800 126.327,338.800 126.524 C 338.800 126.720,336.820 128.997,334.400 131.582 C 331.980 134.168,330.000 136.451,330.000 136.654 C 330.000 136.858,328.920 138.094,327.600 139.400 C 326.280 140.706,325.200 141.935,325.200 142.131 C 325.200 142.327,323.310 144.514,321.000 146.991 C 318.690 149.468,316.800 151.659,316.800 151.860 C 316.800 152.061,315.720 153.294,314.400 154.600 C 313.080 155.906,312.000 157.142,312.000 157.346 C 312.000 157.549,310.020 159.832,307.600 162.418 C 305.180 165.003,303.200 167.279,303.200 167.475 C 303.200 167.670,302.300 168.717,301.200 169.800 C 300.100 170.883,299.200 171.935,299.200 172.138 C 299.200 172.340,297.130 174.712,294.600 177.408 C 292.070 180.105,290.000 182.473,290.000 182.671 C 290.000 182.868,289.100 183.917,288.000 185.000 C 286.900 186.083,286.000 187.130,286.000 187.325 C 286.000 187.521,284.020 189.797,281.600 192.382 C 279.180 194.968,277.200 197.251,277.200 197.456 C 277.200 197.660,276.210 198.805,275.000 200.000 C 273.790 201.195,272.800 202.328,272.800 202.518 C 272.800 202.707,271.315 204.480,269.500 206.456 C 267.685 208.432,266.103 210.443,265.984 210.924 C 265.680 212.156,263.084 212.317,261.300 211.215 L 260.000 210.412 260.000 206.629 C 260.000 204.549,259.843 202.750,259.651 202.631 C 259.459 202.513,259.169 197.011,259.007 190.404 C 258.844 183.798,258.551 178.294,258.356 178.173 C 258.160 178.052,258.000 175.184,258.000 171.800 C 258.000 168.416,257.842 165.550,257.649 165.431 C 257.457 165.311,257.166 159.719,257.003 153.002 C 256.841 146.286,256.549 140.692,256.354 140.572 C 256.159 140.451,256.000 137.584,256.000 134.200 C 256.000 130.816,255.843 127.950,255.651 127.831 C 255.459 127.713,255.169 122.211,255.007 115.604 C 254.844 108.998,254.551 103.494,254.356 103.373 C 254.160 103.252,254.000 100.384,254.000 97.000 C 254.000 93.330,253.839 90.747,253.600 90.600 C 253.380 90.464,253.200 89.193,253.200 87.776 L 253.200 85.200 251.500 85.195 C 250.565 85.192,249.395 85.081,248.900 84.948 C 248.180 84.755,248.000 84.871,248.000 85.530 C 248.000 85.982,247.844 86.449,247.653 86.568 C 247.461 86.686,247.188 87.514,247.045 88.409 C 246.902 89.303,246.623 90.342,246.426 90.717 C 245.598 92.293,244.800 94.363,244.800 94.937 C 244.800 95.276,244.620 95.664,244.400 95.800 C 244.180 95.936,244.000 96.476,244.000 97.000 C 244.000 97.524,243.840 98.051,243.645 98.172 C 243.450 98.293,243.170 99.037,243.022 99.826 C 242.874 100.615,242.425 101.844,242.024 102.557 C 241.623 103.271,241.174 104.472,241.025 105.227 C 240.764 106.547,240.304 107.820,239.553 109.295 C 239.359 109.677,239.200 110.189,239.200 110.434 C 239.200 110.679,238.912 111.536,238.559 112.340 C 237.374 115.041,237.248 115.395,236.972 116.787 C 236.822 117.550,236.556 118.450,236.383 118.787 C 235.563 120.381,234.800 122.380,234.800 122.937 C 234.800 123.276,234.620 123.664,234.400 123.800 C 234.180 123.936,234.000 124.476,234.000 125.000 C 234.000 125.524,233.840 126.051,233.645 126.172 C 233.450 126.293,233.170 127.037,233.022 127.826 C 232.874 128.615,232.425 129.844,232.024 130.557 C 231.623 131.271,231.174 132.472,231.025 133.227 C 230.768 134.525,230.319 135.777,229.581 137.251 C 229.401 137.609,229.127 138.599,228.972 139.451 C 228.816 140.303,228.379 141.450,228.000 142.000 C 227.621 142.550,227.184 143.697,227.028 144.549 C 226.873 145.401,226.578 146.436,226.373 146.849 C 226.168 147.262,225.820 147.958,225.600 148.395 C 225.380 148.832,225.200 149.517,225.200 149.918 C 225.200 150.319,224.936 150.996,224.613 151.424 C 224.290 151.851,224.020 152.594,224.013 153.076 C 224.006 153.558,223.836 154.054,223.635 154.178 C 223.434 154.303,223.148 155.122,223.000 156.000 C 222.852 156.878,222.566 157.697,222.365 157.822 C 222.164 157.946,221.994 158.442,221.987 158.924 C 221.980 159.406,221.710 160.149,221.387 160.576 C 221.064 161.004,220.800 161.681,220.800 162.082 C 220.800 162.483,220.620 163.168,220.400 163.605 C 220.180 164.042,219.832 164.738,219.627 165.151 C 219.422 165.564,219.127 166.599,218.972 167.451 C 218.816 168.303,218.379 169.450,218.000 170.000 C 217.621 170.550,217.184 171.697,217.028 172.549 C 216.873 173.401,216.578 174.436,216.373 174.849 C 216.168 175.262,215.820 175.958,215.600 176.395 C 215.380 176.832,215.200 177.517,215.200 177.918 C 215.200 178.319,214.936 178.996,214.613 179.424 C 214.290 179.851,214.020 180.594,214.013 181.076 C 214.006 181.558,213.836 182.054,213.635 182.178 C 213.434 182.303,213.148 183.122,213.000 184.000 C 212.852 184.878,212.566 185.697,212.365 185.822 C 212.164 185.946,211.994 186.442,211.987 186.924 C 211.980 187.406,211.710 188.149,211.387 188.576 C 211.064 189.004,210.800 189.681,210.800 190.082 C 210.800 190.483,210.620 191.168,210.400 191.605 C 210.180 192.042,209.832 192.738,209.627 193.151 C 209.422 193.564,209.127 194.599,208.972 195.451 C 208.816 196.303,208.379 197.450,208.000 198.000 C 207.621 198.550,207.184 199.697,207.028 200.549 C 206.873 201.401,206.578 202.436,206.373 202.849 C 206.168 203.262,205.820 203.958,205.600 204.395 C 205.380 204.832,205.200 205.517,205.200 205.918 C 205.200 206.319,204.936 206.996,204.613 207.424 C 204.290 207.851,204.020 208.594,204.013 209.076 C 204.006 209.558,203.836 210.054,203.635 210.178 C 203.434 210.303,203.148 211.122,203.000 212.000 C 202.852 212.878,202.566 213.697,202.365 213.822 C 202.164 213.946,202.000 214.481,202.000 215.010 C 202.000 218.302,195.828 220.087,194.983 217.039 C 194.854 216.578,194.557 215.750,194.321 215.200 C 193.421 213.098,193.238 212.559,192.972 211.213 C 192.822 210.450,192.562 209.550,192.396 209.213 C 191.663 207.728,191.228 206.504,190.972 205.213 C 190.822 204.450,190.562 203.550,190.396 203.213 C 189.663 201.728,189.228 200.504,188.972 199.213 C 188.822 198.450,188.562 197.550,188.396 197.213 C 187.663 195.728,187.228 194.504,186.972 193.213 C 186.822 192.450,186.562 191.550,186.396 191.213 C 185.663 189.728,185.228 188.504,184.972 187.213 C 184.822 186.450,184.562 185.550,184.396 185.213 C 183.663 183.728,183.228 182.504,182.972 181.213 C 182.822 180.450,182.562 179.550,182.396 179.213 C 181.663 177.728,181.228 176.504,180.972 175.213 C 180.822 174.450,180.562 173.550,180.396 173.213 C 179.663 171.728,179.228 170.504,178.972 169.213 C 178.822 168.450,178.562 167.550,178.396 167.213 C 177.663 165.728,177.228 164.504,176.972 163.213 C 176.822 162.450,176.562 161.550,176.396 161.213 C 175.663 159.728,175.228 158.504,174.972 157.213 C 174.822 156.450,174.562 155.550,174.396 155.213 C 173.584 153.567,173.222 152.450,172.973 150.815 C 172.824 149.834,172.543 148.709,172.351 148.315 C 172.158 147.922,171.843 147.279,171.651 146.887 C 171.459 146.495,171.178 145.550,171.028 144.787 C 170.772 143.496,170.337 142.272,169.604 140.787 C 169.438 140.450,169.178 139.550,169.028 138.787 C 168.772 137.496,168.337 136.272,167.604 134.787 C 167.438 134.450,167.178 133.550,167.028 132.787 C 166.772 131.496,166.337 130.272,165.604 128.787 C 165.438 128.450,165.178 127.550,165.028 126.787 C 164.772 125.496,164.337 124.272,163.604 122.787 C 163.438 122.450,163.178 121.550,163.028 120.787 C 162.772 119.496,162.337 118.272,161.604 116.787 C 161.438 116.450,161.178 115.550,161.028 114.787 C 160.772 113.496,160.337 112.272,159.604 110.787 C 159.438 110.450,159.178 109.550,159.028 108.787 C 158.772 107.496,158.337 106.272,157.604 104.787 C 157.438 104.450,157.178 103.550,157.028 102.787 C 156.772 101.496,156.337 100.272,155.604 98.787 C 155.438 98.450,155.178 97.550,155.028 96.787 C 154.772 95.496,154.337 94.272,153.604 92.787 C 153.438 92.450,153.178 91.550,153.028 90.787 C 152.765 89.460,152.309 88.194,151.561 86.717 C 151.371 86.342,151.098 85.262,150.954 84.317 C 150.542 81.599,146.581 79.690,145.381 81.631 M358.800 87.034 C 357.936 87.357,356.808 87.827,355.140 88.559 C 354.336 88.912,353.517 89.200,353.318 89.200 C 352.842 89.200,350.448 91.683,349.782 92.867 C 349.309 93.709,348.977 94.380,347.459 97.563 C 346.837 98.866,346.867 105.999,347.500 107.340 C 347.775 107.923,348.216 108.895,348.480 109.500 C 349.069 110.849,351.189 113.200,351.816 113.200 C 352.069 113.200,352.602 113.560,353.000 114.000 C 353.398 114.440,354.011 114.801,354.362 114.802 C 354.713 114.804,355.516 115.074,356.146 115.402 C 356.776 115.731,357.710 116.000,358.222 116.000 C 358.734 116.000,359.264 116.180,359.400 116.400 C 359.536 116.620,361.156 116.800,363.000 116.800 C 364.844 116.800,366.464 116.620,366.600 116.400 C 366.736 116.180,367.366 116.000,368.000 116.000 C 368.634 116.000,369.251 115.840,369.372 115.645 C 369.493 115.450,370.198 115.177,370.941 115.038 C 371.683 114.898,372.613 114.428,373.007 113.992 C 373.401 113.556,373.927 113.200,374.176 113.200 C 375.291 113.200,378.723 109.002,378.996 107.302 C 379.147 106.368,379.434 105.503,379.635 105.378 C 380.100 105.091,380.116 99.719,379.653 99.432 C 379.461 99.314,379.195 98.528,379.060 97.685 C 378.547 94.479,374.744 89.674,372.217 89.040 C 371.575 88.879,370.523 88.372,369.880 87.914 C 368.710 87.081,360.433 86.424,358.800 87.034 M33.619 90.765 C 33.300 90.975,32.877 91.048,32.681 90.926 C 32.484 90.805,31.936 90.889,31.462 91.112 C 30.988 91.336,29.921 91.817,29.091 92.182 C 28.261 92.548,27.686 93.016,27.814 93.223 C 27.942 93.430,27.659 93.600,27.184 93.600 C 26.066 93.600,23.600 96.066,23.600 97.184 C 23.600 97.659,23.425 97.939,23.212 97.807 C 22.783 97.542,21.600 100.067,21.600 101.249 C 21.600 101.662,21.420 102.000,21.200 102.000 C 20.975 102.000,20.800 103.125,20.800 104.576 C 20.800 105.993,20.980 107.264,21.200 107.400 C 21.420 107.536,21.600 108.007,21.600 108.447 C 21.600 108.887,21.760 109.149,21.955 109.028 C 22.150 108.908,22.404 109.172,22.520 109.616 C 22.636 110.060,22.963 110.373,23.247 110.311 C 23.531 110.250,23.772 110.452,23.782 110.760 C 23.792 111.068,24.160 111.460,24.600 111.632 C 25.040 111.803,25.220 111.968,25.000 111.997 C 24.780 112.027,25.050 112.247,25.600 112.488 C 26.150 112.728,26.729 112.899,26.886 112.867 C 27.043 112.836,27.068 113.079,26.941 113.409 C 26.777 113.837,26.896 113.938,27.355 113.762 C 27.710 113.626,28.000 113.681,28.000 113.885 C 28.000 114.089,28.900 114.500,30.000 114.800 C 31.100 115.100,32.000 115.492,32.000 115.672 C 32.000 115.853,33.800 116.000,36.000 116.000 C 38.200 116.000,40.000 115.853,40.000 115.672 C 40.000 115.492,40.900 115.100,42.000 114.800 C 43.100 114.500,44.000 114.089,44.000 113.885 C 44.000 113.681,44.290 113.626,44.645 113.762 C 45.104 113.938,45.223 113.837,45.059 113.409 C 44.932 113.079,44.957 112.836,45.114 112.867 C 45.271 112.899,45.850 112.728,46.400 112.488 C 46.950 112.247,47.220 112.027,47.000 111.997 C 46.780 111.968,46.960 111.803,47.400 111.632 C 47.840 111.460,48.200 111.068,48.200 110.760 C 48.200 110.452,48.452 110.200,48.760 110.200 C 49.068 110.200,49.460 109.840,49.632 109.400 C 49.803 108.960,49.958 108.780,49.974 109.000 C 49.991 109.220,50.273 108.886,50.600 108.258 C 50.928 107.630,51.096 106.955,50.974 106.758 C 50.852 106.561,51.044 106.400,51.400 106.400 C 51.756 106.400,51.935 106.219,51.798 105.997 C 51.661 105.776,51.831 105.486,52.175 105.354 C 53.641 104.792,52.828 98.984,51.100 97.682 C 50.715 97.392,50.400 96.884,50.400 96.554 C 50.400 96.223,50.233 96.056,50.029 96.182 C 49.825 96.308,49.545 96.058,49.408 95.626 C 49.253 95.138,48.933 94.927,48.563 95.069 C 48.235 95.195,47.996 95.141,48.031 94.949 C 48.183 94.115,47.961 93.600,47.449 93.600 C 47.146 93.600,46.674 93.330,46.400 93.000 C 46.126 92.670,45.564 92.400,45.151 92.400 C 44.738 92.400,44.400 92.220,44.400 92.000 C 44.400 91.780,44.070 91.600,43.667 91.600 C 43.263 91.600,42.808 91.475,42.655 91.322 C 41.929 90.596,34.565 90.142,33.619 90.765 M83.410 304.384 C 83.280 304.595,83.387 305.180,83.649 305.684 C 84.621 307.555,84.732 307.920,85.010 310.141 C 85.166 311.389,85.452 312.509,85.647 312.629 C 85.841 312.749,86.000 313.377,86.000 314.024 L 86.000 315.200 113.176 315.200 C 130.863 315.200,140.439 315.340,140.600 315.600 C 140.763 315.864,161.863 316.000,202.600 316.000 C 243.337 316.000,264.437 316.136,264.600 316.400 C 264.761 316.660,274.337 316.800,292.024 316.800 L 319.200 316.800 319.200 315.624 C 319.200 314.977,319.380 314.336,319.600 314.200 C 319.820 314.064,320.000 313.434,320.000 312.800 C 320.000 312.166,320.159 311.549,320.353 311.429 C 320.548 311.309,320.835 310.173,320.992 308.905 C 321.149 307.637,321.448 306.391,321.658 306.136 C 322.413 305.216,320.070 305.184,231.411 304.928 C 181.996 304.784,141.472 304.517,141.359 304.334 C 141.063 303.855,83.706 303.905,83.410 304.384 M87.200 319.589 C 87.200 320.009,87.380 320.464,87.600 320.600 C 87.820 320.736,88.000 321.366,88.000 322.000 C 88.000 322.634,88.162 323.253,88.361 323.376 C 88.559 323.498,88.847 324.679,89.000 326.000 C 89.153 327.321,89.441 328.502,89.639 328.624 C 89.838 328.747,90.000 329.341,90.000 329.944 C 90.000 332.020,89.837 332.000,106.456 332.000 C 114.979 332.000,122.050 332.158,122.169 332.350 C 122.291 332.547,157.248 332.832,202.000 333.000 C 246.752 333.168,281.709 333.453,281.831 333.650 C 282.184 334.222,314.144 334.096,314.720 333.520 C 314.984 333.256,315.200 332.547,315.200 331.944 C 315.200 331.341,315.380 330.736,315.600 330.600 C 315.820 330.464,316.000 329.834,316.000 329.200 C 316.000 328.566,316.162 327.947,316.361 327.824 C 316.559 327.702,316.847 326.521,317.000 325.200 C 317.153 323.879,317.441 322.698,317.639 322.576 C 317.838 322.453,318.000 321.823,318.000 321.176 L 318.000 320.000 291.480 320.000 C 276.894 320.000,264.789 319.843,264.580 319.651 C 263.676 318.820,87.200 318.759,87.200 319.589 " stroke="none" fill="#242424" fill-rule="evenodd"></path></g></svg>