<svg id="svg" version="1.1" xmlns="http://www.w3.org/2000/svg" xmlns:xlink="http://www.w3.org/1999/xlink" width="400" height="400" viewBox="0, 0, 400,400"><g id="svgg"><path id="path0" d="M90.400 95.400 L 90.400 155.600 111.800 155.600 L 133.200 155.600 133.200 163.600 C 133.200 170.444,133.287 171.600,133.800 171.600 C 134.330 171.600,134.400 177.756,134.400 224.600 L 134.400 277.600 109.800 277.600 L 85.200 277.600 85.200 279.600 C 85.200 281.163,85.061 281.600,84.563 281.600 C 84.212 281.600,83.831 281.960,83.716 282.400 C 83.601 282.840,83.258 283.200,82.953 283.200 C 82.605 283.200,82.400 283.645,82.400 284.400 C 82.400 285.200,82.200 285.600,81.800 285.600 C 81.467 285.600,81.200 285.956,81.200 286.400 C 81.200 286.933,80.933 287.200,80.400 287.200 C 79.778 287.200,79.600 287.467,79.600 288.400 C 79.600 289.200,79.400 289.600,79.000 289.600 C 78.667 289.600,78.400 289.956,78.400 290.400 C 78.400 290.844,78.133 291.200,77.800 291.200 C 77.470 291.200,77.200 291.449,77.200 291.753 C 77.200 292.058,76.840 292.401,76.400 292.516 C 75.817 292.668,75.600 293.062,75.600 293.963 C 75.600 294.796,75.404 295.200,75.000 295.200 C 74.670 295.200,74.400 295.470,74.400 295.800 C 74.400 296.130,74.130 296.400,73.800 296.400 C 73.381 296.400,73.200 296.822,73.200 297.800 C 73.200 298.933,73.048 299.200,72.400 299.200 C 71.956 299.200,71.600 299.467,71.600 299.800 C 71.600 300.130,71.330 300.400,71.000 300.400 C 70.581 300.400,70.400 300.822,70.400 301.800 C 70.400 302.778,70.219 303.200,69.800 303.200 C 69.470 303.200,69.200 303.449,69.200 303.753 C 69.200 304.058,68.840 304.401,68.400 304.516 C 67.658 304.710,67.600 305.062,67.600 309.400 C 67.600 313.738,67.658 314.090,68.400 314.284 C 68.840 314.399,69.200 314.742,69.200 315.047 C 69.200 315.351,69.470 315.600,69.800 315.600 C 70.286 315.600,70.400 316.244,70.400 319.000 C 70.400 321.756,70.514 322.400,71.000 322.400 C 71.446 322.400,71.600 322.871,71.600 324.237 C 71.600 325.738,71.746 326.113,72.400 326.284 C 73.095 326.466,73.200 326.830,73.200 329.047 C 73.200 331.050,73.329 331.600,73.800 331.600 C 74.272 331.600,74.400 332.156,74.400 334.200 C 74.400 336.244,74.528 336.800,75.000 336.800 C 75.473 336.800,75.600 337.360,75.600 339.437 C 75.600 341.738,75.702 342.102,76.400 342.284 C 77.095 342.466,77.200 342.830,77.200 345.047 C 77.200 347.050,77.329 347.600,77.800 347.600 C 78.272 347.600,78.400 348.156,78.400 350.200 C 78.400 352.244,78.528 352.800,79.000 352.800 C 79.493 352.800,79.600 353.511,79.600 356.800 C 79.600 360.533,79.653 360.800,80.400 360.800 C 81.048 360.800,81.200 361.067,81.200 362.200 C 81.200 363.178,81.381 363.600,81.800 363.600 C 82.130 363.600,82.400 363.870,82.400 364.200 C 82.400 364.732,95.889 364.800,201.400 364.800 C 306.911 364.800,320.400 364.732,320.400 364.200 C 320.400 363.870,320.670 363.600,321.000 363.600 C 321.499 363.600,321.600 362.822,321.600 359.000 C 321.600 355.178,321.701 354.400,322.200 354.400 C 322.676 354.400,322.800 353.822,322.800 351.600 C 322.800 349.067,322.876 348.800,323.600 348.800 C 324.318 348.800,324.400 348.533,324.400 346.200 C 324.400 344.156,324.528 343.600,325.000 343.600 C 325.486 343.600,325.600 342.956,325.600 340.200 C 325.600 337.444,325.714 336.800,326.200 336.800 C 326.595 336.800,326.800 336.405,326.800 335.647 C 326.800 334.830,327.033 334.432,327.600 334.284 C 328.330 334.093,328.400 333.738,328.400 330.237 C 328.400 327.093,328.508 326.400,329.000 326.400 C 329.486 326.400,329.600 325.756,329.600 323.000 C 329.600 320.244,329.714 319.600,330.200 319.600 C 330.530 319.600,330.800 319.351,330.800 319.047 C 330.800 318.742,331.160 318.399,331.600 318.284 C 332.828 317.963,332.828 310.037,331.600 309.716 C 331.160 309.601,330.800 309.258,330.800 308.953 C 330.800 308.649,330.530 308.400,330.200 308.400 C 329.870 308.400,329.600 308.130,329.600 307.800 C 329.600 307.470,329.330 307.200,329.000 307.200 C 328.596 307.200,328.400 306.796,328.400 305.963 C 328.400 305.062,328.183 304.668,327.600 304.516 C 327.160 304.401,326.800 304.058,326.800 303.753 C 326.800 303.449,326.530 303.200,326.200 303.200 C 325.781 303.200,325.600 302.778,325.600 301.800 C 325.600 300.822,325.419 300.400,325.000 300.400 C 324.670 300.400,324.400 300.130,324.400 299.800 C 324.400 299.467,324.044 299.200,323.600 299.200 C 322.952 299.200,322.800 298.933,322.800 297.800 C 322.800 296.822,322.619 296.400,322.200 296.400 C 321.870 296.400,321.600 296.130,321.600 295.800 C 321.600 295.470,321.330 295.200,321.000 295.200 C 320.581 295.200,320.400 294.778,320.400 293.800 C 320.400 292.667,320.248 292.400,319.600 292.400 C 318.952 292.400,318.800 292.133,318.800 291.000 C 318.800 290.022,318.619 289.600,318.200 289.600 C 317.870 289.600,317.600 289.330,317.600 289.000 C 317.600 288.670,317.330 288.400,317.000 288.400 C 316.596 288.400,316.400 287.996,316.400 287.163 C 316.400 286.262,316.183 285.868,315.600 285.716 C 315.160 285.601,314.800 285.258,314.800 284.953 C 314.800 284.649,314.530 284.400,314.200 284.400 C 313.781 284.400,313.600 283.978,313.600 283.000 C 313.600 282.022,313.419 281.600,313.000 281.600 C 312.670 281.600,312.400 281.330,312.400 281.000 C 312.400 280.476,310.133 280.400,294.400 280.400 C 278.667 280.400,276.400 280.324,276.400 279.800 C 276.400 279.314,275.756 279.200,273.000 279.200 L 269.600 279.200 269.600 217.400 L 269.600 155.600 293.000 155.600 L 316.400 155.600 316.400 96.000 L 316.400 36.400 290.000 36.400 L 263.600 36.400 263.600 54.400 L 263.600 72.400 249.200 72.400 L 234.800 72.400 234.800 53.800 L 234.800 35.200 205.200 35.200 L 175.600 35.200 175.600 53.800 L 175.600 72.400 161.200 72.400 L 146.800 72.400 146.800 53.800 L 146.800 35.200 118.600 35.200 L 90.400 35.200 90.400 95.400 M138.706 57.700 L 138.600 70.600 119.400 70.600 L 100.200 70.600 100.094 57.700 L 99.989 44.800 119.400 44.800 L 138.811 44.800 138.706 57.700 M226.800 58.000 L 226.800 71.200 206.000 71.200 L 185.200 71.200 185.200 58.000 L 185.200 44.800 206.000 44.800 L 226.800 44.800 226.800 58.000 M306.706 58.700 L 306.600 70.600 289.700 70.704 L 272.800 70.809 272.800 58.804 L 272.800 46.800 289.806 46.800 L 306.812 46.800 306.706 58.700 M299.903 115.287 L 300.006 139.175 216.503 139.287 C 170.576 139.349,127.375 139.350,120.500 139.289 L 108.000 139.178 108.000 115.456 C 108.000 102.408,108.120 91.613,108.267 91.466 C 108.415 91.319,151.570 91.244,204.167 91.299 L 299.800 91.400 299.903 115.287 M252.935 175.866 C 253.081 187.452,253.200 208.321,253.200 222.242 C 253.200 238.684,253.340 247.639,253.600 247.800 C 253.856 247.958,254.000 253.804,254.000 264.024 L 254.000 280.000 226.824 280.000 C 209.137 280.000,199.561 279.860,199.400 279.600 C 199.239 279.340,190.396 279.200,174.176 279.200 L 149.200 279.200 149.200 262.900 C 149.200 253.935,149.080 225.945,148.934 200.700 L 148.668 154.800 200.668 154.800 L 252.669 154.800 252.935 175.866 M197.780 299.651 C 197.990 299.844,213.153 300.000,231.656 300.000 C 253.556 300.000,265.238 300.138,265.400 300.400 C 265.558 300.656,271.309 300.800,281.339 300.800 L 297.031 300.800 298.515 302.576 C 299.332 303.553,300.000 304.508,300.000 304.698 C 300.000 304.888,300.630 305.654,301.400 306.400 C 302.170 307.146,302.808 307.947,302.817 308.178 C 302.826 308.410,303.536 309.399,304.394 310.376 C 305.251 311.353,305.863 312.298,305.753 312.476 C 305.456 312.957,288.499 312.883,288.200 312.400 C 288.043 312.147,283.204 312.000,275.000 312.000 C 267.876 312.000,261.954 311.849,261.839 311.664 C 261.725 311.479,224.162 311.222,178.366 311.094 C 119.769 310.930,94.973 310.733,94.670 310.430 C 94.434 310.194,93.708 310.000,93.058 310.000 C 91.938 310.000,91.911 309.961,92.538 309.269 C 92.902 308.866,93.200 308.354,93.200 308.130 C 93.200 307.907,93.560 307.398,94.000 307.000 C 94.440 306.602,94.800 306.111,94.800 305.910 C 94.800 305.708,95.476 304.701,96.302 303.672 C 98.065 301.473,98.736 300.458,99.057 299.503 C 99.316 298.734,196.940 298.880,197.780 299.651 M139.420 314.364 C 139.644 314.578,169.004 314.784,210.881 314.865 C 266.963 314.974,282.068 315.108,282.461 315.501 C 283.077 316.117,291.826 316.205,292.200 315.600 C 292.585 314.978,307.669 315.076,308.889 315.709 C 310.487 316.538,313.600 319.451,313.600 320.118 C 313.600 321.161,312.338 325.770,311.908 326.300 C 311.387 326.941,262.995 327.039,262.600 326.400 C 262.437 326.136,241.337 326.000,200.600 326.000 C 159.863 326.000,138.763 325.864,138.600 325.600 C 138.440 325.341,130.090 325.200,114.859 325.200 L 91.365 325.200 90.866 322.700 C 90.592 321.325,90.170 319.274,89.930 318.142 C 89.689 317.010,89.610 315.615,89.754 315.042 L 90.015 314.000 114.528 314.000 C 128.684 314.000,139.201 314.154,139.420 314.364 M262.580 329.650 C 262.789 329.842,273.810 330.000,287.070 330.000 L 311.180 330.000 310.931 331.300 C 310.793 332.015,310.359 333.062,309.966 333.626 C 309.269 334.626,307.748 340.195,307.516 342.600 L 307.400 343.800 293.847 343.905 C 286.198 343.965,280.100 343.853,279.847 343.649 C 279.587 343.439,246.190 343.168,200.000 343.000 C 155.726 342.839,120.408 342.557,120.166 342.362 C 119.928 342.169,114.258 341.964,107.566 341.906 L 95.400 341.800 95.169 339.107 C 95.035 337.554,94.676 336.115,94.320 335.707 C 93.981 335.318,93.580 334.010,93.429 332.800 C 93.279 331.590,93.059 330.207,92.941 329.727 L 92.727 328.854 177.463 329.076 C 225.042 329.202,262.367 329.453,262.580 329.650 " stroke="none" fill="#fbfbfb" fill-rule="evenodd"></path><path id="path1" d="M100.094 57.700 L 100.200 70.600 119.400 70.600 L 138.600 70.600 138.706 57.700 L 138.811 44.800 119.400 44.800 L 99.989 44.800 100.094 57.700 M185.200 58.000 L 185.200 71.200 206.000 71.200 L 226.800 71.200 226.800 58.000 L 226.800 44.800 206.000 44.800 L 185.200 44.800 185.200 58.000 M272.800 58.804 L 272.800 70.809 289.700 70.704 L 306.600 70.600 306.706 58.700 L 306.812 46.800 289.806 46.800 L 272.800 46.800 272.800 58.804 M108.267 91.466 C 108.120 91.613,108.000 102.408,108.000 115.456 L 108.000 139.178 120.500 139.289 C 127.375 139.350,170.576 139.349,216.503 139.287 L 300.006 139.175 299.903 115.287 L 299.800 91.400 204.167 91.299 C 151.570 91.244,108.415 91.319,108.267 91.466 M148.934 200.700 C 149.080 225.945,149.200 253.935,149.200 262.900 L 149.200 279.200 174.176 279.200 C 190.396 279.200,199.239 279.340,199.400 279.600 C 199.561 279.860,209.137 280.000,226.824 280.000 L 254.000 280.000 254.000 264.024 C 254.000 253.804,253.856 247.958,253.600 247.800 C 253.340 247.639,253.200 238.684,253.200 222.242 C 253.200 208.321,253.081 187.452,252.935 175.866 L 252.669 154.800 200.668 154.800 L 148.668 154.800 148.934 200.700 M99.057 299.503 C 98.736 300.458,98.065 301.473,96.302 303.672 C 95.476 304.701,94.800 305.708,94.800 305.910 C 94.800 306.111,94.440 306.602,94.000 307.000 C 93.560 307.398,93.200 307.907,93.200 308.130 C 93.200 308.354,92.902 308.866,92.538 309.269 C 91.911 309.961,91.938 310.000,93.058 310.000 C 93.708 310.000,94.434 310.194,94.670 310.430 C 94.973 310.733,119.769 310.930,178.366 311.094 C 224.162 311.222,261.725 311.479,261.839 311.664 C 261.954 311.849,267.876 312.000,275.000 312.000 C 283.204 312.000,288.043 312.147,288.200 312.400 C 288.499 312.883,305.456 312.957,305.753 312.476 C 305.863 312.298,305.251 311.353,304.394 310.376 C 303.536 309.399,302.826 308.410,302.817 308.178 C 302.808 307.947,302.170 307.146,301.400 306.400 C 300.630 305.654,300.000 304.888,300.000 304.698 C 300.000 304.508,299.332 303.553,298.515 302.576 L 297.031 300.800 281.339 300.800 C 271.309 300.800,265.558 300.656,265.400 300.400 C 265.238 300.138,253.556 300.000,231.656 300.000 C 213.153 300.000,197.990 299.844,197.780 299.651 C 196.940 298.880,99.316 298.734,99.057 299.503 M89.754 315.042 C 89.610 315.615,89.689 317.010,89.930 318.142 C 90.170 319.274,90.592 321.325,90.866 322.700 L 91.365 325.200 114.859 325.200 C 130.090 325.200,138.440 325.341,138.600 325.600 C 138.763 325.864,159.863 326.000,200.600 326.000 C 241.337 326.000,262.437 326.136,262.600 326.400 C 262.995 327.039,311.387 326.941,311.908 326.300 C 312.338 325.770,313.600 321.161,313.600 320.118 C 313.600 319.451,310.487 316.538,308.889 315.709 C 307.669 315.076,292.585 314.978,292.200 315.600 C 291.826 316.205,283.077 316.117,282.461 315.501 C 282.068 315.108,266.963 314.974,210.881 314.865 C 169.004 314.784,139.644 314.578,139.420 314.364 C 139.201 314.154,128.684 314.000,114.528 314.000 L 90.015 314.000 89.754 315.042 M92.941 329.727 C 93.059 330.207,93.279 331.590,93.429 332.800 C 93.580 334.010,93.981 335.318,94.320 335.707 C 94.676 336.115,95.035 337.554,95.169 339.107 L 95.400 341.800 107.566 341.906 C 114.258 341.964,119.928 342.169,120.166 342.362 C 120.408 342.557,155.726 342.839,200.000 343.000 C 246.190 343.168,279.587 343.439,279.847 343.649 C 280.100 343.853,286.198 343.965,293.847 343.905 L 307.400 343.800 307.516 342.600 C 307.748 340.195,309.269 334.626,309.966 333.626 C 310.359 333.062,310.793 332.015,310.931 331.300 L 311.180 330.000 287.070 330.000 C 273.810 330.000,262.789 329.842,262.580 329.650 C 262.367 329.453,225.042 329.202,177.463 329.076 L 92.727 328.854 92.941 329.727 " stroke="none" fill="#242424" fill-rule="evenodd"></path></g></svg>